<?xml version="1.0" encoding="UTF-8"?>
<svg id="Capa_1" xmlns="http://www.w3.org/2000/svg" viewBox="0 0 90.537 90.108">
    <defs>
        <style>
            .cls-1 {
                fill: #2a405b;
            }
        </style>
    </defs>
    <path class="cls-1"
        d="M18.153,6.452h53.599c.39-.396-1.295-7.572,2.747-6.302,2.068.65.826,5.949,1.185,6.302.451.444,8.015-.711,11.832,3.536,1.253,1.394,2.184,3.616,2.376,5.505-1.567,20.991,2.021,44.827.021,65.47-.367,3.791-1.983,6.978-5.515,8.671-26.38.431-53.119.906-79.437-.243C1.843,87.529-.059,84.717.001,80.953L.197,13.313c1.442-3.852,4.984-6.151,8.964-6.796,1.181-.191,4.881.114,5.059-.065.365-.366-.885-5.651,1.186-6.302,4.037-1.268,2.369,5.934,2.746,6.302ZM3.972,25.362h81.962c-.184-5.726,1.8-13.542-5.864-14.233-6.635-.598-3.604.72-4.385,5.169-1.003,5.719-5.936-1.074-3.933-5.125H18.154c1.314,9.689-5.247,9.689-3.932,0-11.897-1.627-10.481,4.945-10.249,14.19ZM3.972,29.303v52.408c0,1.495,3.959,4.818,5.894,4.352,22.383-1.54,47.338,1.988,69.407.021,2.867-.256,6.661-1.848,6.661-5.16V30.485c0-.084-1.099-1.182-1.182-1.182H3.972Z" />
</svg>