<svg width="82.106026" height="82.101425" viewBox="0 0 21.723885 21.722669" version="1.1" id="svg1" xml:space="preserve" xmlns:inkscape="http://www.inkscape.org/namespaces/inkscape" xmlns:sodipodi="http://sodipodi.sourceforge.net/DTD/sodipodi-0.dtd" xmlns="http://www.w3.org/2000/svg" xmlns:svg="http://www.w3.org/2000/svg">
  <g id="layer1" transform="translate(-1.0443074,-1.0449151)">
    <path style="fill:#2a405b;stroke-width:0.320624"
      d="M 7.8292312,22.658846 C 7.4128575,22.527613 6.7027624,21.792306 6.5750886,21.360186 6.5026652,21.115052 6.4719189,20.121837 6.4719189,18.026685 v -2.984332 l 0.208224,-0.208223 c 0.1312598,-0.13126 0.3051461,-0.208224 0.4704301,-0.208224 0.1652841,0 0.3391757,0.07697 0.4704302,0.208224 l 0.208224,0.208223 v 2.976823 2.976821 l 0.2082227,0.208224 0.208224,0.208223 h 6.3700911 6.370091 l 0.208224,-0.208223 0.208223,-0.208224 V 11.911291 2.8265845 L 21.19408,2.6183618 20.985856,2.4101378 H 14.615765 8.2456739 l -0.208224,0.208224 -0.2082227,0.2082227 v 2.9768229 2.9768215 l -0.208224,0.2082242 c -0.1312598,0.13126 -0.3051461,0.208222 -0.4704302,0.208222 -0.165284,0 -0.3391756,-0.07697 -0.4704301,-0.208222 L 6.4719189,8.7802289 V 5.7958981 c 0,-2.0951536 0.030733,-3.0883678 0.1031697,-3.3335021 0.1376733,-0.4659663 0.8404332,-1.1687261 1.3064008,-1.3063995 0.5012788,-0.1481085 12.9672806,-0.1481085 13.4685606,0 0.465966,0.1376734 1.168726,0.8404332 1.306399,1.3063995 0.148991,0.5042671 0.148991,18.393523 0,18.89779 -0.137673,0.465967 -0.840433,1.168726 -1.306399,1.306401 -0.47199,0.139453 -13.0767216,0.132242 -13.5208188,-0.0077 z m 3.6014918,-6.883855 c -0.134802,-0.134801 -0.208224,-0.304481 -0.208224,-0.481208 0,-0.237575 0.156321,-0.43065 1.205067,-1.488412 l 1.205067,-1.215426 H 7.5458864 1.4591388 L 1.2509161,12.381722 c -0.27547815,-0.275478 -0.27547815,-0.665383 0,-0.940861 L 1.4591388,11.232638 H 7.5458864 13.632633 L 12.427566,10.017212 C 11.410545,8.9914481 11.222499,8.7617226 11.222499,8.5450437 c 0,-0.3616969 0.338148,-0.7056751 0.693714,-0.7056751 0.248789,0 0.474112,0.1964554 2.16726,1.8896035 1.732751,1.7327509 1.889603,1.9139009 1.889603,2.1823189 0,0.268419 -0.156852,0.449568 -1.889603,2.18232 -1.692608,1.692608 -1.918529,1.889602 -2.167065,1.889602 -0.18148,0 -0.349492,-0.07203 -0.485685,-0.208222 z"
      id="path1" />
  </g>
</svg>