<?xml version="1.0" encoding="UTF-8" standalone="no"?>
<!-- Created with Inkscape (http://www.inkscape.org/) -->

<svg width="61.747967" height="83.165138" viewBox="0 0 16.337482 22.004109" version="1.1" id="svg1" xml:space="preserve" inkscape:export-filename="check.svg" inkscape:export-xdpi="7.6999998" inkscape:export-ydpi="7.6999998" xmlns:inkscape="http://www.inkscape.org/namespaces/inkscape" xmlns:sodipodi="http://sodipodi.sourceforge.net/DTD/sodipodi-0.dtd" xmlns="http://www.w3.org/2000/svg"
  xmlns:svg="http://www.w3.org/2000/svg">


  <g inkscape:groupmode="layer" id="layer2" inkscape:label="Capa 2" transform="translate(-3.737508,-0.90419491)">
    <path style="fill:#2a405b;stroke:none;stroke-width:0.346222"
      d="m 5.9816634,9.6680614 c -0.8819885,0.0183 -1.7202569,0.4053846 -2.055308,1.2824636 -0.3121394,0.817097 -0.1432028,1.887429 -0.1432028,2.748138 v 5.679487 c 0,0.969806 -0.1698146,2.072673 0.5592405,2.835785 0.9164584,0.95927 2.5412588,0.645189 3.7461764,0.645189 3.2333695,0 6.4778385,0.07909 9.7100905,-0.0014 0.954902,-0.02376 1.820728,-0.587624 2.044564,-1.555937 0.48222,-2.086084 0.06234,-4.727975 0.06234,-6.870346 0,-1.051577 0.215368,-2.38127 -0.112175,-3.389371 -0.301775,-0.928796 -1.170761,-1.3550706 -2.086339,-1.3740676 0,-2.1685741 0.269331,-4.4443545 -1.047939,-6.3207184 C 14.265505,-0.06227015 8.7885796,0.10291374 6.7431266,3.8052975 5.7438842,5.6139814 5.9816634,7.67634 5.9816634,9.6679924 m 10.2597176,0 H 7.4473369 c 0,-1.6209497 -0.2650403,-3.4521978 0.4827618,-4.9466491 1.4517079,-2.901177 5.6351973,-3.162119 7.5062093,-0.5496277 1.126904,1.5734962 0.805073,3.6737084 0.805073,5.4962768 M 5.7108779,11.173388 c 0.8773394,-0.255997 2.1060066,-0.03972 3.0189238,-0.03972 h 6.4123243 c 0.719958,0 2.508078,-0.322529 3.074834,0.159601 0.437282,0.371987 0.222932,1.521322 0.222932,2.03891 v 5.77109 c 0,0.559796 0.25976,1.948533 -0.376384,2.22212 -0.757607,0.325824 -2.101101,0.06799 -2.921382,0.06799 H 8.3633834 c -0.6589882,0 -2.4967677,0.315682 -2.9549565,-0.222933 C 5.0307145,20.726438 5.2488261,19.563079 5.2488261,19.011664 v -5.679478 c 0,-0.578983 -0.2663726,-1.94624 0.4620518,-2.158788 z"
      id="path2" />
  </g>
</svg>