<?xml version="1.0" encoding="UTF-8" standalone="no"?>
<!-- Created with Inkscape (http://www.inkscape.org/) -->

<svg width="74.262611" height="74.661705" viewBox="0 0 19.648648 19.754243" version="1.1" id="svg1" xml:space="preserve" inkscape:export-filename="reunion.svg" inkscape:export-xdpi="7.6999998" inkscape:export-ydpi="7.6999998" xmlns:inkscape="http://www.inkscape.org/namespaces/inkscape" xmlns:sodipodi="http://sodipodi.sourceforge.net/DTD/sodipodi-0.dtd" xmlns="http://www.w3.org/2000/svg"
  xmlns:svg="http://www.w3.org/2000/svg">

  <g transform="translate(-2.0819262,-2.0291286)">
    <path style="fill:none;stroke:#2a405b;stroke-width:1.36305;stroke-dasharray:none;stroke-opacity:1"
      d="M 11.116759,2.76655 C 9.4649094,2.984076 7.9845484,3.4584639 6.5977687,4.4108068 5.6545386,5.0585502 4.8270837,5.9363052 4.2085947,6.8964498 0.88733806,12.052391 3.5410973,19.109368 9.4669693,20.781354 c 1.2302977,0.347129 2.5402047,0.395143 3.8016907,0.225209 1.242578,-0.167389 2.454247,-0.640702 3.51477,-1.300936 0.947951,-0.590154 1.808462,-1.3675 2.476236,-2.264865 C 23.021789,12.38515 20.582345,5.0824121 14.63153,3.1427999 13.540703,2.7872564 12.259658,2.6160461 11.116759,2.76655 m 4.805911,5.4490459 c 1.105178,-0.2406928 2.060983,0.8984856 1.434988,1.9087051 -0.384934,0.621197 -1.063868,1.13521 -1.578448,1.64979 l -3.15612,3.156121 c -0.503582,0.503581 -1.126538,1.422285 -1.86498,1.554427 C 10.144139,16.594507 9.6717124,16.270594 9.2517792,15.86165 8.3568558,14.990147 7.222727,14.093452 6.5119254,13.065232 c -0.3568589,-0.51622 -0.3473601,-1.24037 0.1094769,-1.697888 1.1081524,-1.109804 2.2493469,0.384368 2.9890273,1.124047 0.1986486,0.19865 0.6071614,0.787899 0.9324904,0.702468 0.429604,-0.112816 0.911764,-0.825202 1.21941,-1.132848 l 2.72574,-2.7257405 c 0.408428,-0.408428 0.839629,-0.9900987 1.4346,-1.1196746 z"
      id="path2" />
  </g>
</svg>