<?xml version="1.0" encoding="UTF-8"?>
<svg id="Capa_1" xmlns="http://www.w3.org/2000/svg" viewBox="0 0 94.753 80.702">
    <defs>
        <style>
            .cls-1 {
                fill: #2a405b;
            }
        </style>
    </defs>
    <path class="cls-1"
        d="M66.977,77.533c-8.43,4.233-63.182,4.438-66.536-.676-1.393-2.124.789-14.03,2.759-16.214,4.085-4.53,13.898-4.143,18.414-6.805,5.981-3.526-2.028-12.495-3.551-16.673-1.726-4.733-1.85-14.791-.427-19.617,4.595-15.58,30.683-14.268,32.81,2.208.307,2.376.967,10.333.829,12.447-.417,6.352-8.902,13.29-7.695,18.826.958,4.395,11.397,4.979,15.368,6.722,8.228,3.612,7.829,11.982,8.031,19.781ZM31.4,10.809c-4.596.644-9.259,4.126-9.996,8.931-1.165,7.589-.733,18.292,5.042,24.015,8.776,8.697,19.033-2.339,20.145-11.438,1.38-11.288-.788-23.526-15.19-21.508ZM39.45,50.044c-.49-.353-9.536,2.166-11.785-.801,1.055,12.001-14.089,8.969-20.127,13.374-3.105,2.265-2.812,7.619-3.199,11.088,12.302,2.977,26.011,3.779,38.679,3.113,2.992-.157,17.831-1.593,19.336-2.762,1.341-1.042-.522-9.142-1.932-10.686-3.168-3.471-14.999-3.446-18.801-6.989-1.578-1.471-1.692-5.992-2.171-6.336Z" />
    <path class="cls-1"
        d="M70.208,38.205c-.187-.18-3.694.87-5.117.871-1.138,0-4.164-1.031-4.328-.871-.128.125-.322,2.361-.875,3.466-2.253,4.507-7.862,5.476-12.526,5.204-.791-5.033,6.541-4.312,8.249-6.32,3.705-4.355-2.578-9.373-3.336-13.961-.436-2.638.084-5.182-.181-7.7-.316-2.997-1.778-4.13-1.257-7.493,2.293-14.789,26.989-15.032,29.434-.193.747,4.535.916,11.231-.705,15.474-1.518,3.973-6.417,8.365-5.074,12.358,1.462,4.344,13.53,3.525,17.343,8.677,1.717,2.32,4.285,12.836,2.038,14.546-2.109,1.605-23.223,3.755-25.254,2.365-1.418-.97-.977-2.977.537-3.44,2.981-.401,19.486-1.13,20.416-2.434,1.255-1.76.002-7.122-1.596-8.753-2.962-3.025-11.888-3.185-15.391-5.888-2.318-1.788-2.136-5.676-2.378-5.908ZM62.916,4.512c-18.045,2.922-4.292,43.133,9.287,26.622,7.632-9.28,6.794-29.226-9.287-26.622Z" />
</svg>