<?xml version="1.0" encoding="UTF-8"?>
<svg id="Capa_1" xmlns="http://www.w3.org/2000/svg" viewBox="0 0 93.35 95.108">
    <defs>
        <style>
            .cls-1 {
                fill: #2a405b;
            }
        </style>
    </defs>
    <path class="cls-1" d="M41.07.384c62.896-7.164,71.883,88.154,11.507,94.257C-10.694,101.037-19.679,7.303,41.07.384ZM43.445,4.341C-18.702,9.701-1.948,105.651,58.753,88.996,108.331,75.393,94.126-.03,43.445,4.341Z" />
    <path class="cls-1"
        d="M75.138,38.787h-3.949s-.386-4.729-.386-4.729c-2.346,4.362-12.665,11.559-13.629,15.531-.756,3.115.539,6.311-4.072,7.768-8.162,2.58-7.164-7.558-9.206-8.261-1.574-.542-3.217.533-4.715.637-1.028.071-2.183-.663-2.967-.516-2.148.403-11.96,13.028-15.026,14.824-3.392,1.987-4.825.554-2.837-2.837,2.219-3.787,13.115-11.178,14.608-14.551,1.612-3.64-1.356-9.877,7.045-8.619,6.178.925,2.659,7.138,6.746,8.315.917.264,6.365-.341,7.33-.642,3.105-.97,10.996-11.856,13.956-14.414-14.935-3.019,5.21-8.27,6.967-3.019.862,2.576-.347,7.577.134,10.514ZM38.589,41.201c-2.687.429-3.032,5.984,1.394,4.606,2.654-.826.537-4.915-1.394-4.606ZM53.064,49.813c-5.365-.699-5.467,4.611,0,3.946v-3.946Z" />
</svg>