<?xml version="1.0" encoding="UTF-8" standalone="no"?>
<!-- Created with Inkscape (http://www.inkscape.org/) -->

<svg width="80.208549" height="73.588402" viewBox="0 0 21.221845 19.470265" version="1.1" id="svg1" xml:space="preserve" inkscape:export-filename="visita.svg" inkscape:export-xdpi="7.6999998" inkscape:export-ydpi="7.6999998" xmlns:inkscape="http://www.inkscape.org/namespaces/inkscape" xmlns:sodipodi="http://sodipodi.sourceforge.net/DTD/sodipodi-0.dtd" xmlns="http://www.w3.org/2000/svg"
  xmlns:svg="http://www.w3.org/2000/svg">


  <g transform="translate(-1.3302836,-2.2754359)">
    <path style="fill:#2a405b;stroke:none;stroke-width:0.353778"
      d="m 8.0911946,8.9671891 c -1.1735644,0 -4.266482,0.03941 -4.5459698,0.043384 C 2.9885916,9.0184883 2.4673458,9.2117356 2.1304602,9.4638948 1.1273282,10.21474 1.3517229,11.212998 1.3517229,12.336924 v 5.897037 c 0,0.956937 -0.1178475,1.946672 0.5792455,2.710754 0.8037382,0.880979 1.8933736,0.752585 2.9776981,0.752585 h 6.2714525 6.833074 c 0.963455,0 2.208572,0.211661 3.088924,-0.25026 0.756916,-0.397154 1.404271,-1.202882 1.424716,-2.157721 0.0524,-2.446929 0.01052,-7.940297 -0.01086,-10.9547344 C 22.512034,7.7791832 22.316455,7.3284309 22.155882,7.00151 21.43381,5.8330901 17.632289,2.4019915 17.357966,2.2971982 15.678533,2.3229317 11.968461,2.2225229 9.8241193,2.3164635 9.3387202,2.3377281 8.9276012,2.6656631 8.591064,3.0715243 8.3161845,3.4030268 8.1432873,3.8439276 8.052563,4.3460908 8.0162205,4.5472482 8.0911946,8.9671891 8.0911946,8.9671891 M 16.328326,3.7253772 c 0,1.6716971 -0.285674,3.9763218 1.872075,4.4444449 0.821449,0.1782134 1.782339,0.048537 2.620906,0.048537 0.04547,1.1808004 0.06185,10.3541269 0.08362,10.6872929 0.03452,0.528138 -0.07485,0.758522 -0.263183,0.969618 -0.297361,0.333312 -1.086453,0.324372 -1.505304,0.324372 h -3.463339 c 0.457709,-0.463542 2.634892,-3.067469 2.791717,-3.463339 0.11205,-0.282846 0.14636,-0.624119 0.144951,-0.971665 -8.72e-4,-0.215036 -0.04545,-4.163079 -0.09557,-5.233689 -0.02457,-0.524916 -0.607485,-0.9626423 -1.016087,-1.2794485 -0.683853,-0.5302212 -1.839185,-0.28431 -2.667452,-0.28431 H 9.5888548 V 5.5038502 c 0,-0.4398022 -0.119328,-1.1025753 0.1630838,-1.4762812 C 10.103353,3.5625505 10.952509,3.7253786 11.46093,3.7253786 h 4.867396 m 0.74883,11.9812824 c -0.606009,0 -1.277487,-0.08046 -1.872076,0.04854 -2.157748,0.468123 -1.872075,2.772748 -1.872075,4.444445 H 6.3127231 c -0.8543887,0 -2.160781,0.09698 -2.9561673,-0.227142 C 2.647303,19.683477 2.8493841,18.654409 2.8493841,18.046756 v -5.24181 c 0,-0.558883 -0.1216579,-1.46328 0.233156,-1.932797 0.4753355,-0.628999 2.236747,-0.407297 2.9493716,-0.407297 h 7.9563193 c 0.699104,0 2.508993,-0.0893 2.861127,0.227797 0.36478,0.328486 0.227798,1.011668 0.227798,1.45707 z"
      id="path1" sodipodi:nodetypes="csssssscssssccsssccscssscssssscscsccccscsssssssc" />
  </g>
</svg>