<?xml version="1.0" encoding="UTF-8" standalone="no"?>
<!-- Created with Inkscape (http://www.inkscape.org/) -->

<svg width="65.012276" height="65.148926" viewBox="0 0 17.201164 17.23732" version="1.1" id="svg1" xml:space="preserve" inkscape:export-filename="editar.svg" inkscape:export-xdpi="7.6999998" inkscape:export-ydpi="7.6999998" xmlns:inkscape="http://www.inkscape.org/namespaces/inkscape" xmlns:sodipodi="http://sodipodi.sourceforge.net/DTD/sodipodi-0.dtd" xmlns="http://www.w3.org/2000/svg"
  xmlns:svg="http://www.w3.org/2000/svg">
  <g transform="translate(-3.3056673,-3.2875912)">
    <path style="fill:#2a405b;stroke:none;stroke-width:0.25375"
      d="m 19.012436,7.3653975 c 0.386798,-0.272466 0.750794,-0.64165 1.052139,-1.007069 1.253834,-1.520442 -0.373685,-3.829216 -2.193485,-2.826168 -0.318052,0.175305 -1.355662,0.934968 -1.252414,1.349132 0.06957,0.279065 0.453181,0.543527 0.648172,0.738518 l 1.745588,1.745587 m -3.3569,-1.666638 c -0.52899,0.182214 -1.085603,1.006653 -1.477036,1.398086 l -2.954071,2.9540725 c -0.559995,0.559995 -1.168354,1.009484 -1.3293432,1.812726 l -0.33569,1.67845 c -0.0433,0.218341 -0.141964,0.51895 0.02714,0.708419 0.189599,0.212426 0.5297322,0.09049 0.7650942,0.04352 0.662218,-0.132171 1.369447,-0.210935 2.01414,-0.412153 0.584703,-0.182494 1.05655,-0.859229 1.477035,-1.279714 l 3.02121,-3.0212105 c 0.34791,-0.347909 1.198549,-0.924513 1.319552,-1.409898 0.06513,-0.261264 -0.288541,-0.512825 -0.446758,-0.67138 -0.469443,-0.47044 -0.938323,-0.941545 -1.409898,-1.409846 -0.164995,-0.16385 -0.40257,-0.483661 -0.67138,-0.391068 M 5.1820048,6.1881045 c -0.907723,0.16366 -1.635331,0.863159 -1.783198,1.781539 -0.138549,0.860507 -0.02953,1.814533 -0.02953,2.6855205 v 5.303901 c 0,1.025152 -0.245051,2.416227 0.226798,3.3569 0.579981,1.156245 1.678598,1.141346 2.794411,1.141346 h 6.9152132 c 0.954402,0 2.271811,0.234137 3.155486,-0.169089 1.18963,-0.542835 1.208484,-1.659941 1.208484,-2.784983 v -3.356903 c 0,-0.568145 0.258893,-1.904602 -0.403864,-2.165719 -1.002949,-0.395147 -1.006034,0.804279 -1.006034,1.427201 v 3.894003 c 0,0.49778 0.12903,1.156077 -0.275856,1.52884 -0.516423,0.47545 -1.87976,0.216748 -2.543939,0.216748 H 7.8003838 c -0.713674,0 -1.816327,0.208755 -2.483847,-0.04984 -0.813871,-0.315285 -0.537362,-1.753901 -0.537362,-2.434271 v -6.378109 c 0,-0.6544015 -0.233316,-1.8434575 0.277514,-2.3398835 0.389745,-0.378756 1.233196,-0.211361 1.736625,-0.211361 h 3.2897622 c 0.467774,0 1.114428,0.10099 1.537129,-0.14531 0.611685,-0.356419 0.301174,-1.231803 -0.328645,-1.319034 -1.056704,-0.146355 -2.2225912,-0.01269 -3.2897622,-0.01269 -0.906853,0 -1.926735,-0.129831 -2.819795,0.03119 z"
      id="path1" />
  </g>
</svg>