<?xml version="1.0" encoding="UTF-8"?>
<svg id="Capa_1" xmlns="http://www.w3.org/2000/svg" viewBox="0 0 70.673 94.514">
    <defs>
        <style>
            .cls-1 {
                fill: #2a405b;
            }
        </style>
    </defs>
    <path class="cls-1"
        d="M46.635,7.296c1.585,1.654,21.936-3.8,23.62,5.145.803,4.261.904,9.947-3.959,11.141l-3.125,57.395c-.747,6.024-1.055,11.91-8.337,12.941-5.498.779-35.891.904-40.538-.299-3.86-1-5.585-4.291-6.216-7.969-2.849-16.586-1.879-37.884-3.226-55.093-.102-1.301-.624-6.263-.879-7.005-.594-1.726-3.009-.166-3.64-3.407-.945-4.855-.132-11.873,5.754-12.8,2.967-.467,17.845.632,18.48-.039.338-.358-1.251-6.178,3.563-7.078,1.688-.316,15.22-.319,16.422.088,2.388.807,1.824,6.711,2.083,6.981ZM42.689,4.148h-14.186v3.94h14.186v-3.94ZM5.255,19.122h61.077c-.522-3.948,1.979-7.186-2.819-7.799-17.174-2.191-38.329,1.5-55.939-.127-3.678-.731-4.698,7.186-2.32,7.926ZM9.195,22.274c-2.451,1.784-.478,4.503-.399,6.708.668,18.663,2.284,37.259,3.199,55.904.888,3.465,2.333,4.873,5.821,5.212,8.026.779,27.655.898,35.527-.033,1.699-.201,3.262-.518,4.238-2.067.868-1.377,1.455-7.982,1.65-10.171.649-7.293.344-15.475.804-22.839.58-9.281,2.377-20.092,2.425-29.173.005-.969-.208-3.541-1.251-3.541H9.195Z" />
    <path class="cls-1" d="M48.607,30.162c3.928-1.237,2.869,8.224,2.784,10.664-.065,1.866-.806,3.588-.853,5.452-.289,11.309-.197,22.615-.759,33.917-.554,3.067-3.567,2.862-3.975-.746-.682-6.019.71-12.397.859-18.132.247-9.48-.323-18.996.714-28.445.103-.936.201-2.386,1.231-2.71Z" />
    <path class="cls-1" d="M24.56,82.173c-3.349.518-3.647-.422-3.938-3.543-1.355-14.528-.056-31.042-.824-45.754.041-2.92,2.07-3.88,3.383-.945.917,16.609,1.58,33.507,1.379,50.242Z" />
    <path class="cls-1" d="M33.232,31.337c.533-1.862,3.94-1.179,3.94,0v49.65c0,1.484-3.94,1.484-3.94,0V31.337Z" />
</svg>