<?xml version="1.0" encoding="UTF-8" standalone="no"?>


<svg width="81.469864" height="81.468124" viewBox="0 0 21.555567 21.555108" version="1.1" id="svg1" xml:space="preserve" xmlns="http://www.w3.org/2000/svg" xmlns:svg="http://www.w3.org/2000/svg">
  <defs id="defs1" />
  <g id="layer1" transform="translate(-1.1284661,-1.1286968)">
    <path style="fill:#000000;stroke-width:0.15912"
      d="M 1.1284661,15.893889 V 9.1039771 L 2.4125378,8.1583643 3.6966105,7.2127524 V 5.4756154 3.7384783 H 6.0164176 8.3362257 L 10.122043,2.433588 11.90786,1.1286968 13.693827,2.433588 15.479794,3.7384783 h 2.318049 2.318049 l 5.09e-4,1.736655 5.09e-4,1.7366549 1.283561,0.9452603 1.283563,0.9452612 v 6.7907463 6.790747 H 11.906251 1.1284661 Z m 18.4590609,5.490458 c -0.02199,-0.02004 -1.511385,-0.872578 -3.30975,-1.894532 l -3.269753,-1.858098 h -1.09766 -1.097659 l -3.2738682,1.858641 c -1.8006264,1.022254 -3.2918654,1.874793 -3.3138628,1.894533 -0.022069,0.0198 3.4212999,0.03589 7.681277,0.03589 4.349639,0 7.703808,-0.01591 7.681276,-0.03644 z M 6.1491629,18.831595 c 2.6540818,-1.509208 3.3882349,-1.944137 3.3470076,-1.982844 -0.06529,-0.0613 -6.9313429,-5.909795 -7.0320345,-5.98988 -0.068714,-0.05465 -0.072646,0.21736 -0.072646,5.02411 v 5.081891 l 0.1789277,-0.100007 c 0.098411,-0.055 1.7088465,-0.969975 3.5787474,-2.03327 z m 15.2616531,-5.498173 -0.01085,-2.523549 -3.56658,3.041682 c -2.236872,1.907669 -3.547502,3.052779 -3.51541,3.071447 0.02814,0.01637 1.633103,0.930199 3.566579,2.030728 l 3.515411,2.00096 0.01085,-2.548859 c 0.006,-1.401873 0.006,-3.684457 0,-5.072409 z m -5.516825,0.519755 2.95405,-2.515518 0.0024,-3.1680799 0.0024,-3.168079 H 11.906233 4.9596137 l 0.00278,3.168079 0.00278,3.1680799 2.9548083,2.515138 2.954808,2.515138 1.03258,3.82e-4 1.03258,3.82e-4 z M 3.6877238,9.1495496 3.6755559,8.7928232 3.2420489,9.1120514 C 3.00362,9.2876275 2.8143723,9.4487702 2.8214981,9.4701482 c 0.00712,0.02138 0.2022039,0.200347 0.433507,0.397711 l 0.4205508,0.3588428 0.012168,-0.3602118 c 0.00666,-0.198117 0.00666,-0.5207401 -10e-8,-0.7169406 z M 20.631139,9.8059622 c 0.202877,-0.170926 0.368867,-0.324917 0.368867,-0.342201 0,-0.0269 -0.678788,-0.5546891 -0.831488,-0.6465181 -0.04129,-0.024826 -0.05262,0.1242112 -0.05262,0.6917041 0,0.6811678 0.0043,0.7199828 0.07319,0.6655708 0.04025,-0.03178 0.23918,-0.1976288 0.442056,-0.3685558 z M 13.295574,3.72177 c 0,-0.00916 -0.312488,-0.2456159 -0.694418,-0.5253924 l -0.694418,-0.5086849 -0.66333,0.4868651 c -0.364832,0.2677761 -0.681328,0.5042027 -0.703326,0.5253933 -0.02423,0.023336 0.511273,0.03853 1.357749,0.03853 0.768758,0 1.397743,-0.00749 1.397743,-0.016711 z"
      id="path1" />
  </g>
  <style id="style1">
    .s0 {
      fill: none;
      stroke: #2a405b;
      stroke-miterlimit: 10;
      stroke-width: 5;
      stroke-linecap: round;
    }
  </style>
</svg>