<?xml version="1.0" encoding="UTF-8"?>
<svg id="Capa_1" xmlns="http://www.w3.org/2000/svg" viewBox="0 0 95.37 93.783">
    <defs>
        <style>
            .cls-1 {
                fill: #2a405b;
            }
        </style>
    </defs>
    <path class="cls-1"
        d="M74.081,25.219c-.656,1.542-1.881,2.841-1.579,4.725,9.349-.653,12.676,8.37,17.728,14.196,1.439,1.66,7.2,4.727,4.369,6.718-1.967,1.383-4.829-1.161-6.244-2.479-3.193-2.974-6.788-10.587-10.036-12.819-.999-.687-6.756-2.463-7.837-2.405-2.019.108-7.31,9.236-6.645,10.182,3.148,2.546,10.442.339,12.102.855,1.359.423,1.77,2.999,1.217,3.809-.709,1.038-7.331.998-8.921.79-3.693-.484-14.349-6.183-16.893-4.55-4.782,3.07,9.349,8.401,11.156,9.504,6.094,3.721,8.122,7.51,16.044,8.455,2.867.342,7.864-2.276,5.042,3.653l-9.497,1.124c4.8,2.84,15.153,3.509,19.216,6.4,2.13,1.516,1.667,3.431-.714,3.9-6.075-2.472-13.962-3.142-19.565-6.475-7.371-4.385-7.776-13.183-16.827-15.555-1.967,1.24-10.673,9.939-11.682,10.16-3.115.681-1.262-9.186-.827-11.08.619-2.695,1.853-4.186,2.802-6.608-.38-1.661-9.212-1.178-4.289-9.066,1.027-1.646,10.008-9.134,11.896-10.17,1.826-1.002,4.286-.847,5.781-2.1,3.086-2.588,9.61-16.444,13.077-20.811,2.777-3.499,7.579-3.651,9.695.459,1.909,3.709-.93,5.002-.538,6.87.243,1.161,2.361,1.552,2.236,3.975-.036.702-5.866,11.047-6.419,11.398-1.756,1.113-3.572-1.131-3.058-3.054,1.076.216,3.83-4.805,1.191-3.945-.354.115-1.659,3.194-1.979,3.945ZM76.847,7.101c-1.585.445-1.585,3.48,0,3.925,3.624,1.017,3.624-4.942,0-3.925ZM75.64,13.415c-.073-.096-1.985-.628-2.37-.45l-17.313,28.007,3.819.702,15.441-25.175c.384-.702.784-2.61.423-3.083ZM78.798,20.488c.209-.177.892-3.219.792-3.937-2.482.6-2.999,5.802-.792,3.937ZM44.925,42.553c6.066-.083,8.906-4.855,11.012-9.856-1.737-.134-12.264,8.784-11.012,9.856ZM52.012,52.023c-3.917-1.878-4.802,1.21-4.722,4.716.548.617,6.108-2.734,4.722-4.716Z" />
    <path class="cls-1" d="M66.2,3.94H3.94v85.902h62.259v-16.156c0-.203,1.841-2.15,2.649-1.904.42.074,2.079,1.763,2.079,1.904v18.914c0,.084-1.099,1.182-1.182,1.182H0V1.182c0-.084,1.099-1.182,1.182-1.182h67.776c.588,0,1.792,1.928,1.958,2.787,1.271,6.572-5.68,8.709-4.717,1.153Z" />
    <path class="cls-1"
        d="M32.312,39.417c10.383,8.524.603,9.395-4.715,1.564-1.097,4.352-7.43,6.972-11.477,7.121-3.884.143-6.042-.642-5.09-4.759,4.877.313,8.426.251,12.61-2.372-1.395-2.312-4.382-2.458-6.341-4.286-8.284-7.729,1.165-18.768,9.101-9.117,12.44-23.203,25.672,4.088,5.911,11.849ZM29.952,36.248c5.129.333,12.896-12.533,6.542-14.101-4.306-1.063-7.721,10.911-6.542,14.101ZM25.215,36.248c.344-4.557-1.896-9.303-7.085-8.665-1.004,4.646,2.598,8.535,7.085,8.665Z" />
    <path class="cls-1"
        d="M40.587,76.445c-1.866-.409-2.811-3.144-3.223-3.209-2.535-.402-4.703,5.43-9.003,2.819-3.962-2.406-.696-10.928-2.363-12.218-3.342,1.814-2.384,6.845-3.33,9.663-2.082,6.206-15.801,3.944-10.829.204,1.533-1.153,6.813-.954,7.065-1.209.458-.463-.537-9.043,4.3-11.85,6.835-3.967,8.387,7.117,7.54,11.859,1.975-.689,2.028-3.703,3.477-4.788,4.482-3.354,5.946,4.471,7.316,4.802,3.195.772,16.562-1.497,17.478,1.261.267.804.042,1.805.093,2.665-5.3-.788-13.651,1.067-18.52,0Z" />
</svg>