<?xml version="1.0" encoding="UTF-8"?>
<svg id="Capa_1" xmlns="http://www.w3.org/2000/svg" viewBox="0 0 91.436 68.803">
    <defs>
        <style>
            .cls-1 {
                fill: #2a405b;
            }
        </style>
    </defs>
    <path class="cls-1"
        d="M9.414,8.925c.505-.528-.822-5.597,2.809-6.256,1.675-.304,9.296-.246,10.641.393,2.479.661,1.562,6.297,3.53,5.896,2.58-.525,4.821-7.541,8.057-8.491,2.072-.608,18.416-.564,21.158-.203,4.943.651,6.426,8.1,8.711,8.54,8.617-.745,24.89-3.601,26.336,8.428,1.038,8.636,1.038,33.957,0,42.593-.629,5.231-4.03,7.812-9.042,8.296-22.65,2.189-48.769-1.75-71.796,0-4.907-.156-8.451-3.386-9.042-8.296-1.037-8.626-1.04-33.971,0-42.593.406-3.367,2.438-6.462,5.524-7.898.902-.42,2.896-.182,3.112-.408ZM35.997,4.376c-2.009.686-3.677,7.168-6.779,8.195-8.059,2.668-23.416-4.933-24.518,7.006-.871,9.428-.855,28.462,0,37.903.393,4.34,2.146,6.632,6.699,6.699,22.119-1.582,46.839,1.974,68.639,0,4.061-.368,6.184-1.716,6.679-5.931.925-7.875,1.048-32.534.025-40.252-.282-2.124-2.179-4.642-4.394-5.064-5.419-1.032-15.549,1.294-20.325-.166-2.694-.823-4.112-7.616-6.605-8.369-1.392-.421-18.19-.442-19.421-.022ZM20.503,6.614h-7.101v2.358h7.101v-2.358Z" />
    <path class="cls-1" d="M40.783,17.831c25.885-4.348,34.518,28.595,13.902,38.333-14.361,6.784-30.705-4.057-29.447-19.991.626-7.929,7.47-16.986,15.545-18.342ZM41.567,21.768c-5.884,1.088-11.587,7.841-12.329,13.676-1.81,14.242,14.05,23.942,25.887,15.644,14.834-10.399,4.692-32.695-13.559-29.321Z" />
    <path class="cls-1" d="M80.282,16.966c1.237.772,1.236,9.254,0,10.026-.793.495-9.894.353-10.578-.628-.723-1.038-.693-8.407.394-9.163.746-.519,9.583-.609,10.183-.234ZM77.246,20.004h-4.737v3.949h4.737v-3.949Z" />
    <path class="cls-1" d="M45.451,25.624c4.678-1.454,14.565,6.934,11.723,10.959-2.488,3.522-4.372-3.663-6.001-5.085-.739-.645-11.681-4.022-5.722-5.874Z" />
</svg>