<?xml version="1.0" encoding="UTF-8" standalone="no"?>


<svg width="78.226562" height="86.668877" viewBox="0 0 20.697444 22.93114" version="1.1" id="svg1" xml:space="preserve" xmlns="http://www.w3.org/2000/svg" xmlns:svg="http://www.w3.org/2000/svg">

  <g id="layer1" transform="translate(-1.5575271,-0.44075362)">
    <path id="path2" style="fill:#2a405b;fill-opacity:1;stroke-width:1.32292;stroke-dasharray:10.5833, 1.32292"
      d="m 8.4403117,8.4671834 c -0.8638842,-0.00657 -1.7116656,0.6102512 -1.7647502,1.8975586 -0.053085,1.287307 1.7647502,4.193543 1.7647502,4.193543 0,0 1.6589543,-2.640812 1.7120403,-4.193543 C 10.205437,8.8120103 9.292244,8.473662 8.4403117,8.4671834 Z M 8.4144735,9.0640462 A 1.1545948,1.2342221 0 0 1 9.568925,10.298596 1.1545948,1.2342221 0 0 1 8.4144735,11.532629 1.1545948,1.2342221 0 0 1 7.260022,10.298596 1.1545948,1.2342221 0 0 1 8.4144735,9.0640462 Z" />
    <path id="path1" style="fill:#2a405b;stroke-width:0.169322"
      d="m 13.519071,0.44079997 c -4.432384,0 -4.2656932,-0.009538 -4.3816442,0.24494629 -0.03973,0.087191 -0.053743,0.86172304 -0.053743,3.00498454 v 2.887679 h -3.518132 c -3.8762606,0 -3.7422361,-0.00978 -3.9170736,0.2769857 -0.089594,0.1469503 -0.090785,0.2078145 -0.09095,6.6967485 -6.18e-5,2.470059 0.00586,4.647445 0.014469,5.78466 v 2.000395 c -0.013935,0.119521 -0.014469,0.331777 -0.014469,0.751892 0,0.940023 0.024396,1.043833 0.2821533,1.201477 0.1408219,0.08612 0.2559521,0.08758 6.3582682,0.07648 l 6.2151253,-0.01137 0.146761,-0.146244 0.146244,-0.146761 0.0124,-2.910933 0.01189,-2.910934 h 3.517615 c 3.875208,0 3.741206,0.0093 3.91604,-0.277502 0.08979,-0.147271 0.09079,-0.203295 0.09095,-8.1271528 V 0.85731201 L 22.152653,0.7053833 C 22.043104,0.5428214 22.001148,0.48079796 21.583179,0.45681966 v -0.0160197 h -3.98322 z m 0.332797,0.67179363 h 3.748091 2.5554 1.42782 l -0.0016,5.7231649 -0.0015,5.7231645 -0.79375,-0.81287 c -0.64949,-0.66515 -0.82641,-0.821523 -0.973067,-0.861963 -0.558523,-0.153999 -0.713831,-0.04774 -1.702222,1.16582 -0.859952,1.055862 -0.970388,1.169956 -1.089339,1.124996 -0.04155,-0.0157 -0.574587,-0.349138 -1.184424,-0.74104 l -1.10846,-0.712618 V 9.290389 6.8595296 l -0.110071,-0.162264 c -0.06059,-0.089292 -1.083885,-1.366103 -2.273763,-2.8375529 -1.189878,-1.47145 -2.170478,-2.6918174 -2.178678,-2.7114624 -0.0082,-0.01957 1.648072,-0.035534 3.685563,-0.035657 z M 9.7559937,1.7332275 9.86038,1.8598348 c 0.124467,0.1509532 3.698481,4.5813757 3.761011,4.6622477 0.03449,0.044608 -0.354352,0.056327 -1.910995,0.056327 H 9.7559937 V 4.1558187 Z m -7.5266724,5.516976 h 5.9138509 5.9133338 v 7.7282105 7.727694 H 8.1431722 2.2293213 c -0.013561,-5.151923 -1.4e-6,-10.303932 0,-15.4559045 z m 1.434021,0.8511108 c -0.4678078,0 -0.5036674,0.00654 -0.6071981,0.1100708 -0.060481,0.06048 -0.109554,0.161985 -0.109554,0.225826 0,0.063839 0.049075,0.1658635 0.109554,0.2263428 0.1035307,0.1035533 0.1393903,0.1100708 0.6071981,0.1100708 0.4678079,0 0.5031497,-0.00654 0.6066813,-0.1100708 0.06048,-0.060479 0.1100708,-0.1625018 0.1100708,-0.2263428 0,-0.06384 -0.049592,-0.165347 -0.1100708,-0.225826 C 4.166492,8.1078318 4.1311502,8.1013143 3.6633423,8.1013143 Z m 8.9596597,0 c -0.473684,0 -0.502245,0.00563 -0.611849,0.1152384 -0.09273,0.092736 -0.109556,0.1423 -0.08733,0.2573487 0.01515,0.078446 0.07002,0.1780551 0.121956,0.2211751 0.07724,0.064129 0.183757,0.078548 0.584461,0.078548 0.460376,0 0.496103,-0.00673 0.599446,-0.1100708 0.06048,-0.060479 0.110071,-0.1625018 0.110071,-0.2263428 0,-0.06384 -0.04959,-0.165347 -0.110071,-0.225826 C 13.126148,8.1078319 13.09081,8.1013143 12.623002,8.1013143 Z m 6.883301,3.4204627 c 0.09071,-0.0054 0.267505,0.160828 1.080037,0.996839 l 0.996839,1.02526 v 1.512569 1.512053 h -3.427181 -3.427181 v -2.021066 -2.021065 l 0.100769,0.06563 c 1.830413,1.19174 2.083539,1.326026 2.378149,1.264006 0.336259,-0.07079 0.432996,-0.161969 1.308964,-1.233 0.480456,-0.587446 0.917321,-1.080534 0.972551,-1.098124 0.0054,-0.0017 0.01101,-0.0027 0.01705,-0.0031 z m -14.1484905,4.621424 -0.085783,0.10542 c -0.1109242,0.137015 -0.1085204,0.278648 0.00723,0.425813 l 0.092501,0.118339 h 2.760555 2.7600375 l 0.10387,-0.09767 c 0.126557,-0.118898 0.134051,-0.303271 0.01809,-0.446484 l -0.08578,-0.10542 H 8.1431722 Z m 2.7843262,2.083077 c -2.7189473,0 -2.7661228,0.0027 -2.8985311,0.175183 -0.1249952,0.162803 -0.015519,0.427106 0.2113566,0.510046 0.1305228,0.0477 5.2759188,0.03343 5.4032878,-0.01499 0.299477,-0.113862 0.3338,-0.46273 0.05943,-0.604614 -0.107045,-0.05535 -0.538827,-0.06563 -2.7755413,-0.06563 z m -2.7486695,2.150256 -0.1033528,0.09767 c -0.1705338,0.160209 -0.1257503,0.400248 0.097668,0.522449 0.06193,0.03387 0.9098629,0.04966 2.7460856,0.05064 2.245867,0.0011 2.676661,-0.0087 2.78381,-0.06408 0.205049,-0.106033 0.247004,-0.340992 0.09095,-0.508496 l -0.09147,-0.09819 H 8.1555745 Z" />
  </g>

</svg>