<?xml version="1.0" encoding="UTF-8"?>
<svg id="Capa_1" xmlns="http://www.w3.org/2000/svg" viewBox="0 0 59.96 90.222">
    <defs>
        <style>
            .cls-1 {
                fill: #2a405b;
            }
        </style>
    </defs>
    <path class="cls-1"
        d="M42.676,70.755l-25.155-.242c-1.84-4.055-1.406-8.391-3.196-12.566-3.335-7.78-11.411-11.201-13.545-21.92C-7.965-7.905,59.621-13.015,59.959,29.489c.122,15.397-9.215,17.499-13.935,27.668-1.971,4.246-1.922,9.21-3.348,13.599ZM39.596,66.881c-1.129-14.014,14.382-21.135,15.801-33.452C59.581-2.881,7.533-5.66,4.258,26.416c-1.619,15.85,7.373,17.547,12.955,27.856,2.112,3.901,2.263,8.426,3.612,12.546l18.771.063Z" />
    <path class="cls-1" d="M19.537,72.438h21.279c1.564,0,1.565,4.729,0,4.729h-21.279c-.141,0-1.83-1.659-1.904-2.079l1.904-2.649Z" />
    <path class="cls-1" d="M18.749,82.683c-1.461-.416-1.834-3.195.128-3.812,5.011-1.577,15.35,1.241,21.049-.637,3.75.15,1.794,4.449.889,4.449-4.618,0-18.836.919-22.067,0Z" />
    <path class="cls-1" d="M22.299,84.263c2.659-.859,4.511,1.501,6.692,1.652,3.028.21,7.66-4.212,9.06.298-3.305,5.332-16.071,5.978-15.751-1.95Z" />
    <path class="cls-1"
        d="M44.374,25.133c4.718.634,5.42.953,5.557,5.924.182,6.573-2.606,3.186-4.654,4.454-2.066,1.28,1.117,4.495.559,6.412-.172.59-2.836,3.427-3.404,3.761-3.487,2.051-4.358-1.369-6.319-.829-1.556.429-.677,3.999-2.49,4.63-.813.283-7.641.278-8.074-.003-.493-.321-.773-4.367-2.093-4.634-1.045-.212-2.558,2.733-5.877,1.18-.623-.292-3.672-3.462-3.85-4.106-.667-2.42,1.926-3.661,1.472-5.315-.427-1.556-4-.677-4.63-2.489-.357-1.027-.32-6.669.242-7.442.737-1.014,3.993-.5,4.388-1.944.489-1.79-2.558-3.007-1.199-5.873.122-.258,3.817-3.928,4.098-3.976,2.407-.408,4.173,1.907,6.553,1.604-.004-1.109.189-4.502,1.315-4.766,1.047-.246,7.528-.116,8.2.374.978.712.58,4.121,1.937,4.394,1.074.216,2.541-2.738,5.878-1.178,4.766,2.228,3.731,5.822,2.389,9.822ZM41.205,18.851c-2.741,1.298-6.103,1.788-8.641-.423-1.414-1.232-.577-4.145-3.564-3.53-.387.08-1.266,4.323-5.136,5.206-2.988.682-4.117-2.936-6.303-.055,1.959,2.029,1.511,6.468-.362,8.283-1.802,1.746-4.332-.94-3.591,3.52.066.395,4.662-.057,5.407,4.929.342,2.292-1.744,4.2.543,5.715,1.687-1.978,6.651-1.22,8.062.181.908.901.106,5.067,2.942,3.745.988-.461,1.608-4.947,6.455-5.335,1.215-.097,4.493,2.734,4.987.201.092-.471-3.592-6.079.795-8.655,1.588-.933,4.294.707,3.184-3.106-.25-.858-4.311.109-5.211-4.373-.509-2.535.463-3.912.434-6.303Z" />
    <path class="cls-1" d="M23.349,37.495c-7.838-7.488,1.856-21.367,11.954-14.713,10.455,6.889-1.76,24.451-11.954,14.713ZM25.667,26.162c-5.429,5.411,2.631,13.798,8.423,8.815,5.608-4.824-2.646-14.574-8.423-8.815Z" />
</svg>