<?xml version="1.0" encoding="UTF-8"?>
<svg id="Capa_1" xmlns="http://www.w3.org/2000/svg" viewBox="0 0 90.691 93.023">
    <defs>
        <style>
            .cls-1 {
                fill: #2a405b;
            }
        </style>
    </defs>
    <path class="cls-1"
        d="M66.97,38.617c.057.088,1.307.125,1.958.762,6.134,5.995,9.626,10.079,9.104,19.362-.14,2.493-2.411,8.44-2.239,9.322.405,2.079,12.245,11.138,13.93,14.392,3.259,6.294-2.266,12.601-8.366,9.944-3.645-1.588-13.401-14.568-15.676-15.011-2.96-.576-7.736,3.705-16.027,1.007-26.765-8.709-14.052-49.775,13.376-42.142V3.94H19.685v13.004c0,.139-1.831,1.97-1.97,1.97H4.711v67.776h57.531c.388,0-.279-8.644,3.18-5.942,2.403,1.877.268,7.236.76,9.882H1.953c-.136,0-1.39-1.216-1.564-1.588L0,16.962C4.388,10.688,10.915,5.735,16.138,0h49.65c.084,0,1.182,1.099,1.182,1.182,0,4.853-1.012,35.86,0,37.434ZM15.748,14.978l-.394-8.669L7.076,14.966l8.673.012ZM53.363,39.596c-21.198,3.565-18.347,36.975,3.716,36.085,24.516-.989,21.185-40.273-3.716-36.085ZM72.249,71.799c-3.926,1.002-1.214,4.713.262,6.593,1.015,1.292,9.43,9.893,10.231,10.265,2.796,1.3,4.407-.18,3.947-3.113-.175-1.118-10.668-12.059-12.196-13.087-.797-.536-1.151-.937-2.244-.658Z" />
    <path class="cls-1" d="M12.986,25.219h41.769c2.085,0,.763,4.729-.788,4.729H12.986c-.141,0-1.83-1.659-1.904-2.079l1.904-2.649Z" />
    <path class="cls-1" d="M12.986,34.676h26.007c1.564,0,1.565,4.729,0,4.729H12.986c-.141,0-1.83-1.659-1.904-2.079l1.904-2.649Z" />
    <path class="cls-1" d="M11.804,48.862c-.964-.648-.884-3.911,1.347-4.568,2.067-.609,18.351-.387,19.033.741.486.804-.06,2.745.11,3.828-3.001-.604-19.296.803-20.49,0Z" />
    <path class="cls-1" d="M11.804,58.319c-.964-.648-.884-3.911,1.347-4.568,1.93-.569,15.775-.403,17.11.545,1.27.902.111,4.023-.725,4.023-2.558,0-16.996.494-17.732,0Z" />
    <path class="cls-1" d="M33.87,77.233H12.198c-1.657,0-.617-3.94-.394-3.94h20.884c1.035,0,1.44,2.91,1.182,3.94Z" />
    <rect class="cls-1" x="11.804" y="63.836" width="19.702" height="3.94" />
    <path class="cls-1" d="M55.735,42.751c17.677-1.058,20.341,26.25,3.702,28.915-20.984,3.362-22.997-27.76-3.702-28.915ZM54.959,46.669c-10.22,1.489-12.995,16.202-2.727,20.472,17.291,7.191,20.327-23.036,2.727-20.472Z" />
</svg>