<?xml version="1.0" encoding="UTF-8"?>
<svg id="Capa_1" xmlns="http://www.w3.org/2000/svg" viewBox="0 0 79.223 89.008">
    <defs>
        <style>
            .cls-1 {
                fill: #2a405b;
            }
        </style>
    </defs>
    <path class="cls-1"
        d="M18.276.11c3.565-.497,4.572.714,6.906,2.972,1.862,1.802,10.486,13.004,11.076,14.98,2.017,6.748-9.23,12.867-9.018,15.248,6.202,9.486,13.347,18.964,22.337,25.76,5.624-2.447,9.044-8.534,15.966-5.716,3.226,1.313,9.683,11.932,13.003,14.575,4.45,10.42-14.153,21.924-22.568,21.029-15.436-1.641-41.296-34.246-48.686-47.496C1.928,31.846-3.238,23.602,2.536,12.795,4.754,8.644,13.656.754,18.276.11ZM27.932,24.378c1.245.856,4.708-3.302,4.55-4.994-.089-.954-10.808-14.736-11.682-15.129-2.013-.904-3.468.88-5.427,1.289-1.804,2.531,11.936,15.122,12.56,18.835ZM55.355,62.359c-2.106-.992-4.069,1.338-5.832,1.444-3.603.215-13.131-11.062-15.71-14.187-2.879-3.489-11.288-13.61-10.62-17.688.344-2.1,3.276-3.602,1.99-5.941-4.628-3.723-8.092-11.839-12.202-15.437-2.487-2.178-3.848.425-5.419,2.543-5.621,7.584-3.318,13.024.352,20.652,7.077,14.708,20.631,31.254,33.026,41.843,8.817,7.532,17.827,13.642,27.921,3.482l-13.507-16.711ZM71.277,76.393c1.522,1.074,4.036-3.231,3.919-5.062-.115-1.794-10.093-13.45-11.836-14.253-2.301-1.059-6.585.512-5.116,3.552,4.053,4.653,7.999,9.336,12.252,13.816.617.65.696,1.886.781,1.947Z" />
</svg>