<?xml version="1.0" encoding="UTF-8"?>
<svg id="Capa_1" data-name="Capa 1" xmlns="http://www.w3.org/2000/svg" version="1.1" viewBox="0 0 1024 312.742268">
  <defs>
    <style>
      .cls-1 {
        fill: #124773;
      }

      .cls-1, .cls-2 {
        stroke-width: 0px;
      }

      .cls-2 {
        fill: #95bd59;
      }
    </style>
  </defs>
  <polygon class="cls-1" points="53.235981 261.710622 53.235981 280.586177 56.741031 280.586177 56.741031 273.359407 65.854998 273.359407 65.854998 270.393043 56.741031 270.393043 56.741031 264.649453 67.015567 264.649453 67.015567 261.710622 53.235981 261.710622"/>
  <rect class="cls-1" x="70.410486" y="261.710622" width="3.505049" height="18.875555"/>
  <path class="cls-1" d="M79.009888,261.710622h8.252072c6.120666,0,10.300869,3.774991,10.300869,9.437179,0,5.662786-4.180204,9.438376-10.300869,9.438376h-8.252072v-18.875555ZM87.099755,277.619814c4.206539,0,6.930491-2.561751,6.930491-6.472012,0-3.909663-2.723952-6.471414-6.930491-6.471414h-4.583619v12.943426h4.583619Z"/>
  <polygon class="cls-1" points="115.436369 277.646688 115.436369 280.586118 101.279702 280.586118 101.279702 261.710563 115.059286 261.710563 115.059286 264.649992 104.784749 264.649992 104.784749 269.557421 113.899318 269.557421 113.899318 272.442384 104.784749 272.442384 104.784749 277.646688 115.436369 277.646688"/>
  <rect class="cls-1" x="119.343519" y="261.710622" width="3.506248" height="18.875555"/>
  <path class="cls-1" d="M126.595669,271.148041c0-5.635253,4.314276-9.707121,10.111727-9.707121,3.074102,0,5.717255,1.105503,7.469182,3.154905l-2.264873,2.130204c-1.375447-1.483182-3.074705-2.211007-5.042701-2.211007-3.909661,0-6.740762,2.750291-6.740762,6.633019,0,3.883327,2.8311,6.633618,6.740762,6.633618,1.967996,0,3.667254-.728423,5.042701-2.237941l2.264873,2.157138c-1.751928,2.049401-4.39508,3.154904-7.496115,3.154904-5.770518,0-10.084794-4.071867-10.084794-9.707719"/>
  <path class="cls-1" d="M145.791739,271.148041c0-5.581384,4.313678-9.707121,10.166201-9.707121,5.850724,0,10.165005,4.098802,10.165005,9.707121,0,5.608918-4.314281,9.707719-10.165005,9.707719-5.852523,0-10.166201-4.125736-10.166201-9.707719M162.590367,271.148041c0-3.855794-2.8311-6.633019-6.632426-6.633019-3.802522,0-6.633614,2.777225-6.633614,6.633019,0,3.856393,2.831091,6.633618,6.633614,6.633618,3.801326,0,6.632426-2.777226,6.632426-6.633618"/>
  <polygon class="cls-1" points="187.179402 280.585938 187.153063 268.07406 180.950389 278.428801 179.38641 278.428801 173.184933 268.236265 173.184933 280.585938 169.840896 280.585938 169.840896 261.710384 172.725854 261.710384 180.222572 274.222262 187.584012 261.710384 190.46897 261.710384 190.495903 280.585938 187.179402 280.585938"/>
  <rect class="cls-1" x="195.588525" y="261.710622" width="3.506248" height="18.875555"/>
  <path class="cls-1" d="M202.597368,278.590586l1.213839-2.723357c1.510113,1.21324,3.909652,2.076335,6.228995,2.076335,2.938833,0,4.179605-1.051635,4.179605-2.454014,0-4.071867-11.217829-1.402379-11.217829-8.413077,0-3.047167,2.426481-5.635852,7.603848-5.635852,2.266079,0,4.638082.593752,6.282879,1.671722l-1.105512,2.723357c-1.698664-.997168-3.558909-1.482584-5.203706-1.482584-2.912494,0-4.098797,1.132438-4.098797,2.561751,0,4.017999,11.190293,1.40178,11.190293,8.332274,0,3.019634-2.453415,5.608319-7.630781,5.608319-2.939436,0-5.878251-.916365-7.442833-2.264875"/>
  <path class="cls-1" d="M219.798861,271.148041c0-5.581384,4.313678-9.707121,10.166192-9.707121,5.850724,0,10.165005,4.098802,10.165005,9.707121,0,5.608918-4.314281,9.707719-10.165005,9.707719-5.852514,0-10.166192-4.125736-10.166192-9.707719M236.597488,271.148041c0-3.855794-2.8311-6.633019-6.632435-6.633019-3.802522,0-6.633605,2.777225-6.633605,6.633019,0,3.856393,2.831082,6.633618,6.633605,6.633618,3.801335,0,6.632435-2.777226,6.632435-6.633618"/>
  <path class="cls-1" d="M242.256931,278.590586l1.21383-2.723357c1.510122,1.21324,3.909671,2.076335,6.229013,2.076335,2.938815,0,4.179605-1.051635,4.179605-2.454014,0-4.071867-11.217838-1.402379-11.217838-8.413077,0-3.047167,2.426472-5.635852,7.603839-5.635852,2.266079,0,4.6381.593752,6.282879,1.671722l-1.105494,2.723357c-1.698664-.997168-3.558927-1.482584-5.203706-1.482584-2.912512,0-4.098815,1.132438-4.098815,2.561751,0,4.017999,11.190311,1.40178,11.190311,8.332274,0,3.019634-2.453415,5.608319-7.630781,5.608319-2.939436,0-5.878269-.916365-7.442843-2.264875"/>
  <rect class="cls-1" x="268.247096" y="261.710622" width="3.506248" height="18.875555"/>
  <polygon class="cls-1" points="293.619011 261.710503 293.619011 280.586058 290.734044 280.586058 280.325426 267.804238 280.325426 280.586058 276.846723 280.586058 276.846723 261.710503 279.731672 261.710503 290.140893 274.492323 290.140893 261.710503 293.619011 261.710503"/>
  <path class="cls-1" d="M297.094609,278.590586l1.21383-2.723357c1.510122,1.21324,3.909671,2.076335,6.229013,2.076335,2.938815,0,4.179605-1.051635,4.179605-2.454014,0-4.071867-11.217838-1.402379-11.217838-8.413077,0-3.047167,2.426472-5.635852,7.603839-5.635852,2.266079,0,4.6381.593752,6.282879,1.671722l-1.105494,2.723357c-1.698664-.997168-3.558927-1.482584-5.203706-1.482584-2.912512,0-4.098815,1.132438-4.098815,2.561751,0,4.017999,11.190311,1.40178,11.190311,8.332274,0,3.019634-2.453415,5.608319-7.630781,5.608319-2.939436,0-5.878269-.916365-7.442843-2.264875"/>
  <polygon class="cls-1" points="319.203726 264.676628 312.947186 264.676628 312.947186 261.710264 328.964705 261.710264 328.964705 264.676628 322.708768 264.676628 322.708768 280.585819 319.203726 280.585819 319.203726 264.676628"/>
  <rect class="cls-1" x="331.604341" y="261.710622" width="3.505042" height="18.875555"/>
  <polygon class="cls-1" points="344.034329 264.676628 337.777789 264.676628 337.777789 261.710264 353.795308 261.710264 353.795308 264.676628 347.539371 264.676628 347.539371 280.585819 344.034329 280.585819 344.034329 264.676628"/>
  <path class="cls-1" d="M355.923734,272.361521v-10.651018h3.505042v10.516347c0,3.883327,1.75253,5.55445,4.799699,5.55445,3.047132,0,4.772757-1.671124,4.772757-5.55445v-10.516347h3.451761v10.651018c0,5.501181-3.101017,8.49388-8.250857,8.49388-5.177367,0-8.278402-2.9927-8.278402-8.49388"/>
  <rect class="cls-1" x="377.356717" y="261.710622" width="3.505061" height="18.875555"/>
  <path class="cls-1" d="M385.957003,261.710622h8.252099c6.120641,0,10.300849,3.774991,10.300849,9.437179,0,5.662786-4.180208,9.438376-10.300849,9.438376h-8.252099v-18.875555ZM394.0469,277.619814c4.206511,0,6.930482-2.561751,6.930482-6.472012,0-3.909663-2.72397-6.471414-6.930482-6.471414h-4.584252v12.943426h4.584252Z"/>
  <path class="cls-1" d="M406.878246,271.148041c0-5.581384,4.313696-9.707121,10.166192-9.707121,5.850742,0,10.165023,4.098802,10.165023,9.707121,0,5.608918-4.314281,9.707719-10.165023,9.707719-5.852496,0-10.166192-4.125736-10.166192-9.707719M423.676891,271.148041c0-3.855794-2.831119-6.633019-6.632454-6.633019-3.802504,0-6.633586,2.777225-6.633586,6.633019,0,3.856393,2.831082,6.633618,6.633586,6.633618,3.801335,0,6.632454-2.777226,6.632454-6.633618"/>
  <path class="cls-1" d="M429.336316,278.590586l1.213812-2.723357c1.510122,1.21324,3.909689,2.076335,6.229031,2.076335,2.938815,0,4.179587-1.051635,4.179587-2.454014,0-4.071867-11.217838-1.402379-11.217838-8.413077,0-3.047167,2.426491-5.635852,7.603839-5.635852,2.264873,0,4.6381.593752,6.282879,1.671722l-1.105494,2.723357c-1.698664-.997168-3.558909-1.482584-5.203688-1.482584-2.912512,0-4.098815,1.132438-4.098815,2.561751,0,4.017999,11.190293,1.40178,11.190293,8.332274,0,3.019634-2.453415,5.608319-7.630763,5.608319-2.939436,0-5.878288-.916365-7.442843-2.264875"/>
  <polygon class="cls-1" points="469.482988 277.646688 469.482988 280.586118 455.326298 280.586118 455.326298 261.710563 469.105904 261.710563 469.105904 264.649992 458.831359 264.649992 458.831359 269.557421 467.945905 269.557421 467.945905 272.442384 458.831359 272.442384 458.831359 277.646688 469.482988 277.646688"/>
  <polygon class="cls-1" points="490.162425 261.710503 490.162425 280.586058 487.277458 280.586058 476.86884 267.804238 476.86884 280.586058 473.390119 280.586058 473.390119 261.710503 476.275086 261.710503 486.684289 274.492323 486.684289 261.710503 490.162425 261.710503"/>
  <path class="cls-1" d="M515.019624,280.585819l-3.855768-5.527517c-.242426.026934-.485437.026934-.727827.026934h-4.260432v5.500582h-3.50623v-18.875555h7.766662c4.961298,0,8.03477,2.534817,8.03477,6.714421,0,2.858626-1.456238,4.961895-4.016801,5.959661l4.341241,6.201472h-3.775617ZM510.273827,264.676628h-4.09823v7.523049h4.09823c3.074677,0,4.665609-1.40178,4.665609-3.774991,0-2.372613-1.590931-3.748058-4.665609-3.748058"/>
  <polygon class="cls-1" points="536.534877 277.646688 536.534877 280.586118 522.378187 280.586118 522.378187 261.710563 536.157794 261.710563 536.157794 264.649992 525.883248 264.649992 525.883248 269.557421 534.997794 269.557421 534.997794 272.442384 525.883248 272.442384 525.883248 277.646688 536.534877 277.646688"/>
  <polygon class="cls-1" points="540.441314 261.710503 543.946338 261.710503 543.946338 277.619694 553.816256 277.619694 553.816256 280.586058 540.441314 280.586058 540.441314 261.710503"/>
  <path class="cls-1" d="M568.968113,276.217974h-9.437781l-1.860245,4.368144h-3.613378l8.493868-18.875555h3.451176l8.520828,18.875555h-3.666678l-1.88779-4.368144ZM567.808771,273.467084l-3.560151-8.251472-3.531985,8.251472h7.092136Z"/>
  <path class="cls-1" d="M575.302393,271.148041c0-5.635253,4.314244-9.707121,10.111723-9.707121,3.074093,0,5.716634,1.105503,7.469182,3.154905l-2.264873,2.130204c-1.375466-1.483182-3.074714-2.211007-5.042728-2.211007-3.909652,0-6.740735,2.750291-6.740735,6.633019,0,3.883327,2.831082,6.633618,6.740735,6.633618,1.968014,0,3.667263-.728423,5.042728-2.237941l2.264873,2.157138c-1.752549,2.049401-4.395089,3.154904-7.496106,3.154904-5.770555,0-10.084799-4.071867-10.084799-9.707719"/>
  <rect class="cls-1" x="596.25056" y="261.710622" width="3.50623" height="18.875555"/>
  <path class="cls-1" d="M603.502669,271.14804c0-5.581982,4.313696-9.70712,10.166192-9.70712,5.850742,0,10.165023,4.098801,10.165023,9.70712,0,5.608919-4.314281,9.70772-10.165023,9.70772-5.852496,0-10.166192-4.125737-10.166192-9.70772M620.301315,271.14804c0-3.855794-2.831119-6.633019-6.632454-6.633019-3.802504,0-6.633586,2.777225-6.633586,6.633019,0,3.856393,2.831082,6.633618,6.633586,6.633618,3.801335,0,6.632454-2.777225,6.632454-6.633618M615.043742,256.479024h3.9635l-4.691948,3.694189h-2.912475l3.640923-3.694189Z"/>
  <polygon class="cls-1" points="644.323977 261.710503 644.323977 280.586058 641.43901 280.586058 631.030392 267.804238 631.030392 280.586058 627.551671 280.586058 627.551671 261.710503 630.436638 261.710503 640.84584 274.492323 640.84584 261.710503 644.323977 261.710503"/>
  <path class="cls-1" d="M655.483254,271.148041c0-5.635253,4.314244-9.707121,10.111723-9.707121,3.074056,0,5.717218,1.105503,7.469146,3.154905l-2.264837,2.130204c-1.374844-1.483182-3.07475-2.211007-5.042728-2.211007-3.909652,0-6.740735,2.750291-6.740735,6.633019,0,3.883327,2.831082,6.633618,6.740735,6.633618,1.967978,0,3.667884-.728423,5.042728-2.237941l2.264837,2.157138c-1.751928,2.049401-4.395089,3.154904-7.49607,3.154904-5.770555,0-10.084799-4.071867-10.084799-9.707719"/>
  <path class="cls-1" d="M674.679275,271.148041c0-5.581384,4.313696-9.707121,10.166192-9.707121,5.850742,0,10.165023,4.098802,10.165023,9.707121,0,5.608918-4.314281,9.707719-10.165023,9.707719-5.852496,0-10.166192-4.125736-10.166192-9.707719M691.47792,271.148041c0-3.855794-2.831155-6.633019-6.632454-6.633019-3.802541,0-6.633623,2.777225-6.633623,6.633019,0,3.856393,2.831082,6.633618,6.633623,6.633618,3.801298,0,6.632454-2.777226,6.632454-6.633618"/>
  <polygon class="cls-1" points="715.499742 261.710503 715.499742 280.586058 712.614739 280.586058 702.20612 267.804238 702.20612 280.586058 698.727399 280.586058 698.727399 261.710503 701.612403 261.710503 712.021606 274.492323 712.021606 261.710503 715.499742 261.710503"/>
  <polygon class="cls-1" points="728.006903 261.710503 731.513096 261.710503 731.513096 277.619694 741.381845 277.619694 741.381845 280.586058 728.006903 280.586058 728.006903 261.710503"/>
  <path class="cls-1" d="M756.533702,276.217974h-9.437744l-1.860281,4.368144h-3.613378l8.493904-18.875555h3.451176l8.520792,18.875555h-3.666642l-1.887827-4.368144ZM755.374397,273.467084l-3.560187-8.251472-3.531985,8.251472h7.092172Z"/>
  <path class="cls-1" d="M784.168318,276.217974h-9.437744l-1.860281,4.368144h-3.613378l8.493904-18.875555h3.451176l8.520792,18.875555h-3.666642l-1.887827-4.368144ZM783.009012,273.467084l-3.560187-8.251472-3.531985,8.251472h7.092172Z"/>
  <path class="cls-1" d="M804.739475,270.932567h3.316446v7.523049c-1.968562,1.590919-4.718836,2.400145-7.388373,2.400145-5.851912,0-10.165608-4.071867-10.165608-9.707719,0-5.635254,4.313696-9.707121,10.219529-9.707121,3.154902,0,5.797406,1.051635,7.576878,3.074101l-2.210988,2.157138c-1.482614-1.483181-3.181862-2.157138-5.204346-2.157138-4.017349,0-6.848431,2.723357-6.848431,6.63302,0,3.82886,2.831082,6.633618,6.821543,6.633618,1.347884,0,2.669465-.269942,3.883349-.970832v-5.878261Z"/>
  <path class="cls-1" d="M825.013115,280.585819l-3.855804-5.527517c-.242426.026934-.485437.026934-.72779.026934h-4.260432v5.500582h-3.506266v-18.875555h7.766699c4.961262,0,8.03477,2.534817,8.03477,6.714421,0,2.858626-1.456238,4.961895-4.016837,5.959661l4.341241,6.201472h-3.77558ZM820.267319,264.676628h-4.09823v7.523049h4.09823c3.074677,0,4.665572-1.40178,4.665572-3.774991,0-2.372613-1.590895-3.748058-4.665572-3.748058"/>
  <rect class="cls-1" x="832.371606" y="261.710622" width="3.505024" height="18.875555"/>
  <path class="cls-1" d="M839.623788,271.148041c0-5.635253,4.314207-9.707121,10.111686-9.707121,3.074093,0,5.717255,1.105503,7.469182,3.154905l-2.264837,2.130204c-1.374844-1.483182-3.07475-2.211007-5.042728-2.211007-3.909652,0-6.740735,2.750291-6.740735,6.633019,0,3.883327,2.831082,6.633618,6.740735,6.633618,1.967978,0,3.667884-.728423,5.042728-2.237941l2.264837,2.157138c-1.751928,2.049401-4.395089,3.154904-7.49607,3.154904-5.770591,0-10.084799-4.071867-10.084799-9.707719"/>
  <path class="cls-1" d="M860.276776,272.361521v-10.651018h3.505024v10.516347c0,3.883327,1.752512,5.55445,4.799717,5.55445,3.047132,0,4.772757-1.671124,4.772757-5.55445v-10.516347h3.451761v10.651018c0,5.501181-3.101054,8.49388-8.250893,8.49388-5.177385,0-8.278366-2.9927-8.278366-8.49388"/>
  <polygon class="cls-1" points="881.709577 261.710503 885.21577 261.710503 885.21577 277.619694 895.084519 277.619694 895.084519 280.586058 881.709577 280.586058 881.709577 261.710503"/>
  <polygon class="cls-1" points="899.936331 264.676628 893.679791 264.676628 893.679791 261.710264 909.69731 261.710264 909.69731 264.676628 903.441355 264.676628 903.441355 280.585819 899.936331 280.585819 899.936331 264.676628"/>
  <path class="cls-1" d="M911.825736,272.361521v-10.651018h3.505024v10.516347c0,3.883327,1.752512,5.55445,4.799717,5.55445,3.047132,0,4.772757-1.671124,4.772757-5.55445v-10.516347h3.451761v10.651018c0,5.501181-3.101054,8.49388-8.250893,8.49388-5.177385,0-8.278366-2.9927-8.278366-8.49388"/>
  <path class="cls-1" d="M945.60861,280.585819l-3.855804-5.527517c-.242426.026934-.485437.026934-.72779.026934h-4.261017v5.500582h-3.505682v-18.875555h7.766699c4.961262,0,8.03477,2.534817,8.03477,6.714421,0,2.858626-1.456238,4.961895-4.016837,5.959661l4.341241,6.201472h-3.77558ZM940.862814,264.676628h-4.098815v7.523049h4.098815c3.074677,0,4.665572-1.40178,4.665572-3.774991,0-2.372613-1.590895-3.748058-4.665572-3.748058"/>
  <path class="cls-1" d="M965.209551,276.217974h-9.437744l-1.860281,4.368144h-3.613378l8.493904-18.875555h3.451176l8.520792,18.875555h-3.666642l-1.887827-4.368144ZM964.050245,273.467084l-3.560187-8.251472-3.531985,8.251472h7.092172Z"/>
  <path class="cls-1" d="M428.038262,188.593096h-19.139542v52.633813h-70.577408V31.886964h100.782157c58.316326,0,95.398878,30.503398,95.398878,78.951012,0,30.204713-14.354182,52.933074-39.475506,65.792705l43.96156,64.596228h-75.362184l-35.587956-52.633813ZM434.617415,86.315192h-25.718696v49.04556h25.718696c19.438775,0,28.709532-9.270784,28.709532-24.522776s-9.270757-24.522785-28.709532-24.522785"/>
  <polygon class="cls-1" points="123.813475 85.118842 123.813475 121.006105 211.138042 121.006105 211.138042 174.237846 123.813475 174.237846 123.813475 241.227037 53.23604 241.227037 53.23604 31.886507 223.399745 31.886507 223.399745 85.118842 123.813475 85.118842"/>
  <path class="cls-1" d="M699.626013,87.267836c-5.520347,32.623422-22.878005,77.682704-75.688999,93.455431-5.774098,1.724392-15.229817,3.367381-21.881998,4.337013-.422565.052679-.699697.06405-.788287.060451-2.19243-6.451063-6.409755-20.310255-8.319683-35.128904-2.442674-18.749855-.213712-43.185849,14.039933-61.156404,2.441432-3.08487,5.087589-5.926144,7.883966-8.552538,13.20379-12.398753,30.39625-18.019654,45.54292-22.542806,8.902076-2.658724,17.592814-3.266836,24.519716-4.081444l-9.517384-21.77189h-69.381497l-91.511364,209.339927h71.773903l14.055533-36.484596h79.549552l14.056044,36.484596h72.969266l-67.301622-153.958836Z"/>
  <path class="cls-2" d="M614.995228,103.851637c-2.279851,2.033242-4.442398,4.228102-6.443912,6.605493-11.68468,13.846624-13.059525,30.82899-11.362066,45.033545,1.324576,11.226807,4.581804,20.736409,6.163164,25.597154.876877-1.888393,1.868647-4.049716,2.967566-6.408568,1.543622-3.313514,3.303916-7.028652,5.309046-11.028694,11.133449-22.252514,29.466109-52.869618,56.350723-66.820395,0,0-32.230155,28.58567-53.654298,66.984396-3.269247,5.838157-6.278094,11.892986-8.885344,18.122592,5.349779-.829577,10.342167-1.960224,14.99824-3.350631,54.006247-16.130047,62.932836-67.239974,64.221538-89.355411.372261-6.393023.108938-10.370314.108938-10.370314,0,0-3.164546.085594-8.299992.691313-.8661.102363-1.781884.217877-2.755096.351949-.388408.053264-.78646.108938-1.190504.166988-5.802228.837952-13.194766,2.24752-21.103282,4.609349-12.212604,3.647517-25.659989,9.570666-36.424721,19.171233"/>
  <path class="cls-1" d="M302.645899,167.633796c2.293003-2.914284,11.155588-17.175701,11.155588-17.175701,0,0-16.957834,19.451954-20.355162,21.970012-3.396707,2.518058-7.789988.004786-5.121692-3.086075,2.668277-3.091455,11.397393-19.581835,11.397393-19.581835,0,0-12.789608,15.654218-16.958437,19.452548-4.168828,3.798339-9.113359,1.086954-6.401974-3.858188,2.711385-4.944539,19.161059-26.448878,19.161059-26.448878,0,0-13.915469,16.184516-18.437434,19.232287-4.521965,3.048365-7.372208-2.025461-4.130525-5.845345,3.241702-3.819884,29.770183-36.033299,30.40763-39.542542.638031-3.509225-2.828105-6.000962-14.394896-11.091529-11.566773-5.090585-7.071148-15.00182-3.449386-11.208267,3.508056,3.675026,24.431802,6.883209,31.314427,6.535461V31.886745h-71.943905v80.958499c3.776183-4.551885,6.61806-8.075485,7.366235-9.192359,2.689831-4.018609,9.113359-1.087557,6.820356,1.82733-2.293605,2.914302-11.15619,17.175711-11.15619,17.175711,0,0,16.958437-19.452548,20.355746-21.970003,3.396725-2.518058,7.789403-.004804,5.121108,3.086057s-11.39679,19.581232-11.39679,19.581232c0,0,12.78959-15.654208,16.958418-19.451945,4.168244-3.798321,9.113377-1.086936,6.401992,3.857594-2.711385,4.945133-19.161059,26.449472-19.161059,26.449472,0,0,13.914848-16.184516,18.437416-19.232872,4.521983-3.047772,7.371624,2.026045,4.12994,5.845939-3.241702,3.819875-29.76958,36.033299-30.40763,39.542533-.637446,3.509244,2.828708,6.000368,14.395481,11.090944,11.566792,5.091188,7.071148,15.001811,3.449386,11.20886-3.508038-3.675035-24.431802-6.883812-31.314408-6.536055v65.098995h71.943905v-80.95791c-3.776201,4.551894-6.618663,8.074901-7.366235,9.192377-2.68985,4.017997-9.113377,1.086945-6.820356-1.827348"/>
  <path class="cls-2" d="M276.203066,182.663609c3.621762,3.792951,8.117387-6.117673-3.449386-11.208851-11.566792-5.090585-15.032946-7.58171-14.395499-11.090944.638049-3.509244,27.165946-35.722667,30.40763-39.542542,3.241702-3.819875.392043-8.89371-4.130525-5.845939-4.521965,3.048356-18.436831,19.232881-18.436831,19.232881,0,0,16.449674-21.504348,19.161059-26.449481,2.711385-4.94453-2.233748-7.655915-6.401974-3.857594-4.168828,3.798339-16.958437,19.451963-16.958437,19.451963,0,0,8.728513-16.489786,11.396808-19.58125,2.668277-3.090843-1.724401-5.604115-5.12171-3.086057-3.396725,2.518058-20.355143,21.970003-20.355143,21.970003,0,0,8.862567-14.261409,11.156172-17.175711,2.293021-2.914284-4.130506-5.845336-6.820356-1.82733-.748175,1.116874-3.590034,4.640475-7.366235,9.192377v63.283022c6.882625-.347757,27.80637,2.860417,31.314427,6.535452"/>
  <path class="cls-2" d="M285.517844,90.4501c-3.62178-3.793535-8.117406,6.117682,3.449368,11.208869,11.566792,5.089982,15.032946,7.582303,14.395499,11.090944-.638049,3.509244-27.165946,35.722649-30.40763,39.542533-3.241702,3.819884-.392043,8.893701,4.129922,5.845939,4.521965-3.048365,18.437434-19.232881,18.437434-19.232881,0,0-16.449674,21.504339-19.161059,26.449481-2.711385,4.94453,2.233748,7.655915,6.401974,3.857585,4.168828-3.797737,16.958437-19.451945,16.958437-19.451945,0,0-8.728513,16.490371-11.396808,19.581232-2.66888,3.090852,1.724401,5.604124,5.12171,3.086066,3.396725-2.517455,20.355143-21.970003,20.355143-21.970003,0,0-8.862567,14.261409-11.156172,17.175701-2.293021,2.914887,4.130525,5.845939,6.820356,1.827339.748175-1.116874,3.590034-4.639881,7.366235-9.191775v-63.283625c-6.882606.348351-27.80637-2.860417-31.314408-6.535461"/>
  <path class="cls-1" d="M879.251998,31.886562h-182.318245l91.511948,209.34053h182.318245l-91.511948-209.34053ZM893.884443,183.099289c-2.925042-.499182-4.634447,1.636413-7.328461-1.42093,1.936268-1.007342,4.736809-1.693275,7.328461,1.42093M882.688195,179.300959c2.008674-1.288656,4.927799-1.994938,7.918672.786479-3.156728-.240609-4.976824,1.886-7.918672-.786479M875.475175,173.226969c-3.205754,1.53406-3.493042,4.077261-7.454789,3.192018,1.23237-2.378597,3.45651-4.323258,7.454789-3.192018M862.832188,177.520299c.757162-2.799966,2.542626-5.014571,7.153765-5.091179-3.039388,2.360039-2.758676,5.117518-7.153765,5.091179M881.111621,174.659279c-3.413475.990583-4.568616,4.128725-8.414264,2.19485,1.603462-2.14577,4.174217-3.940787,8.414264-2.19485M886.351841,177.229413c-3.540387.313033-5.165987,3.002271-8.915264.582375,1.987778-1.79562,5.431136-3.376359,8.915264-.582375M879.494351,137.538432c.022796-.06225.056917-.120309.130492-.27294.146639.746978.278301,1.40418.404628,2.063171.967805,5.051679,1.930277,10.105147,2.9059,15.155629.151462.784689.314833,1.572364.551852,2.334302.550099,1.768093,1.746521,2.904722,3.523582,3.425448.231686.067639.469874.115514.70514.172979v4.164636c-.122163.008384-.243668.02275-.365758.02275-5.158169.001196-10.316412.001196-15.474654.001196h-.38965v-4.116761c.474039-.089184.951074-.12988,1.396983-.27114,1.740018-.551249,2.646815-1.836919,3.080157-3.543949.301024-1.187508.104116-2.340896-.119167-3.508047-.434511-2.266069-.845131-4.536331-1.250928-6.808392-.026303-.149032.025134-.360918.120921-.477035,2.067929-2.509683,3.646257-5.297676,4.780502-8.341849M873.157002,76.550212v1.495144c0,.762532-.009571,1.524479.005407,2.286427.005407.258573-.09038.358525-.326158.469253-.635656.29748-1.297104.581772-1.852537.999551-1.073748.808635-1.407723,1.999724-1.271313,3.27343.135899,1.264701.407624,2.51625.645885,3.769607.794863,4.187368,1.60105,8.373568,2.403147,12.559749.451828,2.360039.903728,4.720096,1.355044,7.080135.00716.038907.004822.079603.008402.147845-.059839-.037116-.110107-.055072-.143644-.089777-2.038046-2.094305-4.412478-3.745076-6.919741-5.215086-.290283-.169983-.42136-.369302-.477619-.682344-.820581-4.542313-1.646569-9.083439-2.475553-13.624565-.489602-2.68384-.985779-5.367096-1.495765-8.138941-.119679.177162-.207721.296877-.285534.423771-2.36961,3.873741-4.721831,7.757072-7.111826,11.618247-1.886,3.047772-4.498036,5.211488-7.963606,6.249964-.654799.196323-1.358624.278922-2.044549.309444-1.121678.049683-2.24752.01317-3.427284.01317.087969-.169381.143059-.288493.209474-.400427,4.380769-7.420101,8.763218-14.838997,13.140991-22.261492.121505-.20531.242426-.307051.503922-.307051,5.677216.01496,11.353701.018558,17.030259.023947h.492597M810.371391,66.992113c.151462,0,.281296.001206.410035,0,8.262218-.063438,16.524437-.126291,24.786728-.192724.338725-.002393.676938-.036514,1.015078-.055656h9.474934c.703241.055656,1.407139.108336,2.109795.169381,2.455826.213676,4.890098.557843,7.200453,1.465827,2.774823,1.09174,5.191779,2.723349,7.216016,4.922392.073648.080206.14547.162202.213639.247194.01264.016165.003653.049683.007233.120903h-.351365c-3.416471,0-6.833526.002996-10.250581-.007179-.219046-.000603-.457892-.065246-.653046-.166403-2.310355-1.197664-4.756537-1.813575-7.365577-1.809977-7.133453.010174-14.266834.003598-21.400214.003598h-.551852v75.253821c.859524,0,1.685512-.014366,2.510843.002393,6.191951.125697,12.383245.269341,18.575707.381275,2.462401.044286,4.932548.147233,7.387204.005379,8.748824-.505164,17.109825-6.224218,19.083794-15.905594,1.175599-5.762737.283123-11.208267-3.215326-16.06481-2.460575-3.415265-5.822613-5.61849-9.769966-6.969406-3.14533-1.076762-6.394192-1.489171-9.707716-1.481975-3.049543.007179-6.098502-.005388-9.148119.005388-.297443.000585-.462641-.094581-.612276-.347163-.833148-1.401184-1.683686-2.791591-2.575504-4.263391h.533878c3.444016-.007197,6.888616.019746,10.331974-.034121,1.997934-.030522,3.830086-.736813,5.55929-1.696856,2.838242-1.575369,5.045651-3.789371,6.694047-6.587538,1.007333-1.710025,2.093063-3.372778,3.14533-5.055861.032294-.050889.08322-.09038.172358-.184359.186751,1.01632.362763,1.972197.536874,2.928056.477108,2.618009.94932,5.236622,1.434757,7.853444.056259.301663.037701.531504-.195154.770332-.8463.865479-1.666297,1.757298-2.505509,2.630576-.139406.145452-.326158.244801-.490771.365703.02813.041902.055675.083202.083804.125104.246006.067036.492013.132264.736777.202899,3.033981.881645,5.66516,2.513875,8.215604,4.32745,4.094577,2.911891,6.557563,6.965808,8.237084,11.576947.976208,2.679675,1.534051,5.448525,1.380251,8.31013-.413031,7.699023-3.198009,14.29373-9.225932,19.304109-2.96457,2.464192-6.419911,3.925827-10.184166,4.697939-2.792797.572803-5.618472.585379-8.450139.564428-8.793174-.067036-17.586933-.11851-26.380107-.181957-4.532084-.032924-9.064826-.07901-13.597568-.119113-.120921-.000594-.242426,0-.390308,0-.012567-.130483-.031125-.234024-.031125-.338177-.002338-1.061208.001827-2.123613-.004165-3.18483-.001169-.206497.031125-.3256.259742-.424365,2.049444-.884037,3.108871-2.51087,3.407484-4.66981.076644-.549459.07606-1.112682.07606-1.669922-.00716-21.723412-.020969-43.446824-.023965-65.169634,0-1.967393-.664371-3.619954-2.181032-4.885275-.379494-.316623-.861351-.507557-1.285706-.772706-.104701-.065849-.237604-.197528-.238773-.299873-.016805-1.21025-.010813-2.420499-.010813-3.695995M825.081138,91.13902c4.036491,6.97717,8.073056,13.95496,12.151559,21.004554.352534-.560218.724794-1.046239.983368-1.587314.342378-.715862.822408-.949886,1.625015-.911582,1.602293.076023,3.210576.022741,4.816449.022741h.542938c-3.003513,4.974468-5.967499,9.88369-8.967943,14.853373-1.290456-2.08172-2.543795-4.102395-3.794796-6.124257-2.417467-3.904885-4.836176-7.809752-7.245899-11.720025-.107696-.174166-.192085-.397431-.192743-.597937-.01074-4.884691-.008329-9.769363-.008329-14.654657v-.265149c.029883-.007179.060424-.013754.09038-.019746M788.577362,160.578028c.573406-.170586,1.151561-.281315,1.678937-.509959,1.677037-.727224,2.536561-2.075729,2.873532-3.837237,1.237192-6.466023,2.502514-12.92727,3.74387-19.39269,1.352122-7.038233,2.688681-14.079452,4.033569-21.120077,1.525064-7.986329,3.050786-15.973242,4.577676-23.959553.392646-2.053006.806772-4.102395,1.177864-6.159584.292694-1.622038-.193912-2.96457-1.595644-3.895898-.495008-.328587-1.051098-.563214-1.567587-.861296-.116756-.067036-.259815-.220854-.261569-.335784-.016805-1.265303-.007818-2.531228-.004822-3.797134.000585-.037701.022796-.074817.041354-.134675h7.980265v.457892c-.008329,5.280917.013809,10.562436-.046688,15.842147-.014321,1.237776-.268145,2.478567-.482953,3.705566-.647054,3.691191-1.329983,7.375806-1.997934,11.063417-.699149,3.860572-1.396983,7.721764-2.09489,11.582939-.692573,3.834853-1.380836,7.669688-2.075747,11.503938-.6925,3.821071-1.389823,7.640956-2.087145,11.46084-.635656,3.486493-1.274235,6.97179-1.910549,10.45769-.126839.694309-.305261,1.385621-.360863,2.085318-.158622,1.982362.36985,3.719924,1.990701,4.997803.600367.472852,1.303607.720045,2.068002.784086.174111.014366.347127.040103.533294.061648v4.086239h-16.212673v-4.085636ZM832.743647,206.369922c.655384-4.675189,2.053536-8.6489,4.071854-12.30239.376499.738604.723041,1.499345,1.043207,2.276846l-5.115061,10.025544ZM838.245363,196.147462c-.320166-.778104-.666709-1.538252-1.043207-2.276846-8.767456-17.217001-32.170352-23.681234-40.437978-10.217675,4.97624-4.530349,8.859589-5.412596,15.169977-5.105545-12.195251,16.660957-19.119157,10.898211-33.122011,11.399795,13.702414-21.601313,46.94593-20.545484,59.381781,2.245721.366927.673357.720045,1.360478,1.049856,2.071546,1.652561,3.561311,2.824506,7.59667,3.383519,12.105465l-4.381938-10.22246ZM857.705729,180.174228c-7.794755,1.832124-14.174042,7.074737-18.075292,13.857392-.329811-.711068-.682929-1.398782-1.049856-2.071546,4.344237-6.858066,11.026301-11.699065,19.171836-14.381115.977377-2.719769,3.073508-4.15986,6.107489-4.52676-1.383247,1.088744-1.258088,3.775589-3.089656,5.27972,1.780057.40282,3.256022,2.324731,5.559217,3.54036-2.895744,1.275496-5.763942.132876-8.623739-1.698052M864.341763,178.40135c4.418981-1.255732,4.466911,1.76749,7.012459,3.991667-2.847229.472843-5.678312-1.232991-7.012459-3.991667M869.367102,178.185281c4.236467-.678152,3.911406,2.273248,6.018278,4.779935-2.695183.32561-5.074438-1.881214-6.018278-4.779935M874.304399,178.59528c3.92463-.563232,3.588902,2.929253,5.29889,5.278524-2.656313.074817-4.428553-2.35645-5.29889-5.278524M878.834218,179.615189c3.728892.206497,3.416398,2.714974,4.554223,5.768135-2.643746-.897216-4.246623-2.743113-4.554223-5.768135M883.386102,181.446126c3.941362.715853,2.816689,3.519409,4.032327,6.044051-2.382762-.961257-3.773753-2.92865-4.032327-6.044051M887.57464,183.597878c3.670295.790068,2.750931,3.769004,3.652321,6.613859-2.391164-1.007342-3.728308-3.090258-3.652321-6.613859M890.79245,184.284396c4.961846-.539879,4.734398,2.139185,6.688055,4.690761-2.869441-.978016-6.142852-.209483-6.688055-4.690761"/>
</svg>