<?xml version="1.0" encoding="UTF-8"?>
<svg id="a" xmlns="http://www.w3.org/2000/svg" xmlns:xlink="http://www.w3.org/1999/xlink" version="1.1" viewBox="0 0 512 512">
  <defs>
    <style>
      .cls-1 {
        fill: url(#Degradado_sin_nombre);
      }

      .cls-1, .cls-2, .cls-3, .cls-4 {
        stroke-width: 0px;
      }

      .cls-2 {
        fill: #071e65;
      }

      .cls-3 {
        fill: #fff;
      }

      .cls-4 {
        fill: #97cd48;
      }
    </style>
    <radialGradient id="Degradado_sin_nombre" data-name="Degradado sin nombre" cx="14.18" cy="501.9" fx="14.18" fy="501.9" r="471.049988" gradientTransform="translate(0 514) scale(1 -1)" gradientUnits="userSpaceOnUse">
      <stop offset="0" stop-color="aqua" stop-opacity=".3"/>
      <stop offset=".2" stop-color="#00edf2" stop-opacity=".27"/>
      <stop offset=".48" stop-color="#00bed1" stop-opacity=".2"/>
      <stop offset=".8" stop-color="#00709a" stop-opacity=".09"/>
      <stop offset="1" stop-color="#003671" stop-opacity="0"/>
    </radialGradient>
  </defs>
  <rect class="cls-2" width="512" height="512" rx="52.25" ry="52.25"/>
  <path class="cls-1" d="M58.52,11.89c89.789997.21,289.569996.61,381.149982.36,26.790009-.07,47.709991,23.09,44.950012,49.740002-24.670013,238.559986-223.440002,422.539997-468.929993,422.539997-1,0-2-309.130005-2.34-427.440002-.07-24.98,20.189999-45.25,45.169998-45.189999v-.009997Z"/>
  <g>
    <path class="cls-3" d="M115.800003,185.410004c-1.32,1.429993-2.660004,2.850006-4.120003,4.119995-.690002.600006-1.709999.279999-2.589996.179993-.400002-.050003-.389999-.460007-.389999-.789993,0-1.339996,0-2.679993-.019997-4.009995,0-.619995.300003-.880005.889999-.869995h2.919998c.889999,0,1.779999-.029999,2.669998,0,.919998.039993,1.25.690002.629997,1.369995h.010002Z"/>
    <path class="cls-3" d="M115.239998,175.139999c.139999,1.330002.25,2.649994.379997,3.979996.07.699997-.300003.929993-.949997.919998-.889999-.020004-1.779999,0-2.669998,0s-1.779999-.009995-2.669998,0c-.610001,0-.879997-.259995-.889999-.869995-.019997-1.330002.010002-2.669998-.209999-4-.099998-.619995.220001-.899994.82-.899994h5.220001c.599998,0,.900002.320007.959999.869995h.009995Z"/>
    <path class="cls-3" d="M113.599998,165.389999c.260002,1.309998.510002,2.630005.800003,3.929993.18.800003-.150002,1-.889999.960007-.769997-.039993-1.540001,0-2.309998,0h-1.459999c-1.809998,0-1.82,0-1.989998-1.759995-.099998-.970001-.169998-1.940002-.269997-2.910004-.080002-.759995.199997-1.139999,1.010002-1.130005,1.339996.020004,2.68.020004,4.019997,0,.639999,0,.980003.300003,1.099998.899994l-.01001.01001Z"/>
    <path class="cls-3" d="M109.139999,154.600006c.610001-.020004.989998.229996,1.209999.789993.540001,1.399994,1.080002,2.789993,1.629997,4.179993.290001.720001.019997.970001-.690002.949997-.610001-.020004-1.209999,0-1.82,0-3.230003-.009995-2.410004.25-2.970001-2.610001-.160004-.789993-.260002-1.600006-.419998-2.389999-.129997-.639999.110001-.919998.75-.910004.769997,0,1.540001.020004,2.309998,0l.000008-.009979Z"/>
    <path class="cls-3" d="M94.489998,209.330002c-.639999,0-.910004-.320007-1.139999-.869995-.559998-1.350006-.519997-2.779999-.68-4.190002-.080002-.649994.389999-.710007.870003-.710007h8.279999c.650002,0,.790001.240005.510002.809998-.690002,1.419998-1.360001,2.860001-2.029999,4.289993-.220001.460007-.559998.660004-1.059998.660004-1.580002,0-3.160004-.020004-4.75,0l-.000008.01001Z"/>
    <path class="cls-3" d="M98.110001,214c-.589996,1.619995-1.18,3.240005-1.769997,4.850006l-.32-.050003c-.370003-1.570007-.730003-3.139999-1.110001-4.699997-.089996-.360001-.059998-.710007.370003-.729996.839996-.050003,1.690002-.039993,2.540001,0,.400002.020004.400002.339996.290001.630005l-.000008-.000015Z"/>
    <path class="cls-3" d="M93.510002,199.559998c-.669998,0-.949997-.289993-.959999-.949997-.029999-1.259995-.080002-2.509995-.169998-3.770004-.059998-.830002.32-1.059998,1.07-1.050003,1.739998.029999,3.489998,0,5.230003,0,1.660004,0,3.330002.039993,4.989998-.020004,1-.029999,1.279999.380005,1.190002,1.309998-.110001,1.169998-.139999,2.350006-.169998,3.520004-.019997.660004-.300003.949997-.959999.949997-3.410004-.009995-6.809998-.009995-10.220001,0l-.000008.01001Z"/>
    <path class="cls-3" d="M103.669998,189.820007c-1.699997-.059998-3.410004-.020004-5.110001-.020004-1.660004,0-3.330002-.029999-4.989998.009995-.879997.020004-1.269997-.25-1.190002-1.179993.110001-1.210007.139999-2.429993.18-3.649994.019997-.660004.309998-.949997.970001-.949997h10.220001c.669998,0,.940002.320007.959999.970001.029999,1.179993.07,2.350006.169998,3.520004.080002.929993-.209999,1.330002-1.199997,1.289993l-.010002.009995Z"/>
    <path class="cls-3" d="M104.400002,175.529999c0,1.179993.019997,2.360001.150002,3.520004.089996.809998-.209999,1-.919998.990005-1.660004-.020004-3.330002,0-4.989998,0-1.620003,0-3.25-.020004-4.870003.009995-.809998.020004-1.18-.160004-1.050003-1.100006.150002-1.119995.129997-2.270004.139999-3.399994,0-.839996.290001-1.289993,1.199997-1.279999,3.040001.020004,6.080002.020004,9.129997,0,.900002,0,1.209999.419998,1.220001,1.270004l-.009995-.01001Z"/>
    <path class="cls-3" d="M107.68,150.610001c-2.510002.380005-2.519997.369995-3.120003-1.789993-.160004-.570007-.32-1.149994-.550003-1.949997,1.620003,1.020004,2.620003,2.289993,3.669998,3.740005l.000008-.000015Z"/>
    <path class="cls-3" d="M96.919998,148.460007c.309998-.960007.690002-1.899994,1.220001-2.779999.330002-.539993.620003-.589996.959999-.009995.809998,1.380005,1.309998,2.869995,1.720001,4.399994.129997.490005-.07.679993-.540001.679993h-1.919998c-2.160004-.059998-2.370003.580002-1.43-2.289993h-.010002Z"/>
    <path class="cls-3" d="M94.620003,158.589996c.18-1.270004,0-2.889999.889999-3.699997.910004-.830002,2.489998-.270004,3.769997-.270004,3.120003,0,2.529999-.520004,3.120003,2.630005.199997,1.089996.370003,2.179993.529999,3.270004h-6.699997c-2.080002-.020004-1.919998.320007-1.599998-1.929993l-.010002-.000015Z"/>
    <path class="cls-3" d="M93.339996,169.199997c.150002-1.25.300003-2.5.410004-3.75.059998-.720001.43-.970001,1.110001-.970001.550003,0,6.07-.029999,8.540001-.089996.169998,1.520004.32,3.039993.489998,4.559998.110001,1.020004-.220001,1.389999-1.25,1.339996-1.339996-.070007-2.68-.020004-4.019997-.020004-1.419998,0-2.839996-.029999-4.260002,0-.800003.020004-1.120003-.300003-1.029999-1.089996l.009995.020004Z"/>
    <path class="cls-3" d="M93.269997,146.779999c-.269997.960007-.449997,1.570007-.620003,2.190002-.550003,1.990005-.68,2.059998-3.019997,1.630005.919998-1.429993,2.010002-2.630005,3.629997-3.820007h.010002Z"/>
    <path class="cls-3" d="M85.860001,157.910004c.099998-.270004.199997-.529999.309998-.789993,1.139999-2.75,1.18-2.75,4.199997-2.520004.699997.050003.919998.300003.779999.990005-.239998,1.190002-.5,2.380005-.589996,3.589996-.080002,1.039993-.5,1.460007-1.519997,1.350006-.440002-.050003-.889999,0-1.330002,0-1.853333,0-2.470001-.869995-1.849998-2.610001v-.01001Z"/>
    <path class="cls-3" d="M82.830002,169.539993c.290001-1.429993.57-2.860001.860001-4.289993.120003-.580002.529999-.759995,1.080002-.759995,1.339996,0,2.68.009995,4.010002,0,.720001,0,1.059998.300003.980003,1.029999-.129997,1.25-.290001,2.5-.379997,3.75-.059998.770004-.410004,1.059998-1.169998,1.020004-.769997-.039993-1.540001,0-2.309998,0-.809998,0-1.620003-.020004-2.43,0-.540001.009995-.739998-.210007-.629997-.740005l-.010017-.01001Z"/>
    <path class="cls-3" d="M81.650002,178.369995c.07-.929993.190002-1.850006.260002-2.779999.07-.899994.410004-1.389999,1.440002-1.350006,1.529999.070007,3.07.039993,4.610001.009995.860001-.020004,1.139999.320007,1.040001,1.179993-.129997,1.119995-.199997,2.259995-.169998,3.389999.019997.979996-.370003,1.289993-1.300003,1.229996-.800003-.059998-1.620003-.009995-2.43-.009995h-1.940002c-1.57,0-1.620003-.050003-1.510002-1.669998v.000015Z"/>
    <path class="cls-3" d="M81.220001,184.509995c.220001-.699997.870003-.449997,1.360001-.479996.769997-.039993,1.540001,0,2.309998,0h0c.93,0,1.860001.009995,2.800003,0,.599998,0,.889999.279999.879997.889999-.019997,1.339996-.010002,2.679993-.019997,4.020004,0,.330002-.040001.639999-.410004.800003-1.07.479996-3.419998-.110001-4.18-1.020004-.730003-.869995-1.470001-1.740005-2.25-2.550003-.470001-.490005-.68-1.029999-.489998-1.649994v-.01001Z"/>
    <path class="cls-3" d="M89.239998,249.990005c-2.5-2.380005-4.190002-5-5.68-7.759995-3.93-7.300003-6.160004-15.179993-7.760002-23.259995-1.269997-6.380005-2-12.830002-2.489998-19.309998-.089996-1.25-.279999-2.509995-.580002-3.720001-1.440002-5.75-5.949997-8.690002-11.82-7.759995-.189999.029999-.389999.070007-.619999.110001.759998-1.729996,3.689999-3.720001,6.079998-4.220001,3.080002-.639999,5.879997.119995,8.520004,1.649994,3.809998,2.210007,6.419998,5.559998,8.599998,9.279999,4.290001,7.350006,6.620003,15.419998,8.459999,23.649994.519997,2.339996.949997,4.699997,1.440002,7.039993.239998,1.130005.169998,2.220001-.139999,3.350006-1.82,6.789993-3.190002,13.669998-4.010002,20.940002v.009995Z"/>
    <path class="cls-3" d="M95.580002,253.869995c-2.459999-.639999-2.709999-.960007-2.449997-3.210007,1.230003-10.860001,3.699997-21.430008,7.360001-31.720001,3.099998-8.720001,6.879997-17.110001,12.470001-24.569992.529999-.699997,1.099998-1.380005,1.650002-2.059998l.169998.119995c-.260002.470001-.529999.929993-.790001,1.399994-1.080002,1.660004-2.620003,4.630005-4.910004,9.830002-1.029999,2.339996-1.910004,4.75-2.779999,7.149994-3.620003,10.039993-6.160004,20.360001-7.889999,30.869995-.599998,3.679993-1.110001,7.380005-1.330002,11.119995-.080002,1.270004-.260002,1.389999-1.5,1.070007v.000015Z"/>
    <path class="cls-3" d="M130.740005,188.639999c-3.699997,1.25-5.519997,4.110001-6.330002,7.720001-.660004,2.940002-.660004,5.960007-.980003,8.949997-1.199997,11.479996-3.269997,22.75-8,33.369995-2.18,4.889999-4.860001,9.479996-9.190002,12.850006-1.260002.979996-2.650002,1.720001-4.169998,2.220001-.809998.259995-1.199997.210007-1.099998-.839996,1.129997-12.339996,3.690002-24.389999,7.449997-36.190002,1.18-3.720001,2.519997-7.380005,4.029999-10.970001.089996-.220001,3.559998-7.479996,3.669998-7.690002.389999-.710007.739998-1.350006,1.059998-1.940002,1.669998-2.869995,3.540001-5.610001,5.949997-7.940002,1.660004-1.610001,3.510002-2.869995,5.860001-3.270004,2.699997-.470001,6.190002.979996,7.789993,3.369995-2.080002-.339996-4.089996-.289993-6.039993.369995l.000015-.009979Z"/>
  </g>
  <g>
    <path class="cls-3" d="M121.150002,49.040001c0,.619999-.300003.82-.889999.869999-2.540001.189999-5.900002-1.970001-6.730003-4.34-.269997-.759998.040001-1.07.760002-1.09,1.010002-.02,2.019997,0,3.019997,0h0c.970001,0,1.940002.009998,2.900002,0,.669998-.02.949997.279999.940002.939999-.019997,1.209999-.019997,2.419998,0,3.630001v-.009998Z"/>
    <path class="cls-3" d="M163.050003,45.540001c-.029999-.77.25-1.119999,1.050003-1.080002.929993.040001,1.860001,0,2.789993,0,.970001,0,1.940002-.029999,2.910004.009998,1.050003.040001,1.279999.389999.809998,1.290001-1.350006,2.560001-3.460007,3.98-6.389999,4.130001-.800003.040001-1.210007-.200001-1.169998-1.09.050003-1.09.039993-2.18,0-3.27v.010002Z"/>
    <path class="cls-3" d="M151.889999,36.490002c.039993-.790001.580002-1.16,1.289993-1.169998.729996,0,1.229996.419998,1.25,1.200001.029999,1.130001.039993,2.259998,0,3.389999-.029999.959999-.789993.720001-1.350006.740002-.559998.02-1.199997.110001-1.199997-.77v-1.689999h0c0-.560001-.020004-1.130001,0-1.689999l.01001-.010006Z"/>
    <path class="cls-3" d="M129.75,39.41c.059998-.919998.009995-1.849998.020004-2.779999,0-.849998.509995-1.290001,1.289993-1.310001.800003-.02,1.259995.48,1.279999,1.299999.009995.52,0,1.049999,0,1.57h.009995c0,.360001-.029999.73,0,1.09.119995,1.049999-.289993,1.419998-1.369995,1.400002-.960007-.02-1.309998-.330002-1.240005-1.27h.01001Z"/>
    <path class="cls-3" d="M140.869995,128.300003h-.360001c-2.759995-.059998-2.440002.5-2.479996-2.650002,0-.769997.259995-1.099998,1.050003-1.080002,1.25.040001,2.5.019997,3.740005,0,.589996,0,.929993.209999.889999.839996v.120003c-.029999,3.380005.399994,2.669998-2.850006,2.759995l.009995.01001Z"/>
    <path class="cls-3" d="M142.660004,120.610001c-1.210007-.029999-2.429993-.019997-3.639999,0-.729996.010002-1.009995-.32-1-1.029999.020004-1.82,0-3.639999,0-5.459999,0-1.779999.009995-3.559998,0-5.340004,0-.709999.179993-.879997.830002-.480003,1.199997.720001,2.529999,1.080002,3.910004,1.18.75.050003.960007.379997.949997,1.07-.020004,2.989998-.020004,5.980003,0,8.980003,0,.779999-.279999,1.110001-1.059998,1.089996l.009995-.009995Z"/>
    <path class="cls-3" d="M161.839996,128.300003c-1.210007-.029999-2.429993-.029999-3.639999,0-.740005.020004-1-.309998-.990005-1.019997.039993-3.339996-.350006-2.620003,2.940002-2.709999h.240005c2.809998.059998,2.479996-.510002,2.509995,2.639999,0,.769997-.270004,1.110001-1.059998,1.089996Z"/>
    <path class="cls-3" d="M202.679993,128.300003c-1.25-.039993-2.5-.020004-3.740005,0-.589996,0-.929993-.210007-.899994-.839996v-.120003c.020004-3.400002-.360001-2.669998,2.860001-2.760002h.240005c2.940002.059998,2.539993-.5,2.600006,2.650002.009995.769997-.25,1.099998-1.050003,1.07h-.01001Z"/>
    <path class="cls-3" d="M203.720001,115.160004c0,1.449997-.020004,2.910004.009995,4.360001.020004.769997-.259995,1.110001-1.050003,1.089996-1.210007-.029999-2.419998-.019997-3.630005,0-.710007.010002-1.020004-.279999-1.020004-1.010002.020004-3.029999.020004-6.050003,0-9.080002,0-.709999.259995-1.029999,1-1.010002,1.210007.029999,2.419998.029999,3.630005,0,.770004-.019997,1.089996.260002,1.070007,1.059998-.039993,1.529999-.009995,3.07-.009995,4.599998v-.009987Z"/>
    <path class="cls-3" d="M211.889999,105.529999h-39.690002c-1.660004-.040001-3.320007-.059998-4.979996.019997-2.619995.129997-4.309998,1.959999-4.320007,4.580002-.020004,3.040001-.050003,6.07.009995,9.110001.020004,1.089996-.369995,1.440002-1.410004,1.370003-1.009995-.07-2.029999-.059998-3.039993,0-.940002.050003-1.289993-.309998-1.270004-1.269997.039993-2.870003.020004-5.75.009995-8.620003,0-3.410004-1.759995-5.18-5.149994-5.199997-2.830002-.019997-5.669998.010002-8.5,0-3.300003-.019997-5.5-2.190002-5.520004-5.470001-.020004-3.68.029999-7.370003-.029999-11.050003-.020004-1.07.339996-1.400002,1.399994-1.379997,3.360001.050003,6.720001.040001,10.080002.010002,6.589996-.059998,11.630005-5.550003,11.050003-12.110001-.110001-1.230003.080002-2.260002.600006-3.360001,1.610001-2.32,1.889999-12.529999,1.910004-17.440002.089996-.669998.410004-.830002,1.059998-.860001,2.619995-.110001,5.029999-.889999,7.020004-2.639999.789993-.700001,1.580002-.970001,2.610001-.970001,11.220001.029999,22.430008.09,33.650009,0,8.869995-.080002,15.699997,7.27,15.410004,15.330002-.119995,3.43-.029999,19.849998-.009995,23.949997v28.979996c0,1.393326-.676666,2.09333-2.029999,2.099998h-1.820007c-1.133331,0-1.703323-.553329-1.710007-1.660004v-8.129997c0-3.550003-1.740005-5.279999-5.309998-5.279999l-.020004-.009995Z"/>
    <path class="cls-3" d="M219.949997,128.300003h-.240005c-2.75-.059998-2.479996.509995-2.5-2.639999,0-.760002.25-1.110001,1.050003-1.080002,1.169998.040001,2.339996.029999,3.509995,0,.729996-.019997.970001.32,1.020004,1.019997.190002,2.709999.199997,2.700005-2.830002,2.709999l-.009995-.009995Z"/>
    <path class="cls-3" d="M159.089996,51.599998c0-1.98-.029999-3.970001,0-5.950001.020004-.900002-.320007-1.279999-1.210007-1.18-.119995.009998-.240005,0-.360001,0-10.279999,0-20.570007.02-30.849998-.029999-1.25,0-1.580002.369999-1.559998,1.59.059998,5.830002.040001,11.66.019997,17.48,0,1.59.220001,3.140003.620003,4.670002.18.690002.410004.910004,1.010002.269997,2.399994-2.550003,5.429993-3.519997,8.869995-3.489998,4.410004.040001,8.830002.019997,13.240005,0,3.350006,0,6.289993,1.019997,8.649994,3.459999.610001.629997.820007.43.979996-.260002.270004-1.139999.539993-2.279999.559998-3.470001,0-.349998.020004-6.48.070007-9.989998-.070007-1.040001-.029999-2.080002-.039993-3.119999v.02ZM135.970001,59.91c-.190002,1.099998-1.029999,1.779999-2,1.73-.979996-.049999-1.789993-.799999-1.860001-1.889999-.070007-1.200001-.070007-2.41,0-3.619999.070007-1.220001.929993-2.049999,1.979996-2.040001,1,.009998,1.809998.799999,1.929993,1.959999.059998.599998.009995,1.209999.009995,1.810001h.059998c-.029999.68,0,1.380001-.119995,2.040001l.000015.009998ZM152.100006,59.720001c-.089996,1.099998-.860001,1.919998-1.839996,1.900002-1.059998-.02-1.779999-.580002-1.960007-1.630001-.25-1.400002-.240005-2.82-.009995-4.220001.179993-1.09,1.089996-1.759998,2.050003-1.669998,1.009995.099998,1.699997.849998,1.770004,1.98.039993.599998,0,1.209999,0,1.82h0c0,.610001.039993,1.220001,0,1.82h-.01001Z"/>
    <path class="cls-3" d="M149.630005,68.970001c-5.009995-.040001-10.029999-.040001-15.039993,0-4.059998.029999-7.019997,3.209999-7,7.419998.019997,4.139999,2.979996,7.230003,7.009995,7.269997,2.509995.029999,5.009995,0,7.520004,0,2.509995,0,5.009995.019997,7.520004,0,4.059998-.050003,6.960007-3.089996,6.970001-7.279999.009995-4.25-2.889999-7.370003-6.979996-7.409996h-.000015ZM137.880005,77.240005c-1.350006.349998-2.729996.339996-4.080002.019997-.889999-.209999-1.369995-.900002-1.380005-1.779999-.009995-.940002.509995-1.580002,1.429993-1.879997.630005-.209999,1.279999-.110001,1.929993-.139999.679993.040001,1.369995-.059998,2.050003.160004.869995.290001,1.350006.910004,1.369995,1.800003.020004.889999-.429993,1.589996-1.309998,1.82l-.009979-.000008ZM150.360001,77.310005c-.639999.190002-1.279999.110001-1.929993.139999-.639999-.029999-1.289993.059998-1.929993-.139999-.919998-.290001-1.460007-.93-1.449997-1.870003,0-.940002.539993-1.650002,1.470001-1.839996,1.270004-.260002,2.580002-.260002,3.850006,0,.940002.199997,1.449997.900002,1.449997,1.849998s-.539993,1.57-1.460007,1.849998l-.000015.010002Z"/>
  </g>
  <g>
    <path class="cls-3" d="M364.070007,39.119999c-1.420013.880001-2.5,2.02-3.170013,3.549999-.359985.810001-1.079987,1.060001-1.859985,1.200001-1.880005.34-3.359985,1.330002-4.600006,2.759998-.48999.57-.5.98.149994,1.459999,1.119995.82,1.940002,1.919998,2.619995,3.119999.230011.400002.480011.740002.980011.860001,3.470001.869999,6.119995,2.860001,8.029999,5.869999.049988.080002.149994.130001.299988.25.880005-1.810001,1.98999-3.400002,3.609985-4.580002,1.059998-.779999,2.190002-1.41,3.459991-1.740002.630005-.16,1.059998-.470001,1.380005-1.02.940002-1.619999,2.279999-2.849998,3.980011-3.630001.910004-.419998.769989-.790001.179993-1.349998-1.079987-1-2.320007-1.720001-3.779999-1.950001-1.149994-.18-1.890015-.77-2.359985-1.84-.559998-1.299999-1.619995-2.150002-2.799988-2.91-2.700012-1.759998-6.149994-.060001-6.149994-.060001l.029999.01001Z"/>
    <path class="cls-3" d="M400.579987,65.809998c-1.540009-1.080002-2.970001-2.110001-2.959991-4.439999.019989-2.91-2.549988-5.619999-5.540009-6.240002-1.369995-.279999-2.179993-.919998-2.829987-2.169998-2.200012-4.260002-8.440002-4.57-11.170013-.619999-.279999.400002-.540009.830002-.73999,1.27-.339996.73-.880005,1.110001-1.660004,1.310001-4.380005,1.119999-6.23999,3.369999-6.529999,7.849998-.019989.279999,0,.639999-.170013.799999-.779999.779999-.290009,1.160004.329987,1.699997,2.720001,2.360001,3.679993,6.730003,2.220001,10.029999-.480011,1.089996-.790009,2.25-1.380005,3.290001-.399994.699997-.279999,1.400002.350006,2,1.109985,1.040001,2.429993,1.660004,3.899994,1.959999.73999.150002,1.380005.449997,1.98999.889999,3.929993,2.860001,10.570007,2.779999,14.440002-.190002.459991-.349998.970001-.540001,1.529999-.660004,4.390015-.940002,7.019989-4.190002,6.809998-8.650002-.070007-1.5.589996-2.470001,1.619995-3.330002,1.549988-2.400002-.209991-4.790001-.209991-4.790001l.000031-.009987Z"/>
    <path class="cls-3" d="M347.76001,92.949997c2.649994-.040001,5.869995-.639999,8.570007-2.940002.390015-.330002.869995-.419998,1.359985-.510002,5.269989-.93,9.079987-5.590004,8.76001-10.870003-.079987-1.220001.149994-2.139999.940002-3.059998,2.320007-2.709999,1.790009-6.440002-1.220001-8.389999-1.070007-.690002-1.5-1.540001-1.540009-2.769997-.149994-4.5-3.049988-8.080002-7.429993-9.02-1.390015-.299999-2.149994-.959999-2.799988-2.189999-1.619995-3.060001-4.279999-4.57-7.76001-4.43-3.309998.119999-5.730011,1.73-7.179993,4.689999-.529999,1.09-1.26001,1.630001-2.429993,1.889999-4.190002.939999-6.920013,3.560001-7.519989,7.779999-.290009,2.070004-.679993,3.679996-2.589996,4.719997-.649994.360001-.709991.900002-.149994,1.550003,1.130005,1.309998,1.720001,2.879997,1.929993,4.589996.049988.410004.179993.75.5,1,2.730011,2.209999,3.320007,6.43,1.089996,9.389999-.519989.690002-.429993,1.419998.230011,2.080002,1.429993,1.419998,3.109985,2.370003,5.070007,2.849998.670013.160004,1.420013.160004,1.98999.629997,2.730011,2.290001,5.970001,2.989998,10.179993,2.989998l-.000031.020012Z"/>
    <path class="cls-3" d="M305.359985,58.580002c.040009,1.490002.700012,2.830002,1.76001,4.040001.480011.540001.75.73,1.410004.220001,1.220001-.919998,2.630005-1.450001,4.179993-1.549999,3.570007-.23,6.359985,1.09,8.320007,4.109997.519989.800003,2.26001,1.32,2.730011.82,1.130005-1.190002,2.609985-2.199997,2.369995-4.18-.019989-.130001.070007-.27.109985-.400002,1.339996-4.860001,4.390015-8.040001,9.25-9.450001.480011-.139999.890015-.330002,1.160004-.82,1.309998-2.400002,3.269989-4.099998,5.779999-5.16.670013-.279999.670013-.57.25-1.07-1.480011-1.77-3.350006-2.889999-5.609985-3.259998-1.179993-.189999-1.839996-.779999-2.339996-1.830002-1.459991-3.02-3.929993-4.630001-7.269989-4.73-3.420013-.099998-6.089996,1.349998-7.649994,4.43-.660004,1.299999-1.48999,1.939999-2.890015,2.240002-4.359985.93-7.299988,4.579998-7.380005,9.040001-.019989,1.169998-.410004,2-1.429993,2.599998-1.820007,1.07-2.609985,2.77-2.75,4.950001h-.000031Z"/>
    <path class="cls-3" d="M313.549988,94.400002c1.910004.029999,3.709991-.25,5.279999-1.290001.890015-.589996,1.799988-1.019997,2.839996-1.279999,3.040009-.760002,5.23999-3.910004,4.910004-6.980003-.089996-.839996.130005-1.5.630005-2.139999,1.570007-2.019997,1.329987-3.93-.720001-5.419998-.709991-.519997-1.049988-1.120003-1.100006-2.019997-.170013-3.199997-1.929993-5.290001-5.040009-6.040001-.920013-.220001-1.570007-.650002-1.980011-1.540001-.929993-2.019997-2.630005-3.029999-4.790009-3.040001-2.160004,0-3.850006.989998-4.809998,3-.429993.900002-1.089996,1.370003-2.059998,1.580002-2.980011.660004-4.850006,2.93-4.950012,5.989998-.029999.879997-.329987,1.519997-1.070007,2.029999-2.079987,1.449997-2.369995,3.43-.799988,5.410004.51001.650002.690002,1.309998.630005,2.139999-.23999,3.400002,1.970001,6.330002,5.309998,7.110001.579987.139999,1.170013.260002,1.649994.639999,1.799988,1.419998,3.880005,1.900002,6.070007,1.839996l.000031.010002Z"/>
    <path class="cls-3" d="M374.339996,128.279999h4.529999c1.179993,0,1.200012-.039993.820007-1.089996-.320007-.889999-.660004-1.769997-.950012-2.68-2.130005-6.709999-2.73999-13.650002-2.98999-20.639999-.029999-.959999.290009-1.669998.980011-2.32,1.75-1.669998,3.459991-3.389999,5.179993-5.089996.390015-.379997.799988-.709999.190002-1.279999-.519989-.489998-.950012-.639999-1.51001-.059998-.869995.910004-1.790009,1.779999-2.700012,2.660004-.589996.580002-1.26001.910004-2.089996.559998-.820007-.349998-1.079987-1.050003-1.079987-1.879997,0-1.230003,0-2.459999-.019989-3.68-.040009-1.93-.100006-3.860001-.179993-5.779999-.029999-.809998-.970001-1.470001-2.01001-1.349998-.769989.089996-.420013.769997-.420013,1.169998-.019989,5.230003-.279999,10.440002-.609985,15.659996-.119995,1.889999-1.26001,2.529999-2.929993,1.629997-2.380005-1.279999-4.730011-2.610001-7.100006-3.910004-.309998-.169998-.619995-.349998-.950012-.440002-.359985-.110001-.709991.010002-.899994.370003-.190002.370003.079987.589996.329987.779999s.519989.360001.779999.540001c3.019989,2.040001,6.040009,4.099998,9.079987,6.120003.910004.610001,1.329987,1.389999,1.230011,2.480003-.26001,2.650002-.48999,5.300003-.75,7.949997-.299988,3.110001-.700012,6.199997-1.329987,9.260002-.149994.75,0,1.089996.859985,1.050003,1.51001-.070007,3.019989-.020004,4.529999-.020004l.01001-.01001Z"/>
    <path class="cls-3" d="M328.799988,90.68c-.820007.900002-1.559998,1.82-2.5,2.559998-.309998.25-.309998.599998-.329987.959999-.130005,2.769997-.290009,5.529999-.410004,8.300003-.029999.790001-.230011,1.459999-.980011,1.839996-.809998.410004-1.470001.089996-2.140015-.389999-2.160004-1.550003-3.940002-3.470001-5.48999-5.620003-.179993-.239998-.329987-.800003-.75-.5-.299988.220001.109985.559998.26001.800003,2.160004,3.389999,4.549988,6.57,7.700012,9.129997.679993.550003,1,1.25.920013,2.120003-.23999,2.580002-.459991,5.159996-.709991,7.739998-.320007,3.239998-.730011,6.480003-1.380005,9.669998-.170013.830002.100006,1.020004.890015,1.009995,3.049988-.039993,6.109985-.029999,9.160004,0,.809998,0,1.100006-.179993.75-1.019997-.440002-1.07-.829987-2.160004-1.160004-3.269997-1.980011-6.599998-2.679993-13.379997-2.820007-20.239998-.019989-.879997.269989-1.529999.899994-2.129997,2.170013-2.099998,4.309998-4.220001,6.450012-6.360001.290009-.290001,1.019989-.589996.380005-1.139999-.5-.43-1.040009-.919998-1.779999-.120003-1.179993,1.290001-2.480011,2.480003-3.730011,3.709999-.609985.599998-1.299988,1-2.170013.629997-.869995-.370003-1.070007-1.129997-1.070007-1.989998v-5.68l.009979-.009995Z"/>
    <path class="cls-3" d="M353.559998,103.220001c.779999.07,1.540009-.110001,2.290009-.260002.579987-.120003.980011-.290001.559998-1.040001-.359985-.639999-.48999-1.370003-.339996-2.139999.600006-3.160004,3.75-4.5,6.660004-2.82,1.089996.629997,1.269989.550003,1.230011-.690002-.040009-1.160004.100006-2.190002.940002-3.110001.559998-.610001.480011-1.449997.279999-2.209999-.179993-.669998-.549988-.949997-1.209991-.43-.880005.709999-1.880005,1.260002-2.950012,1.580002-1.709991.519997-3.299988,1.220001-4.859985,2.129997-3.720001,2.150002-7.829987,2.480003-12.029999,2.010002-1.029999-.120003-1.149994-.040001-.899994.949997.5,2.010002,1.779999,3.300003,3.75,3.879997.600006.18,1.23999.260002,1.75.669998,1.420013,1.139999,3.089996,1.419998,4.829987,1.470001l-.000031.01001Z"/>
  </g>
  <g>
    <path class="cls-3" d="M353.76001,190.410004c-.769989-.529999-1.630005-.789993-2.540009-.979996-.929993-.199997-2.029999-.339996-2.619995.25-.660004.649994.100006,1.630005.369995,2.429993.799988,2.320007,1.690002,4.610001,2.170013,7.020004.700012,3.509995.309998,6.949997-.829987,10.320007-.600006,1.770004-1.200012,3.539993-1.790009,5.320007-.25.759995-.179993,1.220001.829987,1.300003,1.600006.130005,3.049988-.160004,4.390015-1.020004,2.459991-1.139999,4.420013-2.960007,6.309998-4.839996,3.420013-3.389999,3.309998-3.410004,3.440002-8.220001.059998-2.039993-.339996-3.669998-1.850006-5.139999-2.450012-2.380005-4.779999-4.889999-7.910004-6.429993l.029999-.010025Z"/>
    <path class="cls-3" d="M390.429993,223.589996c-.98999-.770004-1.920013-1.029999-2.769989-1.449997-3.75-1.830002-7.440002-3.759995-11.049988-5.850006-1.459991-.850006-1.48999-.860001-2.399994.619995-.459991.740005-.890015,1.520004-1.170013,2.339996-.570007,1.660004-.109985,2.899994,1.480011,3.630005,5.109985,2.360001,10.350006,2.440002,15.910004.699997l-.000031.01001Z"/>
    <path class="cls-3" d="M431.820007,173.210007c-.600006-.679993-1.230011-.910004-1.820007-1.190002-3.790009-1.820007-7.820007-2.910004-11.98999-3.270004-2.519989-.220001-5.089996-.369995-7.600006.220001-1.339996.320007-1.649994.860001-1.220001,2.179993.299988.910004.75,1.759995,1.079987,2.660004.290009.759995.679993.910004,1.519989.720001,6.529999-1.479996,13.119995-2.289993,20.029999-1.320007l.000031.000015Z"/>
    <path class="cls-3" d="M430.200012,232.529999c-1.190002,0-2.029999-.059998-2.850006,0-4.059998.330002-8.059998-.259995-12.049988-.869995-1.470001-.229996-3.140015-1.259995-4.309998-.669998-1.170013.589996-1.76001,2.339996-2.570007,3.589996-1.140015,1.740005-1.029999,1.949997,1.070007,2.139999.25.020004.5.020004.75.029999,3.170013.100006,6.339996.080002,9.480011-.509995,3.570007-.669998,7-1.759995,10.48999-3.720001l-.01001.009995Z"/>
    <path class="cls-3" d="M445.190002,223.660004c-1.589996-1.990005-2.769989-4.240005-4.049988-6.429993-.170013-.419998-.329987-.850006-.51001-1.259995-5.190002-11.830002-5.149994-23.649994.119995-35.430008.450012-1.009995.23999-1.270004-.700012-1.589996-8.880005-3.059998-17.839996-2.899994-26.880005-.850006-9.109985,2.070007-17.679993,5.580002-26,9.729996-6.339996,3.160004-12.51001,6.610001-18.390015,10.569992-1.25.399994-1.679993,1.229996-1.559998,2.539993.130005,1.360001.070007,2.75.01001,4.119995-.029999.740005.179993,1.190002.829987,1.610001,9.410004,6.050003,19.149994,11.449997,29.529999,15.660004,8.769989,3.550003,17.75,6.289993,27.320007,6.5,6.950012.149994,13.570007-1.300003,19.869995-4.25.399994-.190002.940002-.270004.410004-.919998l.000031.000015ZM401.140015,206.990005c.51001.660004,1.140015,1.220001,1.660004,1.869995.660004.839996.619995,1.729996-.119995,2.479996-.690002.710007-1.619995.880005-2.369995.220001-2.670013-2.369995-4.570007-5.179993-4.679993-8.830002.149994-3.699997,2.01001-6.440002,4.589996-8.779999.790009-.720001,1.730011-.589996,2.470001.160004.75.759995.769989,1.649994.109985,2.479996-.519989.649994-1.149994,1.210007-1.660004,1.869995-2.269989,2.899994-2.26001,5.630005,0,8.529999v.000015ZM412.780029,211.320007c-.730011.759995-1.690002.910004-2.470001.190002-2.600006-2.369995-4.519989-5.119995-4.579987-8.789993.089996-3.679993,1.98999-6.399994,4.529999-8.75.779999-.720001,1.730011-.630005,2.480011.110001s.820007,1.630005.149994,2.479996c-.540009.679993-1.200012,1.279999-1.730011,1.970001-2.209991,2.839996-2.190002,5.610001.040009,8.440002.51001.649994,1.130005,1.229996,1.660004,1.869995.690002.830002.660004,1.720001-.070007,2.479996h-.01001ZM421.360016,207.100006c.470001.580002,1.029999,1.100006,1.5,1.669998.700012.850006.670013,1.880005-.040009,2.589996-.720001.720001-1.790009.800003-2.589996.050003-4.829987-4.520004-6.220001-10.059998-1.679993-15.570007.679993-.830002,1.299988-1.75,2.339996-2.199997.190002-.080002.399994-.110001.559998-.149994.790009.110001,1.399994.389999,1.730011,1.119995.329987.720001.23999,1.389999-.25,1.979996-.51001.610001-1.089996,1.149994-1.589996,1.770004-2.369995,2.940002-2.359985,5.800003.01001,8.729996l.009979.01001Z"/>
    <path class="cls-3" d="M464.880005,196.539993c-3.950012-4.539993-8.279999-8.660004-13.410004-11.860001-1.730011-1.300003-3.679993-2.240005-5.559998-3.289993-.880005-.490005-1.269989-.429993-1.720001.550003-3.029999,6.669998-4.190002,13.630005-3.350006,20.910004.799988,6.929993,3.350006,13.149994,7.48999,18.75.459991.619995.779999.789993,1.480011.320007,1.470001-1.009995,3.040009-1.880005,4.399994-3.050003,3.450012-2.380005,6.440002-5.270004,9.26001-8.339996,1.040009-1.130005.579987-2.410004-.929993-2.830002-.279999-.080002-.559998-.149994-.850006-.220001-1.910004-.449997-3.76001-1.059998-5.559998-1.830002-.920013-.389999-1.559998-1.020004-1.429993-2.089996.119995-.979996.769989-1.520004,1.75-1.679993.25-.039993.48999-.100006.730011-.160004,2.540009-.559998,4.929993-1.5,7.179993-2.789993,1.019989-.580002,1.26001-1.550003.519989-2.389999v-.000031ZM450.200012,196.289993c-1.040009.020004-1.869995-.720001-1.929993-1.729996-.059998-1.039993.769989-1.940002,1.829987-1.970001,1.049988-.029999,1.920013.820007,1.920013,1.880005,0,1.020004-.779999,1.800003-1.820007,1.830002v-.01001Z"/>
  </g>
  <g>
    <path class="cls-4" d="M200.449997,213.639999c2.529999.710007,4.419998-.679993,6.350006-1.949997,22.279999-14.639999,46.440002-18.790009,72.340012-12.759995,10.51001,2.440002,20.179993,6.919998,29.089996,13.009995,1.959991,1.339996,3.970001,2.360001,6.429993,1.690002,1.480011-.149994,2.880005-.699997,3.190002-2.220001.269989-1.330002-1.160004-1.860001-2.049988-2.520004-6.380005-4.809998-13.079987-9.139999-20.23999-12.720001-11.01001-5.5-22.579987-9.009995-34.940002-9.550003-17.419998-.759995-33.240005,4.440002-48.100006,13.100006-4.979996,2.899994-9.699997,6.210007-14.309998,9.669998-2,1.5-1.850006,2.729996.339996,3.839996.600006.300003,1.190002.570007,1.880005.419998l.019974-.009995Z"/>
    <path class="cls-4" d="M231.600006,303.679993c1.589996,6.48999,1.580002,12.829987-1.869995,18.829987-.190002.329987-.300003.799988-.240005,1.160004.399994,2.380005-.570007,4.869995-.220001,6.970001.350006,2.119995,2.75,3.910004,4.25,5.850006.050003.059998.089996.130005.139999.200012,5.75,8.190002,13.619995,12.48999,23.639984,12.850006,2.070007.100006,4.089996-.26001,6.089996-.660004,5.940002-1.179993,10.649994-4.519989,15.019989-8.5,6.820007-6.209991,13.200012-12.799988,18.399994-20.470001,1.070007-1.440002,2.209991-2.829987,3.209991-4.320007,2.73999-4.079987,2.720001-4.100006-2.190002-5-3.820007-.699982-5.666656.886688-5.540009,4.76001-1.619995.420013-3.290009.01001-4.910004.23999-2.380005.339996-3.059998-.5-2.980011-2.920013.190002-6.049988.059998-12.100006.059998-18.119995-18.139984,16.869995-36.070007,16.73999-54.220001.399994-.259995,2.859985-.279999,5.899994,1.360001,8.730011h.000076Z"/>
    <path class="cls-4" d="M277.540009,139.190002c-3.609985-1.380005-7.220001-2.759995-10.829987-4.130005-5.390015-2.050003-10.770004-1.949997-16.149994.080002-11.389999,4.289993-22.809998,8.509995-34.149994,12.899994-8.979996,3.479996-14.009995,11-13.929993,20.680008.050003,5.600006.350006,11.190002.580002,16.779999.139999,3.389999.380005,6.779999.589996,10.529999,4.929993-3.240005,9.830002-5.729996,14.680008-8.320007.539993-.190002,1.100006-.339996,1.630005-.570007,13.580002-6,27.679993-9.050003,42.630005-8.100006,13.880005.880005,26.720001,5.009995,38.910004,11.449997,4.040009,2.130005,7.929993,4.539993,12.170013,6.979996.480011-10.210007,1.209991-20.130005,1.059998-30.070007-.130005-8.75-4.410004-15.179993-12.320007-18.630005-8.130005-3.550003-16.549988-6.419998-24.850006-9.580002l-.02005.000046Z"/>
    <path class="cls-4" d="M235.559998,217.639999c-7.919998.889999-15.839996,1.850006-23.839996,1.440002-1.089996-.059998-1.429993.410004-1.449997,1.440002-.039993,1.970001-.210007,3.940002-.279999,5.910004-.039993,1.210007-.110001,2.509995-1.660004,2.529999-1.389999.020004-1.880005-1.029999-1.960007-2.350006-.070007-1.229996-.339996-2.440002-.429993-3.669998-.089996-1.300003-.399994-1.910004-1.970001-1.509995-1.830002.460007-3.770004.449997-5.610001-.119995-1.539993-.470001-2.039993,0-2.009995,1.600006.059998,3.559998.529999,7.070007,1.460007,10.470001,1.550003,5.710007,3.949997,10.729996,10.960007,11.279999,1.949997.149994,3.100006,1.509995,3.240005,3.470001.149994,2.050003.270004,4.110001.160004,6.160004-.369995,6.900009,2.080002,12.699997,6.649994,17.729996,5.100006,5.609985,10.770004,10.619995,16.199997,15.880005.669998.709991,1.410004,1.380005,2.009995,2.149994,6.729996,8.609985,16.039993,9.619995,25.889999,8.570007,4.970001-.529999,9.040009-3.070007,12.589996-6.690002,6.450012-6.589996,13.179993-12.899994,19.690002-19.440002,3.480011-3.5,6.190002-7.600006,6.880005-12.570007.459991-3.320007.26001-6.740005.329987-10.110001.079987-3.649994,1.149994-5.009995,4.670013-5.399994,3.029999-.339996,5.190002-1.869995,6.839996-4.309998,2.910004-4.320007,3.600006-9.289993,4.160004-14.289993.160004-1.380005.529999-3.070007-.070007-4.119995-.839996-1.470001-2.48999.309998-3.799988-.050003-.230011-.059998-.51001-.050003-.73999.009995-1.450012.410004-3.299988-1.210007-4.269989.220001-.799988,1.179993-.670013,2.990005-.959991,4.529999-.01001.080002-.01001.160004-.019989.25-.019989,1.279999-.380005,2.350006-1.890015,2.369995-1.529999.020004-1.890015-1.160004-1.950012-2.360001-.109985-1.970001-.190002-3.960007-.100006-5.929993.079987-1.600006-.549988-2.529999-1.869995-3.389999-9.940002-6.479996-20.799988-10.490005-32.459991-12.470001-2.26001-.380005-4.140015-.149994-6.079987,1.460007-4.200012,3.490005-9.080002,5.899994-14.220001,7.789993-4.580002,1.669998-9.419998,2.240005-14.080002,3.520004l-.010056-.000031Z"/>
    <path class="cls-4" d="M305.660004,321.369995c-.320007.369995-.670013.720001-.950012,1.119995-6.540009,9.25-14.290009,17.369995-22.630005,25.040009-11.630005,10.700012-29.279999,13.299988-43.330002,4.480011-.970001-.609985-1.470001-.829987-2.039993.609985-2.110001,5.350006-6.110001,8.549988-11.869995,9.049988-5.490005.480011-11.029999.660004-16.5-.089996-10.190002-1.390015-15.179993-11.029999-10.649994-20.269989,1.089996-2.230011,2.259995-4.450012,3.970001-6.230011,2.240005-2.350006,3.880005-4.679993,2.679993-8.130005-.490005-1.420013.759995-3.089996-.449997-4.480011-.949997-2.089996-2.089996-4.140015-2.360001-6.440002-.229996-2-1.100006-2.100006-2.809998-1.73999-11.539993,2.480011-23.110001,4.839996-34.660004,7.279999-8.509995,1.790009-14.899994,6.230011-18.029999,14.660004-1.270004,2.790009-1.529999,5.859985-2.5,8.720001-.589996,1.730011-.089996,2.470001,1.479996,3.170013,7.449997,3.320007,15.039993,6.269989,22.779999,8.790009,24.910004,8.130005,50.5,12.720001,76.660004,13.880005,15.060013.660004,30.12999.25,45.110001-1.48999,14.049988-1.630005,27.959991-4.079987,41.630005-7.799988,13.179993-3.589996,26.160004-7.790009,38.559998-13.600006.850006-.399994,2.040009-.519989,1.579987-1.98999-1.01001-3.200012-1.339996-6.589996-2.75-9.679993-2.540009-6.980011-7.48999-11.5-14.48999-13.679993-3.359985-1.049988-6.859985-1.630005-10.309998-2.359985-10.359985-2.200012-20.720001-4.369995-31.079987-6.540009-1.019989-.209991-2.029999-.48999-2.76001.809998-1.329987,2.359985-2.829987,4.609985-4.26001,6.910004l-.019989-.000061Z"/>
    <path class="cls-4" d="M210.369995,274.01001c-2.929993,6.179993-1.669998,13.130005,3.100006,18.209991,2.470001,2.640015,2.559998,4.380005.050003,7.01001-2.350006,2.459991-3.860001,5.350006-4.419998,8.619995-.630005,3.679993-.509995,7.350006,1.729996,10.660004.910004,1.350006,2.210007,1.179993,3.300003.829987,1.179993-.369995.220001-1.470001.089996-2.119995-1.339996-6.799988,0-13.140015,3.630005-18.860016,1.339996-2.109985.960007-3.220001-.190002-5.079987-2.610001-4.25-5.089996-8.649994-3.899994-14.019989.130005-.589996-.100006-1.109985-.490005-1.589996-.929993-1.140015-1.820007-2.309998-2.899994-3.670013l-.000015.01001Z"/>
    <path class="cls-4" d="M217.190002,333.899994c-2.639999-.649994-4.5.730011-6.350006,2.589996-2.399994,2.410004-4.369995,5.070007-5.979996,8.040009-1.639999,3.01001-1.190002,5.869995,1.380005,8.160004,1.619995,1.440002,2.350006,1.26001,3.25-.690002.449997-.959991.990005-1.880005,1.539993-2.799988,2.729996-4.579987,6.320007-8.359985,10.850006-11.170013,1.399994-.869995,1.339996-1.390015.330002-2.579987-1.369995-1.630005-3.009995-1.799988-5-1.549988l-.020004-.000031Z"/>
    <g>
      <path class="cls-2" d="M260.217523,165.804879h-1.708583v4.698611h-6.300432v-18.687738h8.996804c5.205888,0,8.51624,2.723033,8.51624,7.047942,0,2.696369-1.281395,4.725326-3.523971,5.873302l3.92444,5.766493h-6.727568l-3.17693-4.698611ZM260.804843,156.67455h-2.295903v4.378288h2.295903c1.735296,0,2.562895-.827601,2.562895-2.189144s-.827599-2.189144-2.562895-2.189144"/>
      <polygon class="cls-2" points="233.059433 156.567752 233.059433 159.771401 240.854881 159.771401 240.854881 164.523389 233.059433 164.523389 233.059433 170.503501 226.758999 170.503501 226.758999 151.815711 241.949481 151.815711 241.949481 156.567752 233.059433 156.567752"/>
      <path class="cls-2" d="M284.462111,156.759592c-.4928,2.912287-2.042315,6.93472-6.756743,8.342749-.515453.153936-1.359563.300605-1.953402.387164-.037722.004703-.062462.005718-.07037.005396-.195718-.575885-.572198-1.813093-.742697-3.135951-.218057-1.673796-.019078-3.855193,1.253342-5.459421.217946-.275386.454168-.529026.7038-.763483,1.1787-1.106834,2.713468-1.608611,4.065608-2.012392.794687-.237344,1.570507-.29163,2.18887-.36435l-.849615-1.943573h-6.193673l-8.169202,18.687736h6.407243l1.254735-3.256973h7.101374l1.25478,3.256973h6.513953l-6.008003-13.743876Z"/>
      <path class="cls-2" d="M276.907136,158.240025c-.203522.181507-.396572.377442-.575247.589671-1.043089,1.236086-1.165821,2.752098-1.01429,4.020136.118245,1.002215.409017,1.851135.550184,2.285053.078279-.168576.166814-.361517.264914-.572092.137799-.295797.29494-.627446.473938-.984529.993881-1.986478,2.630434-4.719661,5.030419-5.965044,0,0-2.87718,2.551837-4.789709,5.979685-.291845.521171-.560444,1.061685-.793193,1.6178.477574-.074056.923243-.174989,1.33889-.29911,4.821128-1.439926,5.618002-6.0025,5.733045-7.976741.033232-.570704.009725-.925756.009725-.925756,0,0-.282498.007641-.740939.061713-.077317.009138-.159068.01945-.245947.031418-.034673.004755-.070207.009725-.106276.014907-.517964.074804-1.177894.200636-1.883886.411476-1.090217.325613-2.290662.854372-3.251628,1.711412"/>
      <rect class="cls-2" x="243.867786" y="151.815733" width="6.422419" height="18.687737"/>
    </g>
  </g>
  <path class="cls-3" d="M297.160004,74.080002c.149994-1.290001.5-2.489998,1.029999-3.589996-13.380005-3.18-27.140015-4.790001-41.029999-4.790001-10.039993,0-19.990005.839996-29.75,2.489998-.020004,1.919998-.020004,4.550003-.020004,7.339996,9.759995-1.730003,19.710007-2.610001,29.759995-2.610001,12.75,0,25.389984,1.419998,37.700012,4.209999.429993-.989998,1.140015-2.050003,2.299988-3.050003l.01001.000008Z"/>
  <path class="cls-3" d="M133.350006,125.699997c-.020004-1.330002.320007-2.349998.770004-3.110001-.440002-.75-.779999-1.760002-.759995-3.07.009995-1.07.009995-2.169998.009995-3.25-8.870003,8.68-16.57,17.93-23.290001,28.040001.080002.110001.169998.220001.25.330002l4.290001,5.929993c5.510002-8.569992,11.709999-16.509995,18.75-23.989998v-.880005l-.020004.000008Z"/>
  <path class="cls-3" d="M415.609985,163.919998c-8.660004-17.460007-20.040009-33.199997-33.919983-46.949997.380005,2.050003.859985,4.110001,1.5,6.120003.179993.57.399994,1.169998.630005,1.800003l.26001.699997c.290009.809998.929993,2.57.049988,4.450005,9.390015,10.570007,17.380005,22.220001,23.859985,34.820007.420013-.169998.859985-.320007,1.339996-.429993,2.149994-.509995,4.25-.580002,6.269989-.509995l.01001-.000031Z"/>
  <g>
    <path class="cls-3" d="M232.789922,437.824435h-5.290866v14.5499h-19.510163v-57.869175h27.859854c16.120754,0,26.37172,8.432249,26.37172,21.824931,0,8.349681-3.968018,14.632627-10.912466,18.187497l12.152574,17.856747h-20.832849l-9.837805-14.5499ZM234.608639,409.551102h-7.109583v13.557977h7.109583c5.373585,0,7.936359-2.562782,7.936359-6.778987s-2.562774-6.77899-7.936359-6.77899"/>
    <polygon class="cls-3" points="148.691125 409.220388 148.691125 419.140932 172.830812 419.140932 172.830812 433.856122 148.691125 433.856122 148.691125 452.374371 129.180955 452.374371 129.180955 394.505034 176.220392 394.505034 176.220392 409.220388 148.691125 409.220388"/>
    <path class="cls-3" d="M307.866654,409.814448c-1.526025,9.0183-6.324313,21.474325-20.923192,25.83448-1.596171.476685-4.210075.930867-6.04898,1.198908-.116812.014562-.193422.017706-.217911.016711-.606067-1.783309-1.771889-5.614493-2.299863-9.710907-.675244-5.183142-.059078-11.938139,3.881148-16.905855.674901-.85277,1.406395-1.638202,2.179415-2.364233,3.650008-3.427466,8.402629-4.981288,12.58972-6.231652,2.460858-.734968,4.863294-.903072,6.778141-1.12826l-2.630951-6.018542h-19.179569l-25.297069,57.86917h19.840917l3.88546-10.08567h21.99039l3.885602,10.08567h20.171359l-18.604616-42.559822Z"/>
    <path class="cls-3" d="M284.471627,414.398814c-.630234.562062-1.22804,1.168801-1.781332,1.825999-3.230071,3.827711-3.610128,8.522254-3.140888,12.44891.366161,3.103498,1.266577,5.732298,1.703723,7.075984.242401-.52202.516562-1.119489.820343-1.771561.426713-.915976.913322-1.942975,1.467614-3.048732,3.07769-6.151404,8.145504-14.615085,15.577389-18.471588,0,0-8.909587,7.902119-14.831999,18.516924-.903739,1.613879-1.735493,3.287654-2.456232,5.009744,1.478874-.229325,2.858951-.541877,4.146059-.926236,14.929291-4.458932,17.396925-18.587575,17.753169-24.701086.102906-1.767264.030115-2.866732.030115-2.866732,0,0-.874796.023661-2.29442.191104-.239422.028297-.492577.060229-.761609.097292-.10737.014724-.217406.030115-.329099.046161-1.603947.23164-3.647513.621296-5.833715,1.274192-3.376008,1.008306-7.093354,2.64568-10.069118,5.299626"/>
    <path class="cls-3" d="M198.126912,432.030522c.633869-.805614,3.08381-4.747989,3.08381-4.747989,0,0-4.687762,5.377228-5.626907,6.07331-.938973.696083-2.153436.001323-1.415822-.853103.737609-.854591,3.150654-5.413131,3.150654-5.413131,0,0-3.535513,4.327395-4.687929,5.377392-1.152416,1.049999-2.519264.300474-1.769738-1.066543.749525-1.366851,5.296814-7.311432,5.296814-7.311432,0,0-3.846742,4.473989-5.096777,5.316504-1.250036.842679-2.037946-.559911-1.141827-1.615866.896124-1.055955,8.229561-9.960914,8.405775-10.930997.176375-.970078-.781791-1.658884-3.979273-3.066102-3.197477-1.407223-1.954723-4.147049-.953536-3.098373.969754,1.015911,6.753839,1.902769,8.656446,1.806639v-17.995731h-19.887912v22.379874c1.043874-1.258306,1.829473-2.232358,2.036295-2.541102.743567-1.11089,2.519264-.30064,1.885394.50514-.634036.805619-3.083977,4.747991-3.083977,4.747991,0,0,4.687929-5.377392,5.627069-6.073308.938978-.696083,2.153274-.001328,1.41566.853098s-3.150487,5.412965-3.150487,5.412965c0,0,3.535508-4.327393,4.687924-5.377225,1.152254-1.049994,2.519269-.300469,1.769743,1.066379-.749525,1.367015-5.296814,7.311596-5.296814,7.311596,0,0,3.84657-4.473989,5.096772-5.316665,1.250041-.842515,2.037785.560073,1.141666,1.61603-.896124,1.055952-8.229395,9.960914-8.405775,10.930994-.176213.970083.781958,1.65872,3.979435,3.06594,3.197482,1.40739,1.954723,4.147046.953536,3.098537-.969749-1.015913-6.753839-1.902936-8.656441-1.806803v17.99573h19.887912v-22.379711c-1.043879,1.258309-1.829639,2.232196-2.036295,2.541107-.743572,1.110721-2.519269.300471-1.885394-.505145"/>
    <path class="cls-3" d="M357.52181,394.505029h-50.399394l25.297231,57.869339h50.399394l-25.297231-57.869339ZM361.56675,436.305729c-.808588-.137992-1.28113.452364-2.025853-.392797.535255-.278466,1.309426-.468083,2.025853.392797M358.4717,435.255733c.555271-.356232,1.362223-.551474,2.189009.217411-.872635-.066513-1.375775.521359-2.189009-.217411M356.477759,433.576661c-.886187.42407-.965604,1.127103-2.060775.88239.340672-.657531.955505-1.195106,2.060775-.88239M352.982777,434.763494c.209307-.774012.702874-1.38621,1.977561-1.407387-.840197.652401-.762598,1.414668-1.977561,1.407387M358.035878,433.972604c-.943609.273833-1.262932,1.14133-2.326009.606901.443255-.593333,1.153905-1.089541,2.326009-.606901M359.484465,434.683082c-.978692.086534-1.428067.829937-2.464503.16099.549494-.496375,1.501364-.933348,2.464503-.16099M357.588805,423.711051c.006302-.017208.015734-.033258.036073-.07545.040536.206492.076932.388166.111854.570335.267537,1.396468.533599,2.79343.803296,4.189567.041869.216916.087031.434659.152552.645286.152067.488765.482802.802971.974046.946919.064046.018698.12989.031932.194926.047818v1.151257c-.03377.002318-.067359.006289-.101109.006289-1.425906.000331-2.851831.000331-4.277757.000331h-.107713v-1.138023c.131042-.024654.262911-.035904.386177-.074953.481004-.152385.731676-.507791.851467-.979676.083214-.328271.028781-.647109-.032942-.969752-.120115-.62626-.233625-1.254007-.345802-1.88192-.007271-.041365.006948-.099937.033427-.132036.571651-.693768,1.007958-1.46447,1.321505-2.30599M355.836932,406.851687v.413317c0,.210792-.002646.421422.001495.632047.001495.071479-.024984.099109-.090162.129719-.175719.082401-.358567.160828-.512109.276317-.296823.223536-.389146.552796-.351437.90489.037567.349614.112682.695588.178546,1.042056.219729,1.157713.442589,2.314759.664317,3.471976.124902.652401.249823,1.304801.374583,1.957207.001979.01075.001333.022005.002323.040865-.016542-.010255-.030438-.015219-.039708-.024651-.56339-.578942-1.21977-1.035437-1.912868-1.441806-.080245-.04699-.116479-.102088-.132031-.18862-.226839-1.255666-.455172-2.510993-.684333-3.766325-.135344-.741916-.272505-1.483665-.413484-2.249899-.033084.048974-.057422.082229-.078932.117141-.655046,1.070848-1.305286,2.144342-1.965967,3.211711-.521359.842515-1.243421,1.440645-2.20143,1.727712-.18101.054271-.375573.077104-.565188.085542-.310073.013901-.621296.003641-.947426.003641.024318-.046823.039547-.07975.057906-.110688,1.211004-2.051186,2.422472-4.102044,3.632648-6.153891.033589-.05675.067015-.08488.139302-.08488,1.569389.00414,3.138576.00513,4.707783.00662h.136172M338.480705,404.209485c.041869,0,.077761.000328.113349,0,2.283978-.017542,4.567955-.034911,6.851953-.053276.093636-.000661.18713-.010094.280604-.015391h2.619216c.194401.015391.388984.029948.583224.046828.67888.059068,1.351801.154203,1.990467.40537.767062.30163,1.435196.752671,1.994769,1.360562.020359.022172.040213.044844.059058.068338.003494.004464.00101.013729.002.033422h-.09713c-.944437,0-1.889035.000828-2.833633-.001989-.060552-.000162-.126578-.018031-.180526-.045995-.638666-.330916-1.31488-.501338-2.036114-.500343-1.971946.002813-3.943872.00099-5.915797.00099h-.152552v20.802896c.237604,0,.465937-.003971.694088.000661,1.711681.034747,3.423179.074456,5.135001.105398.680697.012242,1.363536.040701,2.042092.001487,2.418493-.139646,4.729778-1.7206,5.275455-4.396885.324978-1.593033.078265-3.09837-.888833-4.4409-.680192-.944103-1.609582-1.552988-2.700774-1.926592-.869484-.297661-1.767587-.411661-2.683566-.409677-.843005.001984-1.685848-.00149-2.528873.00149-.082224.000167-.127891-.026141-.169255-.095964-.230312-.387338-.465432-.771697-.711963-1.178562h.147583c.952051-.001984,1.904264.005458,2.856133-.009266.552302-.008604,1.058775-.203844,1.53679-.469239.784593-.435484,1.394801-1.047515,1.850478-1.821035.278463-.472713.578599-.932354.869484-1.397624.008927-.014063.023005-.024984.047646-.050958.051625.280948.100281.545182.148411.809421.13189.723713.262427,1.447593.396619,2.170978.015552.083391.010422.146927-.053948.212943-.233948.239255-.460625.485786-.692614.727187-.038537.040208-.090162.067672-.135667.101099.007776.011578.015391.022995.023167.034578.068005.018698.13601.036568.203672.056089.838703.243724,1.566056.694926,2.271092,1.196431,1.13189.804953,1.812749,1.925436,2.27703,3.200128.269859.740755.424067,1.506166.381552,2.29722-.114177,2.12829-.884046,3.951307-2.550383,5.336358-.819515.681192-1.774697,1.085241-2.815274,1.298681-.772031.158344-1.55315.16182-2.335926.156028-2.430753-.018531-4.861668-.03276-7.292421-.050299-1.252833-.009102-2.505848-.021841-3.758862-.032927-.033427-.000164-.067015,0-.107895,0-.003474-.03607-.008604-.064693-.008604-.093484-.000646-.293357.000505-.58688-.001151-.880403-.000323-.057083.008604-.090008.071802-.11731.566541-.24438.859405-.694096.941952-1.290905.021187-.151891.021026-.307586.021026-.461627-.001979-6.005139-.005797-12.010113-.006625-18.015255,0-.543859-.183656-1.000692-.602917-1.350468-.104906-.087531-.238109-.140146-.355416-.213609-.028943-.018198-.065682-.054599-.066006-.082896-.004645-.334557-.002989-.669109-.002989-1.021702M342.547014,410.884564c1.115833,1.928915,2.231686,3.857659,3.359133,5.806428.097453-.15487.20036-.289224.271839-.438797.094646-.197724.227343-.262583.449213-.251995.442932.021016.88752.006292,1.331442.006292h.150088c-.83028,1.375124-1.649634,2.732211-2.479066,4.106007-.356729-.575463-.703197-1.134051-1.04902-1.692967-.668276-1.079447-1.336895-2.158899-2.00303-3.239836-.029771-.048151-.053099-.109864-.053281-.165292-.002969-1.350306-.002303-2.700612-.002303-4.05108v-.073297c.008261-.001989.016703-.003641.024984-.005463M332.456043,430.080034c.15851-.047156.318333-.077766.464119-.140971.463594-.201031.701198-.573807.794349-1.060752.342005-1.787444.691786-3.573568,1.034942-5.360845.373776-1.945624.743249-3.892075,1.115025-5.838193.421583-2.207873.843348-4.415747,1.265436-6.623292.108542-.567687.223021-1.134218.325604-1.702895.080911-.448229-.053604-.819515-.441094-1.076968-.136838-.090838-.290562-.155698-.433338-.238094-.032276-.018531-.071822-.061057-.072307-.092823-.004645-.349781-.002161-.699723-.001333-1.049504.000162-.010422.006302-.020844.011432-.037391h2.206035v.126573c-.002303,1.459837.003817,2.919842-.012906,4.379517-.003959.342-.074125.684994-.133506,1.024182-.178869,1.020385-.367656,2.038946-.552302,3.058331-.19327,1.067207-.386177,2.134577-.579104,3.201951-.191452,1.060088-.381713,2.120347-.573812,3.180104-.191432,1.056283-.384198,2.112238-.576963,3.168193-.175719.963794-.352245,1.927256-.528145,2.890886-.035063.191932-.084385.383036-.099756.576458-.043849.547997.10224,1.028322.550302,1.381575.165963.130713.360364.199047.571671.21675.048131.003971.095958.011086.147422.017042v1.129585h-4.481772v-1.129418ZM344.66521,442.738579c.181172-1.292392.567672-2.390871,1.125609-3.400828.104078.204177.199875.414474.28838.629403l-1.413989,2.771425ZM346.186085,439.912719c-.088506-.215096-.184303-.425229-.28838-.629403-2.423644-4.759405-8.893056-6.546354-11.178528-2.824537,1.375614-1.252353,2.449113-1.496238,4.193533-1.411194-3.371211,4.60553-5.28523,3.012498-9.156128,3.151154,3.787846-5.971389,12.977563-5.679519,16.415284.620799.101432.18614.199047.376086.290218.572651.456828.984476.780796,2.099996.935328,3.346391l-1.211327-2.82586ZM351.565638,435.497136c-2.154754.506466-3.918221,1.955715-4.996668,3.830687-.091172-.196565-.188786-.386674-.290218-.572651,1.200905-1.895819,3.048071-3.234047,5.299793-3.975463.270182-.751843.84963-1.149937,1.688332-1.251361-.38238.300969-.347781,1.04371-.854093,1.459507.492073.111518.900083.64264,1.53677.978684-.800489.352593-1.593363.036732-2.383915-.469403M353.400079,435.007048c1.221567-.34713,1.234817.488599,1.938499,1.103606-.787078.130547-1.569692-.341008-1.938499-1.103606M354.789265,434.947319c1.171114-.187466,1.081255.628408,1.663671,1.321348-.745047.09001-1.402759-.520036-1.663671-1.321348M356.154114,435.060657c1.084911-.155698.992103.809752,1.464806,1.459176-.734302.020682-1.224213-.651408-1.464806-1.459176M357.40632,435.342597c1.030801.057083.944417.750518,1.258953,1.594522-.730828-.248023-1.173921-.758296-1.258953-1.594522M358.664627,435.848735c1.089536.197888.778635.972893,1.114682,1.670796-.658682-.265726-1.043203-.809585-1.114682-1.670796M359.822491,436.443557c1.014603.218404.760457,1.04189,1.009634,1.828311-.661005-.278466-1.03064-.85426-1.009634-1.828311M360.712011,436.633336c1.371635-.149242,1.30876.591348,1.848822,1.296697-.793218-.270359-1.698108-.057909-1.848822-1.296697"/>
  </g>
</svg>