<?xml version="1.0" encoding="UTF-8"?>
<svg id="Capa_1" xmlns="http://www.w3.org/2000/svg" viewBox="0 0 60.553 93.753">
    <defs>
        <style>
            .cls-1 {
                fill: #2a405b;
            }
        </style>
    </defs>
    <path class="cls-1"
        d="M21.506,74.865l-11.953-19.168C2.231,42.945-4.053,31.572,3.247,16.807,13.068-3.061,41.925-5.25,54.791,12.823c15.271,21.451-3.324,42.356-15.148,60.092-.523,2.311,7.319,2.68,9.294,3.294,7.288,2.265,14.409,7.808,4.792,13.146-9.995,5.548-29.221,5.219-40.104,2.464-22.99-5.82-6.554-17.624,7.883-16.954ZM30.955,79.597c8.712-17.661,33.729-40.355,22.424-61.422C44.566,1.752,21.366-.078,9.707,14.598-.047,26.877,4.635,38.047,11.13,50.179c1.244,2.324,18.353,30.415,19.825,29.418ZM31.664,85.019c-3.364,1.965-5.175-6.711-8.193-6.998-1.792-.171-16.206,3.745-16.933,4.74-2.315,3.169,11.704,5.815,13.232,6.064,8.771,1.427,17.528,1.117,26.197-.927,1.999-.471,8.647-2.21,7.886-4.719-.518-1.707-13.994-5.214-16.235-5.201-3.683.022-4.741,6.334-5.953,7.042Z" />
    <path class="cls-1" d="M29.224,15.926c15.829-1.242,21.667,21.577,7.45,28.004-21.313,9.634-29.694-26.259-7.45-28.004ZM29.908,19.975c-12.318.337-12.985,19.236-2.446,20.958,16.912,2.763,17.421-21.367,2.446-20.958Z" />
</svg>