<?xml version="1.0" encoding="UTF-8"?>
<svg id="Capa_1" xmlns="http://www.w3.org/2000/svg" viewBox="0 0 72.324 85.5">
    <defs>
        <style>
            .cls-1 {
                fill: #2a405b;
            }
        </style>
    </defs>
    <path class="cls-1"
        d="M71.607,74.612c-1.878,1.838-19.929,1.197-23.44.183-2.842,14.05-19.854,14.235-24.167.758-6.376-.567-14.234.875-20.405.074-5.472-.71-3.495-7.044-1.848-10.589,1.883-4.051,6.543-6.011,7.616-10.511,3.146-13.202-3.042-27.614,8.462-38.823,2.055-2.003,9.8-5.598,10.231-6.319.69-1.155.377-3.232,1.284-5.02,3.089-6.088,11.666-5.699,14.282.5.626,1.484.344,3.427.996,4.521.339.569,6.579,3.68,8.277,5.121,15.767,13.378,4.591,31.73,11.941,43.226,1.797,2.811,5.089,4.334,6.361,7.825.706,1.938,1.909,7.59.411,9.056ZM40.273,8.598c.291-5.431-6.939-6.397-7.89-1.187-.442,2.419,6.328.69,7.89,1.187ZM67.86,70.862c1.106-5.246-3.545-6.477-5.869-9.499-9.21-11.979,3.602-35.581-14.886-45.798-15.078-8.332-31.014,1.399-32.739,17.959-.969,9.302,2.194,19.686-3.71,27.813-2.345,3.228-6.847,4.804-5.844,9.524h63.048ZM44.217,74.802h-15.762c1.557,8.906,13.769,8.947,15.762,0Z" />
    <path class="cls-1" d="M22.927,36.97c-1.489.98-3.545-1.227-3.707-2.859-.153-1.547,1.458-6.107,2.239-7.68,1.547-3.117,11.169-12.375,11.775-6.395.306,3.019-4.573,3.312-6.719,5.935-2.41,2.945-3.1,10.678-3.589,10.999Z" />
</svg>