<?xml version="1.0" encoding="UTF-8" standalone="no"?>
<!-- Created with Inkscape (http://www.inkscape.org/) -->

<svg width="87.053101" height="39.814991" viewBox="0 0 23.032799 10.534383" version="1.1" id="svg1" xml:space="preserve" inkscape:export-filename="candado.svg" inkscape:export-xdpi="7.6999998" inkscape:export-ydpi="7.6999998" xmlns:inkscape="http://www.inkscape.org/namespaces/inkscape" xmlns:sodipodi="http://sodipodi.sourceforge.net/DTD/sodipodi-0.dtd" xmlns="http://www.w3.org/2000/svg"
  xmlns:svg="http://www.w3.org/2000/svg">

  <g transform="translate(-0.38985083,-6.6390586)">
    <path style="fill:#2a405b;stroke:none;stroke-width:0.399991"
      d="m 3.2253099,10.296148 c -0.7487165,1.062891 -2.1534776,1.800118 -2.73265729,2.963264 -0.38487181,0.772926 0.38037272,1.518972 1.14519439,1.130415 1.1974605,-0.608356 1.8989927,-2.503693 3.1749259,-2.886505 0.7861497,-0.235866 2.4122084,0.79239 3.2807568,0.909443 -0.3449822,1.078885 -0.5948505,2.187853 -0.8914776,3.280757 -0.1295749,0.477411 -0.2337973,1.053606 0.2791124,1.356856 0.6271394,0.370787 1.1379587,-0.162399 1.3204352,-0.721871 0.2828622,-0.867251 0.4667388,-1.767829 0.7126434,-2.645771 0.097442,-0.347891 0.1788964,-0.82651 0.5961969,-0.909362 0.903995,-0.179481 2.015726,0.132406 2.957141,0.04475 0.332856,-0.031 0.718511,-0.154886 0.959092,0.157521 0.786924,1.021874 0.282521,3.23256 1.383313,4.029822 0.618691,0.448095 1.327692,-0.0922 1.292998,-0.78279 -0.06186,-1.23122 -0.655447,-2.623509 -0.989632,-3.809911 0.953225,-0.128464 2.386209,-1.105288 3.280757,-0.954356 1.294308,0.218382 2.109089,2.39231 3.280757,2.961795 0.740276,0.359808 1.395683,-0.477357 1.055369,-1.160792 -0.577241,-1.159249 -2.000757,-1.901521 -2.748663,-2.963264 0.877053,-0.4549847 1.877894,-1.4890998 2.222609,-2.4341097 0.200335,-0.5492034 -0.176548,-1.3217367 -0.846727,-1.2125639 -0.585248,0.095338 -0.879061,0.8016135 -1.213706,1.2125639 -0.509303,0.6254318 -1.165086,1.1279701 -1.85547,1.539529 C 16.227936,10.987475 12.920015,11.383501 9.8926543,11.006833 7.6460028,10.7273 5.3727789,9.9837313 3.649042,8.4664011 3.1107526,7.9925684 2.3210531,6.273462 1.4308403,6.7184769 -0.16991151,7.5186888 2.4468761,9.8923233 3.2253099,10.296148 Z"
      id="path2" />
  </g>
</svg>