<?xml version="1.0" encoding="UTF-8" standalone="no"?>


<svg width="79.019814" height="46.991741" viewBox="0 0 20.907325 12.433232" version="1.1" id="svg1" xml:space="preserve" xmlns="http://www.w3.org/2000/svg" xmlns:svg="http://www.w3.org/2000/svg">
  <defs id="defs1" />
  <g id="layer1" transform="translate(-1.4525867,-5.6896346)">
    <path style="fill:#2a405b;stroke-width:0.154262"
      d="M 11.212392,18.101691 C 7.7875312,17.887436 4.5447159,16.036181 1.9627156,12.821247 1.2867357,11.979563 1.2849302,11.80987 1.9432346,10.990425 3.4407765,9.1263151 5.195283,7.6885831 7.0586354,6.7986025 8.6563549,6.0354954 10.168212,5.6896346 11.90625,5.6896346 c 1.129497,0 1.997737,0.1189067 3.03053,0.4150368 2.555176,0.7326389 4.934719,2.4100987 6.913005,4.8733266 0.675979,0.841685 0.677785,1.011378 0.01948,1.830823 -1.497541,1.86411 -3.252048,3.301843 -5.1154,4.191823 -1.765576,0.843279 -3.656413,1.218974 -5.541473,1.101047 z m 1.852887,-1.970436 c 0.729174,-0.210607 1.337831,-0.565463 1.891618,-1.102839 0.566354,-0.549571 0.984633,-1.256371 1.199437,-2.026784 0.08668,-0.310887 0.09651,-0.427494 0.09463,-1.122417 -0.002,-0.727606 -0.0091,-0.798168 -0.114788,-1.142824 C 15.622866,9.0631161 14.420215,7.9496161 12.742436,7.594227 12.407318,7.523243 11.502559,7.512542 11.148462,7.575378 9.5594301,7.8573536 8.2155835,9.0349746 7.7275659,10.573132 c -0.1637575,0.516136 -0.2002386,0.823876 -0.1782701,1.503801 0.021368,0.661428 0.1058807,1.049828 0.3477323,1.59815 0.4916136,1.114578 1.4711088,2.00365 2.6257759,2.383372 0.548242,0.180294 0.755856,0.207134 1.485483,0.19204 0.596449,-0.01234 0.744838,-0.02908 1.056992,-0.11924 z M 11.385876,14.20774 c -1.121573,-0.255682 -1.9113263,-1.312082 -1.8323177,-2.45097 0.042172,-0.607889 0.255645,-1.071001 0.6972407,-1.512597 0.30912,-0.3091199 0.52357,-0.4460789 0.929561,-0.5936699 0.364508,-0.132511 1.03317,-0.135909 1.44185,-0.0074 0.69991,0.220212 1.290636,0.8022659 1.536558,1.5140009 0.07633,0.220898 0.09435,0.358853 0.09435,0.722038 0,0.485254 -0.07758,0.797126 -0.29747,1.195853 -0.135761,0.246175 -0.626717,0.737612 -0.872016,0.872872 -0.499667,0.27552 -1.175285,0.378907 -1.697759,0.2598 z"
      id="path1" />
  </g>
  <style id="style1">
    .s0 {
      fill: none;
      stroke: #2a405b;
      stroke-miterlimit: 10;
      stroke-width: 5;
      stroke-linecap: round;
    }
  </style>
</svg>