<?xml version="1.0" encoding="UTF-8"?>
<svg id="Capa_1" xmlns="http://www.w3.org/2000/svg" viewBox="0 0 101.523 97.444">
    <defs>
        <style>
            .cls-1 {
                fill: #2a405b;
            }
        </style>
    </defs>
    <path class="cls-1"
        d="M16.053,49.07c.222,1.334-.308,7.58-.004,7.885.596.597,9.135-1.574,10.691,3.101.761,2.287.79,19.554.383,22.545-.805,5.921-16.127,4.872-20.938,4.315-3.622-.419-5.487-2.263-5.911-5.911-.379-3.266-.456-17.516.37-20.155,1.867-5.962,10.768-3.186,11.473-3.895.838-.844-1.619-10.674,1.569-12.223,4.301-2.09,22.046.739,27.851-.356,1.223-1.654,1.517-3.317,3.235-4.811,1.225-1.065,3.67-1.783,4.017-2.286,1.037-1.501.035-5.909.361-7.911-.42-.419-9.028,2.61-10.68-2.319-.746-2.225-.755-20.515-.178-23.121.535-2.417,2.087-3.111,4.354-3.527,3.797-.697,19.959-1.336,21.139,2.89.724,2.595.859,20.468.32,23.298-.886,4.651-9.751,2.384-11.004,3.576-.252.24-.121,6.588.118,6.964.117.184,2.705,1.092,3.842,2.068,1.901,1.633,2.395,3.23,3.65,5.18,5.805,1.095,23.55-1.734,27.851.356,3.187,1.549.73,11.379,1.569,12.223s9.49-2.238,10.868,3.711c.735,3.172.605,17.487.182,21.123-.463,3.98-2.114,4.713-5.926,5.107-3.362.347-14.729.447-17.412-.709-2.527-1.09-2.492-2.697-2.718-5.163-.355-3.873-.565-17.032.205-20.358,1.378-5.95,10.029-2.869,10.868-3.711.306-.307-.226-6.55-.004-7.885h-26.007c-.169,0,.014,1.725-1.132,3.189-1.419,1.813-5.908,4.066-5.995,4.428-.198.828-.34,10.14.03,10.513.679.683,8.495-1.723,10.455,2.549.985,2.147.968,19.064.596,22.285-.566,4.894-3.232,4.856-7.466,5.143-4.17.283-16.781,1.154-18.207-3.138-.632-1.902-.764-22.034-.194-23.932,1.33-4.431,10.352-2.372,10.885-2.907.371-.373.228-9.69.03-10.513-.074-.308-3.901-2.146-5.178-3.652-1.248-1.472-1.728-3.965-1.949-3.965h-26.007ZM60.186,4.936h-18.126v20.49h18.126V4.936ZM49.724,41.35c-7.222,1.594-4.741,13.214,3.602,10.707,5.746-1.727,4.367-12.465-3.602-10.707ZM23.146,82.958v-20.884c0-.084-1.099-1.182-1.182-1.182H5.414c-.084,0-1.182,1.099-1.182,1.182v19.702c0,.084,1.099,1.182,1.182,1.182h17.732ZM97.227,82.17v-20.096c0-.084-1.099-1.182-1.182-1.182h-15.762c-.084,0-1.182,1.099-1.182,1.182v20.096h18.126ZM43.242,71.136c-.26.4-1.182.967-1.182,1.182v19.702c0,.084,1.099,1.182,1.182,1.182h15.762c.084,0,1.182-1.099,1.182-1.182v-19.702c0-.084-1.099-1.182-1.182-1.182h-15.762Z" />
</svg>