<?xml version="1.0" encoding="UTF-8" standalone="no"?>


<svg width="66.32074" height="63.485619" viewBox="0 0 17.547362 16.797237" version="1.1" id="svg1" xml:space="preserve" xmlns="http://www.w3.org/2000/svg" xmlns:svg="http://www.w3.org/2000/svg">
  <defs id="defs1" />
  <g id="layer1" transform="translate(-3.1325689,-3.5076314)">
    <path style="fill:#fe552a;fill-opacity:1;stroke-width:0.129696"
      d="M 8.2921576,19.58909 C 5.7631114,19.197584 3.6195638,18.866149 3.5287173,18.852571 3.4200893,18.83634 3.326115,18.794443 3.2541933,18.730193 l -0.1093468,-0.09771 -0.00881,-6.308275 C 3.1276886,6.3689299 3.1307028,6.0092169 3.1875094,5.8958704 3.2206195,5.8298357 3.2863064,5.7579117 3.3334906,5.7360701 3.3806748,5.714275 5.5764659,5.198868 8.2130295,4.590864 11.474064,3.8388542 13.035729,3.4926682 13.097321,3.5081265 c 0.04981,0.012521 0.127827,0.062951 0.173411,0.1121292 0.08136,0.087784 0.08287,0.1009069 0.08287,0.7192358 v 0.6298247 h 3.551105 3.551105 l 0.11206,0.1001418 0.112059,0.1001418 v 6.7278552 6.727857 l -0.09513,0.09516 -0.09513,0.09516 -3.55945,0.01716 -3.559452,0.01716 -0.0086,0.600519 c -0.0056,0.388784 -0.02323,0.628774 -0.05027,0.680656 -0.05205,0.09993 -0.199217,0.178396 -0.325557,0.173527 -0.05284,-0.002 -2.165291,-0.324016 -4.6943375,-0.715524 z M 19.976558,11.900856 V 5.6552796 l -3.302858,0.00881 -3.302861,0.00881 -0.009,1.5035141 -0.009,1.5035163 0.171625,-0.1480448 c 0.326051,-0.2812643 0.756267,-0.4917824 1.208431,-0.5913237 l 0.09251,-0.020404 0.01043,1.038229 c 0.01,0.9970477 0.01345,1.0444565 0.08781,1.1952425 0.113497,0.23031 0.285452,0.415056 0.493674,0.530388 l 0.183891,0.101857 1.05867,0.01043 1.058673,0.01043 -0.02349,0.12683 c -0.09481,0.512028 -0.433184,1.098613 -0.820324,1.422086 -1.016536,0.84936 -2.427629,0.834296 -3.391168,-0.03619 l -0.130029,-0.117462 v 0.776091 0.776089 h 2.453012 2.453011 l 0.108164,0.09664 c 0.14619,0.130608 0.153726,0.344456 0.01693,0.481255 l -0.09124,0.09124 -2.461365,0.01716 -2.461363,0.01716 -0.0093,0.746359 -0.0093,0.746361 h 2.453681 2.453679 l 0.108164,0.09664 c 0.14619,0.130609 0.153726,0.344456 0.01693,0.481256 l -0.09124,0.09124 -2.461365,0.01716 -2.461363,0.01716 -0.0093,0.746361 -0.0093,0.74636 h 3.312107 3.312107 z M 15.747182,10.01093 c -0.153818,-0.089592 -0.163,-0.1685648 -0.163,-1.4041814 0,-1.269383 0.0065,-1.3176454 0.187763,-1.4002514 0.225325,-0.1026691 0.865164,0.00348 1.278878,0.2120392 0.800439,0.4036395 1.305167,1.1110225 1.414418,1.982326 0.04229,0.3373382 0.01971,0.4540304 -0.108581,0.5620162 l -0.101162,0.085117 -1.224144,-10e-4 c -0.767441,-6.46e-4 -1.246547,-0.01414 -1.284195,-0.03601 z m -9.0644166,5.067706 0.1166737,-0.116674 v -0.98142 -0.98142 h 0.6791003 c 0.4990838,0 0.7325726,-0.01391 0.8808261,-0.05254 0.6213454,-0.161841 1.1425003,-0.682994 1.304341,-1.304342 0.074521,-0.286103 0.073547,-1.382323 -0.0015,-1.6750766 C 9.542217,9.4990404 9.1723368,9.0329693 8.7511638,8.8191935 8.3653221,8.6233384 8.2513728,8.6076181 7.2163737,8.6071543 L 6.277846,8.6067532 6.1611723,8.7234269 6.0444986,8.8401006 v 3.0609294 3.060934 l 0.1166737,0.116674 c 0.095644,0.09564 0.1426424,0.116674 0.2607954,0.116674 0.1181576,0 0.1651563,-0.0211 0.2607977,-0.116676 z M 6.7994391,10.802368 V 9.3566275 l 0.6948879,0.011129 c 0.6375063,0.010202 0.7077516,0.01739 0.8506839,0.0879 0.201698,0.099423 0.4224691,0.3195705 0.521025,0.5196037 0.073199,0.1485548 0.078115,0.2007708 0.078115,0.8277018 0,0.629973 -0.00464,0.678583 -0.079367,0.830257 -0.1012779,0.205616 -0.3088514,0.413194 -0.5144772,0.514479 -0.1495751,0.07369 -0.2108334,0.08011 -0.8559935,0.08989 l -0.6948879,0.01043 z"
      id="path1" />
  </g>
  <style id="style1">
    .s0 {
      fill: none;
      stroke: #2a405b;
      stroke-miterlimit: 10;
      stroke-width: 5;
      stroke-linecap: round;
    }
  </style>
</svg>