<svg width="80.033768" height="74.67334" viewBox="0 0 21.1756 19.757321" version="1.1" id="svg1" xml:space="preserve" xmlns="http://www.w3.org/2000/svg" xmlns:svg="http://www.w3.org/2000/svg">
  <g transform="translate(-1.3184499,-2.0275908)">
    <path style="stroke-width:0.166765;fill:#2a405b;"
      d="M 2.8205357,21.757648 C 2.4931423,21.657424 2.2612739,21.452397 2.118419,21.13681 2.0303175,20.94218 2.0285214,20.865163 2.0275714,17.240925 l -9.506e-4,-3.69733 0.1083025,-0.108302 c 0.068269,-0.06827 0.1587147,-0.108303 0.2446835,-0.108303 0.085969,0 0.1764147,0.04003 0.2446835,0.108303 l 0.1083029,0.108302 v 3.666243 3.666244 l 0.1083025,0.108302 0.1083025,0.108303 h 8.9610348 8.961037 l 0.108303,-0.108303 0.108302,-0.108302 v -3.667139 c 0,-2.307661 0.01601,-3.697057 0.04319,-3.747843 0.02376,-0.04439 0.104873,-0.102206 0.180261,-0.128487 0.179697,-0.06264 0.424361,0.03248 0.460373,0.178993 0.01381,0.0562 0.01949,1.770045 0.0126,3.80854 -0.01188,3.518186 -0.01669,3.714196 -0.09477,3.860787 -0.115123,0.216146 -0.284832,0.38899 -0.491349,0.500428 l -0.176494,0.09524 -9.045272,0.0075 c -4.9748988,0.0041 -9.0950384,-0.0078 -9.1558653,-0.0264 z m 8.6813613,-4.242727 c -0.491004,-0.11572 -0.930294,-0.475381 -1.168102,-0.95636 l -0.166448,-0.336651 -0.01344,-1.689737 -0.01344,-1.689737 0.110709,-0.110709 0.11071,-0.110709 h 1.548326 1.548326 l 0.110709,0.110709 0.110709,0.110709 -0.01344,1.687315 -0.01344,1.687314 -0.137239,0.286801 c -0.07548,0.157741 -0.21734,0.37682 -0.315242,0.486843 -0.396143,0.445188 -1.105369,0.664052 -1.698707,0.524212 z m 0.77166,-0.72709 c 0.221099,-0.07534 0.474882,-0.295664 0.596271,-0.517669 0.06815,-0.124644 0.07886,-0.306857 0.09061,-1.542258 l 0.01332,-1.400914 h -1.061251 -1.061252 l 2.47e-4,1.312667 c 1.36e-4,0.724555 0.01969,1.382675 0.04366,1.468923 0.15764,0.567445 0.790813,0.879461 1.378397,0.679251 z M 5.5233693,12.977129 C 3.5758762,12.324136 1.9143685,11.747778 1.8311299,11.696334 1.6156756,11.563176 1.4212753,11.327044 1.3674065,11.133063 1.2980416,10.883282 1.3042317,6.5315594 1.3742906,6.2944463 1.4458989,6.0520842 1.8114232,5.6865598 2.0537849,5.6149521 2.1891668,5.5749534 3.0624455,5.5612929 5.4843698,5.5612929 H 8.7333434 V 4.610637 c 0,-0.9505079 1.6e-5,-0.950673 0.108302,-1.0589589 l 0.108302,-0.1083025 h 2.9602716 2.96027 l 0.108303,0.1083025 c 0.108286,0.1082859 0.108303,0.108451 0.108303,1.0589589 v 0.9506559 h 0.352986 0.352986 V 4.2576505 2.9540081 L 15.684765,2.8457057 15.576462,2.7374032 H 11.910219 8.2439755 L 8.135673,2.8457057 C 8.0282491,2.9531296 8.0273705,2.9608422 8.0273705,3.7963616 c 0,0.8355199 -9.005e-4,0.8432325 -0.1083029,0.9506564 -0.1432831,0.1432836 -0.3460834,0.1432836 -0.489367,0 C 7.3222416,4.639559 7.3213981,4.6321227 7.3213981,3.7924558 c 0,-0.5354582 0.019707,-0.9129592 0.053659,-1.027872 0.071608,-0.2423616 0.4371327,-0.607886 0.6794943,-0.6794943 0.2541566,-0.075092 7.4505366,-0.077384 7.7006386,-0.00245 0.221315,0.066308 0.500392,0.3069838 0.624032,0.5381668 0.094,0.1757558 0.09827,0.2357927 0.11111,1.5616352 l 0.01335,1.3788528 h 2.540677 c 1.800516,0 2.590469,0.014919 2.711593,0.051207 0.221316,0.066308 0.500392,0.3069838 0.624033,0.5381668 0.0968,0.1810014 0.09788,0.2051502 0.110855,2.4771934 0.0094,1.6473425 -0.0014,2.3467755 -0.03831,2.4800875 -0.07443,0.268832 -0.309399,0.518906 -0.628159,0.668546 -0.454513,0.213369 -7.079093,2.398331 -7.177142,2.367212 -0.121996,-0.03872 -0.26611,-0.234427 -0.26611,-0.361377 0,-0.23737 0.07149,-0.265954 3.620617,-1.44772 1.879375,-0.625782 3.489055,-1.173895 3.577067,-1.218028 0.08801,-0.04413 0.172397,-0.112495 0.187524,-0.151915 0.01513,-0.03942 0.0275,-1.0637262 0.0275,-2.2762347 V 6.4838707 L 21.68553,6.3755677 21.577227,6.2672653 H 11.910218 2.2432092 l -0.1083024,0.1083024 -0.108303,0.108303 v 2.2045604 c 0,1.2125085 0.012377,2.2368139 0.027501,2.2762349 0.015129,0.03942 0.099513,0.107782 0.1875237,0.151915 0.088012,0.04413 1.6988197,0.591178 3.5795744,1.215655 3.6095085,1.198483 3.6181095,1.201963 3.6181095,1.463903 0,0.118139 -0.215789,0.369533 -0.3165,0.368722 -0.0322,-2.68e-4 -1.6519513,-0.534739 -3.5994444,-1.187732 z M 14.38112,4.8553205 V 4.1493481 H 11.910217 9.4393134 v 0.7059724 0.7059724 h 2.4709036 2.470903 z" />
  </g>
</svg>