<?xml version="1.0" encoding="UTF-8" standalone="no"?>
<!-- Created with Inkscape (http://www.inkscape.org/) -->

<svg width="78.516106" height="56.726337" viewBox="0 0 20.774052 15.008843" version="1.1" id="svg1" xml:space="preserve" inkscape:export-filename="visita.svg" inkscape:export-xdpi="7.6999998" inkscape:export-ydpi="7.6999998" xmlns:inkscape="http://www.inkscape.org/namespaces/inkscape" xmlns:sodipodi="http://sodipodi.sourceforge.net/DTD/sodipodi-0.dtd" xmlns="http://www.w3.org/2000/svg"
  xmlns:svg="http://www.w3.org/2000/svg">
  <sodipodi:namedview id="namedview1" pagecolor="#ffffff" bordercolor="#000000" borderopacity="0.25" inkscape:showpageshadow="2" inkscape:pageopacity="0.0" inkscape:pagecheckerboard="0" inkscape:deskcolor="#d1d1d1" inkscape:document-units="mm">
    <inkscape:page x="0" y="0" width="20.774052" height="15.008843" id="page2" margin="0" bleed="0" />
  </sodipodi:namedview>
  <defs id="defs1" />
  <g inkscape:groupmode="layer" id="layer2" inkscape:label="Capa 2" transform="translate(-1.5192236,-4.4018284)">
    <path style="fill:#090909;stroke:none;stroke-width:0.306801"
      d="m 19.292464,14.695435 c -0.08126,0.993475 -0.703981,1.615102 -1.704674,1.623497 -0.0477,1.041289 -0.781198,1.615072 -1.785849,1.6235 -0.19401,1.071082 -1.527208,1.623954 -2.272899,0.730573 h -0.08117 C 12.604366,19.715818 11.002875,19.738773 10.769097,18.185956 9.770517,18.185282 9.0754342,17.692923 8.9832485,16.643633 8.0316892,16.924269 7.252574,16.173333 7.1162251,15.263659 5.6357032,15.616142 4.7085567,14.323229 5.3303761,12.99076 4.328756,12.57364 3.696404,11.874357 2.8878641,11.195578 2.3660562,10.75752 1.726709,10.373983 1.5583745,9.6625886 1.2264862,8.2600146 3.0911138,6.5038104 3.8903974,5.5226668 4.2081084,5.132669 4.5398783,4.7566836 5.0056783,4.5417405 6.3975603,3.8994583 7.3178519,5.6666214 8.5773735,5.8473068 9.836268,6.0278932 10.630545,5.4177066 11.82437,5.3635115 c 1.268558,-0.057573 2.843029,0.504701 4.058745,0.2148331 1.013487,-0.2416529 1.539407,-1.5413904 2.759948,-1.0729359 0.48656,0.186748 0.851132,0.5441384 1.181984,0.9360781 0.84376,0.9995488 2.845526,2.8445911 2.405935,4.3022708 -0.293568,0.9734664 -1.524696,1.1499264 -1.878359,2.0156574 -0.122546,0.299988 0.447972,0.765711 0.545049,1.068991 0.344872,1.077428 -0.620953,1.858766 -1.605208,1.867024 M 16.694865,5.7661874 v 0.081174 l 3.815221,4.8704956 C 22.767,9.5936357 21.079856,7.9103868 20.023287,6.5779374 19.568256,6.004091 19.045445,5.057571 18.237188,4.9710353 17.639682,4.9070805 17.112725,5.4046406 16.694865,5.7661874 M 3.3010038,10.717857 5.9088741,7.3085102 7.0350507,5.6850129 C 6.5694487,5.3515375 6.033326,4.8515843 5.4115506,4.9867586 4.7069805,5.13992 4.2331621,5.9688567 3.8225008,6.4967602 2.8422925,7.756821 0.95162365,9.723127 3.3010038,10.717857 M 11.17497,6.1720624 c 0.86206,0.1273044 1.689773,0.5700036 2.516424,0.8384322 0.415816,0.1350341 0.907778,0.1259566 1.298486,0.3235095 0.384471,0.1943951 0.639616,0.5985372 0.515547,1.0297795 -0.59297,2.0610884 -2.96835,0.7637331 -4.330457,1.0009077 -0.563551,0.098119 -1.0238,0.5391183 -1.4611486,0.8757627 -0.9265744,0.713224 -1.8412847,1.441659 -2.7599452,2.164978 -0.3965555,0.312232 -1.0661718,0.659453 -1.2498198,1.15386 -0.2240756,0.603285 0.3412876,1.388455 1.0062937,1.237981 0.6379718,-0.144359 1.2780726,-0.876632 1.785849,-1.266605 0.1199049,-0.0921 0.6644037,-0.582819 0.7836897,-0.265942 0.1022451,0.271581 -0.3735291,0.565669 -0.5401664,0.700073 -0.5330226,0.429914 -1.4135935,0.988692 -0.8921708,1.77739 0.5825526,0.881165 1.4698876,0.103236 2.0286214,-0.325828 0.160836,-0.123508 0.61651,-0.584525 0.831916,-0.3428 0.190076,0.213292 -0.211808,0.480491 -0.345243,0.586263 -0.4383782,0.347512 -0.9870085,0.753662 -0.7293821,1.38937 0.3679971,0.908062 1.2092461,0.569088 1.7850321,0.128212 0.152391,-0.116686 0.476827,-0.453715 0.692741,-0.299836 0.152501,0.108682 0.02668,0.299999 -0.06013,0.40143 -0.218822,0.255571 -0.604841,0.391543 -0.686728,0.747798 -0.145515,0.633083 0.588348,1.048883 1.109388,0.773415 0.230677,-0.12194 0.431804,-0.308143 0.649401,-0.451911 -0.339549,-1.244459 0.175855,-1.237898 0.809495,-2.161969 0.142983,-0.208534 0.07691,-0.524251 0.162156,-0.760328 0.25923,-0.717757 0.903586,-1.048815 1.62594,-1.055273 0.02311,-0.987955 0.738913,-1.614863 1.704674,-1.623498 0.0356,-1.514391 1.293001,-1.707408 2.435248,-1.298799 C 20.312754,10.666198 19.036037,9.6163486 18.571527,9.0131875 17.970655,8.232961 17.138717,6.6357443 16.265493,6.1775144 15.649137,5.8540764 14.325245,6.0692451 13.610211,5.9752522 12.976321,5.8919321 11.62704,5.5775551 11.174961,6.1720404 M 7.4409174,6.0908659 C 6.8471336,6.9894294 6.1404482,7.8403556 5.4756814,8.6884622 5.0446509,9.2383717 3.8297545,10.335996 3.7784614,11.042535 c -0.044012,0.606319 1.5662076,1.603158 2.1201304,1.467349 0.4873933,-0.119493 0.994625,-0.689433 1.379974,-0.99646 1.0220004,-0.814275 2.1355648,-1.9670928 3.3281722,-2.5080293 0.899784,-0.4081197 1.907915,-0.023931 2.841121,0.064587 0.5433,0.051466 1.678284,-0.2667121 1.512948,-1.0191946 C 14.873746,7.6545043 13.567346,7.5159301 13.204336,7.3896737 11.275994,6.7189956 9.4106316,6.5465569 7.4409174,6.0908769 M 19.130104,11.727209 c -0.56763,-0.152529 -1.233989,0.327118 -1.190877,0.938834 0.03873,0.549734 0.832067,1.369307 1.353229,1.492593 0.56385,0.133383 1.185549,-0.434029 1.114401,-1.005543 -0.06107,-0.490494 -0.803952,-1.298846 -1.276753,-1.425884 m -1.704672,1.6235 c -0.571813,-0.153409 -1.222862,0.324849 -1.174658,0.938834 0.03757,0.478575 0.800411,1.302128 1.256146,1.425884 0.594643,0.161469 1.260757,-0.29574 1.196453,-0.938834 -0.05436,-0.543462 -0.761334,-1.287299 -1.277941,-1.425884 m -1.867023,1.550028 c -1.684179,-0.132228 -0.743548,2.394641 0.487049,2.461115 1.716099,0.0927 0.681159,-2.369397 -0.487049,-2.461115 m -1.299991,1.886001 c -1.156929,-0.11047 -0.839026,1.728683 0.163532,1.784531 1.27006,0.07075 0.751798,-1.697138 -0.163532,-1.784531 z"
      id="path2" />
  </g>
</svg>