<?xml version="1.0" encoding="UTF-8"?>
<svg id="Capa_1" xmlns="http://www.w3.org/2000/svg" viewBox="0 0 79.655 100.144">
    <defs>
        <style>
            .cls-1 {
                fill: #2a405b;
            }
        </style>
    </defs>
    <path class="cls-1"
        d="M49.831,3.978c1.39.809,5.704-.328,7.946.334,2.097.619,2.585,3.55,3.481,3.791,5.572,1.496,14.541-3.008,18.007,5.46l.388,77.708c.083,4.536-3.919,8.002-8.313,8.237-20.236-1.466-43.183,1.951-63.087.041-4.833-.464-7.596-2.493-8.254-7.508L.452,12.857c3.414-7.458,12.545-3.45,17.924-4.754.831-.202,1.377-2.84,2.933-3.552,2.497-1.142,5.823.181,8.103-.386.8-.199,1.244-3.33,4.935-3.91,2.051-.322,10.652-.397,12.396.116,2.069.609,2.511,3.272,3.087,3.607ZM22.873,18.334h33.494c1.588,0,1.722-7.549.471-9.139-1.771-2.251-6.533-.416-9.011-1.232-1.797-.592-1.69-3.361-2.217-3.694-.442-.28-8.606-.326-9.718-.106-2.708.536-2.472,3.242-4.083,3.798-2.147.742-7.564-.55-8.823.237-1.411.882-1.007,8.312-.112,10.135ZM18.145,12.817H5.929c-.136,0-1.39,1.216-1.564,1.588l-.445,76.866c-.028,2.796,2.669,4.162,5.144,4.313,19.56-1.384,41.467,1.779,60.738.018,4.036-.369,5.877-1.454,5.911-5.911l-.053-74.101c-1.144-5.968-10.751-1.756-14.962-2.771v2.357c3.701.075,7.48-.425,11.037.791v74.475c0,.084-1.099,1.182-1.182,1.182H9.87c-.261,0-1.197-1.044-1.97-.788V17.152c0-2.656,8.476-1.96,10.249-1.974l-.004-2.361ZM67.795,19.122c-5.648-1.829-8.117,2.68-12.198,3.169-4.029.483-31.735.429-34.102-.608-1.164-.51-1.98-2.065-3.119-2.396-1.977-.574-4.465.021-6.535-.165v68.564h55.955V19.122Z" />
    <path class="cls-1" d="M33.907,74.289c-.405-.272-1.133-3.94.394-3.94h26.795c1.484,0,1.484,3.94,0,3.94-3.618,0-26.061.758-27.189,0Z" />
    <path class="cls-1" d="M62.278,38.824h-28.371c-.158,0-.158-3.152,0-3.152h27.189c.834,0,1.501,2.237,1.182,3.152Z" />
    <path class="cls-1" d="M33.907,56.163c-.109-.113-.158-3.152,0-3.152h27.189c1.357,0,1.359,3.152,0,3.152-3.618,0-26.246.979-27.189,0Z" />
    <path class="cls-1" d="M26.535,30.259c7.064-1.914-2.956,11.75-5.632,11.745-1.384-.003-5.587-4.156-5.122-5.925.753-2.86,3.905.158,4.497.263,2.183.387,4.539-5.618,6.256-6.084Z" />
    <path class="cls-1" d="M21.987,53.696c.27-.158,2.986-5.025,3.387-5.258,1.026-.597,3.466-.108,3.801,1.046.395,1.364-5.784,8.821-7.112,9.476-2.602,1.283-8.879-5.759-5.083-6.739,1.668-.431,3.48,2.369,5.007,1.475Z" />
    <path class="cls-1" d="M17.639,74.793c-1.041-1.005-2.869-3.923-.661-4.446,1.635-.388,2.792,1.666,3.814,1.502,1.112-.178,7.05-10.137,8.384-5.02.347,1.332-5.335,8.838-6.301,9.449-1.703,1.077-3.985-.278-5.235-1.484Z" />
    <path class="cls-1" d="M26.42,11.241h26.795c1.484,0,1.484,3.94,0,3.94h-26.795c-1.203,0-1.827-3.236,0-3.94Z" />
</svg>