<?xml version="1.0" encoding="UTF-8"?>
<svg id="Capa_1" xmlns="http://www.w3.org/2000/svg" viewBox="0 0 78.423 87.205">
    <defs>
        <style>
            .cls-1 {
                fill: #2a405b;
            }
        </style>
    </defs>
    <path class="cls-1"
        d="M26.872,55.355c1.004-1.162,1.299-7.109.813-8.715-.227-.75-3.871-5.079-4.859-6.956-4.193-7.967-3.991-16.542-2.79-25.443,2.517-18.659,37.561-20.595,39.351,3.904.571,7.82.563,14.153-3.029,21.385-2.547,5.129-7.745,7.741-4.945,14.127,2.212,5.046,17.849,5.184,22.48,9.83,2.717,2.725,5.749,17.05,4.026,19.676-2.749,4.191-45.995,4.277-52.822,3.901-3.298-.182-22.459-2.309-24.061-3.523-2.794-2.117.632-17.109,3.527-20.149,3.972-4.171,20.022-5.39,22.309-8.037ZM34.736,4.509c-5.669.97-10.007,5.683-10.76,11.308-1.33,9.939-.902,20.442,6.608,27.93,10.614,10.583,23.635-2.548,24.8-13.901.167-1.632-.011-8.951-.163-10.729-1.031-12.067-8.76-16.615-20.486-14.607ZM46.755,50.031c-4.779,2.459-10.093,2.078-14.962.003,2.706,15.354-22.069,10.239-25.799,18.728-1.42,3.231-.773,7.737-1.791,11.212,15.538,2.687,31.874,3.993,47.674,3.148,2.749-.147,19.763-1.904,20.926-2.718,2.055-1.439.341-11.305-1.581-13.458-5.371-6.016-26.325-2.77-24.467-16.916Z" />
</svg>