<?xml version="1.0" encoding="UTF-8" standalone="no"?>
<!-- Created with Inkscape (http://www.inkscape.org/) -->

<svg width="85.455597" height="85.017883" viewBox="0 0 22.610126 22.494315" version="1.1" id="svg1" xml:space="preserve" inkscape:export-filename="documento-buro.svg" inkscape:export-xdpi="7.6999998" inkscape:export-ydpi="7.6999998" xmlns:inkscape="http://www.inkscape.org/namespaces/inkscape" xmlns:sodipodi="http://sodipodi.sourceforge.net/DTD/sodipodi-0.dtd"
  xmlns="http://www.w3.org/2000/svg" xmlns:svg="http://www.w3.org/2000/svg">
  <g inkscape:groupmode="layer" id="layer2" inkscape:label="Capa 2" transform="translate(-0.60118581,-0.65909308)">
    <g id="g2" transform="translate(0.51296638,0.65909195)">
      <path id="path1" style="fill:none;stroke:#2a405b;stroke-width:1.23472;stroke-linecap:round;stroke-linejoin:round;stroke-dasharray:none;stroke-opacity:1" sodipodi:type="inkscape:offset" inkscape:radius="0"
        inkscape:original="M 6.8730469 1.3066406 C 6.3069094 1.3013406 6.1309547 1.9533239 6.1308594 2.8183594 L 7.5976562 2.8183594 C 7.5975614 1.9565704 7.5367129 1.3128706 6.8730469 1.3066406 z M 7.5976562 2.8183594 C 7.5976562 3.4998958 7.8806248 5.0158668 7.375 5.5371094 C 7.0239128 5.8990432 6.3832919 5.7388186 6.1992188 5.2871094 C 5.9270031 4.619103 6.1308594 3.5346773 6.1308594 2.8183594 C 5.3944531 2.8183594 4.6372186 2.8019303 3.9316406 3.0507812 C 2.8374957 3.4366706 1.944834 4.3484603 1.6347656 5.4746094 C 1.3435916 6.5321381 1.4589844 7.6884571 1.4589844 8.7734375 L 1.4589844 14.455078 C 1.4589844 16.316364 1.0214266 18.805645 2.171875 20.410156 C 3.207209 21.854119 4.7157476 21.876953 6.3144531 21.876953 L 12.820312 21.876953 C 12.138094 19.74341 13.47973 18.008266 15.203125 16.835938 C 14.660534 15.956689 14.111328 15.171279 14.111328 14.087891 C 14.111328 12.01436 15.968711 10.164062 18.042969 10.164062 C 18.975143 10.164062 19.734592 10.630267 20.517578 11.064453 C 20.517578 8.3255231 21.374494 4.0246062 17.951172 3.0039062 C 17.291127 2.8071073 16.616376 2.8183594 15.935547 2.8183594 C 15.935547 3.5430478 16.134502 4.6138559 15.84375 5.2871094 C 15.63334 5.7743395 14.952473 5.9093983 14.617188 5.4609375 C 14.202658 4.9064843 14.470703 3.4900707 14.470703 2.8183594 L 7.5976562 2.8183594 z M 14.470703 2.8183594 L 15.935547 2.8183594 C 15.935426 2.6364755 15.891602 2.3944117 15.888672 2.0957031 C 15.883572 1.579432 15.617547 1.3097314 15.097656 1.3183594 C 14.642236 1.3259594 14.471286 1.6258178 14.46875 2.0957031 C 14.46745 2.3377981 14.470703 2.600862 14.470703 2.8183594 z M 9.4257812 9.2871094 C 10.057248 9.2854394 10.070888 10.603735 9.4277344 10.589844 C 9.4277344 10.589844 6.0261065 10.628693 5.7148438 10.632812 C 4.9805474 10.654602 4.9677639 9.3052098 5.6269531 9.2910156 L 9.4257812 9.2871094 z M 10.988281 13.099609 C 11.772602 13.048409 11.821843 14.45936 11.029297 14.458984 C 10.644724 14.458802 5.8613281 14.478516 5.8613281 14.478516 C 5.0033152 14.484516 4.9061443 13.07674 5.8613281 13.111328 C 5.8613281 13.111328 10.920607 13.090339 10.988281 13.099609 z "
        d="M 6.8730469,1.3066406 C 6.3069094,1.3013406 6.1309547,1.9533239 6.1308594,2.8183594 H 7.5976562 C 7.5975614,1.9565704 7.5367129,1.3128706 6.8730469,1.3066406 Z m 0.7246093,1.5117188 c 0,0.6815364 0.2829686,2.1975074 -0.2226562,2.71875 -0.3510872,0.3619338 -0.9917081,0.2017092 -1.1757812,-0.25 -0.2722157,-0.6680064 -0.068359,-1.7524321 -0.068359,-2.46875 -0.7364063,0 -1.4936408,-0.016429 -2.1992188,0.2324218 C 2.8374957,3.4366706 1.944834,4.3484603 1.6347656,5.4746094 1.3435916,6.5321381 1.4589844,7.6884571 1.4589844,8.7734375 v 5.6816405 c 0,1.861286 -0.4375578,4.350567 0.7128906,5.955078 1.035334,1.443963 2.5438726,1.466797 4.1425781,1.466797 h 6.5058589 c -0.682218,-2.133543 0.659418,-3.868687 2.382813,-5.041015 -0.542591,-0.879249 -1.091797,-1.664659 -1.091797,-2.748047 0,-2.073531 1.857383,-3.923829 3.931641,-3.923829 0.932174,0 1.691623,0.466205 2.474609,0.900391 0,-2.7389299 0.856916,-7.0398468 -2.566406,-8.0605468 -0.660045,-0.1967989 -1.334796,-0.1855468 -2.015625,-0.1855468 0,0.7246884 0.198955,1.7954965 -0.0918,2.46875 -0.21041,0.4872301 -0.891277,0.6222889 -1.226562,0.1738281 -0.41453,-0.5544532 -0.146485,-1.9708668 -0.146485,-2.6425781 z m 6.8730468,0 h 1.464844 c -1.21e-4,-0.1818839 -0.04394,-0.4239477 -0.04687,-0.7226563 -0.0051,-0.5162711 -0.271125,-0.7859717 -0.791016,-0.7773437 -0.45542,0.0076 -0.62637,0.3074584 -0.628906,0.7773437 -0.0013,0.242095 0.002,0.5051589 0.002,0.7226563 z m -5.0449218,6.46875 c 0.6314668,-0.00167 0.6451068,1.3166256 0.00195,1.3027346 0,0 -3.4016279,0.03885 -3.7128906,0.04297 -0.7342964,0.02179 -0.7470799,-1.3276022 -0.087891,-1.3417964 z m 1.5624998,3.8124996 c 0.784321,-0.0512 0.833562,1.359751 0.04102,1.359375 -0.384573,-1.82e-4 -5.1679689,0.01953 -5.1679689,0.01953 -0.8580129,0.006 -0.9551838,-1.401776 0,-1.367188 0,0 5.0592789,-0.02099 5.1269529,-0.01172 z"
        transform="matrix(1.0316102,0,0,1.0316102,-0.67118942,-0.7110503)" />
      <path
        d="m 17.756684,16.916915 v 0.09163 c -1.53531,0.397383 -2.81796,0.993672 -3.593222,2.473956 -0.466743,0.891198 -0.523265,1.959634 0.386591,2.59747 0.586805,0.41137 1.337401,0.334626 2.015462,0.334626 1.504324,0 3.191982,0.212516 4.673029,-0.05642 1.62071,-0.294295 1.753647,-1.819256 1.070832,-3.058933 -0.748715,-1.359325 -2.087007,-2.007995 -3.544788,-2.290699 1.01185,-0.387988 1.897277,-0.819432 2.281438,-1.924189 0.742635,-2.135631 -1.136254,-4.357613 -3.380975,-3.878708 -2.935944,0.626375 -3.109607,5.429659 0.09163,5.711268"
        style="fill:#030303;fill-opacity:1;stroke:none;stroke-width:0.593019;stroke-dasharray:none;stroke-opacity:1" id="path1-0" />
    </g>
  </g>
</svg>