<?xml version="1.0" encoding="UTF-8"?>
<svg id="Capa_2" xmlns="http://www.w3.org/2000/svg" viewBox="0 0 55.0649 55.1008">
  <defs>
    <style>
      .cls-1 {
        fill: #fff;
      }
    </style>
  </defs>
  <g id="Capa_1-2" data-name="Capa_1">
    <g>
      <path class="cls-1" d="M.0036,55.0961c0-.6751,0-1.2842,0-1.8934-.0004-2.5721.0096-5.1442-.0034-7.7162-.0232-4.5568,3.5666-8.677,8.0911-9.269,5.2356-.6851,9.7675,2.5968,10.7462,7.7823.9752,5.167-2.7894,10.3623-8.0133,10.9659-1.4075.1626-2.8416.1137-4.2638.1257-2.1552.0182-4.3107.0048-6.5567.0048ZM4.7786,40.8072h9.4225v-1.8258H4.7786v1.8258ZM4.7651,44.6138h9.4436v-1.8198H4.7651v1.8198ZM14.2234,46.5895H4.8008v1.8272h9.4226v-1.8272ZM6.6413,50.3838h-1.847v1.8159h1.847v-1.8159ZM10.4016,52.2341v-1.847h-1.8049v1.847h1.8049ZM14.217,52.2186v-1.8329h-1.8225v1.8329h1.8225Z"/>
      <path class="cls-1" d="M52.9877,51.4669c-.6382-2.3891-2.0422-4.0889-4.1983-5.1654,2.0506-2.5472,2.0351-5.2159-.0129-7.0558-1.9275-1.7316-4.7445-1.6589-6.583.1942-1.6827,1.6961-1.9986,4.5927.2138,6.8498-2.163,1.0887-3.5988,2.7777-4.2203,5.1342-2.3831-2.615-3.3642-8.2478.4973-12.3451,3.5218-3.7368,9.5381-3.9733,13.2625-.5247,3.862,3.576,4.0447,9.3469,1.0409,12.9129Z"/>
      <path class="cls-1" d="M12.6891,10.2033c2.0354-2.3926,2.0526-5.1352.077-6.9764-1.9197-1.789-4.7529-1.7621-6.627.0838-1.6925,1.6669-2.0734,4.5872.1761,6.8885-2.1485,1.0798-3.5811,2.7509-4.2041,5.0808C-.5167,13.5268-.6586,7.1831,1.8519,3.8798,5.2405-.579,11.4762-1.3085,15.6428,2.2843c4.1063,3.5408,4.2953,9.5327,1.2519,13.0778-.626-2.3652-2.0386-4.0758-4.2056-5.1588Z"/>
      <path class="cls-1" d="M42.4136,10.2016c-2.1837,1.0908-3.5958,2.7769-4.2237,5.1123-2.2533-2.3824-3.4118-7.968.3341-12.1602,3.4255-3.8337,9.4993-4.2079,13.3322-.7681,3.9228,3.5206,4.1839,9.3455,1.1379,12.9856-.6404-2.3588-2.0289-4.0852-4.2008-5.1548,2.0676-2.6608,2.021-5.2934-.098-7.1344-1.9407-1.686-4.7682-1.54-6.5773.3396-1.7897,1.8594-1.6906,4.636.2957,6.7799Z"/>
      <path class="cls-1" d="M.0171,39.1789v-5.799c.6013.3225,1.1545.6014,1.6888.9127.3036.1769.5427.1968.8589-.0093,1.2025-.7836,2.5236-1.2933,3.9147-1.6446.2042-.0516.4358-.3057.5062-.5159.1806-.5396.2776-1.1073.4143-1.69h4.1982c.134.5673.2409,1.1472.4187,1.7044.0635.1989.273.4504.4596.495,1.4168.339,2.7464.8772,3.9752,1.6539.3123.1974.5522.1959.8537-.0116.4542-.3127.9374-.5831,1.3468-.8339,1.005.993,1.9855,1.9618,3.0156,2.9796-.2436.3945-.5117.874-.8256,1.3213-.2179.3105-.2091.5413-.0464.8998.5849,1.2892,1.088,2.6152,1.6522,3.9142.092.2119.3066.4464.5161.5167.5405.1813,1.1099.2766,1.6989.4134v4.2237c-.5807.1351-1.1649.2391-1.7249.4186-.1959.0628-.3996.2825-.4849.4801-.5689,1.3184-1.1187,2.6455-1.6428,3.9824-.0853.2177-.0889.5305.0022.7422.2473.5743.5659,1.1179.8859,1.7306h-5.8091c3.0921-2.3107,4.8969-5.289,4.9816-9.1014.0841-3.7835-1.3858-6.9243-4.3507-9.3229-4.5693-3.6964-12.2086-3.4194-16.5034,2.5399Z"/>
      <path class="cls-1" d="M9.5223,18.9965c-1.9725-.0427-3.7404-.5815-5.3459-1.6585-.2814-.1888-.3895-.3861-.3625-.7232.2298-2.8785,2.7345-5.1923,5.6535-5.2078,2.9467-.0156,5.4898,2.2921,5.6976,5.2022.0158.2207-.1222.5472-.2973.6718-1.6092,1.1455-3.4243,1.6817-5.3454,1.7154Z"/>
      <path class="cls-1" d="M45.5608,18.9961c-1.9069-.0321-3.7219-.5677-5.3312-1.7133-.1762-.1254-.3182-.4501-.3028-.6703.2037-2.9067,2.7494-5.219,5.6954-5.2055,2.9195.0133,5.4214,2.3224,5.6557,5.2045.0273.3361-.074.5351-.357.7249-1.6056,1.0767-3.3733,1.6166-5.3601,1.6598Z"/>
      <path class="cls-1" d="M45.598,55.0872c-1.9557-.0375-3.7392-.5869-5.3621-1.6759-.2996-.2011-.3553-.4256-.3255-.7415.2742-2.9058,2.7636-5.1726,5.6854-5.1712,2.9209.0014,5.4151,2.2798,5.6785,5.1784.0291.3205-.0344.5394-.3304.738-1.6231,1.0888-3.4078,1.6355-5.3459,1.6722Z"/>
      <path class="cls-1" d="M36.9371,17.01c.3453.3564.7687.7936,1.1543,1.1917-5.2602,5.2694-10.5602,10.5785-15.8777,15.9053-.3874-.4036-.7957-.8288-1.1527-1.2007,5.2836-5.2903,10.5852-10.5986,15.8762-15.8963Z"/>
      <path class="cls-1" d="M6.6571,6.6441c.0104-1.5826,1.3099-2.858,2.8854-2.8318,1.5559.0259,2.8056,1.2993,2.8032,2.8563-.0024,1.5667-1.3204,2.8604-2.8867,2.8335-1.5531-.0267-2.8121-1.3109-2.8019-2.8581Z"/>
      <path class="cls-1" d="M42.7487,6.6632c-.0005-1.5831,1.2886-2.8652,2.8663-2.8508,1.5547.0141,2.8137,1.2797,2.8223,2.8372.0087,1.5664-1.2994,2.8677-2.8676,2.8526-1.5527-.0149-2.8205-1.2908-2.821-2.839Z"/>
      <path class="cls-1" d="M48.436,42.8284c-.0397,1.5449-1.3508,2.7975-2.8943,2.7655-1.5775-.0327-2.84-1.356-2.7916-2.9262.048-1.5597,1.3412-2.7951,2.8929-2.7637,1.5802.0319,2.8337,1.3444,2.7931,2.9244Z"/>
      <path class="cls-1" d="M8.5702,28.4602v-7.5451h1.8463v7.5451h-1.8463Z"/>
      <path class="cls-1" d="M34.1901,44.6883v1.8204h-7.5468v-1.8204h7.5468Z"/>
    </g>
  </g>
</svg>