<?xml version="1.0" encoding="UTF-8"?>
<svg id="Capa_2" xmlns="http://www.w3.org/2000/svg" viewBox="0 0 50.7543 50.7899">
  <defs>
    <style>
      .cls-1 {
        fill: #fff;
      }
    </style>
  </defs>
  <g id="Capa_1-2" data-name="Capa_1">
    <g>
      <path class="cls-1" d="M18.2783,33.3045c-.9574-1.7669-1.9211-3.4455-2.7908-5.1714-1.7516-3.4761-3.12-7.0899-3.7311-10.9591-.6787-4.2971-.0452-8.3025,2.6754-11.819C16.6527,2.4843,19.579.7203,23.1649.1843c5.1387-.768,9.4628.8703,12.8381,4.7935,2.4817,2.8845,3.4606,6.3259,3.2057,10.1119-.3367,4.9999-2.1392,9.5421-4.4142,13.9279-.7352,1.4174-1.5344,2.8017-2.3368,4.2599.2068.0097.3906.0258.5744.0259,3.5075.0015,7.0149.0007,10.5224.0015.8134.0002.9202.0738,1.2133.8412,1.94,5.0794,3.8796,10.159,5.818,15.2391.387,1.0143.1224,1.4043-.9528,1.4043-16.1664.0006-32.3328.0006-48.4991,0-1.0828,0-1.3526-.3854-.9685-1.392,1.9445-5.0968,3.8911-10.1928,5.8381-15.2887.2766-.724.3952-.8037,1.1831-.8039,3.4897-.0009,6.9793-.0004,10.469-.0004.1947,0,.3894,0,.6228,0ZM25.3301,40.7466c2.3305-2.9822,4.4267-5.9588,6.2828-9.1022,2.2669-3.8392,4.2245-7.8157,5.3597-12.1516.6902-2.6366,1.0829-5.3102.5439-8.0225-1.053-5.2985-5.3369-9.2459-10.682-9.9047-6.8293-.8418-13.1341,4.2251-13.7602,11.0814-.3075,3.3675.4561,6.5766,1.5786,9.7129,1.8716,5.2295,4.6538,9.9733,7.8361,14.4959.9087,1.2914,1.8615,2.5518,2.8411,3.8908ZM19.4758,46.1763c-.0462-.1045-.0546-.1413-.0755-.1684-2.8075-3.651-5.613-7.3036-8.4347-10.9437-.1151-.1485-.381-.2452-.5806-.252-.8174-.028-1.6374.0127-2.4543-.0216-.4344-.0183-.6481.1098-.8086.5351-1.6856,4.4689-3.3954,8.9287-5.0968,13.3917-.0654.1717-.1143.3497-.1877.5765.2821,0,.4767,0,.6713,0,2.4196,0,4.8394.0193,7.2585-.0138.5893-.0081,1.2025-.1113,1.7598-.3019,2.6519-.907,5.2883-1.8592,7.9485-2.8019ZM12.7126,34.8005c.1539.226.242.3704.3445.5037,2.5287,3.2859,5.0647,6.5663,7.5805,9.862.2696.3532.4859.4362.9175.2815,6.2897-2.2535,12.5868-4.4863,18.8818-6.7249,1.303-.4634,2.6045-.9306,3.9356-1.4064-.2768-.7252-.5595-1.3968-.7857-2.087-.1168-.3564-.3037-.4381-.6567-.4369-3.6674.013-7.3349.013-11.0022,0-.3466-.0012-.5305.1199-.7294.397-1.6594,2.3112-3.3328,4.6124-5.0195,6.9038-.5567.7563-1.0484.7565-1.6053-.0004-1.6863-2.2918-3.3589-4.5938-5.0181-6.9053-.199-.2773-.3843-.4005-.7309-.3955-1.4061.0204-2.8128.0085-4.2192.0085h-1.8929ZM15.48,49.1815c.0093.0219.0186.0437.0278.0656h24.7961c-1.8276-2.3736-3.6023-4.6787-5.3768-6.9833-6.5132,2.3169-12.9802,4.6173-19.4471,6.9177ZM48.9477,49.2939c-1.3597-3.5663-2.6909-7.0576-4.0361-10.5857-2.846,1.011-5.6461,2.0058-8.4491,3.0015.0404.1019.0467.1398.0673.1666,1.8315,2.3842,3.6588,4.7716,5.5082,7.1418.1239.1587.414.2603.6288.2638,1.4057.0231,2.8119.0119,4.218.0119.6542,0,1.3083,0,2.0629,0Z"/>
      <path class="cls-1" d="M25.3833,20.1619c-3.4959.0025-6.3053-2.7996-6.3128-6.2963-.0075-3.4832,2.8158-6.3192,6.296-6.3244,3.4809-.0052,6.3092,2.8165,6.3181,6.3035.009,3.4728-2.8259,6.3147-6.3014,6.3172ZM30.1893,13.8573c.0079-2.6305-2.135-4.7972-4.7674-4.8202-2.6322-.0231-4.8391,2.1269-4.8557,4.7304-.0173,2.7144,2.1117,4.89,4.7929,4.8979,2.6625.0079,4.8222-2.142,4.8302-4.8082Z"/>
    </g>
  </g>
</svg>