<?xml version="1.0" encoding="UTF-8"?>
<svg id="Capa_2" xmlns="http://www.w3.org/2000/svg" viewBox="0 0 42.0469 48.4259">
  <defs>
    <style>
      .cls-1 {
        fill: #fff;
      }
    </style>
  </defs>
  <g id="Capa_1-2" data-name="Capa_1">
    <g>
      <path class="cls-1" d="M1.6029,48.4259v-1.5086h37.5301v1.5086H1.6029Z"/>
      <path class="cls-1" d="M3.1247,26.4994c-.0254-.4627-.0502-.9153-.0774-1.4118h34.453c.0243.4533.0491.9161.0756,1.4118H3.1247Z"/>
      <path class="cls-1" d="M40.7096,23.3776h-14.5977c.4418-.3291.8344-.6053,1.2093-.9038,1.0049-.8005,1.8159-1.7709,2.4683-2.8749.12-.2032.2077-.3754.5194-.2817,3.4262,1.0294,6.8566,2.0447,10.2856,3.0647.0305.0091.0575.0301.115.0612v.9345ZM32.1124,22.6105v-.0023c.2769,0,.5551.0174.8303-.004.4384-.0341.7289-.3475.7403-.7643.0111-.4032-.2861-.7557-.7191-.7777-.5523-.0281-1.108-.0267-1.6606-.0022-.4419.0196-.7411.3535-.7404.7584.0007.4318.3082.7578.7678.789.2594.0176.521.0032.7816.0032Z"/>
      <path class="cls-1" d="M14.6012,23.3847H.0134c0-.1829.0195-.357-.0041-.5251-.0471-.3359.0836-.472.4159-.5687,3.0646-.8924,6.1223-1.8082,9.1827-2.715,1.0909-.3233,1.0683-.3034,1.7305.6009.451.6158.9405,1.2143,1.4837,1.7484.5303.5213,1.1506.951,1.7791,1.4595ZM8.5926,22.6086c0-.0008,0-.0016,0-.0024.2931,0,.588.0203.879-.0048.4232-.0365.7322-.379.7126-.7859-.0208-.4316-.2641-.72-.6915-.7489-.5674-.0384-1.1404-.032-1.709-.0039-.435.0215-.7297.3756-.7155.7799.0145.4139.3089.7282.743.7622.259.0203.5209.0037.7815.0037Z"/>
      <path class="cls-1" d="M7.0292,42.1703h-1.5092v-10.9023h1.5092v10.9023Z"/>
      <path class="cls-1" d="M10.16,42.1722h-1.5054v-10.9197h1.5054v10.9197Z"/>
      <path class="cls-1" d="M19.5602,42.1701h-1.5095v-10.9023h1.5095v10.9023Z"/>
      <path class="cls-1" d="M22.6909,42.1721h-1.5056v-10.9197h1.5056v10.9197Z"/>
      <path class="cls-1" d="M32.0889,42.1723h-1.5052v-10.9197h1.5052v10.9197Z"/>
      <path class="cls-1" d="M35.2228,42.171h-1.5077v-10.9023h1.5077v10.9023Z"/>
      <path class="cls-1" d="M3.953,29.6302v-1.5098h7.7698v1.5098H3.953Z"/>
      <path class="cls-1" d="M24.2688,28.1295v1.5088h-7.7698v-1.5088h7.7698Z"/>
      <path class="cls-1" d="M36.7998,28.1297v1.5086h-7.7698v-1.5086h7.7698Z"/>
      <path class="cls-1" d="M11.7391,43.7943v1.5065H3.9693v-1.5065h7.7698Z"/>
      <path class="cls-1" d="M24.2687,43.7863v1.5052h-7.7765v-1.5052h7.7765Z"/>
      <path class="cls-1" d="M29.014,45.293v-1.5083h7.7698v1.5083h-7.7698Z"/>
      <circle class="cls-1" cx="39.8093" cy="2.2376" r="2.2376"/>
      <polygon class="cls-1" points="26.171 19.6783 14.9146 19.6783 9.4781 13.3917 9.4781 4.4034 10.8561 4.4034 10.8561 12.878 15.5445 18.3004 24.7931 18.3004 24.7931 6.8702 31.0797 1.4337 40.068 1.4337 40.068 2.8116 31.5934 2.8116 26.171 7.5001 26.171 19.6783"/>
      <circle class="cls-1" cx="10.2819" cy="4.662" r="2.2376"/>
      <circle class="cls-1" cx="21.1029" cy="3.6621" r="2.2376"/>
      <polygon class="cls-1" points="25.482 13.564 20.4142 13.564 20.4142 3.8756 21.7921 3.8756 21.7921 12.1861 25.482 12.1861 25.482 13.564"/>
    </g>
  </g>
</svg>