<?xml version="1.0" encoding="UTF-8"?>
<svg id="Capa_2" xmlns="http://www.w3.org/2000/svg" viewBox="0 0 38.8795 46.2571">
  <defs>
    <style>
      .cls-1 {
        fill: #fff;
      }
    </style>
  </defs>
  <g id="Capa_1-2" data-name="Capa_1">
    <g>
      <path class="cls-1" d="M38.8795,0c-.8479,4.0085-2.1996,7.8062-4.8125,11.0355-2.5588,3.1625-5.9664,3.81-8.7929,1.7435-.1668-.1219-.3702-.1936-.9769-.5031,1.8554-.9162,3.2698-1.5614,4.6328-2.3014,1.6583-.9003,3.3159-1.8172,4.8766-2.8709.3832-.2587.3888-1.0766.568-1.6375-.5107.1649-1.0585.2598-1.5256.5071-1.8475.978-3.596,2.183-5.5172,2.973-3.5401,1.4557-5.8101,3.8756-6.7154,7.6142,1.8149.519,3.5567,1.0172,5.4439,1.5569-1.4318,3.8691.336,6.1014,3.388,7.7212.2715.1441.5313.3131.7853.4869,4.4868,3.0714,4.7132,3.5307,3.4105,9.2291-.647,2.8298-2.2373,5.1805-4.4784,7.0175-.5177.4244-1.3999.7287-2.0365.6223-1.8644-.3115-3.6888-.8605-5.5301-1.3117-3.767-.9232-5.292.0299-6.0619,4.0382-1.7827-.8934-3.4944-1.7511-5.5838-2.7981,2.7066-.7984,3.2011-2.5991,3.2681-4.6454.0252-.7693.0557-1.5452-.0136-2.3093-.1493-1.6464.4564-2.9745,1.4677-4.2347,2.4071-2.9995,2.1537-5.0043-.7357-7.5307-1.0737-.9388-2.0483-2.0029-2.9873-3.0802-.7538-.8648-.6671-1.6825.4791-2.1878,1.9093-.8418,3.8239-1.6718,5.8991-2.5779-.6191-1.429-1.6659-2.8301-3.2294-3.7603-1.0969-.6526-2.3342-1.0658-3.4504-1.6901-1.6433-.9192-3.2234-1.9507-4.8572-2.8878-.337-.1933-.7912-.1824-1.1913-.2656.0352.4436-.1006,1.121.1338,1.2925,1.3962,1.0215,2.8299,2.0133,4.3438,2.8465,1.6433.9045,3.388,1.625,5.1573,2.4581-2.0476,2.233-4.8482,2.6179-7.2146.9084-1.2217-.8826-2.3262-2.0472-3.1827-3.2915C1.8795,9.3184.8179,6.0681,0,2.7627c2.1618.2384,4.1732.5866,6.1927.6414,1.5237.0414,3.0538-.3518,4.5876-.4487,4.4263-.2798,7.2007,2.917,6.0589,7.1886-.3708,1.3872-.2108,2.2661.7987,3.1731.4803.4316.805,1.0364,1.0976,1.426,1.1691-1.6523,2.3569-3.2739,3.464-4.9488.1973-.2986.1712-.851.0601-1.2313C20.7194,3.2875,23.5322-.1141,29.0399.5684c2.8815.3571,5.7159.6362,8.5377-.2578.2373-.0752.457-.2058.6849-.3106.2057,0,.4114,0,.6171,0Z"/>
      <path class="cls-1" d="M8.4463,21.4627c1.544,1.5804,2.8135,2.974,4.1836,4.2605,2.1587,2.0269,2.2938,2.9252.4198,5.1779-1.3964,1.6785-1.9422,3.5651-1.7638,5.7164.0632.7617.1665,1.5855-.0512,2.2871-.229.7381-.8563,1.9472-1.2459,1.923-.9531-.0591-2.2579-.4504-2.7374-1.1661-3.0237-4.5129-3.4237-9.3661-1.1665-14.3295.647-1.4227,1.6318-2.6919,2.3613-3.8694Z"/>
      <path class="cls-1" d="M25.4778,44.9639c-2.5447,1.1008-4.7918,1.4455-7.1109,1.2343-.284-.0259-.8055-.8394-.7138-.9994.3697-.6446.8756-1.5723,1.4448-1.6603.955-.1475,2.0065.2244,2.9992.4558.9963.2322,1.9704.5599,3.3807.9696Z"/>
      <path class="cls-1" d="M32.8585,25.734c-1.9836-1.8314-5.8196-2.162-5.2233-6.5372,2.5533,1.8234,4.2802,3.8628,5.2233,6.5372Z"/>
    </g>
  </g>
</svg>