<?xml version="1.0" encoding="UTF-8"?>
<svg id="Capa_2" xmlns="http://www.w3.org/2000/svg" viewBox="0 0 40.832 40.8605">
  <defs>
    <style>
      .cls-1 {
        fill: #fff;
      }
    </style>
  </defs>
  <g id="Capa_1-2" data-name="Capa_1">
    <g>
      <path class="cls-1" d="M7.7727,40.8605c-.5724-.119-1.157-.1969-1.7152-.3636C2.3107,39.378-.2033,35.8219.0129,31.9158c.1099-1.9848.8603-3.7263,2.1909-5.2084.136-.1514.1931-.2982.1936-.5021.0186-6.8038.0076-13.608.0868-20.4111.0267-2.2903,1.2021-4.0115,3.2253-5.0883,1.569-.8351,3.2391-.935,4.8808-.2686,2.3329.947,3.6627,2.7282,3.798,5.2469.1094,2.0364.0362,4.0827.043,6.1246.0002.048-.0102.096-.0175.16h-4.757v-4.7478h-2.4029c0,.1238,0,.2489,0,.3741,0,7.023-.0017,14.046.0064,21.069.0003.2777-.0816.4102-.3376.5282-1.4669.676-2.2694,2.2171-2.0081,3.8051.2572,1.5632,1.5583,2.7826,3.1314,2.9699,1.5698.1869,3.3434-.7695,3.8523-2.585.4809-1.7154-.3392-3.4843-1.9651-4.2172-.2361-.1064-.293-.2294-.2915-.4661.0094-1.4643.0047-2.9287.0048-4.3931v-.3367h4.7865c0,.4074.033.8057-.0068,1.1965-.0853.8375.1667,1.4894.6942,2.1854,3.6124,4.7665,1.1757,11.7201-4.6001,13.2382-.4688.1232-.9545.1824-1.4323.2713h-1.3152Z"/>
      <path class="cls-1" d="M40.832,19.1597h-2.3781v-3.0907c-2.8568,2.8275-5.6514,5.5936-8.4602,8.3736-1.5913-1.5991-3.1695-3.1851-4.7652-4.7887-2.117,2.1399-4.202,4.2474-6.2639,6.3316-.6054-.6075-1.1557-1.1598-1.686-1.6919,2.6288-2.6246,5.2965-5.2882,7.9601-7.9475,1.5501,1.5413,3.1387,3.1209,4.7494,4.7225,2.2366-2.2136,4.469-4.423,6.7444-6.6749h-3.0513v-2.4077h7.1508v7.1738Z"/>
      <path class="cls-1" d="M40.832,7.2034h-2.3894v-3.097c-2.8477,2.8249-5.6374,5.5923-8.418,8.3507-1.6032-1.593-3.1961-3.1756-4.7995-4.7688-2.1342,2.1324-4.2388,4.2353-6.3331,6.3277-.5666-.5696-1.1135-1.1194-1.6387-1.6474,2.656-2.652,5.3241-5.316,8.0143-8.0021,1.5382,1.5457,3.1183,3.1334,4.7148,4.7376,2.2461-2.2187,4.4762-4.4215,6.7584-6.6758h-3.0697V.0296h7.1609v7.1738Z"/>
      <path class="cls-1" d="M9.6609,16.7525v-2.3563h4.7559v2.3563h-4.7559Z"/>
      <path class="cls-1" d="M9.6683,19.1855h4.7417v2.3507h-4.7417v-2.3507Z"/>
      <path class="cls-1" d="M9.6486,32.4033c.0034.6585-.5283,1.1913-1.1912,1.1937-.6668.0024-1.1925-.5209-1.1928-1.1873-.0003-.6634.5271-1.1953,1.1871-1.1971.6582-.0018,1.1936.5308,1.197,1.1908Z"/>
    </g>
  </g>
</svg>