<?xml version="1.0" encoding="UTF-8"?>
<svg id="Capa_2" xmlns="http://www.w3.org/2000/svg" viewBox="0 0 65.8729 26.8071">
  <defs>
    <style>
      .cls-1 {
        fill: #fff;
      }
    </style>
  </defs>
  <g id="Capa_1-2" data-name="Capa_1">
    <g>
      <path class="cls-1" d="M36.4277.0011h29.4453v5.7223h-7.3493v21.0838h-6.0869V5.7234h-16.0091V.0011Z"/>
      <path class="cls-1" d="M20.6691,21.0842v5.7221h-10.4459c-3.302,0-5.8314-1.1538-7.588-3.4627-1.7574-2.3075-2.6352-5.6213-2.6352-9.9408S.8729,5.7712,2.6193,3.4637C4.3657,1.1542,6.9,0,10.2232,0h10.4459v5.7225h-8.9227c-1.7353,0-3.0208.6609-3.8575,1.981-.8358,1.3203-1.2537,3.22-1.2537,5.6993,0,2.5033.4179,4.4093,1.2537,5.7185.8367,1.3088,2.1222,1.9629,3.8575,1.9629h8.9227Z"/>
      <path class="cls-1" d="M29.644,5.6645h4.4918c2.4803,0,5.7894.5511,5.7894,7.9941s-3.7216,7.4255-6.0651,7.4255h-14.7196v5.7221h16.9254c3.3073,0,10.4751-1.1561,10.4751-12.7335S41.8549,0,37.0306,0h-13.4725v18.4595h6.086V5.6645Z"/>
    </g>
  </g>
</svg>