<?xml version="1.0" encoding="UTF-8"?>
<svg id="Capa_2" xmlns="http://www.w3.org/2000/svg" viewBox="0 0 52.0669 47.0902">
  <defs>
    <style>
      .cls-1 {
        fill: #fff;
      }
    </style>
  </defs>
  <g id="Capa_1-2" data-name="Capa_1">
    <g>
      <path class="cls-1" d="M49.8209,11.0735c.2469,1.5284.4896,3.0074.7241,4.4877.4747,2.9962.9348,5.9947,1.4203,8.9891.3716,2.292-.2948,4.2966-1.7087,6.0614-1.7432,2.1758-3.5441,4.3053-5.3212,6.454-1.1265,1.362-1.3862,2.1961-1.2089,3.9959-.1864-.0694-.3498-.1165-.5011-.1888-1.8612-.8892-3.716-1.7922-5.5848-2.665-.3468-.162-.4956-.3727-.5232-.7388-.2009-2.6679.6347-4.9623,2.6743-6.6853,1.5077-1.2737,2.647-2.7455,3.404-4.5576.4764-1.1405,1.0377-2.2469,1.5897-3.3543.6736-1.3515,1.914-2.0157,3.2746-1.7486-.0945.2135-.1789.4174-.2737.6163-.9408,1.9734-1.8842,3.9455-2.8238,5.9195-.0881.1851-.1751.375-.2275.572-.1179.4432.0591.8516.4558.9586.2947.0795.6875-.0854.9964-.2283.1522-.0704.2256-.3315.3142-.5162,1.1066-2.3056,2.2106-4.6125,3.3128-6.9202.6132-1.2838.5266-1.5036-.776-2.0179-.0557-.022-.1046-.0613-.3156-.1881,0-2.1386-.0059-4.3682.0033-6.5978.0031-.7477.3733-1.2771,1.0948-1.6476Z"/>
      <path class="cls-1" d="M2.2649,11.0907c.7031.3516,1.0662.8867,1.0698,1.6315.0106,2.2294.0038,4.4589.0038,6.6091-1.7304.8363-1.7343.8483-.9575,2.4718,1.0592,2.2138,2.1167,4.4284,3.1799,6.6403.0972.2023.1865.4775.3565.5601.2876.1397.7217.302.938.1794.2509-.1423.3894-.5685.4664-.8973.0425-.1814-.1281-.4219-.2247-.6253-1.025-2.1587-2.0545-4.3154-3.1271-6.5656,1.0453-.1631,1.8924.1138,2.5755.7871.3579.3528.6336.8146.8605,1.27.6618,1.3289,1.2892,2.6751,1.9131,4.0225.5559,1.2005,1.3087,2.2414,2.3586,3.059,1.6024,1.2478,2.734,2.8216,3.1072,4.8369.1554.839.1023,1.7189.1108,2.5805.0014.1453-.1309.3641-.2608.4276-2.0722,1.0121-4.154,2.0045-6.2542,3.0112,0-.5433.1184-1.0669-.0259-1.5037-.2602-.7881-.5509-1.6233-1.0521-2.2643-1.7294-2.2119-3.5572-4.3466-5.3434-6.5142-1.5319-1.8589-2.2473-3.9476-1.8524-6.378.6917-4.2567,1.3537-8.5182,2.0304-12.7773.0281-.1768.0789-.35.1275-.561Z"/>
      <path class="cls-1" d="M39.0481,11.4757H13.0141c4.3856-3.8664,8.6802-7.6526,13.0167-11.4757,4.325,3.8128,8.6136,7.5934,13.0174,11.4757ZM29.7898,7.0876c.0096-2.0732-1.6413-3.7616-3.7017-3.7857-2.1059-.0247-3.7918,1.6247-3.8151,3.7324-.0229,2.0685,1.7046,3.821,3.7612,3.8156,2.0325-.0053,3.7462-1.7221,3.7556-3.7623Z"/>
      <path class="cls-1" d="M17.5814,38.6285c.59,1.2311,1.1579,2.4161,1.7657,3.6844-3.3134,1.5847-6.6116,3.1621-9.9886,4.7772-.5876-1.2352-1.1573-2.4328-1.7678-3.7161,3.336-1.5846,6.6361-3.1521,9.9906-4.7455Z"/>
      <path class="cls-1" d="M44.4683,43.3694c-.5927,1.2529-1.1544,2.4402-1.7592,3.7187-3.3274-1.5882-6.627-3.1633-9.9934-4.7702.5842-1.2243,1.1561-2.4229,1.7605-3.6895,3.3288,1.5794,6.6161,3.1392,9.9921,4.741Z"/>
      <path class="cls-1" d="M42.129,27.7954v1.2865H9.9373v-1.2865h32.1917Z"/>
      <path class="cls-1" d="M24.5866,13.2672h2.9002v9.9682h-2.9002v-9.9682Z"/>
      <path class="cls-1" d="M12.0422,25.9724v-.9178h27.9766v.9178H12.0422Z"/>
      <path class="cls-1" d="M17.6318,13.2702h2.2764v9.9742h-2.2764v-9.9742Z"/>
      <path class="cls-1" d="M34.4397,13.2724v9.9699h-2.2943v-9.9699h2.2943Z"/>
      <path class="cls-1" d="M14.6626,13.2674h1.1665v9.9683h-1.1665v-9.9683Z"/>
      <path class="cls-1" d="M36.2324,23.2456v-9.9771h1.1661v9.9771h-1.1661Z"/>
      <path class="cls-1" d="M21.7333,13.2659h1.0404v9.9916h-1.0404v-9.9916Z"/>
      <path class="cls-1" d="M29.3001,13.2649h1.0384v9.9916h-1.0384v-9.9916Z"/>
      <path class="cls-1" d="M28.0595,7.038c.0146,1.1337-.8857,2.0517-2.0181,2.0578-1.1311.006-2.0416-.9028-2.0402-2.0364.0014-1.1137.8767-2.0048,1.9873-2.0231,1.1419-.0189,2.0564.865,2.071,2.0017Z"/>
    </g>
  </g>
</svg>