<?xml version="1.0" encoding="UTF-8"?>
<svg id="Capa_2" xmlns="http://www.w3.org/2000/svg" viewBox="0 0 45.5673 46.2615">
  <defs>
    <style>
      .cls-1 {
        fill: #fff;
      }
    </style>
  </defs>
  <g id="Capa_1-2" data-name="Capa_1">
    <g>
      <path class="cls-1" d="M.0129,23.2616h21.3014v21.2553C11.044,44.5998.3468,35.821.0129,23.2616ZM8.1709,35.6482c.2476-.1522.4558-.2587.6403-.3969,2.97-2.223,5.9372-4.4497,8.9039-6.6772.1415-.1063.3432-.2041.3904-.3475.0706-.2146.1254-.556.0106-.6792-.143-.1535-.4636-.1707-.711-.1842-.1092-.006-.2299.1377-.3402.2203-2.9843,2.2367-5.9685,4.4736-8.9502,6.7138-.1558.1171-.3399.2391-.4191.4031-.0742.1536-.0918.4011-.0154.5436.0885.1652.3066.261.4906.4041ZM15.9691,35.6795c.6189.0172,1.1853-.5168,1.2122-1.1428.0269-.6253-.4935-1.1864-1.127-1.215-.6713-.0303-1.224.4904-1.2306,1.1593-.0063.6375.513,1.1809,1.1453,1.1984ZM10.5445,29.0574c.0072-.6307-.5225-1.1752-1.1567-1.1893-.6611-.0146-1.2123.5334-1.2036,1.1967.0083.6309.5516,1.1663,1.1815,1.1641.6297-.0022,1.1717-.5409,1.1788-1.1715Z"/>
      <path class="cls-1" d="M22.5752,22.0044V.6993c3.0743.1031,5.9627.7876,8.7603,2.1054-.4991,1.3357-.9863,2.6441-1.4769,3.9512-.6453,1.719-1.2911,3.4378-1.9418,5.1548-.1549.4087-.312.8488.2237,1.0565.5746.2228.7512-.2446.9087-.6655,1.0381-2.7735,2.0743-5.5478,3.1128-8.3212.0746-.1991.1622-.3934.2895-.6999,1.3072.9033,2.5532,1.7644,3.8149,2.6363-.8174,1.9145-1.5973,3.7424-2.3785,5.5698-.3959.9261-.7872,1.8541-1.1944,2.7752-.1791.4051-.3484.8307.1706,1.0662.5671.2573.7595-.2081.9353-.6194,1.0324-2.4148,2.0625-4.8306,3.0944-7.2456.0835-.1953.1745-.3873.3167-.7017.8128.9629,1.5758,1.8412,2.2988,2.7513.1073.1351.093.4464.0211.6321-.6772,1.7491-1.3792,3.4885-2.0743,5.2307-.0146.0367-.0329.0719-.0488.1082-.18.4107-.291.8421.2409,1.0477.5452.2107.7222-.2309.8813-.6269.4489-1.1177.8926-2.2375,1.3395-3.356.1975-.4941.3978-.9871.6004-1.4894,1.5905,1.5129,3.4813,7.5885,3.4034,10.9455h-21.2978Z"/>
      <path class="cls-1" d="M22.5834,23.2617h21.3091c-.0875,2.6147-.5838,5.1067-1.5602,7.5215-4.1335-1.9732-7.9475-1.5414-11.0712,1.8478-2.8326,3.0734-2.954,6.6526-1.1807,10.3551-1.4988.816-5.4807,1.6606-7.4971,1.5756v-21.2999Z"/>
      <path class="cls-1" d="M2.8406,12.0768c0,1.9527-.0005,3.9053.0002,5.858.0003.9099.1175,1.0292,1.016,1.0292,4.4886-.0004,8.9772-.0016,13.4658-.0029.7947-.0002.9434-.1439.9439-.9185.0019-2.7287.0031-5.4575.0029-8.1863,0-.8544-.1304-.9789-1.0053-.9805-1.1863-.0021-2.3726-.0043-3.5589-.0083-.0363-.0001-.0725-.0208-.1829-.0544,0-.6815.0054-1.3858-.0016-2.09-.0062-.6243-.1892-.8096-.8142-.8125-1.2832-.0061-2.5664-.0018-3.8664-.0018-.1765-.5343-.0424-.8757.4223-1.2006,3.4916-2.4408,7.3624-3.757,11.6077-3.9967.1353-.0076.2713-.001.4479-.001v21.3116H0c.1034-3.5524,1.0086-6.8689,2.8406-9.9452Z"/>
      <path class="cls-1" d="M30.1383,38.5076c-.0084-4.1478,3.4733-7.6615,7.6047-7.6748,4.3335-.0139,7.8156,3.4095,7.8242,7.6922.0085,4.2577-3.4691,7.7405-7.7249,7.7364-4.2613-.0041-7.6953-3.4603-7.704-7.7539ZM37.5901,41.0793c-.815-.3238-1.57-.6238-2.3569-.9364-.2542.5112-.5219,1.0493-.8001,1.6088.2232.1298.3813.2576.562.3206.8144.2838,1.6353.5491,2.5505.8533v1.2374h.8186v-1.3331c.308-.0516.5635-.0792.8114-.1384.9843-.2351,1.7419-.735,2.0098-1.78.3781-1.4745-.2088-2.476-1.7791-3.044q-1.2845-.4646-1.1573-1.8407c.0017-.0189.014-.0367.0696-.1752.6205.2401,1.2447.4817,1.8865.73.2609-.5011.5226-1.004.8171-1.5698-.4549-.2077-.8533-.423-1.275-.573-.4389-.156-.9003-.2489-1.3705-.3744-.0166-.3778-.0328-.7457-.0493-1.1206h-.8225v1.1494c-.261.0659-.471.1123-.6771.172-1.2295.3558-2.0176,1.2963-2.0597,2.4529-.043,1.1811.4861,1.8531,1.8488,2.3482q1.1681.4243.9732,2.013Z"/>
      <path class="cls-1" d="M4.0675,0h3.4911v17.7321h-3.4911V0Z"/>
      <path class="cls-1" d="M8.8155,7.1217h3.4899v10.607h-3.4899V7.1217Z"/>
      <path class="cls-1" d="M17.0595,10.1024v7.6457h-3.4918v-7.6457h3.4918Z"/>
      <path class="cls-1" d="M43.5555,3.4728c-.4821-.4718-1.0257-1.0038-1.5688-1.5354.5178-.5182,1.0439-1.0447,1.5803-1.5814.5139.5521,1.0297,1.1061,1.5316,1.6452-.4654.4438-1.015.9679-1.543,1.4715Z"/>
      <path class="cls-1" d="M38.261,39.6024c.4709.1683.924.2951.878.8519-.04.4845-.4629.5033-.878.5856v-1.4375Z"/>
      <path class="cls-1" d="M37.6166,35.9289v1.3266c-.4634-.0223-.7748-.2387-.7819-.6936-.0069-.4473.2888-.6595.7819-.633Z"/>
    </g>
  </g>
</svg>