<?xml version="1.0" encoding="UTF-8"?>
<svg id="Capa_2" xmlns="http://www.w3.org/2000/svg" viewBox="0 0 50.4629 50.601">
  <defs>
    <style>
      .cls-1 {
        fill: #fff;
      }
    </style>
  </defs>
  <g id="Capa_1-2" data-name="Capa_1">
    <g>
      <path class="cls-1" d="M45.0312,50.601c-1.1142-.937-2.3014-1.8007-3.3303-2.8235-4.7618-4.7339-9.489-9.5028-14.202-14.2854-.6165-.6256-1.1517-.8569-2.0921-.7066-5.993.9576-11.1626-5.0077-9.2021-10.8361,1.2251,1.2076,2.3837,2.3532,3.5463,3.4947,1.3812,1.3561,3.6048,1.2993,5.0136.0072,1.1815-1.0836,2.146-2.1903,1.5616-3.9138-.2176-.6418-.4788-1.3446-.9321-1.8156-1.1074-1.151-2.3385-2.1829-3.6435-3.3759,4.9205-1.925,11.9781,2.0618,10.9044,9.4772-.1321.9121.1008,1.388.6748,1.9586,4.897,4.8683,9.8148,9.7171,14.6233,14.6719,1.0487,1.0806,1.6842,2.5621,2.51,3.859v.2859c-.3559,1.8781-1.4749,3.1566-3.1447,4.0023h-2.287ZM29.6816,31.1616c4.7983,4.7844,9.5293,9.517,14.2988,14.2105.2317.228.8019.1122,1.2144.1565-.1118-.4115-.0936-.9518-.3547-1.2155-4.6133-4.6594-9.2599-9.2858-13.9057-13.913-.0873-.087-.2515-.0968-.4281-.1599-.2438.2724-.4841.541-.8246.9215Z"/>
      <path class="cls-1" d="M32.7338,40.7919c-.679.3093-1.1325.645-1.6244.7163-1.6233.2352-2.2891,1.297-2.599,2.7432-.0694.3237-.201.6342-.3051.9504-1.3144,3.9928-1.3169,4.0132-5.5588,3.5032-.3771-.0453-.8573-.5216-1.0113-.9085-.6148-1.5446-1.065-3.1555-1.6969-4.6922-.1997-.4856-.7628-.8314-1.1886-1.2084-.1294-.1145-.3889-.0744-.5335-.1804-2.3551-1.7277-4.4356-.7696-6.6271.484-2.5121,1.437-2.4932,1.249-4.6571-.7115-1.2749-1.1551-1.619-2.1818-.5574-3.5801.169-.2226.2507-.5109.3758-.7673,1.8288-3.7473,1.8441-3.7547.0432-7.4154-.1752-.3562-.6485-.6519-1.0483-.7964-1.5642-.5652-3.1791-.9973-4.7191-1.6179-.4253-.1714-.9103-.8093-.9373-1.259-.2444-4.0685-.2494-4.1798,3.623-5.3459,1.9685-.5928,3.1619-1.4882,3.8986-3.5279.557-1.5421.6688-2.6701-.1933-4.0437-.805-1.2826-1.3963-2.6992-2.0739-4.0416,1.1945-1.2174,2.3564-2.4015,3.57-3.6383,1.8102.8743,3.5827,1.7851,5.4077,2.5748.4757.2059,1.1149.0395,1.6787.0308.087-.0013.1691-.0968.2597-.1119,3.1355-.5223,4.0759-2.8503,4.766-5.5408C21.6506-.0306,21.7699,0,24.2119,0q2.6766,0,3.5568,2.5648c.0463.135.0804.2741.1262.4093,1.3238,3.9059,1.3186,3.9218,5.1362,5.1875.3864.1281.9351.0232,1.3234-.157,1.4664-.6806,2.9193-1.3977,4.3334-2.1803.777-.43,1.2863-.4126,1.9572.2691,2.7625,2.807,3.0599,2.9505.914,6.3712-1.6895,2.6931-.2217,4.6399.5792,6.8489.0952.2626.5843.4321.9238.5481,1.5298.5225,3.0584,1.0572,4.6143,1.4909.8153.2273,1.1292.572,1.1344,1.4677.0237,4.0211.089,4.1284-3.7395,5.2918-1.9679.598-3.4376,1.4036-3.8117,3.5791-.0692.4022-.3608.7662-.6147,1.2791-1.5009-1.4635-2.9675-2.8428-4.3526-4.2995-.2046-.2151-.0985-.8136-.0101-1.2063,1.5918-7.0726-2.5544-13.6469-9.5382-15.0958-6.6897-1.3879-13.294,3.3126-14.4946,10.3161-1.1748,6.8531,4.4637,13.7657,11.4118,13.935,1.1778.0287,2.36-.2156,3.5425-.2466.4694-.0123,1.0785.0661,1.3947.3546,1.3685,1.2481,2.6522,2.5891,4.1356,4.0643Z"/>
    </g>
  </g>
</svg>