<?xml version="1.0" encoding="UTF-8"?>
<svg id="Capa_2" xmlns="http://www.w3.org/2000/svg" viewBox="0 0 49.3433 49.379">
  <defs>
    <style>
      .cls-1 {
        fill: #fff;
      }
    </style>
  </defs>
  <g id="Capa_1-2" data-name="Capa_1">
    <g>
      <path class="cls-1" d="M0,23.1683c.0956-.7966.1678-1.5968.2908-2.3892.6423-4.1389,2.273-7.8495,4.8831-11.1241.6137-.7699,1.2723-1.504,1.9221-2.2685-.6467-.6443-1.2903-1.2855-2.0056-1.9981,3.4579-.6954,6.8133-1.3701,10.2296-2.0571-.6923,3.4201-1.3697,6.7665-2.0517,10.1352-.665-.6702-1.3053-1.3154-1.9454-1.9605-4.2979,4.324-6.7788,10.7156-4.9392,17.8995,1.0639,4.1547,3.3461,7.5614,6.7252,10.1999,3.3709,2.6321,7.222,3.9489,11.5498,3.9949v.4423c0,1.6363-.0009,3.2726.0016,4.9089.0002.1425.0222.285.0341.4276h-1.3719c-.0923-.02-.1838-.0527-.2769-.058-2.1238-.1196-4.1913-.5304-6.2027-1.2163-4.3678-1.4893-8.0489-3.9905-11.0231-7.5223-3.1061-3.6885-4.9789-7.9242-5.6111-12.7057-.08-.6053-.1396-1.2134-.2087-1.8202,0-.9627,0-1.9255,0-2.8882Z"/>
      <path class="cls-1" d="M36.0481,35.8925c.698.7116,1.343,1.3691,2.0124,2.0515,4.92-5.4063,6.6882-11.5627,4.6402-18.6296-1.1545-3.9837-3.4818-7.2098-6.7951-9.6972-3.3127-2.487-7.0623-3.7421-11.2255-3.7884V0c9.2914.4089,16.4083,4.4505,21.2734,12.3836,5.6937,10.7541,4.0493,20.5871-3.6903,29.7201.5993.5832,1.2503,1.2167,1.9013,1.8501-.0154.038-.0309.076-.0463.114-3.3558.6771-6.7116,1.3542-10.1264,2.0432.6878-3.4177,1.3637-6.7764,2.0564-10.2185Z"/>
      <path class="cls-1" d="M24.4386,26.1464c-1.6718-.1139-2.9163-.9124-3.664-2.4163-1.0765-2.1654-.1777-4.7388,2.0161-5.7605.3487-.1624.4398-.3478.4289-.7012-.0242-.7812-.0075-1.5637-.0075-2.3456v-.4037h2.8918c0,.5215,0,1.0359,0,1.5504,0,.4451.015.8909-.0056,1.3351-.0123.2656.0764.3914.3248.5094,1.5517.7371,2.4098,1.9682,2.5469,3.6893.0046.058.0006.1166.0006.1927-.0992.0141-.1787.035-.2584.0353-.7699.0026-1.5399-.0013-2.3098.0039-.1868.0013-.2987-.019-.3425-.2528-.146-.7789-.8227-1.2764-1.5581-1.1822-.7584.0971-1.308.716-1.2856,1.4477.0243.7968.5723,1.3933,1.3877,1.4207,1.2503.042,2.3275.4579,3.1932,1.3664,2.0749,2.1777,1.3619,5.6613-1.42,6.9243-.2135.0969-.2805.2039-.2776.4261.011.842.0044,1.6842.0044,2.5263,0,.1299,0,.2598,0,.4079h-2.8918c0-.1299,0-.2575,0-.3851,0-.8541-.0044-1.7083.0031-2.5624.0018-.2027-.0542-.3038-.2577-.399-1.5613-.7307-2.4702-1.9385-2.6157-3.6813-.0067-.0807-.0009-.1625-.0009-.2815.9148,0,1.8024-.0062,2.6895.0115.0726.0015.1832.1565.2062.2563.1482.6425.5795,1.0605,1.2251,1.158.5665.0856,1.1797-.221,1.4567-.7283.287-.5256.2181-1.1909-.1801-1.6512-.3425-.3958-.804-.4763-1.2998-.51"/>
    </g>
  </g>
</svg>