<?xml version="1.0" encoding="UTF-8"?>
<svg id="Capa_2" xmlns="http://www.w3.org/2000/svg" viewBox="0 0 55.1229 55.1167">
  <defs>
    <style>
      .cls-1 {
        fill: #fff;
      }
    </style>
  </defs>
  <g id="Capa_1-2" data-name="Capa_1">
    <g>
      <path class="cls-1" d="M15.8788,36.7726c-.4539-.4271-.8846-.8323-1.308-1.2307-.6836.4391-1.3866.8905-2.1752,1.397v-1.8372c.8784-.2504,1.7488-.6048,2.6516-.7346,2.1114-.3037,3.8389.4791,5.1899,2.1102,4.9029,5.9193,2.5081,15.0751-4.6644,17.8394-6.8385,2.6355-14.2001-1.4918-15.3988-8.6956-.6246-3.7538.4422-7.071,3.0693-9.8161,1.0773-1.1257,2.4177-1.7952,4.0965-1.6115,1.0121.1107,2.0462.0204,3.0997.0204v2.718c-.7656-.4866-1.4611-.9287-2.196-1.3958-.3816.389-.8045.8201-1.2274,1.2513,2.7821,2.8921,5.8529,2.9259,8.8629-.0148ZM1.9342,43.7571c-.0344,5.6321,4.9179,9.6987,9.4465,9.4125v-1.8165c-2.1043-.0701-3.8934-.8139-5.3576-2.2728-1.4647-1.4594-2.1498-3.2722-2.2276-5.3232h-1.8613Z"/>
      <path class="cls-1" d="M12.4205,30.4367h38.8863v5.6893h-.6333c-9.2495,0-18.499-.0028-27.7485.0091-.4147.0005-.6818-.1042-.9377-.4469-2.2938-3.0721-5.4152-4.007-9.0269-2.7308-.1658.0586-.3342.1096-.5399.1767v-2.6973ZM47.5803,32.3513v1.8347h1.8242v-1.8347h-1.8242Z"/>
      <path class="cls-1" d="M24.2772,24.7008h-10.5048c.7097-.6759,1.5046-.8702,2.3711-.9532v-1.8792c-1.7648.0362-3.1782.7479-4.4169,2.0996-.211-1.0026-.4267-1.9123-.5902-2.8313-.2417-1.3594-.6107-2.7224-.6355-4.0891-.0709-3.9137,3.1053-7.2737,6.9578-7.5268,4.0658-.2671,7.6137,2.5729,8.0945,6.5689.1158.9624.0421,1.9765-.1196,2.9373-.3175,1.8877-.758,3.7547-1.1566,5.6737ZM20.967,13.3374v1.8279h1.8322v-1.8279h-1.8322ZM20.9683,17.1389v1.8279h1.8295v-1.8279h-1.8295ZM20.9745,20.9358v1.8486h1.8172v-1.8486h-1.8172Z"/>
      <path class="cls-1" d="M51.3431,45.6547c0,1.0511.0379,2.0406-.009,3.0259-.0681,1.4309-1.2925,2.6461-2.7115,2.6485-8.6886.0143-17.3771.0057-26.0657.0036-.037,0-.074-.0174-.1842-.0451,1.1229-1.7346,1.9119-3.5881,2.2211-5.6329h26.7493ZM47.5911,47.5585v1.8488h1.8235v-1.8488h-1.8235Z"/>
      <path class="cls-1" d="M24.7262,43.6901c-.0443-1.9596-.4277-3.823-1.2644-5.6338h27.8398v5.6338h-26.5754ZM49.4376,39.9654h-1.8488v1.8176h1.8488v-1.8176Z"/>
      <path class="cls-1" d="M36.1385,18.6631c0-1.4625,0-2.9247,0-4.387,0-1.2469-.002-2.4939.0004-3.7408.0053-2.7131,2.0324-4.7796,4.7382-4.8307.2945-.0056.5892-.0007.9246-.0007v1.9011c-.3538,0-.7041-.0109-1.0535.0019-1.3725.0503-2.6648,1.1968-2.6887,2.5393-.0504,2.8277-.0153,5.657-.0153,8.5541.502-.1508.955-.3228,1.4234-.4213,1.9665-.4134,3.6849.0864,5.1231,1.4869,1.2554,1.2225,2.2865,3.1276,2.6901,4.9108h-20.4542c.8594-2.5427,1.919-4.881,4.4909-6.0804,1.3692-.6386,2.7975-.6264,4.2113-.0702.1285.0505.2592.0968.3918.1345.0541.0154.1162.0025.2178.0025ZM31.817,21.7665c3.5606,1.3947,7.0165,1.3949,10.5381-.0099-.3654-.6085-.6783-1.1294-.9787-1.6296-2.8907,1.0397-5.7266,1.0383-8.5834.0017-.3091.5188-.6116,1.0264-.976,1.6378Z"/>
      <path class="cls-1" d="M55.1229,26.6547v1.8374H12.441v-1.8374h42.6819Z"/>
      <path class="cls-1" d="M47.2677,12.3734c-.4652,2.1439-2.1427,3.6158-4.3126,3.7623-.9814.0662-1.971.0112-3.0164.0112.0301-.1699.0403-.3173.083-.4547.5794-1.8682,2.1836-3.1658,4.195-3.3066,1.0007-.07,2.0104-.0122,3.0511-.0122Z"/>
      <path class="cls-1" d="M10.3727,32.3884c-1.335-.0726-2.6363.0044-3.8717-.2451-1.8824-.3801-3.0215-1.6673-3.5465-3.6133,2.0166.0485,4.0385-.3688,5.7515,1.0619.8489.709,1.4021,1.5819,1.6668,2.7965Z"/>
      <path class="cls-1" d="M23.2254,9.0758q-.8239-.393-.5506-1.1418c.5457-1.5027,1.0799-3.0098,1.6386-4.5077.3373-.9043,1.2178-1.106,1.9492-.4714.3979.3452.5103.8658.1964,1.3398-1.0575,1.5971-2.144,3.1749-3.2336,4.7811Z"/>
      <path class="cls-1" d="M13.7404,8.6478c-.2757.1594-.5077.2935-.7935.4587-.5949-.8756-1.1697-1.7211-1.7439-2.567-.5108-.7526-1.0442-1.4911-1.5235-2.2632-.3552-.5722-.1412-1.1565.4752-1.4896.6559-.3545,1.3197-.2329,1.5629.3916.7007,1.7991,1.3437,3.6206,2.0227,5.4696Z"/>
      <path class="cls-1" d="M18.3562,7.5425c-.4963.1685-.5881-.054-.6219-.4102-.1902-2.0053-.3975-4.0089-.591-6.0139-.0675-.6995.2654-1.1018.8962-1.1179.6506-.0166,1.0346.4016.9673,1.1231-.1596,1.7106-.3444,3.4188-.5189,5.1279-.044.4309-.0879.8618-.1316,1.291Z"/>
      <path class="cls-1" d="M8.4983,26.6472h1.9678v1.8528c-.6212-.4109-1.2033-.7625-1.7398-1.1735-.1412-.1082-.1411-.4006-.228-.6793Z"/>
    </g>
  </g>
</svg>