<?xml version="1.0" encoding="UTF-8"?>
<svg id="Capa_2" xmlns="http://www.w3.org/2000/svg" viewBox="0 0 49.1165 49.0043">
  <defs>
    <style>
      .cls-1 {
        fill: #fff;
      }
    </style>
  </defs>
  <g id="Capa_1-2" data-name="Capa_1">
    <g>
      <path class="cls-1" d="M28.8209,0c1.4831,1.0309,2.2277,2.5758,2.8755,4.177.7227,1.7863,1.188,3.648,1.5617,5.6004-.516-.0361-1.0013-.0912-1.4875-.1003-2.0288-.0383-4.0578-.0707-6.0869-.0832-.2863-.0018-.4388-.0522-.5613-.3329-.2871-.6577-.7922-1.1327-1.3859-1.5288-.1138-.0759-.227-.3036-.1957-.4234.4713-1.8021,1.0534-3.5644,1.9846-5.1921.4817-.8419,1.0803-1.5771,1.8981-2.1167h1.3974Z"/>
      <path class="cls-1" d="M6.0895,37.6423c1.062,3.1884,3.2,5.4017,5.6344,7.3828.4054.3299.8046.339,1.194.0235,2.0771-1.6831,3.9416-3.5518,5.1107-6.0076.146-.3067.2954-.6224.3686-.9505.0842-.377.2899-.4069.6025-.348,1.5434.2905,2.965.8863,4.0838,1.9857,1.0082.9907,1.378,2.3143,1.5423,3.7054.1949,1.6492-.4954,2.7743-1.9167,3.5389-1.4955.8045-3.1143,1.2077-4.7652,1.5098-4.3967.8047-8.771.6911-13.1001-.4242-.9815-.2529-1.9395-.6479-2.8576-1.0842-1.4962-.711-2.1906-1.9248-1.9337-3.599.0912-.5943.2138-1.1911.3971-1.7628.6128-1.9114,2.118-2.8686,3.8852-3.504.5614-.2019,1.1566-.31,1.7548-.4658Z"/>
      <path class="cls-1" d="M12.2244,33.2114c-.0621,0-.126-.0096-.186.0015-.821.1518-1.3179-.2508-1.7672-.8988-.402-.5798-.9205-1.0851-1.4245-1.5861-.4837-.4809-.8784-1.0221-.8017-1.7085.1545-1.383-.1913-2.7129-.2975-4.0676-.0795-1.014-.0532-2.0463.0368-3.0607.0774-.8719.6327-1.5182,1.389-1.927,2.005-1.0838,4.0383-1.0775,6.0511-.0201,1.2434.6532,1.6165,1.8057,1.5502,3.1018-.0679,1.3271-.2592,2.6475-.3658,3.9732-.0419.5214-.0323,1.0519.0097,1.5738.0669.8318-.1865,1.513-.7833,2.0978-.4859.4761-.9962.9497-1.3759,1.5062-.5098.7473-1.0697,1.2477-2.0348,1.0144Z"/>
      <path class="cls-1" d="M33.6219,11.5854c.1456,1.4761.2963,2.9379.421,4.4019.0092.1085-.1427.286-.2617.3415-1.1187.5218-1.8045,1.3763-2.0728,2.5805-.027.1211-.1452.2839-.2538.3156-3.0909.9036-6.1859,1.793-9.2808,2.683-.0398.0115-.0859.0014-.2453.0014.1068-2.5509.2129-5.0834.3164-7.5569.5411-.196.9969-.3093,1.4029-.5189.8681-.448,1.4358-1.1754,1.6937-2.1147.0759-.2766.1705-.363.4564-.3806,2.3428-.1439,4.6784-.0379,7.0124.1627.2307.0198.4607.0477.8114.0844Z"/>
      <path class="cls-1" d="M35.3793,11.6919c1.7268.3861,3.3461.7258,4.9529,1.117.7656.1864,1.5129.4551,2.2556.7226.1666.06.3591.2491.4042.4155.9077,3.3458,1.1455,6.7431.7199,10.1839-.0154.1248-.1272.2987-.2367.3419-2.4294.9599-4.9314,1.6519-7.5252,1.9939-.0293.0039-.0606-.007-.1422-.0177.0484-.9347.1246-1.8735.1346-2.8131.0053-.4926.1571-.7287.6427-.9239,1.3336-.5361,2.1307-1.9015,2.0623-3.3428-.0679-1.43-1.0101-2.7047-2.3776-3.1313-.3665-.1143-.457-.2783-.4835-.6375-.0754-1.0197-.2057-2.0354-.3145-3.0526-.0243-.2274-.049-.4547-.0923-.8561Z"/>
      <path class="cls-1" d="M31.8775,41.3241c.5447-1.083,1.0998-2.1867,1.6709-3.3221.3472-.0432.7708-.0432,1.1631-.154,1.4329-.4047,2.313-1.3624,2.5701-2.8245.2544-1.4465-.4049-2.8346-1.6686-3.56-.3373-.1936-.3967-.3863-.3349-.735.1217-.6866.2067-1.38.2905-2.0727.03-.2477.108-.381.3841-.4171,2.4061-.3153,4.7469-.9068,7.0404-1.6932.097-.0333.1984-.0535.3068-.0821-.476,6.0465-6.9404,14.4121-11.4224,14.8607Z"/>
      <path class="cls-1" d="M22.0447,23.7863c2.7547-.797,5.4482-1.5765,8.1421-2.3553.4615-.1334.9298-.2464,1.3837-.4017.2489-.0852.3772-.0623.5117.1891.4109.7676,1.0463,1.2892,1.8573,1.6115.1203.0478.2754.2239.2713.3353-.0437,1.1753-.1166,2.3495-.1832,3.5577-3.9528.4426-7.8586.4459-11.8026.0043-.0607-.9909-.1193-1.9464-.1802-2.9408Z"/>
      <path class="cls-1" d="M42.2142,11.5035c-.978-.258-1.8947-.535-2.8277-.7372-1.2245-.2654-2.4579-.4966-3.6956-.6905-.4453-.0698-.6421-.2085-.7294-.6792-.4843-2.6104-1.1693-5.163-2.3986-7.5379-.2333-.4507-.5-.8841-.7563-1.3342,4.0661,1.078,8.3644,5.3034,10.4077,10.979Z"/>
      <path class="cls-1" d="M14.0098,11.465C16.0664,6.4278,19.1017,2.4063,24.427.4443c-.4904.9877-1.0045,1.873-1.3783,2.8141-.4673,1.1767-.8295,2.3959-1.2132,3.6043-.0871.2744-.1731.4288-.4939.4938-1.4808.3001-2.3904,1.2182-2.7759,2.6742-.0382.1441-.1291.3604-.2352.3875-1.4075.3584-2.822.6889-4.3208,1.0468Z"/>
      <path class="cls-1" d="M39.0133,38.9157c1.5571-1.7561,2.8884-3.6547,3.9325-5.7492,1.1352-2.2772,1.902-4.6727,2.2857-7.1908.0247-.1621.1196-.3698.2483-.451,1.1743-.7407,2.3634-1.458,3.516-2.1625.3105,1.1791-1.3598,6.14-3.1085,8.9156-1.7464,2.7719-4.0373,4.9907-6.874,6.6379Z"/>
      <path class="cls-1" d="M22.4313,28.5235c3.835.3948,7.5793.3897,11.3994.0005-.1198.8473-.2333,1.6501-.3439,2.4331-1.6214.3982-2.1268.7927-2.9865,2.3308-.8608-.3087-1.7309-.6216-2.6016-.9327-1.5759-.5632-3.149-1.1343-4.7307-1.6808-.3273-.1131-.5181-.247-.5388-.6266-.0267-.4896-.1231-.9754-.1978-1.5242Z"/>
      <path class="cls-1" d="M12.3429,43.2421c-1.7306-1.273-3.491-3.4508-4.2149-5.243,2.8134.8627,5.5847.884,8.4504-.0224-1.0442,2.1546-2.4306,3.861-4.2355,5.2655Z"/>
      <path class="cls-1" d="M45.5615,23.4787c.2768-3.0203.0433-5.926-.5873-8.9422.4873.2811.872.4876,1.2412.719.9541.5979,1.8526,1.2752,2.4262,2.2646.6269,1.0813.6366,2.232.009,3.3041-.6997,1.1953-1.8284,1.9407-3.0891,2.6546Z"/>
      <path class="cls-1" d="M38.9654,2.9235c4.4429,2.6769,7.484,6.4839,9.179,11.4542-.8674-.5083-1.6228-1.085-2.4738-1.4148-1.0093-.3911-1.454-1.061-1.7955-2.0484-1.0384-3.0023-2.495-5.2421-4.9097-7.9911Z"/>
      <path class="cls-1" d="M17.2654,2.8882c-.8397,1.0956-1.7071,2.142-2.4793,3.2545-1.227,1.7678-2.1328,3.7041-2.7703,5.7607-.095.3065-.2602.4709-.5492.6182-1.1146.568-2.2069,1.1797-3.3352,1.79,1.6647-4.8962,4.7027-8.6997,9.134-11.4234Z"/>
      <path class="cls-1" d="M18.5022,22.7486c.0408-1.6459-.5425-2.9709-1.8318-3.9715,1.2172-1.6505,2.411-3.2693,3.6048-4.888.0489-.0095.0979-.0191.1468-.0286.0426.163.128.3277.1215.4886-.0956,2.3667-.2035,4.7329-.3083,7.0993-.0007.0155,0,.031,0,.0465q.0014,1.1304-1.1555,1.2171c-.1686.0126-.3375.0215-.5774.0365Z"/>
      <path class="cls-1" d="M15.1784,33.9247c.4029.7483.8052,1.4955,1.2233,2.2722-2.7057.936-5.4111.9278-8.1446.003.3817-.702.762-1.4013,1.143-2.1018,1.8062,1.331,4.2736,1.256,5.7783-.1733Z"/>
      <path class="cls-1" d="M33.8471,32.7145c.967.0097,1.7297.7839,1.7274,1.7534-.0022.9511-.7926,1.7474-1.7403,1.7534-.9602.0061-1.7685-.8179-1.7525-1.7865.0158-.959.8071-1.73,1.7654-1.7203Z"/>
      <path class="cls-1" d="M21.9938,9.0257c.9576.0032,1.7368.7862,1.7376,1.7461.0008.9772-.8027,1.764-1.7845,1.7474-.9603-.0162-1.7182-.8017-1.7085-1.7708.0097-.963.787-1.726,1.7553-1.7227Z"/>
      <path class="cls-1" d="M35.1607,17.7953c.9133-.011,1.7081.7764,1.7376,1.7213.0292.9336-.7889,1.7809-1.7232,1.785-.9115.004-1.7011-.8054-1.7033-1.7459-.0022-.9422.7723-1.7495,1.6889-1.7605Z"/>
      <path class="cls-1" d="M20.5042,27.1775c.0966.8216.2003,1.7038.3114,2.6483-.9247-.3335-1.7973-.6481-2.7141-.9788.8398-.5836,1.6107-1.1192,2.4027-1.6696Z"/>
    </g>
  </g>
</svg>