<?xml version="1.0" encoding="UTF-8"?>
<svg id="Capa_2" xmlns="http://www.w3.org/2000/svg" viewBox="0 0 41.9237 49.379">
  <defs>
    <style>
      .cls-1 {
        fill: #fff;
      }
    </style>
  </defs>
  <g id="Capa_1-2" data-name="Capa_1">
    <g>
      <path class="cls-1" d="M20.4946,0h.9397c.8347.1901,1.4966.6552,2.1127,1.2371,1.8124,1.7119,3.8799,3.0309,6.1993,3.9598,2.3403.9373,4.7895,1.3254,7.2827,1.5199,2.7127.2116,4.813,2.3743,4.8508,5.0958.0445,3.2023.0744,6.4074-.0087,9.6082-.0804,3.0981-.5315,6.1585-1.3495,9.1579-1.2567,4.608-3.5224,8.6295-6.9886,11.9339-3.3004,3.1463-7.2359,5.2272-11.5171,6.6961-.7642.2622-1.5415.2066-2.3037-.0629-2.4225-.8564-4.7486-1.9158-6.9386-3.2669-4.6266-2.8544-8.0578-6.7374-10.1704-11.7664C.9397,30.1525.2162,25.9885.0682,21.7337c-.1175-3.3795-.0569-6.7668-.0122-10.1498.0303-2.289,1.9696-4.4408,4.2358-4.7852,1.1887-.1806,2.3935-.2563,3.5816-.4402,3.6396-.5632,6.8751-2.0307,9.7023-4.3995.9015-.7554,1.6553-1.7398,2.9189-1.959ZM33.272,24.7685c-.0635-6.9949-5.5422-12.3811-12.2983-12.3835-6.8992-.0025-12.1336,5.4933-12.3129,11.8719-.2004,7.132,5.4197,12.7084,12.2941,12.7365,6.7154.0274,12.2957-5.5285,12.3171-12.2249Z"/>
      <path class="cls-1" d="M30.3729,24.7394c-.048,4.9751-3.9978,9.3192-9.3813,9.3534-5.2769.0335-9.4919-4.2361-9.4404-9.5734.0466-4.8318,4.0334-9.1927,9.3853-9.2295,5.1613-.0355,9.3709,4.1682,9.4364,9.4496ZM18.7932,26.6059c-.5384-.5437-1.0205-1.0477-1.5216-1.5319-.6153-.5946-1.5131-.6062-2.079-.0461-.5833.5774-.5679,1.4679.0487,2.0953.7933.8072,1.5919,1.6093,2.3939,2.4078.7475.7442,1.5537.74,2.3055-.0108,2.1556-2.1524,4.3092-4.3067,6.461-6.4628.1351-.1354.2711-.279.3678-.4418.3705-.6235.2039-1.4129-.3803-1.8775-.5409-.4301-1.3295-.4004-1.8459.1034-.879.8575-1.7429,1.7306-2.6096,2.6006-1.0361,1.04-2.0686,2.0835-3.1407,3.1639Z"/>
    </g>
  </g>
</svg>