<?xml version="1.0" encoding="UTF-8"?>
<svg id="Capa_2" xmlns="http://www.w3.org/2000/svg" viewBox="0 0 51.4634 44.1633">
  <defs>
    <style>
      .cls-1 {
        fill: #fff;
      }
    </style>
  </defs>
  <g id="Capa_1-2" data-name="Capa_1">
    <g>
      <path class="cls-1" d="M43.1492,44.1633H8.3133v-20.1642h34.836v20.1642ZM25.7637,25.7998c-3.4803,0-6.9605-.002-10.4408.0013-.9865.0009-1.5022.3972-1.7276,1.3479-.2652,1.1183-.9759,1.7512-2.0758,1.9937-1.0003.2205-1.3989.7118-1.4,1.7302-.0023,2.1169-.0004,4.2337.0024,6.3506.0015,1.0722.3706,1.5432,1.4069,1.7755,1.1256.2524,1.8228.9167,2.0862,2.0534.2073.8942.7225,1.2938,1.6554,1.2946,6.9785.0063,13.9569.0074,20.9354.0037.9244-.0005,1.4409-.4043,1.6521-1.3018.2672-1.136.9674-1.7969,2.0946-2.0438,1.0046-.22,1.3967-.7094,1.3981-1.7298.0029-2.081.0015-4.162.0008-6.2429-.0004-1.2191-.3278-1.6188-1.5146-1.9034-1.0086-.2419-1.6753-.8546-1.9392-1.8729-.2899-1.1187-.7126-1.4553-1.8545-1.4557-3.4264-.0012-6.8529-.0004-10.2793-.0004Z"/>
      <path class="cls-1" d="M.9436,17.6346c2.6777,2.3452,5.7859,2.7196,9.0224,2.6399.1429-.0035.2861-.0248.4278-.0462.5926-.0896.9534-.4933.8985-1.001-.0564-.5214-.4856-.814-1.076-.8272-1.216-.0271-2.4384-.0284-3.6445-.1628-1.3102-.1459-2.5476-.5818-3.6396-1.3598-1.5141-1.0788-2.282-2.9094-1.9209-4.4143.9285.7037,1.8384,1.5214,2.8697,2.1349.8323.4951,1.7995.779,2.7295,1.0885.5247.1746,1.0043-.1512,1.1268-.6365.1239-.4911-.1383-.9636-.6815-1.1097C2.8355,12.8052.9034,9.7751.2303,5.7084-.0615,3.9456-.048,2.1708.1156.3958c.009-.098.057-.1924.1202-.3958.2001.268.3499.4588.4894.657,3.4063,4.8411,7.6034,8.8131,12.8219,11.6605,2.0833,1.1367,4.2656,2.0335,6.5462,2.6949,1.884.5464,2.8608,1.841,2.8761,3.7891.0086,1.0901.0015,2.1803.0015,3.3292h-.6826c-4.5756,0-9.1511.0044-13.7267-.005-.6417-.0013-1.1985.1419-1.6588.6154-.093.0957-.2853.1655-.415.1443-1.5857-.2588-3.0627-.7769-4.2188-1.9537-.8602-.8757-1.3206-1.93-1.3255-3.2969Z"/>
      <path class="cls-1" d="M50.5285,17.6582c-.035,1.7421-.7817,2.9848-2.0791,3.9178-1.01.7263-2.17,1.095-3.3831,1.2989-.1608.027-.3963-.0359-.5103-.1467-.4562-.4427-.9864-.6039-1.6113-.6026-4.5756.0092-9.1513.0049-13.7269.0049-.2126,0-.4252,0-.7891,0,.0757-1.5514.0038-3.0863.2656-4.5621.242-1.3641,1.303-2.1695,2.6468-2.5525,3.4243-.9762,6.5969-2.4907,9.5364-4.4962,3.8683-2.6392,7.0871-5.9314,9.7871-9.7446.1624-.2293.3302-.4547.5258-.7236.0761.1059.1412.1549.1462.2093.2643,2.9046.1899,5.7766-.9529,8.5193-1.0891,2.6138-2.9969,4.3278-5.7394,5.0843-.4359.1202-.8214.2852-.9187.7864-.1317.6786.4384,1.203,1.1633,1.039,1.8655-.4219,3.4651-1.3375,4.839-2.6602.2317-.223.475-.434.7386-.6738.1367.8004.0738,1.5984-.2317,2.371-.4934,1.2477-1.404,2.1089-2.5937,2.6788-1.9808.9488-4.0929,1.1182-6.2491,1.0199-.2576-.0117-.6104-.0145-.7586.1362-.2235.2275-.4187.5932-.4205.9014-.0025.4224.3271.7201.7776.75,3.3507.2223,6.5657-.0971,9.2757-2.379.0507-.0427.1104-.0747.2624-.1761Z"/>
      <path class="cls-1" d="M6.4255,24.7445v2.67c-2.8488.0251-5.618-2.5614-5.4375-5.162,1.5651,1.3992,3.3516,2.2246,5.4375,2.4919Z"/>
      <path class="cls-1" d="M45.0441,27.4608v-2.704c2.0354-.2691,3.8399-1.0595,5.3713-2.452.6396,2.102-2.0619,4.703-5.3713,5.1561Z"/>
      <path class="cls-1" d="M39.5197,30.9662c0,2.0039.0003,3.9765-.001,5.9491,0,.0876-.0141.1751-.1126.1451-.717.454-1.5113.8239-2.1263,1.3889-.4779.439-.7705,1.1025-1.0687,1.7041-.1351.2726-.2485.3715-.5421.3712-6.6199-.0079-13.2398-.0081-19.8598-.0063-.2476,0-.4267-.0127-.5236-.316-.4921-1.5392-1.5591-2.4905-3.0966-2.9376-.0682-.0198-.1323-.0536-.2174-.0889v-6.1833c.3981-.1615.8101-.2912,1.1864-.4886,1.0104-.5301,1.7245-1.3393,2.0847-2.4256.1062-.3203.2289-.4521.5873-.4515,6.602.0115,13.204.0066,19.8059.0184.1731.0003.4619.1112.5015.2336.5339,1.6524,1.6947,2.6099,3.3822,3.0872ZM30.3324,34.0823c.0054-2.5111-2.0726-4.6034-4.5761-4.6077-2.538-.0044-4.62,2.0772-4.6206,4.6195-.0006,2.5006,2.1037,4.5915,4.605,4.5757,2.5339-.016,4.5863-2.0665,4.5917-4.5874ZM19.3245,34.0637c0-1.5317-1.2228-2.7603-2.7592-2.7722-1.5164-.0117-2.7794,1.2459-2.7728,2.761.0067,1.5372,1.2347,2.7672,2.7627,2.7674,1.5386.0001,2.7693-1.2247,2.7693-2.7562ZM32.1803,34.0352c.0085,1.5622,1.202,2.7765,2.7369,2.7847,1.5638.0083,2.7914-1.2259,2.7787-2.7936-.0124-1.5256-1.2462-2.7348-2.7931-2.7373-1.4896-.0024-2.7306,1.2494-2.7225,2.7462Z"/>
      <path class="cls-1" d="M25.7369,36.8273c-1.5037.0016-2.7416-1.218-2.7645-2.7239-.0229-1.5029,1.2475-2.7892,2.7592-2.7935,1.5118-.0044,2.7778,1.2739,2.7605,2.7872-.0172,1.5102-1.2467,2.7286-2.7552,2.7302Z"/>
      <path class="cls-1" d="M16.5241,34.9793c-.5027-.0107-.911-.44-.8972-.9432.0137-.4996.4503-.9224.9399-.9103.4981.0124.895.4398.8849.9531-.0103.5228-.4106.9114-.9276.9004Z"/>
      <path class="cls-1" d="M34.9347,33.1216c.4891.0093.9131.4524.9069.9478-.0064.5099-.422.9155-.9312.9087-.5139-.0069-.9026-.4125-.8962-.935.0063-.5108.4259-.9309.9204-.9215Z"/>
    </g>
  </g>
</svg>