<?xml version="1.0" encoding="UTF-8"?>
<svg id="Capa_2" xmlns="http://www.w3.org/2000/svg" viewBox="0 0 49.3651 49.379">
  <defs>
    <style>
      .cls-1 {
        fill: #fff;
      }
    </style>
  </defs>
  <g id="Capa_1-2" data-name="Capa_1">
    <g>
      <path class="cls-1" d="M19.8947,18.8512c0-.3686-.0012-.7373.0003-1.1059.0017-.397.1863-.6784.5911-.6879.4361-.0102.629.2828.6307.7001.0034.8668.0119,1.7339-.0034,2.6004-.0086.4868-.2816.7504-.771.757-.8667.0118-1.7337.0071-2.6005.0014-.4154-.0027-.7055-.1949-.6946-.6353.0103-.4168.3063-.5783.6932-.5846.3692-.006.7386-.0013,1.1059-.0013-2.7994-2.7753-5.5794-5.5314-8.4201-8.3476-.6687.3083-1.495.4315-2.352.051-1.3777-.6117-2.0041-2.1581-1.4119-3.5305.5688-1.3183,2.1434-1.9744,3.4447-1.4353,1.422.589,2.0909,2.1321,1.5247,3.5279-.0882.2174-.2123.3873.0265.6272,2.6977,2.7097,5.3819,5.4328,8.0697,8.1523.0556-.0296.1112-.0593.1668-.0889Z"/>
      <path class="cls-1" d="M30.4615,19.8959c.4485,0,.822-.0078,1.195.0021.3889.0103.6741.1855.6744.603.0003.4111-.2712.6093-.6649.6134-.8839.0092-1.7681.0134-2.6518-.0002-.4831-.0074-.7428-.2781-.75-.7766-.0126-.8668-.0053-1.7339-.0024-2.6009.0013-.3982.1936-.6723.5991-.6799.4067-.0076.6091.2614.6197.6587.0099.3731.0021.7466.0021,1.2017.1465-.1174.2493-.1852.3348-.2703,2.6026-2.5901,5.2001-5.1855,7.8107-7.7675.2344-.2318.2443-.4048.1259-.6971-.6083-1.5017.1552-3.1118,1.6835-3.6024,1.4219-.4565,3.0272.4336,3.393,1.8814.3887,1.538-.5965,3.1035-2.1776,3.3316-.4957.0715-1.028-.1312-1.5462-.1825-.1694-.0168-.4102-.0154-.5115.0853-2.6771,2.6599-5.3402,5.3338-8.0047,8.0063-.0331.0332-.0536.0791-.1292.1937Z"/>
      <path class="cls-1" d="M29.484,30.4215c0,.4806.0046.8371-.0012,1.1933-.0067.4117-.1877.7144-.6258.708-.4072-.006-.5924-.2922-.5945-.6854-.0046-.867-.0117-1.7343.0022-2.6011.0082-.5114.282-.7674.8069-.7731.8329-.0091,1.6661-.0081,2.4991-.0002.4988.0047.795.2417.7639.6198-.0389.4736-.3623.6093-.7866.603-.3379-.005-.6759-.001-1.0929-.001.1249.1516.1974.2556.2855.344,2.5804,2.5888,5.1654,5.1731,7.7392,7.7684.2328.2348.4041.3095.7382.1639,1.1687-.5093,2.525-.0831,3.2343.9693.7228,1.0724.5836,2.4593-.342,3.4067-.8675.8879-2.2463,1.0342-3.3176.3519-1.1014-.7015-1.5632-2-1.0622-3.1935.1738-.4139.0743-.6198-.2107-.9014-2.5271-2.4977-5.0396-5.0102-7.557-7.5178-.1286-.1281-.2631-.2504-.4787-.4549Z"/>
      <path class="cls-1" d="M19.8945,30.4306c-.1832.1678-.2944.2625-.3976.3652-2.5653,2.5545-5.1268,5.1128-7.6991,7.6603-.245.2426-.3244.4217-.1708.7753.5062,1.1647.0669,2.5345-.9825,3.2367-1.0535.7049-2.4121.587-3.3261-.2887-.9342-.8951-1.1248-2.2702-.4656-3.3593.6356-1.0501,2.0339-1.553,3.2018-1.0908.3993.1581.6226.0944.9118-.198,2.5099-2.5377,5.0359-5.0595,7.5566-7.5865.1192-.1195.2333-.244.4397-.4604-.4547,0-.8148.0071-1.1744-.0017-.4863-.012-.7816-.2589-.7454-.64.0424-.447.3504-.5826.7531-.5822.8328.0008,1.6657-.0062,2.4985.0024.5484.0057.813.2644.8207.8132.0116.8327.0093,1.6657.0006,2.4984-.005.4835-.2636.7937-.6351.7537-.437-.0471-.5902-.3447-.5868-.7528.0029-.3499.0006-.6998.0006-1.1449Z"/>
      <path class="cls-1" d="M17.1661,23.9303c-.2783-.2475-.569-.4827-.8316-.746-.2779-.2785-.3304-.6125-.0334-.9011.2957-.2873.6233-.2229.9032.0529.6297.6204,1.256,1.2444,1.8762,1.8743.3015.3062.3016.645.0063.9485-.6283.6457-1.2663,1.2821-1.9131,1.9093-.2842.2755-.6236.3007-.9063.0112-.2734-.28-.2071-.6068.0505-.862.2726-.27.5836-.5013.8778-.7495-.0361-.0455-.0721-.091-.1082-.1364H5.339c-.6968,1.5892-1.8509,2.2996-3.2374,1.9942C.8947,27.0599-.0131,25.9049.0001,24.6521c.013-1.2252.9424-2.3633,2.1247-2.6019,1.4045-.2834,2.5598.4288,3.2107,1.9997h11.7389c.0306-.0399.0611-.0797.0917-.1196Z"/>
      <path class="cls-1" d="M24.0638,44.0569v-11.8688c-.3075.3028-.547.546-.7946.7806-.3767.357-.7761.4088-1.0222.1048-.3-.3706-.1316-.6884.1653-.9801.57-.56,1.1295-1.1307,1.6995-1.6907.4372-.4295.7063-.4372,1.1298-.0238.5961.5819,1.1823,1.174,1.7715,1.7629.2891.289.3921.6273.0895.942-.3068.319-.6545.2233-.9418-.0656-.2511-.2525-.4798-.5271-.8162-.9005-.0223.3008-.0418.4413-.0419.5818-.0017,3.6385.0013,7.277-.0062,10.9155-.0006.2998.0399.4699.3783.5919,1.2151.4384,1.8922,1.7059,1.6561,2.9922-.231,1.2585-1.3598,2.1671-2.7084,2.1799-1.1907.0113-2.3102-.929-2.5654-2.1547-.2601-1.2492.4337-2.5497,1.6186-3.0303.1248-.0506.2541-.09.388-.137Z"/>
      <path class="cls-1" d="M24.0367,5.3294c-1.4882-.565-2.22-1.7039-1.9971-3.095C22.238.9959,23.3685.0272,24.6468.0006c1.2567-.0262,2.3876.8641,2.664,2.0972.3167,1.413-.3698,2.5385-1.9819,3.2395v11.7421l.1223.0975c.2406-.2765.4683-.5657.7253-.826.2886-.2922.6363-.3692.9368-.0407.2751.3008.1959.6277-.0804.9052-.6115.6142-1.2193,1.2323-1.842,1.835-.3577.3463-.6542.3395-1.0202-.0159-.6095-.592-1.2056-1.1977-1.8067-1.7982-.291-.2908-.3878-.6262-.0828-.9419.3118-.3228.6545-.2166.9385.0718.2493.2532.4748.5298.7108.7961l.1062-.0655V5.3294Z"/>
      <path class="cls-1" d="M32.157,24.0638h11.8871c.3613-1.1185,1.0775-1.8645,2.2541-2.0369,1.4275-.2091,2.7202.7371,3.011,2.141.2779,1.3413-.5056,2.669-1.8154,3.0764-1.3774.4285-2.7677-.2545-3.3309-1.6111-.0588-.1417-.2647-.3168-.4031-.3174-3.7917-.016-7.5836-.0114-11.3754-.0086-.0287,0-.0574.0226-.2007.0828.2997.2771.575.5149.8305.7723.2828.2851.4026.6256.0731.937-.3158.2983-.6548.2071-.9463-.0833-.6023-.6-1.21-1.1948-1.8017-1.8051-.3678-.3794-.3605-.6734.0156-1.0587.582-.5961,1.1722-1.1843,1.7676-1.7671.3476-.3402.7377-.3775.9827-.0913.2903.3392.1861.6579-.1034.9439-.2501.247-.5026.4916-.8448.826Z"/>
    </g>
  </g>
</svg>