<?xml version="1.0" encoding="UTF-8"?>
<svg id="Capa_2" xmlns="http://www.w3.org/2000/svg" viewBox="0 0 42.9263 42.9361">
  <defs>
    <style>
      .cls-1 {
        fill: #fff;
      }
    </style>
  </defs>
  <g id="Capa_1-2" data-name="Capa_1">
    <g>
      <path class="cls-1" d="M0,42.0076c.2915-.6127.8677-.4922,1.4154-.5113v-8.5516h11.4483v8.5268h2.8777v-8.5392h11.4343v8.5427h2.8604v-8.5314h11.4511v8.5615c.2493,0,.4667-.0088.6831.0018.4532.0223.7654.3293.7559.7308-.009.3821-.3155.664-.7539.6908-.0835.0051-.1676.0013-.2515.0013-13.637,0-27.274-.0014-40.911.0062-.4445.0002-.7942-.0986-1.0098-.5092v-.4192ZM11.4193,41.4845v-6.54c-.0547.0297-.086.0367-.1007.0562-.6228.8237-1.197,1.6901-1.8788,2.4615-.6821.7718-.9953,1.5984-.8691,2.6216.0568.4605.0096.9338.0096,1.4007h2.839ZM31.5116,34.8605v6.6261h2.8319c0-.9345.0016-1.852-.0034-2.7694-.0003-.0639-.0377-.1364-.0778-.19-.8927-1.1935-1.7882-2.385-2.7507-3.6667ZM5.7146,41.4857c0-.9371.0069-1.8414-.0082-2.7454-.002-.1226-.098-.2556-.1782-.3632-.7997-1.0733-1.6049-2.1425-2.4101-3.2117-.0606-.0805-.1337-.1517-.2366-.2671v6.5874h2.8331ZM40.0514,34.8409c-.9607,1.2806-1.8478,2.4607-2.7301,3.6444-.0549.0736-.1014.175-.1021.2639-.0074.9032-.0045,1.8065-.0045,2.7322h2.8368v-6.6406ZM17.2104,34.8696v6.5998h2.8258c0-.9007.0029-1.7664-.0038-2.632-.0008-.1045-.0256-.2291-.0856-.31-.8885-1.1974-1.7849-2.3889-2.7364-3.6579ZM25.7315,34.8562c-.7508.9998-1.3984,1.9429-2.1325,2.813-.5464.6476-.804,1.3213-.7163,2.1661.0567.5461.0107,1.1029.0107,1.647h2.8382v-6.6261Z"/>
      <path class="cls-1" d="M41.0014,0c.323.2235.6055.4759.4539.9228-.1468.4328-.5019.5082-.9096.5055-1.1877-.0081-2.3756-.0029-3.5633-.0029-.1506,0-.3012,0-.4983,0,0,.2858,0,.5333,0,.7808,0,1.2297.0075,2.4595-.0059,3.6891-.0029.2642.0732.428.2909.5885,1.4276,1.0526,2.8428,2.1218,4.2617,3.1861.1103.0827.2173.1698.3965.3102h-11.2698c.1009-.0919.1701-.1661.25-.2261,1.4521-1.0898,2.9086-2.1739,4.3535-3.2732.1346-.1024.2786-.298.2807-.4522.0208-1.467.0121-2.9344.0106-4.4016,0-.053-.013-.1059-.0226-.1791h-12.8189c-.0094.1365-.0263.2696-.0265.4028-.002,1.3415.0089,2.6831-.0089,4.0244-.004.3046.1095.4833.3412.6547,1.381,1.0217,2.7537,2.0545,4.1288,3.084.1409.1055.2799.2135.4918.3754h-11.3524c1.1159-.8367,2.1527-1.6143,3.1897-2.3915.5141-.3853,1.0357-.761,1.5375-1.1617.1131-.0903.2224-.2659.2238-.4033.0144-1.4811.0071-2.9623.0041-4.4435,0-.0392-.0188-.0784-.0345-.14H7.9012c-.0085.1163-.0247.2361-.0248.3558-.0018,1.3694.007,2.739-.0081,4.1083-.003.2705.0884.4287.3001.5853,1.4484,1.0714,2.8873,2.1557,4.3287,3.2365.0868.0651.1697.1356.3175.2542H1.483c.5144-.3885.9536-.7219,1.3946-1.0528,1.1059-.8299,2.215-1.6557,3.3156-2.4925.1089-.0828.2397-.2292.241-.3473.0162-1.5353.0107-3.0709.0107-4.6713-.1705,0-.3173,0-.464,0-1.2018,0-2.4036-.0053-3.6053.0029-.4087.0028-.761-.0757-.9062-.5096-.1505-.4493.1331-.6986.4591-.9187h39.073Z"/>
      <path class="cls-1" d="M1.4461,25.0567v-1.4535c.1853,0,.3502,0,.5151,0,1.9283,0,3.8566.0022,5.7849-.0017.5256-.0011.8126-.2492.8237-.6857.0093-.3672-.2078-.6456-.5738-.7087-.1637-.0282-.3337-.0276-.5008-.0278-1.8444-.0018-3.6889-.0011-5.5333-.0011h-.5154v-1.4258c.1676,0,.3308,0,.494,0,1.8444,0,3.6889.0002,5.5333-.0004.1396,0,.2804.0047.4187-.0104.4452-.0488.6971-.3316.6767-.7479-.019-.3878-.2888-.6568-.7181-.6612-1.1038-.0115-2.2077-.0048-3.3116-.005-1.0182-.0002-2.0364,0-3.0841,0v-1.4538c.1412,0,.2888,0,.4364,0,1.9702,0,3.9404.0028,5.9106-.002.5529-.0013.8902-.408.744-.8989-.1238-.4157-.4554-.5261-.8523-.5256-1.9003.0024-3.8007.0011-5.701.001-.1673,0-.3346,0-.5347,0v-1.4254c.1495,0,.2983,0,.447,0,1.9423,0,3.8845.0024,5.8268-.0019.5209-.0012.7965-.2203.8337-.6321.0433-.4798-.2597-.788-.8015-.7896-1.6488-.0047-3.2976-.0018-4.9465-.0018-.4455,0-.8909,0-1.3642,0v-2.1266h11.3817v2.127c-.6954,0-1.3888-.0089-2.0818.0032-.4358.0076-.7266.3029-.7303.7024-.0036.3946.287.6871.7189.715.1531.0099.3073.0042.461.0043.5302.0004,1.0603.0001,1.6292.0001v1.4254c-.5693,0-1.1375-.0008-1.7057.0005-.1535.0003-.3095-.0095-.46.0137-.4074.0629-.6631.3701-.6418.7496.0213.38.3086.6484.724.6592.3491.0091.6986.0023,1.0479.0024.3345,0,.669,0,1.0388,0v1.4538c-.5863,0-1.1806-.0002-1.775,0-.7041.0002-1.0245.2136-1.0362.6895-.0118.4841.3429.733,1.044.7358.5587.0022,1.1173.0068,1.676.0124.0245.0002.0489.0215.0998.0453v1.3678c-.5646,0-1.1182-.0005-1.6718.0003-.1536.0002-.3085-.0075-.4606.0084-.4289.0451-.7086.3554-.6867.7481.0214.383.3013.6563.722.6638.6833.0122,1.367.0033,2.0872.0033v1.4545c-.6734,0-1.3275-.0025-1.9816.0008-.5146.0025-.8167.2547-.8281.6819-.0116.4366.309.7324.8309.7401.655.0097,1.3102.0023,1.9854.0023v1.4258c-.671,0-1.3121-.0037-1.9532.0011-.5376.004-.8558.2661-.8637.6982-.0083.4546.3151.7237.878.7255.6404.002,1.2809.0005,1.9449.0005v2.116H1.4484v-2.116c.1698,0,.3196,0,.4695,0,1.9423,0,3.8845.0017,5.8268-.0013.5021-.0008.7902-.2336.8235-.6452.0385-.4752-.2646-.7746-.8148-.7767-1.4532-.0057-2.9064-.0021-4.3596-.0022-.6395,0-1.279,0-1.9432,0v-1.4254c.144,0,.2905,0,.4371,0,1.9283,0,3.8565.0013,5.7848-.0009.5399-.0006.8468-.2207.8937-.6259.0552-.4765-.2516-.7962-.7846-.7971-1.9423-.0034-3.8845-.0014-5.8268-.0015-.1526,0-.3052,0-.5087,0Z"/>
      <path class="cls-1" d="M30.0866,25.0567v-1.4535c.1795,0,.3423,0,.5052,0,1.9421-.0001,3.8843.0029,5.8264-.0027.4673-.0014.7791-.2876.7917-.6906.0123-.3955-.299-.6949-.7624-.7281-.1113-.008-.2235-.0034-.3352-.0034-1.8443-.0002-3.6887-.0001-5.533-.0001h-.4874v-1.4258c.1538,0,.3142,0,.4746,0,1.8024,0,3.6048,0,5.4072,0,.0978,0,.1956.001.2934-.0003.5979-.0082.9473-.2754.9428-.7202-.0046-.451-.3421-.7038-.947-.7041-1.8862-.0009-3.7725-.0004-5.6587-.0004-.1639,0-.3279,0-.5183,0v-1.4538c.1701,0,.319,0,.468,0,1.9561,0,3.9122-.0031,5.8683.0028.329.001.6181-.111.6978-.4167.0587-.2249.033-.5687-.1063-.7226-.1588-.1755-.4847-.274-.7394-.2769-1.9-.022-3.8003-.012-5.7005-.012-.1521,0-.3042,0-.4855,0v-1.4254h.4787c1.8443,0,3.6887,0,5.533,0,.0978,0,.1957.0022.2934-.0007.4881-.0147.8192-.3051.8161-.7145-.0031-.4161-.3312-.7081-.8191-.7089-1.9421-.0032-3.8843-.0014-5.8264-.0014-.1517,0-.3035,0-.4801,0v-2.1147h11.396v2.1147c-.6403,0-1.2648-.0006-1.8893.0002-.6132.0008-.9382.2417-.947.6999-.0092.4746.3189.7232.9619.7249.6126.0016,1.2253.0003,1.8683.0003v1.4256c-.6628,0-1.3154.002-1.968-.0008-.3458-.0015-.6367.0964-.7964.4296-.2233.4661.1051.9814.6479.9924.6959.0141,1.3924.0034,2.1177.0034v1.4545c-.5332,0-1.073-.0001-1.6128,0-.1677,0-.3358-.0067-.5029.0032-.4239.0252-.6991.2879-.7156.6729-.0171.3997.2529.7113.6949.7336.5436.0275,1.0893.0123,1.6341.0151.1647.0008.3295.0001.5129.0001v1.4258c-.5626,0-1.1183-.0015-1.6739.0009-.1813.0008-.3647-.0036-.5434.0215-.3913.0548-.6324.341-.6222.7136.0101.3701.2703.6638.6605.6792.572.0226,1.1454.0084,1.7183.0097.1505.0003.3011,0,.4652,0v1.4535c-.5277,0-1.0521,0-1.5766,0-.1677,0-.3354-.0032-.503.0008-.4623.0112-.7413.2539-.7631.6595-.0221.4126.2671.7384.7219.7576.53.0224,1.0617.0067,1.5926.0074.1647.0002.3294,0,.5183,0v1.4254c-.5196,0-1.0447-.0002-1.5697.0001-.1816.0001-.3637-.0061-.5448.0043-.4422.0254-.7237.3063-.7211.7091.0026.4029.2886.6975.7254.7079.5865.014,1.1736.0031,1.7604.0049.109.0003.218.0101.3501.0167v2.1123h-11.3895v-2.1298c.1619,0,.3116,0,.4614,0,1.9561,0,3.9122.0028,5.8683-.0023.4622-.0012.7786-.294.7892-.6971.0103-.3938-.3133-.7022-.7635-.7242-.1115-.0055-.2235-.0018-.3353-.0018-1.8443,0-3.6887,0-5.533,0h-.488v-1.4254c.1698,0,.3212,0,.4727,0,1.8444,0,3.6887,0,5.5331,0,.1118,0,.2239.0053.3353-.0019.462-.0299.7754-.3216.778-.7195.0027-.4154-.3223-.7021-.8163-.7028-1.9421-.0028-3.8843-.0012-5.8264-.0012h-.4796Z"/>
      <path class="cls-1" d="M27.1642,23.6032v1.4542c-.7176,0-1.425-.0011-2.1323.0005-.3345.0008-.6071.1669-.6422.4829-.0269.2424.056.5584.2099.7402.1236.146.4253.1838.651.1926.6249.0244,1.2513.0084,1.9033.0084v1.4255c-.593,0-1.1878-.0004-1.7826,0-.6982.0005-1.0297.2212-1.0405.6917-.0112.4892.3351.7326,1.0406.7339.5588.001,1.1177.0041,1.6765.0079.0255.0002.0509.0162.1043.0343v2.0859h-11.379v-2.1283h.4344c1.9005,0,3.801,0,5.7015-.0002.1118,0,.2247.0077.3351-.005.3734-.043.6425-.3398.6456-.7023.0031-.3679-.2539-.6656-.6357-.704-.2354-.0237-.4745-.0134-.7119-.0135-1.7607-.0008-3.5215-.0005-5.2822-.0005h-.4813v-1.4254h.4324c1.8865,0,3.773.0004,5.6595-.0009.1392-.0001.2814.0024.4169-.0237.3849-.0741.6236-.3758.6017-.7394-.0233-.3871-.3033-.6567-.7231-.6585-1.5092-.0064-3.0184-.0028-4.5276-.0029-.6116,0-1.2232,0-1.8618,0v-1.4535h.5007c1.8725,0,3.7451.0003,5.6176-.0006.1395,0,.283.0104.4176-.0178.3574-.075.5662-.3037.5729-.6718.0066-.3637-.1772-.614-.5385-.6967-.161-.0368-.3327-.0364-.4996-.0366-1.8446-.0023-3.6892-.0015-5.5338-.0015-.1661,0-.3322,0-.5309,0v-1.4258h.5067c1.8306,0,3.6612,0,5.4918-.0001.1118,0,.2239.0042.3353-.003.4942-.0321.7921-.3234.7726-.7512-.0186-.4084-.3159-.6672-.8021-.6685-1.7188-.0048-3.4376-.0021-5.1565-.0021-.3752,0-.7504,0-1.1531,0v-1.4538c.1558,0,.3044,0,.4531,0,1.9564,0,3.9128.0022,5.8691-.0017.5197-.001.8524-.3504.786-.8035-.0582-.3975-.3749-.6187-.9069-.6193-1.9005-.0022-3.801-.0009-5.7015-.0009-.1529,0-.3058,0-.4934,0v-1.4254h.4515c1.8446,0,3.6892,0,5.5338,0,.1118,0,.2237.003.3354-.0014.4885-.0191.7989-.3109.7848-.7349-.0135-.4068-.3212-.6852-.7891-.6871-1.2996-.0054-2.5992-.002-3.8988-.002-.7953,0-1.5906,0-2.419,0v-2.1225h11.3677v2.1227c-.689,0-1.3691-.0065-2.0491.0023-.4578.0059-.7692.3027-.7704.708-.0012.4104.2994.6918.7676.7129.1534.0069.3074.002.4611.002.5155.0001,1.031,0,1.5836,0v1.4254c-.6238,0-1.2479-.0076-1.8716.0046-.1909.0037-.4005.0219-.5667.104-.3073.1518-.4361.4359-.3522.7728.0818.3287.2991.5368.6563.5411.5729.0069,1.1459.0013,1.7188.0037.1361.0006.2721.0115.4297.0187v1.4356c-.717,0-1.4133-.01-2.1091.0037-.419.0083-.6969.2859-.7174.6694-.0202.3772.2432.6795.6523.7329.1515.0198.3065.0165.4599.0169.5572.0018,1.1144.0007,1.7043.0007v1.4258c-.541,0-1.0694-.0004-1.5979.0003-.1676.0002-.3362-.0073-.5027.0075-.4438.0394-.7239.3261-.7162.7193.0081.412.3067.6873.7783.6953.5309.0091,1.062.0024,1.593.0026.1379,0,.2757,0,.4622,0Z"/>
    </g>
  </g>
</svg>