<?xml version="1.0" encoding="UTF-8"?>
<svg id="Capa_2" xmlns="http://www.w3.org/2000/svg" viewBox="0 0 49.6564 49.6644">
  <defs>
    <style>
      .cls-1 {
        fill: #fff;
      }
    </style>
  </defs>
  <g id="Capa_1-2" data-name="Capa_1">
    <g>
      <path class="cls-1" d="M11.5373,7.9723c.3871.4009.7555.7825,1.1687,1.2105-.4701.4644-.9574.942-1.4404,1.4239-1.1228,1.12-2.2371,2.2484-3.3701,3.3579-.2354.2306-.2849.4082-.1095.7019.4002.6701.5591,1.4159.4555,2.1848-.0518.3848.0973.5087.4086.631,1.8876.7416,3.7689,1.4993,5.7128,2.2757-.2001.5082-.3907.9922-.604,1.5339-2.069-.8253-4.1048-1.6374-6.1693-2.4609-.6072.8752-1.41,1.4589-2.4316,1.7385-.0853.0233-.1858.1931-.1862.2951-.0102,2.722-.0081,5.4441-.0081,8.1896,1.1065.2545,1.977.8315,2.6211,1.7801,2.0445-.8164,4.0687-1.6246,6.167-2.4625.2014.4954.3983.9796.6145,1.5114-.1834.08-.3502.1579-.5208.2263-1.7242.6909-3.4449,1.3908-5.1769,2.0614-.3528.1366-.4642.3009-.4212.6802.0876.772-.0812,1.5092-.4781,2.1817-.1437.2435-.1346.4054.0826.6206,2.0572,2.038,4.1046,4.0862,6.1433,6.1427.2121.214.3684.2329.6181.0832.6698-.4015,1.4125-.5646,2.1817-.485.4066.0421.6028-.0718.6987-.4562.0531-.213.1653-.4113.2789-.6836.4977.1966.9809.3874,1.5122.5972-.1572.4193-.2998.7994-.4559,1.2158.9267.6328,1.5186,1.5123,1.7685,2.6067h8.4344c.3316-1.2654,1.0232-2.2525,2.2059-2.8441,1.2402-.6204,2.5014-.6144,3.7233.0152.3663.1888.5332.1085.7775-.1413,1.0582-1.0822,2.1321-2.149,3.1845-3.2056.4028.4083.7734.7839,1.1812,1.1973-1.0521,1.0499-2.1266,2.138-3.2227,3.2038-.2517.2448-.2835.4129-.1168.7393,1.1067,2.1663.1465,4.7689-2.0746,5.6973-2.2244.9298-4.7413-.222-5.5198-2.5264-.0489-.1448-.0928-.2913-.1425-.4481h-8.2295c-.4809.7471-.8194,1.5036-1.3592,2.0673-1.4311,1.4943-3.6806,1.63-5.3251.4244-1.6428-1.2044-2.1746-3.3847-1.2372-5.2111.1658-.323.1407-.4905-.1116-.7401-2.0219-2.0003-4.0317-4.0128-6.0341-6.0326-.2315-.2335-.3947-.2596-.6997-.1071-1.5024.7514-2.9833.6604-4.3361-.3338-1.3146-.9661-1.891-2.3184-1.6316-3.9364.2682-1.673,1.251-2.7924,2.8751-3.3259.1139-.0374.225-.0831.3521-.1304v-8.4069c-.8264-.2411-1.5868-.6083-2.186-1.2645-1.3572-1.4863-1.4798-3.6685-.2806-5.2732,1.1974-1.6024,3.3494-2.1388,5.1275-1.2279.3917.2007.585.131.8642-.153,1.5578-1.5844,3.1348-3.1499,4.7213-4.7379ZM4.1154,14.0763c-1.3414.0088-2.4671,1.1465-2.4603,2.4864.0069,1.3456,1.1315,2.4705,2.4739,2.4748,1.361.0043,2.5074-1.154,2.4872-2.5132-.0199-1.3437-1.157-2.4568-2.5009-2.448ZM6.6163,33.1145c.0055-1.3397-1.1171-2.4761-2.4592-2.4892-1.36-.0133-2.5095,1.1346-2.5019,2.4984.0074,1.3394,1.1435,2.4653,2.4847,2.4627,1.3417-.0026,2.4709-1.1297,2.4765-2.4719ZM16.5566,47.9981c1.3421-.0058,2.469-1.1353,2.4713-2.477.0023-1.3406-1.1221-2.474-2.4643-2.4841-1.3602-.0103-2.5073,1.1398-2.4968,2.5035.0103,1.3393,1.1491,2.4635,2.4898,2.4577ZM35.5769,45.5387c.0131-1.3399-1.103-2.4812-2.4466-2.5018-1.3596-.0209-2.5145,1.1208-2.5145,2.4858,0,1.3386,1.13,2.47,2.4721,2.4754,1.3404.0053,2.4759-1.1166,2.489-2.4593Z"/>
      <path class="cls-1" d="M31.5408,10.243c-.5339-.2171-1.0077-.4098-1.5187-.6177.2715-.6899.5276-1.3406.7974-2.0261-.9292-.6377-1.5239-1.5152-1.7728-2.6118h-8.4438c-.265,1.0748-.8186,1.9601-1.7754,2.5969.149.3952.2919.7746.4606,1.2223-.5036.2019-.9875.396-1.5705.6297-.047-1.1466-.7857-1.128-1.6437-1.2082-2.2503-.2104-3.8779-2.2874-3.6445-4.472C12.6721,1.4839,14.6209-.1509,16.8937.0111c1.5955.1137,3.1054,1.311,3.5671,2.8698.1009.3406.2389.449.5981.4464,2.516-.0179,5.0323-.0095,7.5485-.0095.1364,0,.2728,0,.4201,0,.3411-1.3076,1.0572-2.2927,2.2615-2.8869,1.5818-.7805,3.4675-.4621,4.7199.7939,1.259,1.2627,1.6027,3.1544.7903,4.7114-.2157.4133-.131.6172.1621.907,1.9728,1.9511,3.9353,3.9127,5.8859,5.8859.269.2721.4489.3349.8208.1417,2.1316-1.1074,4.7607-.102,5.6689,2.1337.9044,2.2264-.2986,4.7739-2.5889,5.4838-.1298.0402-.2569.0889-.3963.1375v8.2089c.7752.5164,1.5551.8822,2.1344,1.4521,1.4371,1.4136,1.5428,3.6335.3617,5.2476-1.1933,1.6308-3.3521,2.1805-5.159,1.2643-.3921-.1989-.6001-.1423-.8623.1578-.3714.4251-.7783.8191-1.1853,1.2423-.411-.4345-.7755-.8199-1.1909-1.2591.4214-.4065.855-.8438,1.3108-1.2567.2273-.2059.2794-.3805.1114-.6594-.4126-.6847-.5668-1.4433-.4737-2.2326.041-.3473-.0808-.4919-.3837-.6034-.6599-.2428-1.3089-.5152-2.0144-.7963.2033-.5105.3966-.9958.6081-1.527.8324.3283,1.625.641,2.4473.9654.6055-.8718,1.4054-1.4587,2.4301-1.7326.085-.0227.1855-.1943.1859-.2971.0102-2.7215.0081-5.4431.0081-8.1885-1.1015-.2593-1.9763-.8293-2.6194-1.7826-2.0546.8196-4.0903,1.6318-6.1682,2.4607-.2082-.5111-.4012-.9848-.6144-1.5081.1782-.0787.3437-.158.5137-.226,1.7402-.6963,3.4789-1.3965,5.224-2.0803.3004-.1177.4236-.2569.3829-.6036-.0927-.7892.0592-1.5481.4738-2.2323.1689-.2788.105-.445-.1112-.6595-2.0426-2.0273-4.076-4.0639-6.1078-6.1022-.1722-.1727-.3045-.2823-.5675-.1229-.7295.442-1.5363.5985-2.3808.508-.2752-.0295-.4014.0521-.4944.3069-.1996.5465-.4307,1.0815-.67,1.6735ZM16.5354,1.6646c-1.3412.0041-2.4673,1.1346-2.4686,2.4783-.0013,1.3418,1.1222,2.4734,2.4652,2.4829,1.3594.0096,2.511-1.146,2.496-2.5047-.0148-1.344-1.1478-2.4605-2.4925-2.4565ZM30.6157,4.1245c-.0117,1.3415,1.1029,2.481,2.4468,2.5013,1.3382.0202,2.4861-1.0913,2.5142-2.4346.0285-1.3586-1.108-2.5192-2.474-2.5266-1.3401-.0072-2.4753,1.1156-2.487,2.4599ZM43.0274,16.5735c.0095,1.342,1.1429,2.4662,2.4841,2.464,1.3418-.0022,2.4715-1.1295,2.4771-2.4718.0057-1.3602-1.1485-2.5043-2.5114-2.4893-1.3423.0148-2.4593,1.1533-2.4497,2.4971ZM45.5003,30.6252c-1.3406.0015-2.469,1.1304-2.4729,2.474-.0039,1.3419,1.1173,2.4751,2.4608,2.4872,1.361.0122,2.5127-1.1394,2.5004-2.5002-.0122-1.3432-1.1438-2.4625-2.4882-2.4609Z"/>
      <path class="cls-1" d="M31.3997,39.6978h-1.4974c-.1528-.4492-.2609-.8589-.4281-1.243-.7038-1.6169-.734-3.2376-.0455-4.8597.112-.2638.0954-.4193-.1147-.6207-.6842-.6558-1.3584-1.3233-2.0123-2.0092-.7474-.7839-1.0313-1.7014-.6495-2.7539.3557-.9806,1.0807-1.5373,2.1-1.6866.8846-.1296,1.6224.2117,2.2423.823.3923.3868.7645.7938,1.2221,1.2715.0255-.2382.0505-.3627.0505-.4871.002-4.6192.0035-9.2384.0004-13.8576-.0008-1.1993-.6557-1.846-1.857-1.8545-.1206-.0009-.2443.0172-.3615-.0029-.9973-.1706-1.7078.0927-2.0296,1.1619-.0664.2208-.4908.4659-.7563.4731-1.619.0437-3.2398.0192-4.8599.0238-.4624.0013-.7709-.2376-.8922-.6475-.259-.8757-.8217-1.0251-1.6884-1.0423-1.8144-.0359-2.5968.6186-2.4507,2.4875.02.2564.0028.5156.0028.8148h-1.6253c-.0849-1.5519-.1771-3.1019,1.2603-4.2152.6247-.4838,1.3339-.7058,2.1138-.7065,3.7919-.0034,7.5838-.012,11.3756.0027,1.9998.0077,3.4091,1.4281,3.421,3.4311.0144,2.4302.0106,4.8605-.0044,7.2907-.0022.3545.0896.6082.3463.8579.8521.8291,1.6909,1.6727,2.5133,2.5312.7929.8277,1.2526,1.8337,1.2636,2.9763.0298,3.1013.0102,6.2031.0102,9.3456h-1.6432v-.5374c0-2.7233-.0137-5.4466.0066-8.1697.0084-1.1172-.3416-2.0517-1.1614-2.8178-.423-.3953-.8171-.8216-1.3275-1.3385v2.1857c0,1.0859.0153,2.172-.0086,3.2574-.0079.3597.0935.6171.3604.8519.3598.3165.6909.6654,1.048,1.0137-.417.4122-.7905.7813-1.2707,1.256-.2071-.2555-.3927-.5279-.6206-.7585-1.1875-1.2012-2.383-2.3945-3.5815-3.5847-.5091-.5056-1.0499-.546-1.4517-.1285-.3915.4068-.3491.9212.1376,1.4144.8111.822,1.6333,1.633,2.4471,2.4523.5452.5489.5819.8.2108,1.4569-.7907,1.3994-.8251,2.8214-.0891,4.2426.28.5406.4188,1.0779.2943,1.7001Z"/>
      <path class="cls-1" d="M28.109,38.0705v1.6549c-.1899,0-.3721,0-.5543,0-2.739,0-5.478.0016-8.217-.0005-2.2332-.0017-3.6162-1.3765-3.617-3.6002-.0021-6.0637-.0007-12.1275-.0007-18.1912,0-.1547,0-.3095,0-.5066h1.6549v.582c0,6.0121-.0001,12.0241.0001,18.0362,0,1.436.5955,2.0252,2.0464,2.0254,2.8761.0003,5.7523,0,8.6877,0Z"/>
      <path class="cls-1" d="M19.3518,21.2973c2.8602-2.9879,8.2424-2.9797,10.926-.0029-.3796.3625-.7589.7248-1.1678,1.1154-1.1538-1.0769-2.6037-1.7158-4.2975-1.7115-1.6738.0043-3.1146.6196-4.347,1.7853-.3757-.4002-.7348-.7827-1.1137-1.1863Z"/>
      <path class="cls-1" d="M26.6645,24.5136c-1.2066-.9438-2.4513-.9591-3.7146.0249-.353-.3918-.7048-.7823-1.0615-1.1782,1.4025-1.6098,4.2984-1.6214,5.9316.057-.3801.3606-.7602.7213-1.1556,1.0964Z"/>
      <path class="cls-1" d="M23.1892,36.3784v-1.5896h3.2449v1.5896h-3.2449Z"/>
      <path class="cls-1" d="M22.315,27.3427v1.5877h-1.5968v-1.5877h1.5968Z"/>
      <path class="cls-1" d="M25.6061,28.9575h-1.5724v-1.6091h1.5724v1.6091Z"/>
    </g>
  </g>
</svg>