<?xml version="1.0" encoding="UTF-8"?>
<svg id="Capa_2" xmlns="http://www.w3.org/2000/svg" viewBox="0 0 48.8269 48.8601">
  <defs>
    <style>
      .cls-1 {
        fill: #fff;
      }
    </style>
  </defs>
  <g id="Capa_1-2" data-name="Capa_1">
    <g>
      <path class="cls-1" d="M0,18.2279c.2759-.7132.8024-1.2326,1.3321-1.7566,1.3906-1.3754,2.7684-2.7637,4.1517-4.1465,1.2342-1.2337,2.4161-1.2404,3.6363-.015.5483.5506,1.0873,1.1104,1.6911,1.7279.5572-1.0148,1.5289-1.2325,2.4546-1.5657,1.9451-.7002,3.6536-1.798,5.0279-3.346.8922-1.0049,1.8333-1.8877,3.2361-2.2058-.8473-1.3612-1.0684-2.7519-.4688-4.2172.449-1.0973,1.2348-1.8712,2.3154-2.3469,2.0996-.9243,4.5898.012,5.6242,2.0994.9003,1.8169.5347,4.8259-2.5504,6.0773,1.0266,1.2096,3.0692,1.5429,4.5794.7024.5515-.3069,1.0355-.7328,1.5653-1.0816.8843-.5822,1.8188-.6472,2.751-.1414.935.5073,1.3848,1.3352,1.3738,2.3902-.0076.7312-.2983,1.3679-.844,1.8567-1.9825,1.7756-4.3068,2.779-6.9577,3.0038-.5672.0481-1.1419.0026-1.7119.0274-.1216.0053-.3096.1027-.346.202-.398,1.0855-.772,2.1798-1.1516,3.2691.4102.2565.8309.4563,1.176.7462,1.5117,1.2699,2.0178,2.8854,1.5133,4.7903-.4709,1.7783-.9822,3.5458-1.5151,5.4599.2104-.196.3285-.2996.4395-.4103,1.159-1.1573,2.3161-2.3166,3.4754-3.4736.6743-.673,1.116-.6766,1.7801-.0112,1.0443,1.0464,2.0853,2.096,3.0953,3.1116,1.4646-1.4659,2.908-2.9106,4.4017-4.4056-.3043-.2853-.6667-.5966-.9958-.9398-.6341-.6612-.3908-1.5066.498-1.6903,2.6434-.5465,5.2893-1.0815,7.9376-1.6037.9709-.1915,1.4638.3267,1.2713,1.2907-.5189,2.5994-1.04,5.1983-1.5579,7.7979-.0853.4284-.2495.7935-.7096.9284-.4548.1333-.8021-.0575-1.1051-.3803-.3801-.4048-.7652-.8049-1.1788-1.2393-.1718.1634-.2977.278-.418.3982-2.4068,2.4057-4.8128,4.8122-7.2194,7.2181-.6217.6215-1.0872.6272-1.7081.009-1.0569-1.0523-2.1085-2.1098-3.1823-3.1852-.1536.1444-.2817.2587-.403.3798-1.3501,1.3485-2.6991,2.6982-4.0485,4.0473-.1012.1012-.1992.2061-.3067.3002-.436.3816-1.0042.3873-1.3742.0178-.3795-.379-.3948-.9397.0279-1.367,1.789-1.809,3.5866-3.6097,5.3977-5.3965.4761-.4697.9745-.4194,1.5079.105.9525.9364,1.8931,1.8849,2.8342,2.8329.1226.1235.2184.2736.5337.4969.0841-.1553.1374-.3413.257-.4615,2.3552-2.3674,4.7178-4.7273,7.0794-7.0884.7981-.798,1.1778-.7978,1.9795.0123.1321.1335.2346.2964.3507.4457.045-.0229.0899-.0457.1349-.0686.3294-1.6344.6587-3.2687,1.0039-4.9815-1.6985.3413-3.3353.6702-5.0319,1.0112.128.1487.2035.2455.2882.3333.6497.6729.6449,1.1095-.0261,1.7812-1.2025,1.2038-2.4061,2.4064-3.6093,3.6095-.551.551-1.1013,1.1025-1.653,1.6528-.6759.6741-1.113.6782-1.7783.0136-1.0456-1.0445-2.0894-2.0908-3.0964-3.0988-5.8358,5.836-11.6558,11.656-17.459,17.4593.3853.3934.8172.8344,1.2808,1.3077.1235-.1146.2501-.2249.3687-.3434,1.3053-1.3034,2.6087-2.6086,3.9147-3.9113.146-.1456.2914-.2981.4604-.413.3554-.2415.8318-.1924,1.1459.0931.3345.304.4182.7772.1797,1.1696-.1054.1735-.2518.326-.3966.4712-1.5605,1.5654-3.1213,3.1305-4.6907,4.687-.2222.2204-.4901.3946-.7368.5902h-.5726c-.2123-.1853-.4348-.3601-.6349-.5577-.7354-.7261-1.4643-1.4588-2.194-2.1907-.736-.7381-.7344-1.1459.0044-1.8848,3.3053-3.3055,6.6096-6.612,9.9203-9.9122.1306-.1302.3222-.1992.4854-.2968-.2631-.2309-.4024-.2983-.5369-.3741-.9771-.5508-1.5384-1.6475-1.3768-2.7231.1557-1.0364.3301-2.07.4941-3.1051.1624-1.025.3219-2.0504.4811-3.0654-.4104-.1303-.5894.0127-.7536.3403-2.0267,4.0447-4.0686,8.0818-6.11,12.1191-.3366.6657-.6521,1.3462-1.0423,1.9799-.7582,1.2314-2.3717,1.6601-3.6917,1.0268-1.3041-.6256-1.9234-2.1087-1.4466-3.4942.1755-.51.3735-1.0128.5748-1.5134.2444-.6079.7468-.8524,1.2855-.6416.5036.1971.7064.7208.4933,1.318-.1599.448-.3534.8843-.5054,1.3347-.0638.189-.1072.4088-.076.601.0712.4384.3584.692.8024.7589.4689.0707.8223-.1176,1.0717-.6075,1.0157-1.9945,2.0257-3.992,3.0357-5.9894,1.4398-2.8475,2.8804-5.6946,4.3137-8.5454.215-.4275.5258-.6543,1.0135-.6471.6835.0101,1.3675-.0053,2.051.0049.7617.0114,1.1395.4411,1.0334,1.1983-.1299.9275-.2861,1.8513-.4335,2.7763-.23,1.4426-.4708,2.8835-.6897,4.3277-.0991.654.4967,1.1922,1.0523.9173.2551-.1262.4904-.4568.5729-.7416.7108-2.4542,1.3921-4.917,2.0673-7.3814.5283-1.9284-.6436-3.4511-2.6417-3.4529-2.0829-.0019-4.1659.0106-6.2485-.0102-.3926-.0039-.5802.1101-.7198.4835-.95,2.5412-1.9223,5.0741-2.8921,7.6079-.2366.6182-.731.8763-1.2676.6817-.5289-.1918-.7462-.7284-.5245-1.3395.2111-.5817.4412-1.1566.6611-1.7351.1566-.412.3102-.8251.4652-1.2377-.8777.7592-1.6682,1.564-2.4734,2.3536-1.0107.9912-2.2889.9763-3.2932-.027-2.1371-2.1351-4.268-4.2766-6.4123-6.4046-.4862-.4825-.957-.9638-1.1828-1.6296v-.9543ZM17.7054,18.4869c.1155.0201.1769.0401.2382.0402,1.8432.0021,3.6864.0097,5.5293-.0122.1376-.0016.344-.1908.3976-.3371.4914-1.3397.9544-2.6897,1.4293-4.0355.2641-.7485.5878-.9292,1.3715-.8334,2.5671.3137,4.9146-.2732,7.0343-1.7549.2986-.2087.5915-.4329.8536-.6849.3256-.313.3373-.7278.0739-1.0242-.2652-.2984-.6752-.3312-1.0305-.0739-.1541.1116-.2955.2406-.4456.358-2.7421,2.1442-5.8531,1.9711-8.3342-.4631-1.7758-1.7422-4.5233-1.0044-5.1854,1.4047-.4244,1.5444-.8152,3.0981-1.2188,4.6482-.2387.9169-.4729,1.835-.7132,2.768ZM3.8638,16.6068c-.5764.5879-1.104,1.1591-1.6692,1.6902-.3414.3208-.3053.5376.0142.8528,1.7877,1.7638,3.5573,3.5459,5.3332,5.3218.4608.4608.9094.9351,1.3917,1.3722.1165.1056.4341.1818.5079.1119.6386-.6054,1.2427-1.2474,1.887-1.9092-.6684-.6576-1.3193-1.3094-1.9882-1.9422-.0899-.085-.3001-.142-.4052-.0969-1.6666.715-3.8986-1.3256-3.203-3.1986.0386-.104.0168-.2912-.0543-.3658-.5799-.6075-1.1782-1.1974-1.8142-1.8361ZM10.6818,20.5741c.7137.7183,1.3924,1.4014,2.1025,2.1161.4881-.4987,1.0088-1.0329,1.532-1.5646.431-.438.434-.4937.0112-.9168-1.1118-1.1127-2.2245-2.2244-3.3367-3.3367-1.1128-1.1128-2.2187-2.2327-3.3487-3.3277-.1147-.1111-.4641-.1703-.5515-.089-.6336.5896-1.2279,1.2216-1.7687,1.7729.628.6278,1.2309,1.2305,1.8449,1.8442.0659-.0623.1691-.16.2726-.2575.4663-.4395.9792-.4649,1.4344-.0259.7093.684,1.407,1.3809,2.0891,2.092.4271.4453.4075.9362-.0073,1.4035-.1048.1181-.2171.2296-.2739.2894ZM25.0659,6.7924c1.3626.0046,2.4608-1.0812,2.4623-2.4345.0015-1.3291-1.0853-2.4326-2.411-2.448-1.3484-.0157-2.4725,1.0798-2.4846,2.4211-.0122,1.3554,1.0766,2.4567,2.4334,2.4613ZM17.2644,12.5398c-1.4018.9591-2.7993,1.5889-4.279,2.0478-.4598.1426-.6726.5146-.568.9055.1078.403.5498.6629.9864.4966,1.0364-.3946,2.0579-.8288,3.0797-1.2607.1179-.0498.2552-.1694.2885-.2842.1712-.5904.3113-1.1898.4925-1.9051ZM14.5755,17.6386c.3641.3787.7093.7377,1.0824,1.1258.1386-.5559.2723-1.0919.4229-1.6962-.5761.2183-1.0477.397-1.5053.5704ZM8.1369,18.6332c-.2546.4461-.5062.7314-.559,1.0496-.024.1445.3873.5315.5286.4985.3128-.0733.5796-.3427.8892-.5481-.1483-.1629-.2242-.2417-.2949-.3249-.1534-.1807-.3042-.3637-.5639-.6751Z"/>
      <path class="cls-1" d="M23.5593,40.9212c-.4987-.0046-.9345-.4409-.9418-.9431-.0078-.5334.4224-.9636.96-.9598.5111.0036.9368.4229.945.9307.0083.515-.4494.9769-.9631.9722Z"/>
      <path class="cls-1" d="M10.7837,31.8498c.0172-.5208.4484-.9303.9634-.9152.5139.0151.934.4496.9283.9601-.006.5343-.458.9574-.9968.933-.5224-.0237-.9124-.4498-.895-.9779Z"/>
    </g>
  </g>
</svg>