<?xml version="1.0" encoding="UTF-8"?>
<svg id="Capa_2" xmlns="http://www.w3.org/2000/svg" viewBox="0 0 57.7482 57.6591">
  <defs>
    <style>
      .cls-1 {
        fill: #fff;
      }
    </style>
  </defs>
  <g id="Capa_1-2" data-name="Capa_1">
    <g>
      <path class="cls-1" d="M12.6064,42.7874c-1.7886-1.0048-3.8758-1.0552-5.6714-.1513-5.3305-8.4396-5.3305-19.1772,0-27.6167,1.7957.9019,3.8828.8555,5.6714-.1493,1.9369-1.0895,3.094-3.0627,3.094-5.28,0-.9402-.2189-1.8663-.6365-2.7015,7.2825-4.594,16.6199-5.2477,24.4804-1.6907.3581.1614.7546.1755,1.1177.0363.3652-.1372.6547-.4076.8161-.7647.3309-.7324.004-1.5999-.7294-1.9328C31.8511-1.4925,21.3113-.6734,13.1461,4.649c-1.0209-.7263-2.2526-1.1218-3.5096-1.1218-2.3535,0-4.4468,1.3235-5.4616,3.4541-.9624,2.0176-.7566,4.3297.5205,6.1193-6.2606,9.5936-6.2606,21.8585,0,31.4562-1.2771,1.7896-1.4829,4.0977-.5215,6.1173,1.0148,2.1306,3.1081,3.4541,5.4626,3.4541,3.3431,0,6.0639-2.7197,6.0639-6.0628,0-2.2153-1.1561-4.1885-3.094-5.278ZM6.4941,9.5901c0-1.7331,1.4093-3.1414,3.1424-3.1414s3.1424,1.4083,3.1424,3.1414-1.4093,3.1434-3.1424,3.1434-3.1424-1.4103-3.1424-3.1434ZM12.7789,48.0654c0,1.7331-1.4093,3.1414-3.1424,3.1414s-3.1424-1.4083-3.1424-3.1414,1.4093-3.1414,3.1424-3.1414,3.1424,1.4083,3.1424,3.1414Z"/>
      <path class="cls-1" d="M32.5936,31.7412c.5912,0,1.1208-.3551,1.3477-.9039.231-.5548.1089-1.1641-.3158-1.5899-1.267-1.267-2.9548-1.9651-4.7514-1.9651-1.7977,0-3.4854.6981-4.7534,1.9651-.5669.569-.5669,1.497.001,2.066.569.569,1.497.569,2.066,0,1.4809-1.4809,3.8919-1.4809,5.3728,0,.2754.2764.6426.4277,1.033.4277Z"/>
      <path class="cls-1" d="M42.048,28.8278c0,.805.6557,1.4607,1.4607,1.4607s1.4607-.6557,1.4607-1.4607c0-8.8754-7.2199-16.0943-16.0953-16.0943s-16.0953,7.2189-16.0953,16.0943,7.2199,16.0963,16.0953,16.0963c6.656,0,12.7088-4.1825,15.0603-10.4067.1382-.3672.1261-.7626-.0353-1.1198-.1604-.3551-.4499-.6255-.8131-.7626-.3652-.1412-.7626-.1311-1.1177.0323-.3561.1614-.6285.4499-.7667.8171-1.9258,5.0944-6.879,8.5182-12.3275,8.5182-7.2643,0-13.1738-5.9095-13.1738-13.1748s5.9095-13.1728,13.1738-13.1728,13.1738,5.9095,13.1738,13.1728Z"/>
      <path class="cls-1" d="M26.6881,33.9988c0,1.2065.9805,2.1871,2.1861,2.1871,1.2045,0,2.185-.9805,2.185-2.1871,0-1.2045-.9805-2.185-2.185-2.185-1.2055,0-2.1861.9805-2.1861,2.185Z"/>
      <path class="cls-1" d="M53.0529,13.1007c1.2771-1.7896,1.4829-4.1018.5205-6.1193-1.0148-2.1306-3.1081-3.4541-5.4616-3.4541-3.3431,0-6.0639,2.7197-6.0639,6.0628,0,2.2153,1.1561,4.1885,3.093,5.278,1.7926,1.0048,3.8768,1.0532,5.6724.1513,5.3305,8.4416,5.3305,19.1772,0,27.6167-1.7957-.9039-3.8798-.8575-5.6704.1513-1.9379,1.0895-3.095,3.0627-3.095,5.278,0,.9422.2189,1.8663.6355,2.7015-7.4086,4.6727-16.8731,5.2699-24.8193,1.5334-.7263-.339-1.5999-.0262-1.9409.7021-.1665.3531-.1846.7505-.0525,1.1177s.3995.6598.7526.8272c3.8687,1.8158,8.0512,2.7116,12.2225,2.7116,5.5221,0,11.0251-1.5697,15.7553-4.6526,1.7906,1.2791,4.1028,1.4849,6.1193.5205,2.1306-1.0148,3.4541-3.1071,3.4541-5.4616,0-1.257-.3965-2.4877-1.1228-3.5086,6.2616-9.5956,6.2616-21.8605.001-31.4562ZM51.2532,9.5901c0,1.7331-1.4093,3.1434-3.1414,3.1434-1.7331,0-3.1424-1.4103-3.1424-3.1434s1.4093-3.1414,3.1424-3.1414c1.7321,0,3.1414,1.4083,3.1414,3.1414ZM51.2532,48.0654c0,1.7331-1.4093,3.1414-3.1414,3.1414-1.7331,0-3.1424-1.4083-3.1424-3.1414s1.4093-3.1414,3.1424-3.1414c1.7321,0,3.1414,1.4083,3.1414,3.1414Z"/>
      <path class="cls-1" d="M36.1435,28.1902c.5922,0,1.1218-.3551,1.3488-.9039.229-.5569.1079-1.1641-.3168-1.5878-2.2183-2.2193-5.167-3.442-8.3014-3.442s-6.083,1.2227-8.3024,3.442c-.2754.2744-.4277.6416-.4277,1.031,0,.3914.1523.7586.4277,1.033.569.569,1.497.569,2.066,0,3.438-3.438,9.0337-3.438,12.4717,0,.2754.2764.6426.4277,1.034.4277Z"/>
    </g>
  </g>
</svg>