<?xml version="1.0" encoding="UTF-8"?>
<svg id="Capa_2" xmlns="http://www.w3.org/2000/svg" viewBox="0 0 62.974 62.7494">
  <defs>
    <style>
      .cls-1 {
        fill: #fff;
      }
    </style>
  </defs>
  <g id="Capa_1-2" data-name="Capa_1">
    <g>
      <path class="cls-1" d="M43.7226,13.1391c.0492-.2176.1949-.3992.3936-.4957.2006-.0946.4314-.0946.632,0,1.6575.8004,3.228,1.7597,4.6774,2.8571l1.4494-1.8127c-1.9943-1.5175-4.1817-2.7834-6.509-3.7654-.246-.1041-.4163-.3349-.4409-.5998-.5147-5.3151-4.9328-9.3226-10.2763-9.3226h-1.6973C22.2543,0,13.838,6.5714,11.4861,15.9792l-.3614,1.4437h6.5336c3.9281,0,7.86.929,11.3756,2.6869,1.4248.7114,3.0199,1.088,4.615,1.088,4.7871,0,9.0237-3.3888,10.0738-8.0587ZM33.6488,18.8761c-1.2375,0-2.4749-.2914-3.5781-.8458-3.8316-1.9167-8.123-2.929-12.4125-2.929h-2.4579c-.2403,0-.4674-.1192-.6017-.3198-.1343-.1987-.1627-.4522-.0738-.6774,2.8628-7.158,9.7029-11.7824,17.4267-11.7824h1.6973c3.3491,0,6.3728,2.1173,7.5213,5.2659.0927.2554.036.5393-.1457.7398s-.456.2876-.7209.2119c-5.298-1.3888-10.8477-1.3018-16.0227.21l.702,2.2138c5.228-1.5137,10.8553-1.4456,16.0909.2176.3368.1079.5487.4409.4995.7909-.5412,3.9357-3.9489,6.9045-7.9243,6.9045Z"/>
      <path class="cls-1" d="M56.5344,27.4892l-1.0691-1.0331-3.2659,5.6575c-1.9659,3.4021-4.7361,6.3444-8.0133,8.509-1.3321.8799-2.456,2.0738-3.2526,3.4532-2.3992,4.1552-1.5818,9.5175,1.9432,12.7512.1627.1495.2479.3671.2327.5885s-.1325.4219-.316.5468c-1.5175,1.035-3.1353,1.9167-4.8136,2.6225l.8439,2.1646c2.3141-.9707,4.5033-2.2308,6.5147-3.7559.2138-.1627.4995-.1949.7417-.0814,4.8553,2.2176,10.5355.3936,13.2091-4.2384l.8515-1.4702c4.8477-8.3974,3.3642-18.9726-3.6064-25.7143ZM58.1295,52.0436h-.0019l-.8496,1.4702c-1.4418,2.4995-4.1154,4.0038-6.9366,4.0038-.4598,0-.9234-.0416-1.3851-.123-.2668-.0473-.4844-.2384-.5658-.4957s-.0132-.5393.176-.7304c1.8165-1.8335,3.3888-3.8884,4.6679-6.1079,1.7994-3.1145,3.0104-6.4787,3.6064-10.0114l-2.299-.333c-.5544,3.2431-1.6689,6.3292-3.315,9.1826-1.4191,2.4579-3.2129,4.685-5.3321,6.6169-.263.2346-.6604.2498-.9347.036-3.141-2.4333-4.0076-6.8685-2.017-10.316.6168-1.0672,1.4891-1.9924,2.5203-2.6755,3.5781-2.3633,6.6017-5.5724,8.7455-9.2848l1.228-2.1287c.1211-.2081.3368-.3444.5771-.3614.2706-.0208.4768.087.6244.2744,4.7682,6.0587,5.3529,14.2952,1.491,20.984Z"/>
      <path class="cls-1" d="M19.8645,57.4154c-.0151-.2214.07-.439.2327-.5885,3.5251-3.2337,4.3425-8.596,1.9413-12.7512-.7947-1.3794-1.9186-2.5733-3.2507-3.4551-3.2791-2.1646-6.0511-5.1069-8.0133-8.5071l-3.2677-5.6575-1.0672,1.0331c-6.9726,6.7417-8.4541,17.3151-3.6046,25.7143l.8477,1.4702c2.6755,4.6358,8.3595,6.4541,13.211,4.2384.0965-.0454.2006-.0662.3027-.0662.1552,0,.3103.0492.439.1476,2.0114,1.5232,4.1987,2.7852,6.5127,3.7559l.8458-2.1646c-1.6821-.7096-3.2999-1.5894-4.8136-2.6225-.1835-.1249-.3009-.3254-.316-.5468ZM18.014,55.5517c-.2763.2195-.6717.2025-.9347-.036-2.1154-1.9281-3.9092-4.1552-5.3321-6.6169-1.6481-2.8553-2.7625-5.9395-3.315-9.1826l-2.299.333c.596,3.5326,1.807,6.8969,3.6045,10.0114,1.2772,2.2157,2.8496,4.2706,4.6698,6.1079.1892.1911.2573.473.176.7304s-.299.4484-.5658.4957c-.4617.0833-.9272.123-1.3869.123-2.8193,0-5.4948-1.5043-6.9385-4.0038l-.8477-1.4702c-3.8619-6.6888-3.2772-14.9253,1.4891-20.9821.1495-.1892.3879-.2971.6225-.2763.2403.017.4579.1533.5771.3614l1.2299,2.1287c2.1457,3.7143,5.1675,6.9234,8.7436,9.2829,1.035.685,1.9073,1.6102,2.5241,2.6793,1.9887,3.4475,1.1221,7.8808-2.017,10.3141Z"/>
      <path class="cls-1" d="M32.6479,30.3217v-5.4116l-10.6717,10.6717,7.9489,3.9735c.246.123.4011.3746.4011.649v5.4116l10.6717-10.6717-7.9489-3.9735c-.246-.123-.4011-.3746-.4011-.649ZM36.5684,35.6633c.0378.2308-.0378.4655-.2025.632l-2.4768,2.4768c-.14.1381-.3254.2119-.5147.2119-.0946,0-.1873-.0189-.2781-.0549-.2517-.1041-.4219-.3387-.4447-.6074l-5.8543-2.9272c-.2081-.1041-.3538-.3027-.3917-.5336-.0378-.229.0378-.4636.2044-.6301l2.4768-2.4749c.2062-.2081.5166-.2649.7909-.157.2517.1041.4201.3387.4447.6055l5.8543,2.9272c.2081.1041.3538.3027.3917.5317Z"/>
    </g>
  </g>
</svg>