<?xml version="1.0" encoding="UTF-8"?>
<svg id="Capa_2" xmlns="http://www.w3.org/2000/svg" viewBox="0 0 51.5456 51.5298">
  <defs>
    <style>
      .cls-1 {
        fill: #fff;
      }
    </style>
  </defs>
  <g id="Capa_1-2" data-name="Capa_1">
    <g id="sU2mLk.tif">
      <g>
        <path class="cls-1" d="M25.4454,0c.3798.2772.6725.6025.6606,1.1156-.0146.6304-.4747,1.0803-1.1835,1.1185-3.9162.2115-7.3887,1.56-10.3463,4.1363-3.3337,2.904-5.288,6.5599-5.817,10.9689-.1418,1.1818-.0406,2.3758-.2584,3.5537-.2289,1.2381-.6712,2.3821-1.3391,3.4429-1.5355,2.4389-3.0753,4.8752-4.6075,7.3162-.0826.1316-.2822.2618-.1738.4322.0822.1293.2809.0565.4267.057,1.458.0054,2.916.0051,4.374.0073,1.08.0017,1.4739.3916,1.4765,1.49.0055,2.3127.0024,4.6255.0019,6.9382,0,.3702.0144.734.1799,1.0796.453.9454,1.4737,1.3971,2.5387,1.0802,2.0867-.6211,4.1673-1.2629,6.2522-1.8901,1.1098-.3339,1.7135.1208,1.7147,1.2841.0021,2.1619.0145,4.324-.0098,6.4856-.0056.4945.1159.6679.64.6661,5.2622-.018,10.5246-.0177,15.7868-.0005.5233.0017.6485-.1784.6451-.6703-.0194-2.8154.0046-5.631-.0127-8.4464-.0249-4.0587,1.0635-7.771,3.3918-11.1075.8-1.1464,1.4349-2.3781,1.9495-3.677.2269-.5728.7303-.8461,1.2741-.7546.4834.0813.856.4927.9125,1.0063.0266.2421-.0533.4618-.1365.6821-.5059,1.3389-1.1512,2.6083-1.9776,3.7753-1.6184,2.2856-2.6726,4.7903-3.0044,7.5795-.0849.7135-.1384,1.4351-.1414,2.1533-.0144,3.4355-.0058,6.8711-.007,10.3067-.0004,1.0363-.3575,1.3996-1.3791,1.3997-6.2511.0011-12.5021.001-18.7532,0-1.016-.0002-1.4284-.4031-1.4328-1.432-.0086-2.0278-.0022-4.0556-.0035-6.0835-.0004-.6463-.0013-.6422-.6005-.4599-1.49.4532-2.9789.9107-4.4727,1.3513-2.5203.7434-5.0136-.7439-5.5425-3.3068-.0603-.292-.0659-.5988-.0668-.8989-.0058-1.9105-.0155-3.8212.0058-5.7314.005-.4504-.1509-.5782-.5819-.5688-1.0888.0235-2.1788-.01-3.2677.0123C1.3367,34.4365.4597,33.95,0,32.7874,0,32.3851,0,31.9828,0,31.5805c.2321-.4069.4497-.8229.6985-1.2193,1.5408-2.4543,3.0923-4.902,4.6323-7.3569.579-.9229.8986-1.9316,1.0027-3.0215.113-1.1825.0457-2.3748.2621-3.5525,1.4487-7.8838,5.9925-13.0805,13.5631-15.652,1.2241-.4158,2.5052-.5837,3.778-.7783h1.5086Z"/>
        <path class="cls-1" d="M48.7788,0c2.4594.5843,2.9843,2.5471,2.6804,4.5133-.3306,2.1387-1.3561,3.9817-2.5331,5.7487-.2265.34-.249.5619-.0084.9231,1.1854,1.7801,2.2097,3.6411,2.5544,5.7948.0905.5657.1027,1.1395.0068,1.7026-.3444,2.0204-1.9598,2.9652-3.8911,2.8107-2.3486-.1879-4.3477-1.2867-6.2624-2.5492-.4166-.2747-.6873-.2796-1.1034-.0035-1.6829,1.1171-3.4479,2.0715-5.4651,2.4539-.6806.129-1.3609.1646-2.0456.0311-1.9131-.3728-2.8384-1.9353-2.7127-3.8277.1373-2.0671.9726-3.9096,2.1102-5.5792.6473-.9501.6993-1.6087.0087-2.5729-1.0153-1.4175-1.7227-3.0295-2.0246-4.7777-.2369-1.3718-.1487-2.6764.8872-3.753.471-.4896,1.0787-.7202,1.7067-.915h1.9109c2.1676.4496,4.0853,1.45,5.889,2.6923.2527.1741.4187.0926.6259-.0476,1.7995-1.2179,3.6987-2.2174,5.8558-2.6447h1.8103ZM45.7525,10.7656c-.0052-.1807-.1266-.2599-.209-.3607-1.3412-1.6392-2.8316-3.1288-4.4659-4.4769-.2218-.183-.3659-.21-.5965-.0201-1.648,1.3572-3.1553,2.8525-4.509,4.5043-.1974.2408-.1922.4079.0074.6478,1.3437,1.6148,2.8187,3.0952,4.4344,4.4386.258.2145.4299.2193.6868.0085,1.6381-1.344,3.1289-2.8327,4.4652-4.4766.0728-.0896.1335-.189.1867-.265ZM33.6478,19.2678c1.8345-.1639,3.4403-1.0164,5.002-1.9825.2012-.1245.1373-.214-.0069-.3362-1.4724-1.2475-2.8327-2.6082-4.0817-4.0791-.1368-.1611-.2271-.2315-.3661-.0066-.9301,1.5046-1.7499,3.0549-1.9603,4.8475-.1147.9775.4105,1.5589,1.413,1.5569ZM33.7109,2.2207c-1.0812-.0548-1.5721.3923-1.4591,1.5666.1695,1.7608,1.0062,3.2732,1.9125,4.7491.1592.2593.2751.2069.4431.0054,1.1919-1.4289,2.5041-2.7401,3.9281-3.9369.2912-.2448.2408-.3812-.0573-.5432-.4406-.2394-.864-.5111-1.3095-.7404-1.0896-.5609-2.2064-1.0464-3.4578-1.1006ZM49.2607,17.8398c0-.1003.0101-.2018-.0015-.3008-.2017-1.7268-1.0241-3.1992-1.9094-4.6452-.1569-.2563-.2881-.1286-.4222.0295-1.2141,1.4317-2.5281,2.7641-3.9733,3.9637-.2006.1665-.2571.2819.0042.4428,1.4753.9084,2.9885,1.7474,4.7492,1.9127,1.246.117,1.6096-.4229,1.5531-1.4028ZM49.2621,3.6797c0-.1338.0077-.2682-.0013-.4014-.0452-.6662-.3773-1.0177-1.0456-1.0405-2.0376-.0693-3.6803.965-5.3388,1.945-.2241.1324-.0657.2493.0481.3459,1.4577,1.2375,2.8087,2.5818,4.0378,4.0467.2157.2571.3127.1173.4351-.0812.6161-.9999,1.1705-2.0304,1.5424-3.1483.1796-.5396.3403-1.087.3223-1.6661Z"/>
      </g>
    </g>
  </g>
</svg>