<?xml version="1.0" encoding="UTF-8"?>
<svg id="Capa_2" xmlns="http://www.w3.org/2000/svg" viewBox="0 0 44.7498 50.9275">
  <defs>
    <style>
      .cls-1 {
        fill: #fff;
      }
    </style>
  </defs>
  <g id="Capa_1-2" data-name="Capa_1">
    <g>
      <path class="cls-1" d="M14.9266,50.9275v-26.884h11.8317c.0324.5395.0872,1.0308.0875,1.5221.0054,7.6282.0361,15.2568-.0426,22.8842-.0086.8293-.6583,1.6519-1.0106,2.4777h-10.866Z"/>
      <path class="cls-1" d="M1.0045,50.9275c-.3337-.6171-.9531-1.232-.9579-1.8517C-.018,40.7825.0034,32.4885.0034,24.0625h6.0945v26.8649H1.0045Z"/>
      <path class="cls-1" d="M29.8674,50.9275v-5.9031c4.0523,0,7.9889-.005,11.9255.0111.2669.0011.561.1152.7952.2556,1.3608.8154,2.2974,4.2816,1.541,5.6364h-14.2617Z"/>
      <path class="cls-1" d="M8.8144,50.9275v-8.8283h3.0561v8.8283h-3.0561Z"/>
      <path class="cls-1" d="M17.1994,6.0015C20.8646,1.288,25.3744-.9007,31.1225.3441c5.5001,1.1911,8.8117,4.8081,10.197,10.1829.2619,1.0161.5006,1.523,1.6817,1.6059.6123.043,1.1675.9003,1.7485,1.3898-.6457.4885-1.2784,1.3783-1.9392,1.3997-4.0682.1317-8.1428.0674-12.2153.0683-1.0181.0002-2.0621-.1461-3.0493.0284-2.6106.4613-4.4533-.6582-5.9227-2.6383-.3147-.4241-.6459-.9608-.6657-1.4578-.0971-2.4324-1.2561-4.0412-3.7581-4.9214Z"/>
      <path class="cls-1" d="M41.6764,41.9556h-11.809c0-.6215,0-1.2169,0-1.8123,0-5.2065,0-10.4129,0-15.6194q0-3.5701-2.3702-6.3952h14.1793v23.827ZM39.3871,34.4411c-.9473-.7097-1.5431-1.4792-1.9642-1.3932-.5808.1186-1.307.8207-1.4355,1.3931-.0825.3677.78,1.3197,1.2513,1.3425.5532.0268,1.1414-.6697,2.1484-1.3424ZM37.3136,24.5605c.6673-1.0044,1.3431-1.5782,1.326-2.1306-.0147-.4745-.821-.9245-1.2772-1.3854-.4857.4904-1.2476.9226-1.3672,1.4902-.0908.431.6355,1.0343,1.3185,2.0258ZM37.2512,30.5489c.7169-.9646,1.461-1.5374,1.3883-1.9741-.0954-.5729-.8349-1.0385-1.2974-1.5503-.4797.4386-1.3138.8522-1.3469,1.3222-.039.553.6167,1.1549,1.2561,2.2022Z"/>
      <path class="cls-1" d="M25.9903,20.9077H.9497c2.3035-2.2998,4.3237-4.385,6.4247-6.3853,1.0244-.9752,1.7941-1.9187,1.6144-3.4797-.1465-1.2731.5352-1.9886,1.9272-1.9482,1.6929.0492,3.389.0432,5.0823.0021,1.3917-.0338,2.0513.6988,1.9143,1.9682-.1587,1.4699.4791,2.411,1.4848,3.3542,2.1358,2.0031,4.181,4.1027,6.5929,6.4887Z"/>
      <path class="cls-1" d="M9.0835,29.9781h2.7224v2.813h-2.7224v-2.813Z"/>
      <path class="cls-1" d="M11.8417,36.0228v2.8677h-2.7676v-2.8677h2.7676Z"/>
      <path class="cls-1" d="M9.0424,26.8429v-2.7307h2.78v2.7307h-2.78Z"/>
    </g>
  </g>
</svg>