<?xml version="1.0" encoding="UTF-8"?>
<svg id="Capa_2" xmlns="http://www.w3.org/2000/svg" viewBox="0 0 83.961 58.205">
  <defs>
    <style>
      .cls-1 {
        fill: #fff;
      }
    </style>
  </defs>
  <g id="Capa_1-2" data-name="Capa_1">
    <g>
      <g>
        <g>
          <path class="cls-1" d="M81.9717,26.4234c-1.2211-.3354-2.4342.1226-3.0769,1.2264-.2178.3741-.4722.4673-.8678.4638-1.7037-.0154-3.4077-.0066-5.1114-.0067-1.5147-.0001-1.745-.005-3.2595.0046.0177.6156.0193,1.2311.0032,1.8467h8.2466c.4855-.0029.7777.1229,1.0453.5596.6447,1.0518,1.8848,1.4866,3.0097,1.1444,1.1972-.3642,2.0329-1.4821,1.9991-2.6739-.0335-1.1799-.8687-2.2573-1.9883-2.5648ZM81.2397,29.9114c-.52.0102-.8985-.3619-.8951-.8798.0033-.4905.3671-.8624.8517-.8709.5056-.0088.9027.3828.8989.8865-.0037.4906-.364.8545-.8555.8642Z"/>
          <path class="cls-1" d="M64.5187,21.4165c.9538.0011,1.7618-.3104,2.4412-1.009,1.2802-1.3163,2.598-2.596,3.8853-3.9056.3687-.375.7683-.5738,1.3052-.5512.6993.0294,1.4013.0247,2.1009.0001.4027-.0141.6478.1086.8632.4758.519.8849,1.3429,1.3429,2.3614,1.3164,1.4172-.0368,2.449-1.0051,2.6679-2.4079.1831-1.1736-.5976-2.4366-1.7721-2.8669-1.2845-.4705-2.5947.002-3.3079,1.2359-.1818.3145-.3912.4082-.7266.3997-.6811-.0171-1.3649.0277-2.0441-.0122-1.1251-.066-2.0055.3594-2.7766,1.1592-1.2481,1.2946-2.5431,2.5437-3.8064,3.8238-.3269.3312-.6825.498-1.1563.4869-.8752-.0204-.352-.0207-1.2274-.0026.2562.6104.4846,1.2323.6876,1.8646.6345-.0002-.1301-.0081.5044-.0074ZM77.412,14.1554c.4949-.0091.8709.3345.894.8169.0235.4909-.3695.9189-.8552.931-.4607.0115-.8707-.3716-.8947-.8361-.0263-.5093.3426-.9024.8559-.9118Z"/>
          <path class="cls-1" d="M11.0454,28.1069c-1.7038.0001-3.4078-.0086-5.1114.0067-.3956.0035-.65-.0897-.8678-.4638-.6427-1.1038-1.8558-1.5618-3.0769-1.2264C.8697,26.7309.0345,27.8083.001,28.9882c-.0339,1.1919.8019,2.3098,1.9991,2.6739,1.1249.3422,2.365-.0926,3.0097-1.1444.2676-.4367.5598-.5625,1.0453-.5596h8.234v-1.8467c-1.5139-.0096-1.7294-.0048-3.2436-.0046ZM2.7213,29.9114c-.4916-.0097-.8519-.3736-.8555-.8642-.0038-.5037.3933-.8953.8989-.8865.4846.0085.8484.3804.8517.8709.0034.5179-.375.89-.8951.8798Z"/>
          <path class="cls-1" d="M19.4069,19.5618c-.4738.0111-.8294-.1557-1.1563-.4869-1.2633-1.2801-2.5583-2.5293-3.8064-3.8238-.771-.7998-1.6514-1.2252-2.7766-1.1592-.6792.0399-1.363-.0049-2.0441.0122-.3354.0084-.5447-.0852-.7266-.3997-.7131-1.234-2.0234-1.7064-3.3079-1.2359-1.1744.4302-1.9552,1.6933-1.7721,2.8669.2189,1.4028,1.2507,2.3711,2.6679,2.4079,1.0185.0265,1.8424-.4315,2.3614-1.3164.2154-.3672.4605-.49.8632-.4758.6996.0246,1.4016.0292,2.1009-.0001.5369-.0226.9365.1762,1.3052.5512,1.2873,1.3095,2.6051,2.5893,3.8853,3.9056.6794.6986,1.4875,1.0101,2.4412,1.009.6236-.0007-.0956.007.528.0074.2046-.6323.4345-1.2542.6907-1.8651-.8655-.0174-.3888-.0172-1.2541.0029ZM6.5103,15.9033c-.4856-.0121-.8787-.4401-.8552-.931.0231-.4825.399-.826.894-.8169.5133.0095.8822.4025.8559.9118-.024.4644-.434.8476-.8947.8361Z"/>
        </g>
        <g>
          <path class="cls-1" d="M70.3298,28.1146c.246-.0026.4921-.0015.7382-.0031-.0207-.7156-.0624-1.4312-.1286-2.1469-.139-1.5025-1.0681-2.3534-2.5902-2.3637-.6057-.0041-1.2126-.0221-1.817.006-.4293.02-.6572-.1227-.7623-.5574-.1329-.55-.2873-1.0913-.4587-1.6256-.4446.0001-.8891-.0029-1.3332-.0181l.3761-1.8432c.0898-.0023.1796-.0015.2695-.0034-.4611-1.0982-1.0071-2.161-1.6377-3.1875-.1919-.3124-.1223-.4978.1185-.7263.5216-.495,1.0293-1.0056,1.5262-1.5256.8868-.9279.9716-2.0713.1867-3.0885-1.3941-1.8067-2.9997-3.4111-4.805-4.807-1.0163-.7859-2.1648-.7056-3.0891.177-.5202.4966-1.0312,1.004-1.5243,1.5274-.2326.2469-.4307.3017-.7334.1169-2.0989-1.281-4.346-2.2135-6.7339-2.7988-.3887-.0953-.5117-.3072-.4998-.6877.0207-.6619.0128-1.3251.0029-1.9875-.0196-1.3186-.7841-2.1996-2.0831-2.4399-.3725-.0689-.7605.0151-1.1219-.1317h-4.5436c-.3611.1468-.7488.0628-1.1209.1316-1.2977.2397-2.0639,1.1207-2.0839,2.4359-.01.6618-.017,1.3244.0026,1.9858.0111.3757-.1002.5952-.4931.6916-2.4044.5897-4.6663,1.5295-6.7772,2.824-.2595.1592-.4306.1299-.6365-.0849-.5103-.5324-1.0328-1.0537-1.5649-1.5644-.9447-.9069-2.0948-.9853-3.1307-.18-1.7848,1.3875-3.3747,2.9776-4.7625,4.7622-.8057,1.0361-.7278,2.1865.1788,3.1311.5106.5321,1.0321,1.0545,1.5644,1.5649.2143.2055.2455.3763.086.6364-.6369,1.0386-1.187,2.1141-1.6528,3.2247.0997.0021.1994.0012.299.0038l.3761,1.8432c-.455.0155-.9104.0185-1.3659.0181-.1796.5545-.3407,1.1166-.4807,1.6873-.0962.3923-.3146.5061-.691.4939-.6235-.0202-1.2482-.0086-1.8723-.0042-1.5375.0109-2.4703.8866-2.5881,2.423-.0201.2624.0144.5316-.0937.7835v1.304c.2466.0016.4932.0004.7397.0031l.0987,1.8436h-.8384v1.3929c.1081.2521.0736.5215.0937.7841.1182,1.5379,1.0509,2.4118,2.5922,2.4225.6057.0042,1.2125.0217,1.817-.0059.4277-.0195.6583.1186.7639.5552.5733,2.3721,1.5065,4.5991,2.7834,6.678.1909.3107.1267.497-.1157.7267-.5221.4945-1.0293,1.0056-1.5263,1.5254-.8874.9281-.9735,2.0715-.1893,3.0883,1.3937,1.8071,2.9993,3.4116,4.8044,4.8075,1.0354.8007,2.1779.7066,3.1306-.2134.5038-.4864,1.0035-.9783,1.4832-1.4882.2312-.2458.4287-.3052.733-.1194,2.0988,1.281,4.3457,2.214,6.7338,2.7993.3873.0949.5149.3043.5017.6862-.0215.6239-.0088,1.2492-.0045,1.874.0103,1.5219.8616,2.4506,2.3646,2.5894,2.0777.192,4.1551.1928,6.2328-.0006,1.502-.1398,2.3495-1.0692,2.3594-2.594.004-.6247.0177-1.2501-.0047-1.874-.0139-.3856.1231-.5884.5067-.6826,2.3877-.5863,4.6355-1.5168,6.7319-2.8028.2745-.1684.4586-.1572.6845.0817.5072.5361,1.032,1.0564,1.5658,1.5663.9263.8848,2.0718.967,3.0889.1813,1.8059-1.3951,3.4109-3.0001,4.8058-4.8061.7856-1.0172.7028-2.1619-.1824-3.0889-.4967-.5202-1.005-1.0301-1.526-1.5258-.2383-.2268-.3168-.4107-.1228-.7256,1.29-2.094,2.2179-4.3432,2.8043-6.7309.0944-.3843.2984-.5196.6833-.5059.6239.0222,1.2492.0087,1.874.0046,1.5242-.01,2.4536-.8583,2.5932-2.3603.0694-.7464.1128-1.4928.1323-2.2392h-.8401l.0987-1.8436ZM69.0908,32.0703c-.0471.4552-.2514.6322-.6895.6283-.9464-.0085-1.893-.0078-2.8394.0016-.8677.0085-1.1621.2259-1.3397,1.0737-.5853,2.7935-1.675,5.373-3.219,7.7686-.4534.7034-.4121,1.0137.1675,1.6023.664.6744,1.3262,1.3513,2.0105,2.0048.3558.3398.3899.6387.0734,1.026-1.262,1.5446-2.6622,2.9473-4.2095,4.2061-.3587.2918-.6525.2962-.9837-.0475-.6698-.695-1.3579-1.3726-2.046-2.0496-.5723-.5631-.8908-.6118-1.5549-.1833-2.411,1.5554-5.0058,2.6566-7.8187,3.2453-.8414.1761-1.0551.4734-1.0633,1.3477-.0084.8896-.021,1.7799.0041,2.6688.0155.5522-.1503.8094-.7573.8659-1.9466.181-3.8855.1826-5.8299-.0134-.4818-.0486-.6643-.2561-.6583-.7209.0122-.9463.0101-1.893-.0009-2.8393-.0097-.8341-.2292-1.1333-1.0452-1.3042-2.8125-.5891-5.4097-1.6847-7.8203-3.2411-.6677-.431-.9958-.3887-1.5578.1625-.6757.6627-1.3534,1.3242-2.0046,2.0106-.3557.3749-.6629.4107-1.0702.0759-1.526-1.2544-2.9154-2.6409-4.1662-4.1699-.3096-.3784-.3129-.68.0508-1.0276.6977-.667,1.3741-1.3564,2.05-2.0456.5391-.5498.5891-.874.178-1.5101-1.5682-2.4261-2.6748-5.0386-3.2675-7.8703-.1697-.8112-.4699-1.0255-1.3122-1.035-.8896-.0099-1.7793,0-2.669-.004-.7533-.0033-.7986-.0463-.8814-.7798-.2191-1.943-.1965-3.8845.0045-5.8284.0471-.4551.2514-.6322.6895-.6283.9464.0085,1.8929.0078,2.8394-.0015.8676-.0086,1.1621-.2259,1.3397-1.0737.5853-2.7935,1.675-5.3731,3.219-7.7686.4533-.7034.412-1.0137-.1675-1.6023-.664-.6744-1.3265-1.351-2.0104-2.0049-.3552-.3396-.3901-.6387-.0734-1.0263,1.2621-1.5445,2.6623-2.9473,4.2096-4.206.359-.292.6527-.2953.9837.0481.6698.6951,1.3578,1.3726,2.046,2.0496.5722.5629.8909.6113,1.5549.1829,2.4109-1.5555,5.0058-2.6565,7.8186-3.2453.8413-.1761,1.055-.4734,1.0631-1.348.0083-.8896.021-1.7798-.0041-2.6688-.0156-.5526.1509-.8092.7576-.8656,1.9465-.1811,3.8854-.1825,5.8298.0134.482.0486.6708.2565.6574.7213-.0143.4918-.0032.9842-.0032,1.4764.0017.4166-.0012.8332.0023,1.2497.0083.9736.2107,1.2432,1.1585,1.4447,2.4094.5121,4.6715,1.3962,6.7899,2.6506.3094.1832.6113.3787.9186.5656.6857.4171.993.3902,1.5589-.1652.6755-.6629,1.3565-1.3215,2.0037-2.0114.386-.4116.7045-.3791,1.1154-.0395,1.4932,1.2341,2.8533,2.5961,4.0878,4.0889.3455.4178.3492.7348-.0555,1.1147-.6898.6474-1.3495,1.3273-2.0123,2.0029-.5369.5473-.5872.8764-.1771,1.5109,1.5682,2.426,2.675,5.0385,3.2676,7.8703.1698.8114.4699,1.0258,1.3119,1.0353.8896.01,1.7793.0001,2.669.0041.7529.0033.7991.047.8818.7798.2193,1.943.1965,3.8844-.0045,5.8284Z"/>
          <path class="cls-1" d="M71.068,28.1115c-.2461.0016-.4922.0004-.7382.0031l-.0987,1.8436h.8401c.0161-.6156.0145-1.2311-.0032-1.8467Z"/>
          <path class="cls-1" d="M63.9779,21.4058c.4441.0151.8886.0182,1.3332.0181-.2029-.6324-.4313-1.2543-.6876-1.8646-.0899.0019-.1797.0011-.2695.0034l-.3761,1.8432Z"/>
          <path class="cls-1" d="M13.6184,28.1146c-.2466-.0026-.4932-.0015-.7397-.0031v1.8467h.8384l-.0987-1.8436Z"/>
          <path class="cls-1" d="M19.5942,19.5626c-.0997-.0026-.1994-.0017-.299-.0038-.2562.6109-.4861,1.2328-.6907,1.8651.4554.0004.9109-.0026,1.3659-.0181l-.3761-1.8432Z"/>
          <path class="cls-1" d="M27.9465,20.7175c2.8481-4.7869,8.0717-8.0027,14.0346-8.0027,7.2346,0,13.3812,4.7332,15.5153,11.2644.5274.2475.9513.695,1.1549,1.2684.0654.1843.0992.373.1148.5616.0367-.0004.0711-.0043.1081-.0043.4208,0,.8398.0279,1.2538.0776-1.501-8.6603-9.0643-15.2692-18.1469-15.2692-7.1795,0-13.4085,4.1308-16.4469,10.138.2297-.0199.4651-.0339.7133-.0339h1.699Z"/>
          <path class="cls-1" d="M56.1242,37.2444c-.0137-.003-.0257-.0069-.0394-.0099-2.8318,4.8526-8.0915,8.1228-14.1037,8.1228-5.9084,0-11.0934-3.1558-13.9583-7.8702h-1.7753c-.2183,0-.4316-.0107-.642-.0273,3.0638,5.9318,9.2517,9.9989,16.3757,9.9989,7.1131,0,13.2931-4.0548,16.3618-9.9719-.7427-.0015-1.488-.0824-2.2154-.2419-.0012,0-.0022-.0003-.0034-.0006Z"/>
        </g>
      </g>
      <g>
        <path class="cls-1" d="M38.8109,22.9453c-.0097,0-.0193-.0005-.0289-.0005h-6.1894v8.4804h2.7959v-5.878h2.0637c1.1395,0,2.6597.2531,2.6597,3.6724s-1.7097,3.4113-2.7862,3.4113h-10.1594c-.7972,0-1.3882-.3005-1.7721-.9016-.3844-.6015-.5762-1.4768-.5762-2.6271,0-1.1389.1919-2.0118.5762-2.6183.3839-.6065.9749-.9103,1.7721-.9103h4.0988v-2.6288h-4.7986c-1.5269,0-2.6913.5304-3.4935,1.5913-.8022,1.0602-1.2034,2.5824-1.2034,4.5662s.4035,3.5069,1.2108,4.5668c.8069,1.0608,1.9688,1.5907,3.486,1.5907h11.8723c1.5194,0,4.8124-.5308,4.8124-5.8499,0-1.6504-.2076-2.8985-.5597-3.8358h3.2681v9.6861h2.7965v-9.6861h3.3764v-2.6288h-13.2216Z"/>
        <g>
          <path class="cls-1" d="M54.0303,25.9924h2.741l-2.5117,2.0397h-1.9121l1.6828-2.0397Z"/>
          <path class="cls-1" d="M56.8234,35.0693c-.5779-.1276-1.0447-.2936-1.4016-.498l.7895-1.8996c.3237.1961.7055.3486,1.1475.4596.442.11.8715.166,1.2875.166.332,0,.5634-.028.6951-.083.1318-.056.1982-.138.1982-.249,0-.11-.083-.1867-.249-.2293s-.4357-.0851-.8092-.1276c-.5696-.0674-1.0541-.1546-1.4535-.2614-.3994-.1058-.7501-.3123-1.052-.6183-.3019-.3061-.4523-.7439-.4523-1.3134,0-.4503.1359-.8538.4077-1.2107.2718-.3569.6775-.6412,1.218-.8538.5395-.2127,1.1869-.3185,1.9442-.3185.526,0,1.0427.0488,1.549.1463.5053.0975.9368.2397,1.2937.4274l-.7906,1.8986c-.6121-.3393-1.2834-.5094-2.0148-.5094-.6287,0-.9431.11-.9431.331,0,.111.0851.1899.2552.2365s.4378.0913.803.1338c.5696.0674,1.052.1567,1.4473.2677.3953.11.7428.3185,1.0447.6246s.4534.7439.4534,1.3134c0,.4326-.1369.8279-.4088,1.1848s-.6795.6422-1.2232.8549c-.5447.2116-1.2035.3185-1.9764.3185-.5945,0-1.1817-.0643-1.7596-.1909Z"/>
        </g>
      </g>
    </g>
  </g>
</svg>