<?xml version="1.0" encoding="UTF-8"?>
<svg id="Capa_2" xmlns="http://www.w3.org/2000/svg" viewBox="0 0 56.4733 56.4795">
  <defs>
    <style>
      .cls-1 {
        fill: #fff;
      }
    </style>
  </defs>
  <g id="Capa_1-2" data-name="Capa_1">
    <g id="kJ2z0H.tif">
      <g>
        <path class="cls-1" d="M56.4733,11.0495c-.5511,1.5526-1.6515,2.2449-3.2924,2.1652-.9178-.0446-1.8396.001-2.7594-.0116-.3442-.0047-.4801.1136-.4963.4736-.059,1.3091-.0707,1.3308,1.2242,1.3174.5119-.0053.6881.1512.6722.67-.0469,1.5283.1764,1.2922-1.3186,1.3004-2.4857.0136-4.9717-.0117-7.4573.0151-.5659.0061-.7484-.1662-.7301-.7321.0472-1.464-.137-1.2354,1.264-1.2322.4857.0011.6503-.1483.636-.637-.0395-1.3522.1399-1.1572-1.1472-1.1701-.8611-.0086-1.7225.0053-2.5836-.0042-1.6405-.0181-2.8495-1.2236-2.857-2.8673-.0108-2.3683-.0037-4.7367-.0033-7.1051.0003-1.7695.5161-2.5413,2.157-3.2317h14.5759c1.0637.3469,1.7669,1.0543,2.1159,2.1159v8.9336ZM47.0253,7.4815c2.3103,0,4.6207-.0104,6.9308.0087.4651.0038.6127-.1494.6035-.6088-.0251-1.2525-.0008-2.506-.0122-3.7589-.0076-.8362-.3528-1.1944-1.1785-1.1959-4.1898-.0075-8.3797-.0071-12.5695-.0008-.8613.0013-1.202.3539-1.2086,1.2257-.0093,1.2334.0159,2.4673-.012,3.7001-.011.484.1425.6441.6332.6394,2.2709-.0215,4.5422-.0095,6.8133-.0096ZM47.129,9.4453c-2.3102,0-4.6206.013-6.9306-.0102-.5068-.0051-.6433.18-.6163.6512.0467.8161.3909,1.1539,1.2897,1.1548,4.131.0038,8.262.0015,12.393.0021.236,0,.4693-.0063.6913-.1029.4568-.1986.7321-.8325.5844-1.4042-.1276-.4941-.5466-.2786-.8334-.281-2.1926-.0183-4.3854-.01-6.5782-.0099ZM47.0689,13.2067q-.8976,0-.8985.8261-.001.9716.8702.972.9277.0004.9279-.9143.0001-.8838-.8995-.8838Z"/>
        <path class="cls-1" d="M56.4733,54.307c-.5512,1.5529-1.6521,2.1898-3.2928,2.1721-4.1496-.0449-8.3-.0133-12.4501-.0157-1.9521-.0011-3.1011-1.149-3.1057-3.094-.0012-.5285.0064-1.0572-.0003-1.5856-.0055-.4348.1622-.787.5618-.9463.3516-.1401.3831-.3774.3819-.6911-.0071-1.9184-.006-3.8369-.0026-5.7553.0033-1.8772,1.1648-3.0524,3.0257-3.0543,3.6607-.0037,7.3214-.0042,10.9821.0003,1.8254.0022,2.9951,1.1834,2.9997,3.0216.0045,1.801.0133,3.6021-.0063,5.4029-.0058.5295-.0248,1.0125.6032,1.2177.1181.0386.2031.1785.3033.2716v3.0562ZM47.0176,50.7391c1.997,0,3.9942-.0113,5.991.0085.4571.0045.6169-.1311.6112-.6015-.0226-1.8597-.0046-3.7199-.0115-5.5798-.0034-.9324-.3416-1.2642-1.2892-1.2653-3.5046-.0042-7.0092-.0044-10.5138.0002-.9411.0013-1.2718.3352-1.275,1.2789-.0061,1.8404.0166,3.6811-.0138,5.521-.009.5407.1935.6537.6862.6478,1.938-.0234,3.8765-.0096,5.8148-.0097ZM47.1283,52.7029c-2.3102,0-4.6205.0089-6.9306-.0077-.4438-.0032-.64.1053-.6185.5909.0374.8416.3682,1.2103,1.2348,1.2115,4.1702.0058,8.3403.0024,12.5105.0032.2171,0,.4298-.0155.6324-.1033.4568-.1979.732-.8337.5836-1.4045-.1283-.4935-.5472-.2779-.834-.2803-2.1926-.0183-4.3854-.01-6.5782-.0099Z"/>
        <path class="cls-1" d="M11.4525,0c1.1959.3175,2.2695.8518,3.1261,1.7684.1681.1799.3605.1743.5907.1394,2.5388-.3845,4.641.8978,5.4289,3.3306.1069.33.2813.4567.5877.5535,2.0774.6564,3.4954,2.5857,3.4194,4.6212-.0847,2.2676-1.5717,4.0682-3.7785,4.5892-.3295.0778-.6597.0835-.992.0836-4.721.0014-9.4421.0083-14.1631-.0018-2.9095-.0062-5.3092-2.1684-5.6355-5.0469-.3212-2.8336,1.5281-5.4952,4.3232-6.1603.4716-.1122.7299-.3222.9358-.7512.8201-1.709,2.2506-2.657,4.0415-3.1255h2.1159ZM12.6848,13.1229c2.3094,0,4.619.0158,6.9282-.0053,1.6692-.0153,2.8329-1.0912,2.9494-2.6656.1021-1.3798-.9499-2.5785-2.5003-2.849-1.0628-.1855-1.0978-.221-1.2916-1.3154-.347-1.9594-1.9575-2.8899-3.8318-2.2139-.6954.2508-1.0181.1529-1.4586-.4542-.936-1.2898-2.1845-1.8724-3.7666-1.5863-1.5137.2737-2.447,1.22-2.894,2.6736-.2462.8007-.3987.9175-1.2342.9818-2.5022.1923-4.1091,2.4904-3.3814,4.836.4926,1.5877,1.9339,2.5872,3.7875,2.5965,2.2311.0112,4.4623.0027,6.6934.0019Z"/>
        <path class="cls-1" d="M37.7068,30.1241c0,3.642.0012,7.284-.0007,10.9259-.0005,1.0089-.292,1.3072-1.2826,1.3075-5.4434.0018-10.8868.0018-16.3302,0-.9699-.0003-1.2752-.2996-1.2755-1.2545-.0019-7.3427-.0019-14.6854,0-22.0281.0002-.9311.3085-1.2469,1.2225-1.2473,5.4825-.0026,10.9651-.0027,16.4476,0,.9088.0005,1.2169.3196,1.2175,1.2531.0026,3.6811.0011,7.3623.0011,11.0434ZM28.3207,19.7896c-2.3117,0-4.6235.0096-6.9351-.0082-.453-.0035-.6231.1233-.6147.5987.0261,1.4688.0228,2.9386.0016,4.4077-.0064.4443.1571.5691.5836.568,4.6038-.0112,9.2077-.0138,13.8115.0028.4946.0018.5885-.1966.5829-.6295-.0186-1.4299-.0284-2.8607.0042-4.29.012-.5275-.1681-.6651-.6753-.6598-2.2527.0237-4.5058.0103-6.7587.0104ZM28.203,32.8718c2.3117,0,4.6235-.0095,6.9351.0082.4529.0035.6232-.1232.6147-.5986-.0261-1.4689-.0228-2.9386-.0016-4.4077.0064-.4442-.157-.5691-.5835-.5681-4.6038.0112-9.2077.0138-13.8115-.0028-.4945-.0018-.5886.1965-.5829.6294.0186,1.4299.0284,2.8607-.0042,4.29-.012.5274.168.6651.6752.6598,2.2527-.0237,4.5058-.0103,6.7587-.0104ZM28.2618,34.8357c-2.2921,0-4.5843.0096-6.8763-.0082-.4532-.0035-.623.1235-.6146.5988.026,1.4689.0228,2.9386.0016,4.4077-.0064.4444.1573.569.5837.5679,4.6038-.0112,9.2077-.0138,13.8115.0028.4947.0018.5884-.1969.5828-.6296-.0186-1.4299-.0284-2.8607.0042-4.29.012-.5276-.1684-.6649-.6754-.6597-2.2723.0235-4.545.0102-6.8175.0104Z"/>
        <path class="cls-1" d="M8.5152,56.4637c-1.8602,0-3.7205.0064-5.5807-.0019-1.7169-.0076-2.9196-1.2064-2.9228-2.9219-.0069-3.7205-.0069-7.441,0-11.1614.0032-1.7165,1.2051-2.916,2.9222-2.9213,2.4672-.0077,4.9345-.0078,7.4018,0,1.7153.0055,2.9031,1.2042,2.921,2.9252q.0086.8261.8315.8342c1.7221.017,2.9219,1.203,2.9278,2.9183.0084,2.4672.0082,4.9345.0002,7.4018-.0056,1.718-1.2045,2.9173-2.9201,2.9251-1.8602.0084-3.7205.0019-5.5807.0019ZM1.9734,47.9498c0,1.7808-.0063,3.5616.0028,5.3424.0042.8178.3409,1.191,1.111,1.2014,1.3696.0185,2.7396.0011,4.1094.0103.3055.002.3747-.0898.3715-.4116-.0272-2.7392-.0458-5.4788-.0231-8.218.0113-1.3577,1.1848-2.5419,2.5292-2.6465.2726-.0212.5477-.0161.8215-.0122.2655.0038.3748-.1101.4011-.3821.0902-.9323-.3165-1.4099-1.2637-1.4128-2.2504-.0067-4.5009-.0054-6.7514-.0009-.9794.002-1.3047.3273-1.3076,1.305-.0052,1.7416-.0015,3.4833-.0009,5.225ZM9.4968,49.8098c0,1.1733-.0098,2.3467.0034,3.5199.009.7991.3573,1.1546,1.1461,1.1659,1.0753.0154,2.1511.0137,3.2265.001.8243-.0098,1.1748-.3609,1.1781-1.1945.0092-2.3075.0091-4.6151,0-6.9225-.0033-.8349-.3526-1.1856-1.1765-1.1956-1.0558-.0128-2.112-.0114-3.1679-.0009-.8604.0086-1.2009.3542-1.2081,1.2241-.0094,1.1341-.0023,2.2684-.0017,3.4026Z"/>
        <path class="cls-1" d="M8.4729,21.3712c.0002-1.2911.0131-2.5824-.0069-3.8732-.0069-.4448.1243-.6316.5985-.6196,1.6314.0413,1.3529-.1886,1.3674,1.3656.0172,1.8387.0218,3.6779-.007,5.5163-.0083.5267.1685.6661.6748.6585,1.7602-.0265,3.5212.0029,5.2815-.0181.4774-.0057.658.1417.645.6336-.0416,1.5769.1801,1.3224-1.3409,1.334-1.9952.0152-3.9906.0065-5.9859.0021-.9147-.002-1.2223-.3164-1.2254-1.2433-.0042-1.252-.001-2.5039-.0008-3.7559Z"/>
        <path class="cls-1" d="M48.0508,35.0538c-.0003,1.2911-.0136,2.5824.007,3.8732.0071.4478-.1291.6289-.6008.6175-1.6191-.0391-1.3524.1764-1.3654-1.309-.0163-1.8582-.0218-3.717.0073-5.5749.0083-.5296-.1736-.6637-.677-.6563-1.7602.026-3.5212-.0032-5.2815.018-.4798.0058-.6553-.1465-.6429-.6358.0399-1.563-.1688-1.3217,1.2844-1.332,1.9952-.0141,3.9906-.0054,5.9859-.0026.9912.0014,1.2803.297,1.2825,1.3047.0027,1.2324.0006,2.4648.0004,3.6972Z"/>
        <path class="cls-1" d="M43.5146,26.3713c-1.1539-.0007-2.308-.0111-3.4617.0051-.3998.0056-.5593-.1331-.5519-.5433.0308-1.7122-.1927-1.4002,1.3677-1.4204,1.4862-.0192,2.9727-.0034,4.4591-.0044q.7582-.0005.7597-.7859c.0009-1.4082.0163-2.8166-.0079-4.2243-.0083-.4841.1544-.6514.6394-.639,1.559.0396,1.316-.1693,1.3288,1.2872.0143,1.6232.0039,3.2466.0031,4.8699-.0006,1.2276-.2332,1.4551-1.4853,1.4558-1.017.0006-2.034.0001-3.051-.0005Z"/>
        <path class="cls-1" d="M13.0398,30.0514c1.1344.0004,2.2691.0134,3.4031-.0063.4282-.0074.5897.1411.581.5757-.0335,1.6583.1827,1.3719-1.3413,1.3898-1.4667.0172-2.9338.0034-4.4007.0038q-.8453.0002-.8458.8762c-.0005,1.3887-.0151,2.7776.0074,4.1659.0075.4631-.1552.6171-.6118.6063-1.6037-.0377-1.3411.1812-1.3554-1.3181-.0159-1.6624-.0054-3.325-.0029-4.9875.0015-1.0091.2897-1.3027,1.2806-1.3056,1.0953-.0032,2.1906-.0007,3.2859-.0004Z"/>
        <path class="cls-1" d="M23.6066,23.5509q-1.0286.0003-1.0284-.9936.0002-.97.9936-.9698.97.0002.9698.9936-.0002.9696-.935.9699Z"/>
        <path class="cls-1" d="M29.2437,22.5192q.0005,1.0318-.9904,1.0317-.9733-.0001-.9731-.9903.0001-.9732.9903-.9731.9728.0001.9732.9317Z"/>
        <path class="cls-1" d="M31.9821,22.5265q.0005-.9397,1.0243-.939.9397.0006.9391,1.0243-.0006.9408-1.0829.9391-.881-.0014-.8805-1.0243Z"/>
        <path class="cls-1" d="M28.231,31.0739c-.9513-.0004-.9542-.0004-.95-1.0126.0043-1.0616-.076-.9435,1.0705-.9496.8936-.0047.8936,0,.8921,1.0701q-.0012.8925-1.0126.8921Z"/>
        <path class="cls-1" d="M33.9456,30.0422q.0005,1.0318-.9904,1.0317-.9732-.0001-.9731-.9903.0001-.9732.9903-.9731.9728.0001.9732.9317Z"/>
        <path class="cls-1" d="M24.5418,30.097q-.0002.977-.9867.9769-.9779,0-.9769-1.0451.0009-.9193,1.0451-.9183.9188.0009.9185.9865Z"/>
        <path class="cls-1" d="M23.5212,38.597q-.9435-.0005-.9429-1.0205.0005-.9434,1.0205-.9429.9445.0005.9428,1.0792-.0013.8848-1.0204.8842Z"/>
        <path class="cls-1" d="M29.2436,37.6349c-.0004.9623-.0004.965-1.0014.9613-1.0723-.004-.9551.0744-.9609-1.0592-.0046-.9047,0-.9047,1.0588-.9034q.9038.0011.9034,1.0014Z"/>
        <path class="cls-1" d="M32.9329,38.597c-.9513-.0004-.9541-.0004-.95-1.0126.0043-1.0616-.0759-.9435,1.0705-.9496.8936-.0047.8936,0,.8921,1.0701q-.0012.8925-1.0126.8921Z"/>
      </g>
    </g>
  </g>
</svg>