<?xml version="1.0" encoding="UTF-8"?>
<svg id="Capa_2" xmlns="http://www.w3.org/2000/svg" viewBox="0 0 65.4106 44.6699">
  <defs>
    <style>
      .cls-1 {
        fill: #fff;
      }
    </style>
  </defs>
  <g id="Capa_1-2" data-name="Capa_1">
    <g>
      <path class="cls-1" d="M57.0461,19.2548c0,1.632-.0032,3.264.0009,4.8959.0041,1.6738-.1302,1.6206,1.467.9512,2.1573-.9041,4.2788-1.883,5.8864-3.6688,1.311-1.4563,1.3059-2.9048-.0001-4.3653-.45-.5032-.9483-.9549-1.5014-1.3466-1.5555-1.1016-3.2689-1.8947-5.036-2.5821-.7644-.2973-.812-.2625-.8147.598-.0057,1.8392-.0018,3.6784-.0021,5.5176Z"/>
      <path class="cls-1" d="M56.0861,0c.4358.1637.8952.283,1.3033.4989,1.6577.8771,2.4349,2.7947,1.8883,4.5803-.5709,1.865-2.2379,2.9392-4.2678,2.7499-1.7178-.1601-3.1237-1.5715-3.3595-3.3725-.2434-1.8593.8307-3.593,2.6093-4.2098.2443-.0847.4902-.1647.7354-.2468.3637,0,.7273,0,1.091,0ZM55.5764,4.7993c.5086-.0466.8068-.3392.7762-.899-.0288-.5268-.3434-.7822-.8617-.7666-.5688.0171-.8497.3563-.8234.8939.0249.5098.3416.7785.9089.7716Z"/>
      <path class="cls-1" d="M31.3538,27.9822c0,.9862.0112,1.7532-.0028,2.5197-.0181.9952-.4515,1.4816-1.4074,1.6457-.4989.0857-.9817-.0571-1.4735-.0666-4.998-.0963-9.9208-.7859-14.7977-1.8565-4.6646-1.024-9.2141-2.329-13.1464-5.1965-.4771-.3479-.5031-.0477-.503.3236.0006,1.5312.0587,3.0653-.0171,4.5928-.0757,1.5249.5852,2.6439,1.6742,3.5905.5691.4947,1.1843.9265,1.8323,1.315,2.3591,1.4144,4.9272,2.3163,7.5548,3.061,6.054,1.7157,12.2653,2.3446,18.5238,2.6285,1.2066.0547,1.7458.5838,1.7616,1.7887.0097.7407.0018,1.4816.0018,2.3419.2249-.157.3301-.221.4249-.2979,3.0657-2.4838,6.1185-4.9836,9.2057-7.4404.573-.456.6376-.6808.0273-1.1619-2.283-1.7996-4.5237-3.6526-6.7829-5.4823-.8983-.7275-1.8036-1.4464-2.8757-2.3053Z"/>
      <path class="cls-1" d="M8.3699,19.308c0-1.8417.0032-3.6835-.0013-5.5252-.0023-.9292-.0297-.9396-.9228-.6016-1.1672.4417-2.2938.9711-3.3866,1.5705-1.1898.6526-2.2972,1.419-3.1778,2.4696-1.1245,1.3416-1.1225,2.7407.0096,4.0807.4703.5566,1.0074,1.0444,1.6027,1.4688,1.5771,1.1242,3.3333,1.8904,5.12,2.6052.6041.2417.774.0832.7652-.5429-.0259-1.8414-.0092-3.6833-.009-5.525Z"/>
      <path class="cls-1" d="M33.5622,5.6841c.9853,0,1.9748-.0569,2.9546.0165.9219.0691,1.3902.6357,1.3882,1.4684-.002.8303-.472,1.3717-1.3961,1.47-1.6555.1762-3.32.0433-4.9803.0732-1.0689.0193-1.1059.0445-1.1091,1.0861-.0026.8304.038,1.6631-.0123,2.4904-.0426.7005.1779.9862.9138.9485,1.0099-.0518,2.0247-.0241,3.037-.0094,2.2495.0328,3.6465,1.4227,3.6733,3.6559.0137,1.1416.0155,2.2837-.0006,3.4253-.0302,2.1411-1.4456,3.539-3.5966,3.5581-1.1942.0106-2.3889.0179-3.5829-.0028-2.0088-.0348-3.4456-1.4408-3.46-3.4504-.0267-3.7365-.0232-7.4735-.002-11.2101.0114-2.0003,1.2251-3.3339,3.2176-3.5081.978-.0855,1.9696-.0148,2.9551-.0148.0001.001.0002.002.0003.003ZM32.7031,16.2538c-.5444,0-1.0894.0158-1.6331-.0049-.4557-.0173-.6638.148-.6554.6271.0191,1.0879.0167,2.1765.002,3.2646-.0068.4994.2126.699.7022.6928,1.0627-.0134,2.1259-.0138,3.1886-.0002.4978.0064.6994-.2116.6922-.7029-.0147-1.0103-.023-2.0214.0031-3.0313.0169-.6528-.2868-.8813-.8999-.8503-.4655.0235-.9331.0047-1.3997.0051Z"/>
      <path class="cls-1" d="M51.2661,15.1828c-.0792,1.441.163,3.2639-.1114,5.0687-.3114,2.0483-2.0134,3.533-4.0836,3.6102-.6223.0232-1.2462.0111-1.8693.0067-2.6306-.0185-4.4883-1.7756-4.5354-4.4204-.0555-3.1131-.0547-6.2287.0006-9.3417.0453-2.5493,1.578-4.1445,4.1037-4.4379,1.0133-.1177,2.0278-.0784,3.0275.0827,2.0333.3278,3.422,2.1257,3.4629,4.4666.0267,1.5306.005,3.0621.005,4.9652ZM48.2667,14.822c-.0011,0-.0023,0-.0034,0,0-1.5812.0158-3.1627-.0063-4.7436-.012-.8568-.4496-1.2759-1.3068-1.3062-.5958-.021-1.1932-.0173-1.7894-.0032-.92.0217-1.444.4413-1.4555,1.3646-.0393,3.1359-.0383,6.2729-.0041,9.4089.0099.907.483,1.2959,1.3878,1.3298.5698.0214,1.1413.0177,1.7115.0046,1.0647-.0244,1.453-.4048,1.4627-1.4667.014-1.5293.0036-3.0588.0036-4.5882Z"/>
      <path class="cls-1" d="M24.6537,14.7701c.0002,1.8682.0094,3.7364-.0022,5.6045-.0126,2.0273-1.3845,3.4491-3.4022,3.4858-1.7907.0326-3.5826.0179-5.3738.0042-1.0914-.0084-1.7748-.6319-1.7536-1.5523.0204-.8855.6919-1.4678,1.7484-1.4761,1.6355-.0128,3.2716-.0275,4.9064.0063.694.0144,1.0023-.2069.9721-.9335-.0397-.9584-.0433-1.9213.0024-2.8791.0305-.6393-.2293-.7978-.8213-.7875-1.687.0294-3.3748.015-5.0622.0078-1.0858-.0046-1.7204-.542-1.7453-1.4543-.0242-.8852.6288-1.5334,1.6799-1.5565,1.6348-.036,3.2717-.0439,4.906-.0012.7315.0191.9576-.251.9231-.9504-.046-.9318-.0311-1.8681-.0056-2.8015.0158-.577-.2336-.7826-.7899-.776-1.4277.017-2.8557.0104-4.2835-.0002-.3878-.0029-.7803-.0237-1.1618-.0885-.7811-.1328-1.2611-.6965-1.27-1.438-.0093-.7772.4778-1.3579,1.3103-1.4783.5107-.0738,1.0344-.0918,1.5514-.0832,1.5561.0258,3.1169-.1122,4.6679.0798,1.8104.2241,2.9872,1.5566,3.0002,3.3858.0135,1.894.003,3.7882.0033,5.6824Z"/>
      <path class="cls-1" d="M60.6889,35.4678c1.2758-.6538,2.4854-1.4051,3.4922-2.4443.8094-.8356,1.2714-1.7867,1.2265-2.9981-.0574-1.5546-.0208-3.113-.011-4.6697.0031-.4952-.133-.6362-.5674-.3083-4.1838,3.1571-9.1147,4.3903-14.1083,5.4528-1.1153.2373-2.2404.4357-3.368.6059-.0978.0147-.1829.0004-.2752.0019v8.3229c1.122-.196,2.247-.3785,3.3623-.6076,3.543-.728,7.0104-1.6962,10.2487-3.3556Z"/>
    </g>
  </g>
</svg>