<?xml version="1.0" encoding="UTF-8"?>
<svg id="Capa_2" xmlns="http://www.w3.org/2000/svg" viewBox="0 0 55.0788 55.1008">
  <defs>
    <style>
      .cls-1 {
        fill: #fff;
      }
    </style>
  </defs>
  <g id="Capa_1-2" data-name="Capa_1">
    <g id="BqsUM6.tif">
      <g>
        <path class="cls-1" d="M0,39.991c.2462-.4393.6276-.5852,1.1205-.5847,6.5902.0072,13.1804.0172,19.7705-.0083,1.022-.004,1.3874.8543,1.0522,1.4305-.187.3214-.469.4837-.8397.4865-.4835.0036-.9697.0352-1.4497-.0053-.4652-.0393-.6599.1541-.7994.58-1.0699,3.2658-2.1611,6.5246-3.2474,9.7849-.3055.9169-.6009,1.8376-.9314,2.7455-.1859.5107-.6149.7383-1.1027.6399-.4606-.0929-.7039-.4069-.778-.8515-.0426-.2555.0773-.4908.1561-.7276,1.2714-3.8211,2.5438-7.6419,3.8156-11.4629q.2321-.6974-.5056-.6989c-2.5609-.0005-5.1218.0087-7.6825-.0089-.4318-.003-.6655.1176-.8563.5303-1.9161,4.1434-3.8555,8.2761-5.7916,12.4103-.3128.668-.6308.8737-1.1674.8242-.3376-.0311-.5315-.2724-.7631-.4636C0,54.3246,0,54.038,0,53.7513c1.865-3.9898,3.7257-7.9817,5.6011-11.9667.205-.4356.03-.4729-.3392-.47-1.379.0107-2.7582-.0068-4.1371.0096-.4948.0059-.8726-.1491-1.1249-.5808v-.7525Z"/>
        <path class="cls-1" d="M10.7503,0c.7188.3006,1.3137.7368,1.583,1.5044.1136.3238.3669.2865.6158.2865,1.9691.0003,3.9383,0,5.9074.0008.1789,0,.3603-.0105.5362.0146.487.0697.7796.3647.8299.8469.0505.4849-.188.8316-.6424,1.0009-.2871.1069-.5968.1035-.9024.1032-1.7185-.0019-3.4372.013-5.1554-.0094-.4847-.0063-.593.1514-.4627.5956.161.5487.2747,1.1112.4249,1.6633.0863.3173.014.4747-.3414.4739-2.0228-.0047-4.0456-.0046-6.0685.0003-.37.0009-.4705-.1479-.3716-.5013.1542-.5509.2603-1.1155.4226-1.6637.1256-.4243.0295-.5729-.4342-.5676-1.772.0202-3.5443.0085-5.3166.0069C.8194,3.7548.2926,3.6872,0,3.1176v-.7525c.2663-.4536.6728-.5835,1.1813-.5798,2.0055.0148,4.0112.0075,6.0169.0036.2399-.0005.513.0679.6334-.2589.2871-.7792.8769-1.2422,1.6286-1.53h1.29Z"/>
        <path class="cls-1" d="M45.5811,0c.7345.2782,1.324.7234,1.6038,1.4824.1289.3496.3941.3079.6589.3081,2.0243.0013,4.0486.0026,6.0729-.0006.3121-.0005.6115.0258.8526.25.2736.2544.3613.5761.281.9316-.0809.3581-.3028.6217-.6675.6981-.2952.0618-.6036.0819-.9062.0833-1.7018.0075-3.4038.0172-5.1054-.0047-.493-.0064-.5851.153-.4473.6001.1684.5465.273,1.1123.4225,1.6651.0906.3352-.0266.4667-.3611.4662-2.0243-.0028-4.0485-.0031-6.0728.0016-.3357.0008-.4518-.1232-.3587-.4608.1378-.5002.2478-1.008.373-1.5117q.1867-.7511-.6105-.7519c-1.6302-.0006-3.2604.0014-4.8905-.002-.2321-.0005-.4671-.0058-.6956-.0416-.6109-.0957-.969-.5163-.9185-1.0531.0492-.5226.4367-.8609,1.0442-.8642,1.7376-.0093,3.4753-.0041,5.213-.0046.215,0,.433-.0234.6443.0045.5731.0757.9565-.0588,1.1942-.6711.2299-.5923.8187-.8746,1.3838-1.1246h1.29Z"/>
        <path class="cls-1" d="M39.447,39.4105c4.6926,0,9.3852,0,14.0778.0001.1791,0,.3584-.0042.5373.0033.6311.0262,1.0088.3811,1.0116.945.0028.5642-.378.9442-1.0004.9544-.8953.0147-1.791.0049-2.6865.0054-.5194.0003-1.0396.0178-1.558-.0053-.4349-.0194-.5912.051-.365.5249.9562,2.0036,1.8812,4.0221,2.8202,6.034.8482,1.8172,1.7,3.6326,2.5493,5.4493.053.1134.1028.2289.1458.3464.2204.6028.0554,1.1075-.4321,1.3313-.5142.236-1.0542.0318-1.3346-.5454-.485-.9985-.9481-2.0076-1.4175-3.0135-1.514-3.2451-3.0294-6.4895-4.5353-9.7383-.1326-.286-.3123-.3887-.6221-.3877-2.6866.0087-5.3733.0155-8.0597-.0039-.5582-.004-.4638.2466-.3466.5965,1.2621,3.7684,2.5182,7.5387,3.7761,11.3085.0397.1189.0813.2371.1194.3565.2325.7292.0267,1.283-.5432,1.4641-.5802.1843-1.0622-.1242-1.3093-.8633-1.3622-4.0745-2.727-8.1481-4.0687-12.2294-.1536-.4672-.3597-.6447-.868-.6371-2.0593.0307-4.1195.0297-6.1788.0011-.5328-.0074-.6595.1755-.6572.6783.0175,3.8865.01,7.7732.0087,11.6598,0,.2497.0206.5016-.0671.7448-.1562.4335-.4503.6821-.9219.6824-.4716.0003-.7661-.2476-.9225-.6813-.0877-.2432-.0668-.4951-.0669-.7448-.0013-3.8687-.0006-7.7374-.0013-11.6061-.0001-.7193-.0021-.7189-.6998-.7216-.3761-.0014-.7536.0155-1.1279-.0112-.5472-.039-.8882-.4248-.8829-.9559.0053-.5315.3517-.9028.905-.9314.4288-.0221.8595-.0094,1.2893-.0094,4.4777-.0004,8.9554-.0002,13.433-.0002Z"/>
        <path class="cls-1" d="M32.1714,12.8536c0,1.4497.0044,2.8993-.0014,4.349-.0051,1.2813-.6545,2.0676-1.9241,2.1148-1.8048.067-3.6155.0658-5.4207.0047-1.296-.0439-1.9523-.8293-1.9541-2.1427-.004-2.8993-.0038-5.7986,0-8.6979.0017-1.3281.7518-2.1173,2.0839-2.1368,1.6998-.0249,3.4005-.022,5.1005-.0015,1.3618.0164,2.1116.8007,2.1151,2.1616.0038,1.4496.0009,2.8993.0008,4.349ZM27.5053,10.1506c-.4551.0099-.8264.4091-.8173.8787.0093.4816.3751.8139.8742.7939.4704-.0188.7963-.3584.7909-.824-.0054-.4665-.3969-.8584-.8477-.8486Z"/>
        <path class="cls-1" d="M11.3985,8.17c3.0071,0,6.0141-.0011,9.0212.0009.7261.0005.7624.0368.7632.7534.0023,2.2553.0024,4.5106,0,6.7659-.0007.6765-.0427.6929-.6474.362-3.9268-2.1487-8.1093-3.4643-12.5714-3.8966-1.9457-.1885-3.8935-.1898-5.8434-.1878-.9195.0009-1.2675-.3437-1.2782-1.256-.0055-.4653-.0134-.9313.0046-1.396.027-.6965.3567-1.0455,1.0481-1.1253.2124-.0245.4288-.0198.6434-.0199,2.9534-.0011,5.9067-.0008,8.8601-.0007Z"/>
        <path class="cls-1" d="M43.7072,8.17c2.9712,0,5.9425-.0015,8.9137.0007,1.284.0009,1.5785.2999,1.5794,1.5857.0003.3759.0117.7524-.0057,1.1275-.0331.7114-.4108,1.069-1.1244,1.0842-1.4663.0312-2.9317-.0023-4.3998.0704-5.0207.2488-9.7191,1.5982-14.126,3.9961-.6622.3603-.6859.3511-.6864-.4089-.0014-2.1837-.001-4.3674-.0003-6.551q.0003-.9024.8821-.9044c2.9891-.0008,5.9783-.0003,8.9674-.0003Z"/>
        <path class="cls-1" d="M47.6173,20.1768c-.0004-1.0209-.0107-2.0419.0049-3.0626.0059-.3876-.1272-.5597-.5294-.5377-.3927.0215-.7889.0195-1.1815-.005-.6288-.0393-1.0043-.4096-1.0026-1.0315.0046-1.6285-.2356-1.3206,1.3029-1.5674,1.8616-.2986,3.7461-.2606,5.6263-.2562.4019.0009.5468.1584.5327.5405-.0152.4114.0135.8249-.0117,1.2353-.0437.7111-.4227,1.065-1.1386,1.0854-.3937.0113-.7883.0137-1.1819.0015-.3165-.0098-.4508.1129-.4496.4399.0077,2.0955.0071,4.191.0006,6.2864-.001.3159.1198.4573.4401.4619.2309.0034.4682.0261.6901.0865.466.1267.7495.552.6874,1.0199-.0643.4848-.3515.8218-.8373.8339-1.2886.0322-2.5788.0294-3.8676.0037-.5022-.01-.8665-.4351-.8889-.9164-.0203-.4349.3202-.8417.7795-.9663.3079-.0836.7099.0686.9182-.1916.2433-.304.0942-.7266.1018-1.0962.0163-.7877.005-1.576.0046-2.364Z"/>
        <path class="cls-1" d="M5.4496,20.1368c-.0003-1.0207-.0115-2.0416.0056-3.062.0063-.3758-.1356-.5156-.5041-.4977-.393.0191-.7881.0144-1.1815-.0012-.6568-.0261-1.0332-.3713-1.0811-1.0275-.0338-.4631-.0073-.9305-.0123-1.396-.0035-.3229.1618-.4285.4704-.4321,2.1494-.0247,4.2946.0036,6.4241.3505.3945.0643.5766.2163.5794.6576.0105,1.6688-.153,1.8517-1.8236,1.8527-.1612,0-.3225.0072-.4834.0009-.2971-.0116-.4184.1332-.418.4224.0032,2.113.0029,4.226.0014,6.339-.0002.2944.1476.4141.4312.4224.1959.0058.3943.0272.5857.0687.4682.1016.7919.5107.779.961-.013.4554-.3603.8978-.8317.9087-1.324.0304-2.65.0348-3.9736-.0052-.4549-.0138-.7332-.3629-.7816-.8257-.0482-.4606.1616-.7944.5835-.9883.0641-.0295.1392-.0339.2053-.06.3128-.1234.7573.1003.9532-.2163.195-.315.0639-.735.0691-1.1083.0108-.7878.0033-1.5758.003-2.3637Z"/>
        <path class="cls-1" d="M27.4663,23.8997c-1.7376.0003-3.4753-.005-5.2128.0039-.4593.0024-.8571-.0819-1.0917-.5244-.249-.4697-.064-.8624.2216-1.2384.8154-1.0734,1.8643-1.8276,3.2133-1.9542,1.9604-.184,3.938-.2001,5.8963.0081,1.3845.1473,2.4531.9376,3.2552,2.0744.2438.3455.348.7111.1303,1.1057-.2117.3838-.5526.5288-.9844.5273-1.8092-.0063-3.6185-.0027-5.4278-.0024Z"/>
        <path class="cls-1" d="M46.1097,47.7091c-.0459.432-.2444.7717-.6951.9066-.4713.141-.9107.0117-1.1006-.4276-.5608-1.2972-1.0793-2.6137-1.5774-3.9366-.1619-.43.1256-.9167.547-1.1005.424-.185.9871-.0703,1.1794.3492.6113,1.3335,1.1614,2.6945,1.6308,4.0862.0112.0332.0096.0707.0159.1227Z"/>
        <path class="cls-1" d="M12.346,44.1395c-.0337.1042-.0794.2772-.1449.4424-.4351,1.0983-.8704,2.1965-1.3139,3.2914-.276.6813-.7704.9422-1.3342.7219-.5494-.2147-.7387-.7544-.4727-1.4393.4472-1.1511.9036-2.2988,1.3742-3.4405.2057-.4992.6433-.7204,1.1184-.619.4485.0957.7856.5185.7731,1.0432Z"/>
        <path class="cls-1" d="M33.7902,47.4282c-.0003.7518-.3015,1.1352-.7851,1.2173-.498.0845-.9779-.1962-1.0953-.7258-.2749-1.2402-.5284-2.486-.7501-3.7368-.102-.5755.2334-1.016.7524-1.1262.4677-.0993.9795.1493,1.0949.643.3052,1.3057.5548,2.6244.7832,3.7285Z"/>
        <path class="cls-1" d="M21.2591,47.3967c.2252-1.0907.4672-2.3734.7635-3.6434.1195-.5123.6438-.7666,1.1376-.6545.4675.1061.811.5299.7214,1.0443-.2239,1.285-.4816,2.5651-.7669,3.8379-.1103.4922-.6104.7544-1.0815.6663-.5029-.0941-.7969-.4925-.7742-1.2506Z"/>
        <path class="cls-1" d="M45.6446,51.5344c.0225-.636.2439-.9573.6876-1.0898.4442-.1326.8638-.0065,1.0638.3984.4969,1.0064.9247,2.0485,1.2418,3.1261.1297.441-.1044.8112-.5155,1.0105-.4096.1985-.8842.1698-1.1141-.2107-.6369-1.0542-.9833-2.2387-1.3635-3.2346Z"/>
        <path class="cls-1" d="M9.3845,51.5033c-.0218.0789-.0542.255-.1183.4186-.3186.8135-.6387,1.6267-.9719,2.4343-.2561.6207-.7833.8738-1.3208.6563-.5131-.2076-.7252-.7374-.4961-1.344.3339-.8839.6827-1.7628,1.0517-2.6326.2109-.4972.6614-.7187,1.119-.612.4607.1074.7473.4884.7364,1.0794Z"/>
        <path class="cls-1" d="M35.076,53.8505c.0064.7283-.2931,1.1234-.7685,1.2102-.5045.0921-.9907-.1793-1.1102-.7-.22-.9586-.413-1.9248-.5733-2.8951-.0816-.4938.2669-.9274.7367-1.0396.4544-.1086.9907.142,1.1121.6227.2494.9872.4323,1.9912.6032,2.8017Z"/>
        <path class="cls-1" d="M19.9631,53.862c.1735-.8125.3623-1.8322.6184-2.8348.1167-.4567.6362-.6975,1.0709-.6078.4546.0938.8085.4841.7567.9695-.1119,1.0488-.3231,2.0853-.6185,3.0974-.1336.4579-.6226.6685-1.0877.5703-.4518-.0954-.7371-.4758-.7398-1.1946Z"/>
        <path class="cls-1" d="M36.7535,27.8391c-.0409.4262-.2151.7366-.598.9077-.3676.1642-.7194.1058-.9944-.1625-.4748-.4632-.8563-1.0109-1.1707-1.5899-.2162-.3983-.1094-.8094.2452-1.1123.3544-.3027.7987-.3551,1.1361-.0705.5877.4957,1.0233,1.1337,1.3423,1.8409.0285.0631.0298.1385.0394.1866Z"/>
        <path class="cls-1" d="M19.3218,28.8304c-.7627.0178-1.2691-.7636-.9051-1.3972.3007-.5235.6713-1.0142,1.0623-1.476.3106-.3669.7556-.4143,1.1728-.182.4192.2334.6319.6443.4386,1.0904-.2985.6891-.752,1.293-1.3157,1.799-.1313.1178-.3143.1677-.4529.1658Z"/>
        <path class="cls-1" d="M37.1617,31.0296c.0031-.3778.1855-.6422.5135-.8169.3563-.1898.7204-.1653,1.0024.0956.4877.4513.8729.9981,1.1672,1.5922.1734.35.0647.7082-.2059.9892-.2699.2802-.6018.3723-.982.2499-.506-.163-1.5107-1.58-1.4952-2.11Z"/>
        <path class="cls-1" d="M14.6412,35.6449c-.0439.1181-.0765.3025-.1721.4446-.2784.4138-.5629.8264-.8808,1.2098-.3427.4133-.886.4703-1.2978.1819-.4014-.281-.5416-.8413-.2657-1.2865.2714-.4379.5787-.8587.9122-1.2515.2723-.3208.6443-.4433,1.0627-.2668.4008.1692.6022.482.6415.9684Z"/>
        <path class="cls-1" d="M41.4045,34.6001c.7631.0217,1.9384,1.7022,1.6929,2.4207-.2245.657-1.0869.8744-1.569.3503-.3832-.4166-.727-.8866-1.0029-1.3805-.3517-.6297.1701-1.4106.879-1.3904Z"/>
        <path class="cls-1" d="M17.8761,31.064c.0097.2037-.0356.3971-.1514.5594-.2893.4057-.5706.82-.8939,1.1977-.345.4031-.8992.4505-1.2991.161-.408-.2953-.5359-.8354-.2461-1.2828.2894-.4468.6144-.8753.9638-1.277.2662-.306.6372-.3896,1.0243-.2236.374.1604.5902.4463.6024.8653Z"/>
        <path class="cls-1" d="M32.37,27.4733c-.0101.5013-.3481.9052-.8001,1.0025-.4323.0931-.9111-.1516-1.0696-.6094-.1334-.3857-.2413-.7928-.274-1.1974-.0385-.4759.225-.823.682-.976.4584-.1535.9182.0442,1.1307.4803.2059.4226.2521.8904.331,1.3001Z"/>
        <path class="cls-1" d="M24.8431,26.68c-.0955.3753-.1615.8249-.3271,1.2341-.1776.4388-.5599.6448-1.0449.558-.455-.0814-.8199-.5003-.7913-.9512.0294-.4625.1202-.9252.3231-1.3477.2165-.451.6144-.5966,1.078-.4912.4764.1083.6935.4673.7622.9981Z"/>
        <path class="cls-1" d="M28.5238,27.073c-.0132.9291-.3766,1.4406-1.0242,1.4241-.6274-.0159-.9706-.5126-.9674-1.4115.0008-.2141-.0084-.4353.0396-.6409.114-.4878.4106-.7847.9426-.787.5306-.0022.8329.2871.9519.7758.0501.2056.0401.4259.0574.6395Z"/>
        <path class="cls-1" d="M21.7829,31.8515c.0547-.2234.1217-.6126.2473-.982.1623-.4774.6573-.7377,1.1048-.6275.4705.1159.8001.538.7475,1.0345-.0393.3703-.1224.7416-.2347,1.097-.1661.5256-.6252.7803-1.1251.6708-.4802-.1052-.7598-.4911-.7397-1.1929Z"/>
        <path class="cls-1" d="M33.2556,31.9896c.0014.5986-.292.9746-.7787,1.062-.4828.0868-.9199-.1617-1.0809-.6639-.1137-.3547-.202-.7252-.2394-1.0949-.0533-.5261.2928-.9601.7823-1.0598.4477-.0911.9176.189,1.0834.6701.0868.252.1391.5166.1969.7778.0268.1211.0296.2476.0363.3086Z"/>
        <path class="cls-1" d="M26.5334,31.6552c-.0029-.9453.3391-1.4405.9903-1.4377.6501.0028.9877.4965.9869,1.4443,0,.1073.0026.2149-.0037.3219-.0385.657-.4043,1.0654-.963,1.0781-.5815.0133-.9722-.4053-1.0096-1.0847-.0059-.107-.0008-.2146-.0008-.3219Z"/>
        <path class="cls-1" d="M22.8845,35.9266c-.0727.2978-.1381.7067-.2746,1.0903-.1766.4961-.6967.7412-1.166.6039-.4652-.1361-.7784-.6276-.6849-1.1294.0683-.3667.1496-.7375.284-1.0836.1759-.453.6546-.6789,1.087-.5717.446.1106.7617.5221.7546,1.0905Z"/>
        <path class="cls-1" d="M34.3196,36.5896c-.058.5506-.2774.9065-.7442,1.0303-.4684.1242-.8622-.0541-1.0867-.4777-.2276-.4295-.3204-.9179-.3206-1.3965-.0002-.4751.2909-.8086.7645-.9092.4791-.1018.868.102,1.0504.541.169.407.2411.8542.3367,1.2121Z"/>
        <path class="cls-1" d="M28.5185,36.2586c-.0098.1784-.0028.3596-.0327.5345-.087.5089-.4749.8533-.9488.8611-.4956.0082-.913-.3475-.9826-.8816-.039-.2994-.0319-.6077-.0168-.9105.0312-.6256.4496-1.0585.993-1.052.5437.0065.9403.4403.9764,1.0725.0071.1248.001.2504.001.3756.0035.0001.007.0003.0104.0004Z"/>
      </g>
    </g>
  </g>
</svg>