<?xml version="1.0" encoding="UTF-8"?>
<svg id="Capa_2" xmlns="http://www.w3.org/2000/svg" viewBox="0 0 57.8039 51.6106">
  <defs>
    <style>
      .cls-1 {
        fill: #fff;
      }
    </style>
  </defs>
  <g id="Capa_1-2" data-name="Capa_1">
    <g>
      <path class="cls-1" d="M56.7717,12.3865h-7.2255c-.5698,0-1.0322-.4624-1.0322-1.0322v-7.2255l8.2577,8.2577Z"/>
      <path class="cls-1" d="M47.4818,15.4832c-1.1396,0-2.0644-.9249-2.0644-2.0644V3.0966h-21.6765c-.5698,0-1.0322.4624-1.0322,1.0322v43.3529c0,.5698.4624,1.0322,1.0322,1.0322h33.0308c.5698,0,1.0322-.4624,1.0322-1.0322V15.4832h-10.3221ZM29.5213,11.3543h9.0835c.3427,0,.6193.2766.6193.6193v2.8902c0,.3427-.2766.6193-.6193.6193h-9.0835c-.3427,0-.6193-.2766-.6193-.6193v-2.8902c0-.3427.2766-.6193.6193-.6193ZM50.9913,40.2563h-9.0835c-.3427,0-.6193-.2766-.6193-.6193v-2.8902c0-.3427.2766-.6193.6193-.6193h9.0835c.3427,0,.6193.2766.6193.6193v2.8902c0,.3427-.2766.6193-.6193.6193ZM50.9913,31.9986h-21.47c-.3427,0-.6193-.2766-.6193-.6193v-2.8902c0-.3427.2766-.6193.6193-.6193h21.47c.3427,0,.6193.2766.6193.6193v2.8902c0,.3427-.2766.6193-.6193.6193ZM50.9913,23.7409h-21.47c-.3427,0-.6193-.2766-.6193-.6193v-2.8902c0-.3427.2766-.6193.6193-.6193h21.47c.3427,0,.6193.2766.6193.6193v2.8902c0,.3427-.2766.6193-.6193.6193Z"/>
      <path class="cls-1" d="M5.1611,30.9664c-2.851,0-5.1611-2.3101-5.1611-5.1611s2.3101-5.1611,5.1611-5.1611c2.116,0,3.9286,1.2758,4.7255,3.0966h9.7255v4.1288h-9.7255c-.7969,1.8208-2.6094,3.0966-4.7255,3.0966Z"/>
      <path class="cls-1" d="M7.2255,51.6106c-2.851,0-5.1611-2.3101-5.1611-5.1611,0-3.2535,3.0141-5.7948,6.3398-5.0124l3.3629-4.4839c.3902-.5202,1.0012-.8258,1.6515-.8258h6.1933v4.1288h-5.1611l-2.7519,3.6664c1.9901,3.5136-.5966,7.6879-4.4736,7.6879Z"/>
      <path class="cls-1" d="M7.2255,0c3.8935,0,6.4555,4.1867,4.4757,7.6879l2.7498,3.6664h5.1611v4.1288h-6.1933c-.6503,0-1.2614-.3055-1.6515-.8258l-3.3609-4.4839c-3.3299.7824-6.3419-1.761-6.3419-5.0124C2.0644,2.3101,4.3745,0,7.2255,0Z"/>
    </g>
  </g>
</svg>