<?xml version="1.0" encoding="UTF-8"?>
<svg id="Capa_2" xmlns="http://www.w3.org/2000/svg" viewBox="0 0 55.0624 54.5716">
  <defs>
    <style>
      .cls-1 {
        fill: #fff;
      }
    </style>
  </defs>
  <g id="Capa_1-2" data-name="Capa_1">
    <g id="w7IF8J.tif">
      <g>
        <path class="cls-1" d="M47.6918,0c.1937.064.3877.127.5809.1921,2.0019.6742,3.0615,2.7974,2.3892,4.7865-.679,2.009-2.8645,3.0902-4.8561,2.3132-.6318-.2465-.9888-.1164-1.4473.3013-2.1787,1.9846-4.3838,3.9404-6.5905,5.8939-.3066.2714-.4239.4899-.2907.9352.4728,1.5814.0887,2.9828-1.1869,4.0376-1.2098,1.0004-2.6062,1.1704-4.0275.485-1.4746-.7111-2.1452-1.9708-2.1337-3.5791.0027-.3786-.1137-.5462-.428-.6977-1.825-.8799-3.646-1.7684-5.4587-2.6732-.3457-.1725-.5757-.1283-.8747.1136-1.2042.9741-2.5423,1.153-3.9679.543-.2724-.1166-.4709-.1537-.7145.0692-2.3404,2.1416-4.6872,4.2763-7.0418,6.4022-.2463.2223-.1517.4176-.0818.6575.7047,2.4209-.6677,4.5952-3.1449,4.9928-2.0402.3275-3.9487-1.2872-4.1883-3.5436-.1976-1.8608,1.4754-3.8284,3.355-3.9451.7032-.0437,1.3974-.0043,2.033.334.2865.1524.4782.0863.7044-.1206,2.2648-2.0727,4.5344-4.1402,6.8132-6.1975.2936-.2651.3817-.4929.2534-.8986-.4922-1.5564-.1207-2.9247,1.0943-4.0093,1.1679-1.0427,2.5484-1.2109,3.9566-.6195,1.5022.6309,2.2488,1.861,2.2883,3.4786.0117.4798.1596.7328.5902.9386,1.7542.8382,3.4961,1.7025,5.2312,2.5798.3787.1915.626.1721.9745-.1088,1.1396-.9185,2.4304-1.1489,3.7955-.5647.438.1874.7209.1648,1.0818-.1624,2.2592-2.0483,4.5398-4.073,6.8164-6.102.2572-.2292.4169-.4304.303-.8367-.6499-2.3165.4195-4.2211,2.7162-4.9085.0777-.0233.1521-.0577.228-.0869.4095,0,.819,0,1.2284,0Z"/>
        <path class="cls-1" d="M55.0624,53.927c-.3512.5569-.8902.6456-1.4949.6446-4.7901-.0083-9.5802-.0046-14.3703-.0046-12.487,0-24.9741.0003-37.4611-.0014-.326,0-.6548.0312-.9755-.0687-.4893-.1525-.7538-.4827-.7604-.9923-.0063-.4853.2473-.8035.6962-.9784.256-.0997.5212-.0947.7871-.0947,17.3795-.0003,34.759.0009,52.1385-.0052.591-.0002,1.0924.1298,1.4405.6408v.8599Z"/>
        <path class="cls-1" d="M51.883,33.3091c0,5.4642.0004,10.9285-.0004,16.3927q-.0001.9314-.9074.9339c-2.7219.001-5.444-.0137-8.1657.0113-.5921.0054-.7781-.1942-.7774-.7771.0123-10.9694.0139-21.9388.005-32.9082-.0016-1.9461,1.2257-2.9855,2.9398-2.8902,1.3874.0771,2.7825.0131,4.1741.0164,1.6978.0041,2.7121.9915,2.7263,2.7058.0196,2.3738.0057,4.7479.0058,7.1219.0002,3.1312,0,6.2624,0,9.3936Z"/>
        <path class="cls-1" d="M16.203,38.2395c0-3.7667-.0022-7.5334.001-11.3.0014-1.705.9567-2.6563,2.6629-2.6595,1.5149-.0029,3.0298-.0057,4.5447.0011,1.5106.0068,2.5481,1.0204,2.5583,2.5404.0173,2.5792.0057,5.1587.0058,7.738.0002,5.0359.0003,10.0718-.0002,15.1076q0,.9675-.9932.9688c-2.6613.0005-5.3227-.0153-7.9838.0116-.6112.0062-.8126-.1736-.8084-.801.0256-3.8689.0129-7.738.0129-11.607Z"/>
        <path class="cls-1" d="M38.8881,41.7686c0,2.7002-.014,5.4006.0112,8.1005.0054.5847-.1747.7827-.7668.7775-2.7614-.0243-5.5233-.0225-8.2848-.0011-.5642.0044-.7427-.1902-.7411-.7473.0154-5.3799.0034-10.7599.0133-16.1399.0029-1.5787,1.0433-2.586,2.6399-2.5942,1.4933-.0077,2.9867-.0062,4.48-.0006,1.6534.0062,2.6436.9869,2.6469,2.6272.0053,2.6593.0014,5.3186.0015,7.9779Z"/>
        <path class="cls-1" d="M3.2084,45.6236c0-1.3699-.0069-2.7399.0018-4.1097.0111-1.7523.9988-2.74,2.7359-2.7443,1.5131-.0037,3.0262-.0075,4.5392.0019,1.3941.0086,2.3056.8108,2.5022,2.1873.0346.242.0595.4878.0599.7319.0042,2.7194-.0076,5.4388.0113,8.158.0039.5581-.1373.805-.7547.799-2.7805-.027-5.5615-.026-8.3421-.0006-.6056.0055-.7743-.2219-.7629-.7912.0283-1.4102.0093-2.8214.0093-4.2322Z"/>
      </g>
    </g>
  </g>
</svg>