<?xml version="1.0" encoding="UTF-8"?>
<svg id="Capa_2" xmlns="http://www.w3.org/2000/svg" viewBox="0 0 68.283 44.1784">
  <defs>
    <style>
      .cls-1 {
        fill: #fff;
      }
    </style>
  </defs>
  <g id="Capa_1-2" data-name="Capa_1">
    <g>
      <path class="cls-1" d="M35.5647,21.6397c-1.2781-.5389-2.6089.404-2.6533,1.9063-.0375,1.2691-.0077,2.5403-.0077,3.8106,0,1.3148-.0241,2.6302.0072,3.9443.028,1.1774.8993,2.0721,1.9453,2.0703,1.0496-.0019,1.9278-.8909,1.9406-2.0738.0279-2.5848.0219-5.1702.0011-7.7551-.007-.869-.4031-1.5526-1.2331-1.9026Z"/>
      <path class="cls-1" d="M65.4734,23.3453c-1.8698-2.2554-4.2262-3.728-7.0813-4.3871-1.146-.2645-1.0697-.1553-.9093-1.2743C58.7881,8.5812,52.2843,1.0917,44.2713.0614c-.065-.0084-.127-.0404-.1904-.0614h-3.744c-2.0819.3407-4.0686.9494-5.8996,2.029-1.7902,1.0555-3.3198,2.4004-4.5534,4.0678-.3345.452-.6021.5624-1.1536.3154-7.9429-3.5579-16.9669,1.615-17.9572,10.2795-.0504.4408-.0656.8932-.0288,1.3344.0491.5896-.2105.8072-.7636.9402-3.9893.9591-6.9291,3.2803-8.7187,6.971-3.7267,7.6854,1.1892,16.8842,9.6433,18.1217.6442.0943,1.2849.1175,1.9302.1175,14.2134.0011,28.4267.0039,42.6401-.0005,6.2165-.0019,11.2905-4.1006,12.614-10.1698.0616-.2823.1289-.5633.1935-.845v-3.4766c-.4222-2.3411-1.2764-4.49-2.8096-6.3394ZM26.1022,32.6835c-.6871,3.132-3.5263,5.1563-6.7381,4.7948-2.9697-.3342-5.2692-2.9493-5.2848-6.018-.0069-1.3587-.0012-2.7174-.0003-4.0761.0009-1.4033-.0129-2.8067.0036-4.2097.0385-3.2741,2.8046-5.8583,6.2247-5.8307,3.19.0258,5.8988,2.7249,5.9053,5.884.0026,1.2724-.7613,2.1696-1.9024,2.2342-1.2146.0688-2.0603-.6934-2.2132-1.9945-.1247-1.0609-.6428-1.6988-1.5651-1.9272-.7179-.1777-1.5253.152-1.9704.812-.2844.4217-.37.8977-.3695,1.3981.0023,2.4501-.0055,4.9003.0037,7.3504.0049,1.2974.7755,2.2091,1.884,2.2685,1.0459.0561,1.8782-.7954,2.0218-2.0683.1231-1.0909.8714-1.8534,1.8828-1.9184,1.0556-.0679,1.9787.5784,2.1786,1.5774.1141.5699.0653,1.1494-.0606,1.7234ZM40.9195,31.5984c-.0306,3.2786-2.7434,5.9057-6.083,5.9028-3.2971-.0029-6.0223-2.6361-6.0447-5.8735-.0194-2.8052-.0197-5.6107.0001-8.4158.0228-3.2358,2.7497-5.8663,6.0488-5.8685,3.3116-.0022,6.0396,2.6118,6.0774,5.8392.0167,1.4247.0028,2.8498.0031,4.2747.0003,1.3804.0111,2.7609-.0018,4.1411ZM51.0795,33.3916c.4189,0,.8384-.0154,1.2565.003,1.1231.0494,1.953.9245,1.955,2.0442.002,1.1222-.8227,2.0369-1.9434,2.0508-2.2933.0283-4.5873.0263-6.8806.0017-1.1288-.0121-1.957-.8872-1.966-2.0266-.0132-1.6801.7483-2.9512,2.1486-3.8339,1.1864-.7478,2.3998-1.4528,3.6037-2.1727.396-.2368.7037-.5352.8276-.9995.1787-.6696-.1624-1.3216-.8193-1.5393-.6176-.2047-1.2618.1113-1.5182.7397-.1476.3617-.1259.7411-.1379,1.1191-.0375,1.1771-.8915,2.0273-2.035,2.035-1.1768.0079-2.0402-.8513-2.0743-2.0641-.085-3.0214,1.446-5.2513,4.0569-5.9087,2.5088-.6317,5.0858.564,6.2107,2.8817,1.1409,2.3508.4434,5.2377-1.6596,6.8332-.3346.2539-.6955.4731-1.0443.7083.0066.0427.0131.0854.0197.1281Z"/>
    </g>
  </g>
</svg>