<?xml version="1.0" encoding="UTF-8"?>
<svg id="Capa_2" xmlns="http://www.w3.org/2000/svg" viewBox="0 0 38.8246 63.6694">
  <defs>
    <style>
      .cls-1 {
        fill: #fff;
      }
    </style>
  </defs>
  <g id="Capa_1-2" data-name="Capa_1">
    <g>
      <path class="cls-1" d="M13.6808,38.8425c-.9328-.4646-1.4049-.3105-1.8538.6353-1.8885,3.9774-2.258,8.1008-1.1571,12.3613.4705,1.8209,1.2718,3.5013,2.193,5.13.658.8488,1.316,1.6976,1.9741,2.5465.0989.0813.2076.1534.2952.2455,1.4043,1.4774,3.032,2.6523,4.8448,3.5734,1.1711.5951,1.6167.4314,2.1582-.7668,4.0501-8.9612.3516-19.3405-8.4544-23.7252Z"/>
      <path class="cls-1" d="M9.4363,12.9766c2.4823-1.0069,4.1375-3.5167,4.084-6.1671-.0583-2.8794-1.3996-4.9864-4.0294-6.2026C7.4369-.3429,5.4039-.1156,3.416.8561c-.5428.4208-1.0856.8416-1.6284,1.2624-.1214.1755-.2363.3559-.3652.5257-2.1435,2.8219-1.8484,6.713.7762,9.0833,2.1225,1.9171,4.592,2.3222,7.2376,1.2491Z"/>
      <path class="cls-1" d="M19.4017,17.8628c-4.3362-1.5664-8.7338-1.3173-13.1361-.2894-.2039.0476-.4533.0988-.4494.378.0037.2717.2544.3219.4521.3896,1.4847.5083,2.9388,1.0919,4.3375,1.8044,3.0811,1.5696,5.8839,3.5311,8.3243,5.9921.3841.3873.7949.5625,1.3661.5417,1.5738-.0573,3.0685.326,4.4712,1.0341.7081.3574,1.4021.7549,1.9479,1.3494.3131.3412.3765.7335.0514,1.1009-.3359.3794-.7463.4971-1.2062.2032-.1624-.1038-.3103-.2301-.4672-.3428-.8638-.6215-1.8072-1.0731-2.8457-1.3142-.1839-.0426-.3999-.1091-.5357.0844-.139.1983.011.3618.1208.5205.3418.4941.6769.9931,1.0256,1.4824,2.2827,3.2026,3.8343,6.74,4.8245,10.533.1837.7037-.0279,1.1647-.5594,1.3064-.5742.153-.9823-.137-1.2013-.8558-.0313-.1026-.0561-.2072-.0838-.3109-1.0715-4.0109-2.8759-7.6599-5.6728-11.3129-.3138-.4688-1.0072-1.2039-1.6978-1.9387-1.3409-1.4267-2.8188-2.6995-4.4026-3.8497-.1762-.1278-.3687-.286-.5801-.1312-.213.1558-.1074.388-.0482.5941.0534.1856.1056.3716.1561.5581.2953,1.0902.3766,2.2004.2715,3.3205-.0584.6227-.4204.9467-.9477.9176-.4964-.0275-.8394-.4347-.8525-1.0258-.0044-.1927.0227-.3859.0233-.5789.0077-2.5248-.88-4.6555-2.8282-6.2962-1.2877-1.0844-2.9129-1.4305-4.4568-1.9322-1.252-.4068-1.4328-.2274-1.1154,1.0417,1.0161,4.0623,2.992,7.5543,6.1647,10.339,2.4921,2.1872,5.2021,4.0776,7.9823,5.8659,2.297,1.4774,3.9981,3.5052,5.443,5.7566,1.7058,2.6579,2.8491,5.5705,3.6053,8.6356.0619.2511.0369.6264.4218.6271.324.0007.356-.3345.4404-.565,1.3483-3.6822,2.3457-7.4512,2.7363-11.3638.4342-4.3492.1725-8.6297-1.4686-12.7354-1.8215-4.5572-4.9464-7.8483-9.6106-9.5332Z"/>
      <path class="cls-1" d="M23.3608,12.5055c2.3396-1.7865,2.7941-5.0696,1.0217-7.3802-1.8204-2.373-5.0248-2.8174-7.3584-1.0204-2.3371,1.7996-2.789,5.0853-1.015,7.3791,1.7704,2.289,5.088,2.7501,7.3517,1.0215Z"/>
      <path class="cls-1" d="M26.2052,16.4227c1.3429,1.7701,4.0328,2.1365,5.7627.7851,1.7732-1.3851,2.0968-3.991.7158-5.7646-1.3686-1.7576-3.922-2.0745-5.6923-.7064-1.7767,1.3731-2.1284,3.9168-.7862,5.6859Z"/>
      <path class="cls-1" d="M36.219,23.579c1.3452-1.0324,1.5931-2.9902.5458-4.3101-1.0085-1.2711-3.0274-1.5193-4.2887-.5273-1.3103,1.0305-1.553,2.9477-.5396,4.2614,1.0663,1.3822,2.909,1.63,4.2825.576Z"/>
      <path class="cls-1" d="M38.305,26.3105c-.8431-1.0669-2.4246-1.2586-3.5087-.4254-1.1322.8701-1.3461,2.4244-.4862,3.5336.8677,1.1194,2.4184,1.319,3.5472.4566,1.0825-.827,1.2921-2.4964.4478-3.5648Z"/>
    </g>
  </g>
</svg>