<?xml version="1.0" encoding="UTF-8"?>
<svg id="Capa_2" xmlns="http://www.w3.org/2000/svg" viewBox="0 0 55.0861 55.1008">
  <defs>
    <style>
      .cls-1 {
        fill: #fff;
      }
    </style>
  </defs>
  <g id="Capa_1-2" data-name="Capa_1">
    <g id="s4bXJe.tif">
      <g>
        <path class="cls-1" d="M0,12.6866c.7346-1.9881,1.7721-2.7151,3.8785-2.7155,1.7739-.0004,3.5479-.0007,5.3218.0013,2.4652.0027,3.867,1.3781,3.915,3.8469.0115.5911.0141,1.183-.0033,1.7738-.0103.3504.1121.6107.3636.8517,1.5655,1.4998,3.1284,3.0025,4.674,4.5227.2824.2777.4596.1958.7237-.0006,1.8733-1.3926,3.9665-2.2767,6.2686-2.6652.1207-.0204.2423-.0766.4468.0591-.6969.3238-1.3128.6936-1.8569,1.1719-1.609,1.4146-2.5864,3.2283-3.3011,5.2069-.6485,1.7955-1.0256,3.6495-1.1633,5.5532-.0574.7943-.08.8144-.8475.8148-1.5768.001-3.1537.0014-4.7305-.0002-.6382-.0006-.6766-.0434-.572-.6753.3841-2.319,1.2425-4.4445,2.6482-6.3327.2635-.3539.2968-.5588-.0515-.8846-1.5833-1.4806-3.1432-2.9864-4.6979-4.4972-.2403-.2335-.4543-.2729-.7627-.175-3.0746.9761-6.0703.7209-9.0008-.5854-.5662-.2524-1.008-.6072-1.2528-1.1851v-4.0855Z"/>
        <path class="cls-1" d="M0,48.5961c.4308-1.2902,1.2214-2.2266,2.5928-2.544.4317-.0999.8884-.1405,1.3321-.1317,2.1653.0427,4.3353-.1405,6.4957.1243.2131.0261.3346-.0927.4647-.2142,1.5058-1.4062,3.0057-2.8189,4.5206-4.2152.2924-.2695.2607-.4802.0552-.78-1.2143-1.7707-1.9699-3.7286-2.334-5.8409-.1212-.7034-.0927-.7392.6054-.7397,1.5769-.0011,3.1537-.0014,4.7306.0002.7198.0007.7455.0263.8042.8033.1629,2.1572.6064,4.2513,1.4284,6.2565.7356,1.7944,1.7075,3.4288,3.2293,4.6854.4781.3948,1.0368.6655,1.5429,1.0298-1.1836-.0572-2.2877-.3982-3.3628-.8304-1.3199-.5307-2.5548-1.2221-3.6494-2.1372-.3131-.2618-.5246-.2506-.8156.026-1.441,1.3704-2.8939,2.7285-4.3521,4.0807-.2436.2259-.282.4818-.2417.7779.1313.9637.0503,1.9323.0688,2.8986.0192,1.0023-.408,1.6694-1.3586,2.0883-3.5749,1.5756-7.1158,1.5379-10.6588-.0854-.5017-.2299-.837-.5973-1.0976-1.0594v-4.193Z"/>
        <path class="cls-1" d="M7.4184,0c1.5657.4134,2.7777,1.2656,3.5085,2.7544,1.0507,2.1406.2752,4.8915-1.7663,6.189-2.0831,1.3239-4.8543.9104-6.361-.9492C.5322,5.1956,1.7126,1.2391,5.1361.1606,5.2893.1123,5.4393.0538,5.5907,0h1.8277Z"/>
        <path class="cls-1" d="M49.4562,0c1.5161.4203,2.7156,1.2389,3.4522,2.6756,1.2079,2.3559.2409,5.2301-2.2179,6.5429-2.1918,1.1702-5.163.2659-6.3835-1.9428-1.541-2.7886-.2513-6.09,2.7691-7.0932.1518-.0504.2968-.1212.4449-.1825.6451,0,1.2902,0,1.9352,0Z"/>
        <path class="cls-1" d="M29.5369,18.3192c.9849.0478,1.9296.2935,2.8527.6224,1.2551.4472,2.4398,1.0391,3.5131,1.8327.2913.2154.4695.1834.7236-.0637,1.618-1.5737,3.2469-3.1364,4.8866-4.6875.2977-.2816.4346-.5747.4256-.9858-.0146-.661-.0259-1.3221.0533-1.9847.2034-1.7011,1.5526-3.0294,3.2665-3.0645,2.149-.044,4.3003-.0457,6.4492-.0008,1.9343.0404,3.3574,1.5428,3.3748,3.4681.0083.9136-.0039,1.8275.0022,2.7411.0051.7638-.3486,1.3028-1.0229,1.6269-3.0213,1.4523-6.1416,1.734-9.3368.6843-.5876-.193-.9299-.0995-1.3519.3224-1.4187,1.4182-2.8739,2.8004-4.3349,4.1755-.2775.2611-.271.4331-.0506.71,1.5615,1.9621,2.5155,4.1934,2.9237,6.6641.1175.7109.1115.7282-.6048.7287-1.5587.001-3.1174.001-4.6761,0-.7722-.0005-.7925-.0186-.8507-.8102-.1695-2.3043-.6745-4.5294-1.5968-6.6511-.7524-1.7308-1.7558-3.2829-3.2778-4.4504-.4266-.3272-.9062-.5664-1.368-.8775Z"/>
        <path class="cls-1" d="M29.5381,46.9914c.5635-.3334,1.1364-.6143,1.6253-1.0248,1.6726-1.4046,2.6757-3.2451,3.4202-5.2489.6709-1.8058,1.0462-3.6792,1.1915-5.5987.0646-.8536.0679-.8617.91-.862,1.576-.0006,3.1521.0131,4.7278-.0085.4476-.0062.6101.1117.534.5788-.3721,2.2818-1.1838,4.3845-2.5439,6.2585-.2569.354-.2968.5588.0584.8801,1.434,1.2972,2.8409,2.6244,4.2488,3.9501.2185.2058.4195.299.7154.1783.3878-.1581.8133-.1634,1.2181-.1638,2.112-.0018,4.2261-.1018,6.3358.0546,1.7069.1266,3.0697,1.5767,3.0992,3.2771.0168.9668-.0011,1.9341.0061,2.9011.0055.7391-.3182,1.2854-.9749,1.5993-3.7251,1.7807-7.4546,1.7912-11.1783-.0096-.714-.3453-.9788-.9741-.9896-1.7168-.0135-.9301-.0688-1.8628.0348-2.7904.0299-.2677-.0631-.4327-.2476-.6047-1.5326-1.4284-3.0651-2.8571-4.5802-4.304-.3086-.2947-.5219-.301-.8614-.0395-1.909,1.4707-4.0664,2.3797-6.445,2.7639-.0684.0111-.1397.0065-.2096.0049-.0139-.0003-.0274-.0205-.0951-.0749Z"/>
        <path class="cls-1" d="M11.4176,40.798c.0041,2.6511-2.2386,4.9434-4.898,4.8978-2.7541-.0472-4.8789-2.0882-4.8857-4.8884-.0066-2.7157,2.0265-4.8713,4.8758-4.8857,2.7256-.0138,4.8031,2.0599,4.908,4.8763Z"/>
        <path class="cls-1" d="M43.6279,40.7976c.0863-2.7589,2.1544-4.8958,4.9054-4.8768,2.8697.0198,4.8447,2.2009,4.8839,4.8884.0388,2.6635-2.2564,4.9149-4.8939,4.899-2.6638-.0161-4.8997-2.2589-4.8954-4.9105Z"/>
        <path class="cls-1" d="M25.9483,26.491c-.0002,1.3411-.0123,2.6824.0069,4.0232.0061.4238-.1048.6177-.568.6021-.8573-.0288-1.7164-.0158-2.5746-.0055-.3343.004-.5026-.1019-.4637-.4661.2662-2.4903.8083-4.8986,2.0855-7.091.2713-.4657.6002-.8901.9681-1.2812.1258-.1338.2495-.3853.4578-.2979.1727.0725.084.3229.0848.4932.0059,1.3411.0033,2.6822.0031,4.0233Z"/>
        <path class="cls-1" d="M29.099,26.467c-.0005-1.3588-.0032-2.7177.0035-4.0765.0007-.1476-.0852-.3647.1035-.4273.1666-.0553.2739.1378.3812.248,1.0219,1.0493,1.628,2.3425,2.1095,3.6966.5349,1.5045.8236,3.0663.9936,4.6524.0415.3874-.0633.5622-.481.5531-.8757-.0191-1.7523-.0182-2.628-.0006-.3847.0077-.4895-.1613-.4866-.5156.0115-1.3766.0047-2.7534.0042-4.1301Z"/>
        <path class="cls-1" d="M25.9479,38.8959c.0005,1.3592.0032,2.7183-.0034,4.0774-.0007.1482.0846.3649-.1013.4291-.1671.0577-.2739-.1371-.3806-.2473-1.0182-1.0517-1.6308-2.3414-2.1118-3.6967-.5343-1.5052-.8231-3.0673-.9953-4.6533-.0418-.3849.0596-.5645.4793-.5554.8759.019,1.7527.0179,2.6286.0006.3828-.0075.4918.1582.4888.5145-.0117,1.3769-.0048,2.754-.0043,4.1311Z"/>
        <path class="cls-1" d="M29.099,38.8818c0-1.3592.0127-2.7185-.0074-4.0774-.0063-.4234.1427-.5673.5599-.5563.8578.0227,1.7167.0137,2.575.0042.3277-.0036.5107.0895.4714.4597-.2638,2.4911-.8034,4.9014-2.0849,7.0914-.3075.5255-.675,1.0116-1.1154,1.4364-.0853.0823-.1706.2244-.3086.1637-.1375-.0604-.0874-.2196-.0877-.3371-.0035-1.3949-.0023-2.7898-.0022-4.1848Z"/>
      </g>
    </g>
  </g>
</svg>