<?xml version="1.0" encoding="UTF-8"?>
<svg id="Capa_2" xmlns="http://www.w3.org/2000/svg" viewBox="0 0 50.875 55.1769">
  <defs>
    <style>
      .cls-1 {
        fill: #fff;
      }
    </style>
  </defs>
  <g id="Capa_1-2" data-name="Capa_1">
    <g id="_x39_BxTih.tif">
      <g>
        <path class="cls-1" d="M50.8659,47.183c-.1877.8278-.4519,1.6237-.9596,2.3194-1.1438,1.5671-2.711,2.3099-4.6247,2.3181-3.5893.0154-7.1787.0042-10.7681.0051-.731.0002-.7307.0024-.7327.7508-.0007.2692.0132.5398-.0081.8074-.0536.6725-.6602,1.0395-1.2794.7818-.0986-.041-.1914-.0992-.2807-.1587-2.301-1.5308-4.6047-3.0576-6.8995-4.5976-.7578-.5086-.7524-1.2205.0087-1.7309,2.2953-1.5393,4.5988-3.0664,6.8972-4.6012.3348-.2236.6818-.3307,1.061-.1388.4047.2048.4988.5691.5041.993.0169,1.3778.0229,1.3777,1.3859,1.3777,2.8356,0,5.6713-.0121,8.5067.0109.5249.0043.7167-.1139.7129-.681-.0246-3.7334-.0241-7.4671-.0005-11.2005.0036-.5644-.1896-.7028-.7156-.687-1.1117.0335-2.2251.0145-3.3378.0077-.5802-.0035-.6275-.06-.4371-.5806.6425-1.7567.9073-3.5769.9072-5.4372,0-.4392.1793-.5624.5748-.5562,1.5783.0246,3.1576-.0473,4.7349.0734,2.0141.1541,3.9281,1.7565,4.5523,3.828.0723.24.1324.4836.1982.7255v16.3708Z"/>
        <path class="cls-1" d="M18.2373.0091c1.3049.7567,2.5235,1.6458,3.7832,2.4716,1.1703.7672,2.334,1.5446,3.4934,2.3282.8543.5773.8686,1.2564.0166,1.8286-2.2788,1.5303-4.5703,3.0418-6.8559,4.5621-.3321.2209-.6733.3417-1.0578.1356-.4012-.2151-.4921-.5747-.4966-.9977-.0145-1.3562-.0207-1.3561-1.407-1.3561-2.8529,0-5.7058.0112-8.5585-.0104-.502-.0038-.6397.1562-.6375.6451.017,3.7685.0165,7.5371.0004,11.3056-.002.4739.1467.6257.6171.6142,1.1297-.0276,2.2606.0005,3.3909-.0124.4197-.0048.5465.1274.4029.544-.6201,1.7989-.8853,3.6538-.8217,5.5546.0084.2502-.0285.4292-.3325.4213-1.7912-.0465-3.5962.1785-5.3719-.1124C1.8917,27.5195.0219,25.2783.0131,22.7378c-.0171-4.9709-.0176-9.9418-.0009-14.9127.0099-2.9357,2.4106-5.3379,5.3594-5.3574,3.6781-.0243,7.3564-.0063,11.0346-.0075.715-.0002.7151-.002.7171-.7058.0005-.1974.0117-.3956-.0018-.5921-.0377-.5457.1648-.9423.6851-1.1533h.4307Z"/>
        <path class="cls-1" d="M50.8659,11.9641c-.2504.4354-.6294.5821-1.1248.5805-3.4433-.0112-6.8867-.0041-10.33-.0071-.8514-.0007-1.167-.315-1.1681-1.1735-.0042-3.3722.0046-6.7444-.0081-10.1165-.0021-.5598.1794-.9746.678-1.2384C42.7716.0091,46.6303.014,50.489,0c.3213-.0012.3872.0647.386.3861-.014,3.8593-.0091,7.7187-.0091,11.578ZM44.5305,10.7414c1.292,0,2.5847-.0228,3.8758.0112.5155.0136.6398-.179.6362-.6556-.0176-2.3331-.0002-4.6664-.0107-6.9996-.0063-1.3987.2063-1.2161-1.2777-1.2431-.3976-.0072-.5369.1389-.5314.5341.0167,1.2023.0104,2.405.0035,3.6074-.0049.8605-.3414,1.2089-1.2093,1.2241-.9508.0166-1.9022.0142-2.8531.0014-.8923-.012-1.2366-.3604-1.2461-1.252-.0104-.9691.0057-1.9384-.0051-2.9075-.0152-1.3599.2093-1.1778-1.2543-1.2087-.4326-.0091-.5539.1643-.552.5726.012,2.5844.0148,5.169-.0021,7.7534-.003.4625.1767.5768.6044.5698,1.2737-.021,2.548-.0075,3.8221-.0075Z"/>
        <path class="cls-1" d="M6.3668,42.6232c1.705,0,3.41-.0027,5.115.0012.8569.0019,1.1768.313,1.178,1.166.0046,3.3926.005,6.7853-.0004,10.1779-.0013.8476-.364,1.2034-1.2273,1.2047-3.3921.0052-6.7841.005-10.1762.0004-.9254-.0013-1.2485-.3388-1.249-1.2784-.0017-3.3388-.0018-6.6776,0-10.0163.0005-.9722.2809-1.2537,1.2448-1.2549,1.705-.0022,3.41-.0006,5.115-.0006ZM6.2997,53.3027c1.2743,0,2.549-.0204,3.8225.01.5127.0122.6841-.1456.6788-.6691-.0238-2.3513-.004-4.7029-.0127-7.0544-.0049-1.3374.1753-1.1248-1.178-1.1738-.5198-.0188-.6405.1832-.6308.6578.0246,1.2022.0193,2.4053.0018,3.6078-.0111.7642-.3783,1.1112-1.1414,1.1172-.987.0078-1.9742.006-2.9613.001-.8639-.0043-1.1935-.3352-1.2003-1.2132-.0076-.9872.0064-1.9746-.0042-2.9618-.0148-1.3804.2-1.1639-1.1942-1.2067-.4746-.0146-.6214.1508-.6182.6186.0173,2.5488.0166,5.0979.0006,7.6467-.0029.4605.1354.6381.6146.6284,1.2737-.0258,2.5483-.0088,3.8226-.0086Z"/>
        <path class="cls-1" d="M32.2414,12.1446c2.853.0076,4.862,2.7994,3.9444,5.4986-.4193,1.2333-1.1677,2.3002-1.7992,3.4249-.6237,1.1107-1.2712,2.2079-1.9026,3.3143-.1698.2975-.3103.439-.5379.0358-1.1112-1.9685-2.2497-3.9216-3.3443-5.8992-.5241-.947-.763-1.9679-.5135-3.0617.4526-1.9841,2.1195-3.3181,4.1531-3.3127ZM32.1865,17.766c.8301.0047,1.4286-.583,1.4347-1.4086.0061-.8258-.5992-1.451-1.4037-1.4499-.7863.0011-1.4491.6511-1.4547,1.4265-.0059.8101.6078,1.4274,1.4237,1.432Z"/>
        <path class="cls-1" d="M25.4682,27.7861c1.7566-.0003,3.5133.0141,5.2695-.0091.523-.0069.7.1761.6556.6912-.1217,1.4099-.2523,2.8169-.5239,4.2086-.0792.4056-.2369.4779-.6268.353-3.2021-1.0252-6.4107-1.0279-9.6107.0118-.3743.1216-.5188.0241-.5916-.3439-.282-1.4262-.422-2.8682-.5303-4.3156-.0335-.4481.14-.605.5811-.6016,1.7923.0139,3.5848.0058,5.3772.0055Z"/>
        <path class="cls-1" d="M25.3083,26.2089c-1.7221,0-3.4445-.0144-5.1663.0091-.5014.0069-.6719-.167-.6304-.6578.1192-1.4113.2459-2.82.5208-4.2125.0776-.3933.2252-.4998.6223-.3698,2.3758.7777,4.8018.9711,7.2706.5593.3247-.0542.5406.0359.7086.332.7257,1.2793,1.4595,2.5542,2.2064,3.8212.2408.4085.1336.5255-.3119.5227-1.74-.011-3.4801-.0045-5.2202-.0044Z"/>
        <path class="cls-1" d="M25.4709,33.9012c1.48-.0608,2.8966.2168,4.295.6439.4334.1324.5758.2997.4028.7639-.5985,1.6063-1.2634,3.1679-2.5194,4.3933-1.4362,1.4011-2.9631,1.4017-4.398-.004-1.3076-1.2809-1.9955-2.9112-2.5766-4.6015-.1253-.3643.1253-.4324.3686-.5119,1.4418-.471,2.9135-.7527,4.4276-.6838Z"/>
        <path class="cls-1" d="M36.072,27.7869c.8422-.0003,1.6847.0142,2.5263-.006.4626-.0111.5985.1888.5462.6209-.3335,2.7551-1.3428,5.2213-3.1036,7.377-.2507.3069-.4342.3247-.7404.0653-.8218-.6961-1.7026-1.3149-2.6703-1.7949-.3005-.1491-.3637-.3502-.2969-.6518.3727-1.6822.5943-3.3843.6319-5.1075.0081-.369.1694-.5095.5265-.5056.86.0095,1.7201.0031,2.5802.0028Z"/>
        <path class="cls-1" d="M14.8718,27.7861c.8243.0002,1.6488.0107,2.4728-.0043.395-.0072.5901.1159.5973.5481.0282,1.7059.2568,3.3897.6258,5.0544.0654.2949.026.5052-.2816.6583-.9666.4811-1.8578,1.0844-2.6664,1.7987-.33.2915-.5268.2187-.7807-.0932-1.7327-2.1292-2.7338-4.5631-3.0698-7.2787-.0733-.5928.0071-.6783.6296-.6822.8243-.0052,1.6486-.0013,2.4729-.001Z"/>
        <path class="cls-1" d="M14.7941,26.2078c-.8434.0002-1.6871-.0112-2.5302.0051-.4038.0078-.55-.1558-.5058-.5494.3172-2.8231,1.3622-5.3343,3.1896-7.5168.1948-.2327.3498-.2448.5774-.047.8569.7445,1.7964,1.3726,2.8005,1.8996.262.1375.3054.321.2495.5741-.3763,1.7026-.6002,3.4246-.6399,5.1686-.0078.3444-.1686.4729-.5031.4691-.8792-.01-1.7586-.0034-2.638-.0032Z"/>
        <path class="cls-1" d="M25.6296,20.1764c-1.6971-.0555-3.1608-.2757-4.5852-.7459-.3316-.1095-.4781-.256-.3459-.6223.5069-1.4054,1.0923-2.765,2.03-3.9516,1.0583-1.339,2.3981-1.8698,4.0828-1.5292.2945.0595.3068.1737.1964.4009-.9491,1.9529-.7353,3.8525.2557,5.7217.2668.5033.2179.5879-.3356.6154-.501.0248-.9954.1477-1.2983.1111Z"/>
        <path class="cls-1" d="M36.2646,26.2084c-.8246.0002-1.6493-.0051-2.4738.0026-.3545.0033-.4657-.0961-.2675-.4375,1.1069-1.9067,2.2083-3.8166,3.3042-5.7296.1782-.3111.3122-.2884.4809,0,1.0202,1.7438,1.6214,3.6228,1.8385,5.6293.0434.4012-.1222.5478-.5161.5398-.7884-.016-1.5774-.0047-2.3662-.0046Z"/>
        <path class="cls-1" d="M21.2996,14.0456c-.1907.2957-.3824.5907-.5718.8872-.6299.9864-1.0892,2.0547-1.4625,3.1577-.139.4107-.3065.4498-.6532.2363-.6711-.4135-1.3333-.8363-1.9297-1.3552-.1591-.1385-.3111-.2697-.0745-.4701,1.3642-1.1558,2.8825-2.0289,4.6916-2.4559Z"/>
        <path class="cls-1" d="M21.256,40.0094c-1.767-.4784-3.2844-1.3568-4.6579-2.4993-.201-.1672-.1132-.3089.0425-.4394.6598-.5533,1.3594-1.0491,2.1156-1.4636.1815-.0995.3473-.1349.4291.1068.5114,1.5113,1.1864,2.9429,2.0707,4.2955Z"/>
        <path class="cls-1" d="M29.6608,40.0027c-.0482-.1227.0388-.2041.0975-.287.825-1.1641,1.4221-2.4432,1.8758-3.7885.1325-.393.2801-.4775.6455-.2569.6762.4082,1.3214.8558,1.9343,1.3529.2202.1786.2945.3307.0266.5497-1.3166,1.0759-2.7666,1.9083-4.3814,2.4475-.0648.0217-.1378.0526-.1983-.0176Z"/>
        <path class="cls-1" d="M16.2884,49.4669c-.2863.0005-.5739.0173-.8587-.0032-.5334-.0383-.9009-.3897-.9345-.8653-.0334-.4734.2913-.8858.8266-.9555.6388-.0832,1.2884-.0865,1.9266.0016.4989.0688.8134.4761.7994.9296-.0151.4876-.3668.8467-.9007.8884-.2846.0222-.5723.0039-.8587.0044Z"/>
        <path class="cls-1" d="M21.448,49.4608c-.3034,0-.6108.031-.9094-.0071-.4729-.0603-.7903-.3189-.8289-.8289-.0375-.4957.2203-.8803.7324-.9636.6874-.1118,1.3904-.1222,2.0766.0078.4797.0909.7322.4318.7016.9328-.0307.5009-.3307.787-.8094.8493-.3159.0411-.6415.0078-.9628.0078,0,.0006,0,.0013,0,.0019Z"/>
        <path class="cls-1" d="M29.4314,6.6167c-.2862,0-.5733.0142-.8585-.0031-.5195-.0314-.8814-.4114-.8769-.8973.0043-.4608.3508-.8569.8434-.8794.6425-.0293,1.289-.0323,1.9308.0054.4786.0282.816.4589.8013.9201-.0139.4361-.3542.8057-.821.8438-.3376.0276-.6792.0054-1.0191.0054,0,.0017,0,.0034,0,.005Z"/>
        <path class="cls-1" d="M34.6604,6.6155c-.3037,0-.6085.0171-.9107-.0038-.5001-.0346-.8468-.3925-.862-.8585-.0154-.4709.3564-.8968.861-.9195.6061-.0273,1.2152-.0264,1.8216-.0016.5217.0213.8856.4147.885.8938-.0006.5053-.3757.8679-.9374.8912-.2853.0118-.5716.0021-.8574.0021,0-.0012,0-.0024,0-.0036Z"/>
      </g>
    </g>
  </g>
</svg>