<?xml version="1.0" encoding="UTF-8"?>
<svg id="Capa_2" xmlns="http://www.w3.org/2000/svg" viewBox="0 0 41.0223 41.0274">
  <defs>
    <style>
      .cls-1 {
        fill: #fff;
      }
    </style>
  </defs>
  <g id="Capa_1-2" data-name="Capa_1">
    <g>
      <path class="cls-1" d="M20.1902,41.0274c-.6969-.3176-.957-.8681-.8859-1.6139.0275-.2885.0045-.5819.0045-.8808-.771-.1039-1.5078-.2033-2.2896-.3087-.1183.4282-.227.863-.3596,1.2903-.1592.5128-.6294.8581-1.1345.8586-.5199.0005-1.0008-.3059-1.1282-.7948-.0674-.2586-.0513-.5548-.0064-.8229.0633-.3783.1883-.7463.2947-1.1479-.7097-.2947-1.4046-.5833-2.1347-.8864-.1998.3414-.3982.6845-.6006,1.0252-.3939.663-1.0647.886-1.6604.5545-.6341-.353-.8039-1.0671-.4145-1.7661.1871-.3358.3838-.6662.5872-1.0181-.6158-.4753-1.213-.9362-1.862-1.4372-.2754.2912-.5407.5879-.8234.867-.5339.527-1.2771.5553-1.7536.0789-.5014-.5012-.4806-1.2335.0573-1.7827.2704-.2761.5509-.5422.8458-.8314-.4722-.6129-.9325-1.2103-1.4203-1.8433-.3413.1974-.6823.3981-1.0267.5929-.6646.3759-1.3579.2268-1.7135-.365-.3689-.614-.1712-1.3037.4961-1.7089.3404-.2067.6871-.403,1.0345-.606-.2912-.7111-.5728-1.3987-.8758-2.1384-.3715.0946-.7532.1885-1.1331.2893-.755.2002-1.3905-.1218-1.5809-.8051-.1882-.6756.1956-1.2748.9607-1.4936.3697-.1057.7412-.2048,1.1278-.3113-.0993-.7671-.196-1.5148-.2982-2.3042-.4149,0-.8251.0051-1.2352-.0011-.7382-.0112-1.2632-.5216-1.2602-1.217.0029-.6679.5313-1.1802,1.2513-1.1827,1.9627-.0067,3.9255-.0044,5.8882-.0018.8623.0011,1.3312.4689,1.3524,1.333.0873,3.5655,1.4513,6.545,4.1111,8.9236,1.5274,1.366,3.6141,2.3878,5.5025,2.6999v-1.0299c0-1.1883-.0106-2.3768.0079-3.5649.0043-.2763-.092-.3922-.3342-.4961-2.3671-1.0156-3.8196-2.7913-4.341-5.3129-.0911-.4408-.1248-.8991-.1321-1.3502-.0107-.6609.4894-1.1798,1.1476-1.1959.8273-.0202,1.6558-.0196,2.4832-.0008.682.0155,1.126.5169,1.1701,1.2695.0883,1.5064,1.3577,2.5398,2.8185,2.2945,1.0849-.1822,1.9203-1.1325,1.9842-2.2571.0502-.8825.4939-1.31,1.3687-1.3131.6943-.0025,1.3886-.0027,2.0829,0,.8962.0036,1.4028.5023,1.3487,1.4054-.1796,3.0025-1.6441,5.1504-4.3746,6.4093-.3394.1565-.4359.3234-.4311.6776.0201,1.4807.0085,2.9617.0085,4.5543.8803-.3083,1.7434-.5162,2.5207-.8984,4.4772-2.2013,6.8707-5.7979,7.0892-10.8034.0388-.888.4804-1.3437,1.3787-1.3447,1.8693-.0022,3.7388.0172,5.6077-.0095.7493-.0107,1.2586.2555,1.5115.9703v.5609c-.5075,1.1782-1.5806.8196-2.5022.8925-.0997.768-.1968,1.5159-.2974,2.2904.3921.1091.7753.2122,1.1565.3224.7469.2159,1.1201.8299.9264,1.5172-.1802.6394-.8454.9666-1.5681.7747-.3808-.1011-.7631-.1961-1.1376-.292-.3024.7354-.5849,1.4225-.8789,2.1376.3562.2082.7148.4091,1.0645.6242.6312.3883.8212,1.0858.4695,1.6907-.3336.5737-1.0417.7382-1.6772.385-.3575-.1987-.7107-.4053-1.066-.6084-.485.6288-.9455,1.2257-1.4213,1.8425.2954.2878.5769.5527.8478.828.5341.5428.5552,1.2788.0583,1.7844-.4687.4769-1.2165.4486-1.7528-.0795-.283-.2786-.5471-.5763-.8221-.8679-.6504.5013-1.2476.9616-1.8638,1.4366.2035.3528.3995.6833.5866,1.0189.3862.6929.2147,1.4125-.4166,1.768-.5893.3319-1.2642.1065-1.6578-.5562-.2023-.3405-.4006-.6834-.6001-1.0242-.7303.3028-1.4252.5908-2.1357.8854.1116.4152.2214.7983.3168,1.185.1427.5788-.0417,1.0945-.4794,1.3744-.6943.444-1.5575.1393-1.8102-.6521-.136-.4259-.2407-.8618-.3587-1.2902-.7822.1054-1.5187.2046-2.2788.307-.073.9157.2829,1.9887-.8923,2.4966h-.641Z"/>
      <path class="cls-1" d="M41.0223,16.0289c-.3204.6922-.8709.8936-1.6138.892-7.8637-.0171-15.7274-.0106-23.5911-.0106h-.5147v-.4612c0-1.7757.0013-3.5514-.0005-5.327-.001-.9657-.4578-1.4219-1.4218-1.4226-1.7356-.0012-3.4712-.0017-5.2069.0003-.9165.0011-1.3819.4645-1.3827,1.3756-.0016,1.789-.0005,3.5781-.0005,5.3671v.4423c-.087.0114-.1373.0237-.1876.0238-1.9626.001-3.9252.0049-5.8877-.0016-.5562-.0018-.9829-.3251-1.148-.8292-.1645-.5022-.0253-1.0242.4132-1.3118.2117-.1388.4857-.2218.7398-.2477.396-.0404.7991-.0107,1.2629-.0107,0-.1541,0-.2939,0-.4337,0-2.5901.0085-5.1802-.0061-7.7702-.0035-.6322.246-1.0503.7986-1.3535,2.3144-1.27,4.6181-2.5595,6.9264-3.8408.9682-.5374,1.8828.0026,1.8948,1.1208.0063.5825.0011,1.1652.0011,1.7994.1752-.0881.3044-.1477.4285-.2163,1.6217-.8972,3.2431-1.7951,4.8638-2.6941.9921-.5504,1.907-.0154,1.918,1.1265.0055.5737.001,1.1474.001,1.7892.1617-.0823.2868-.1414.4076-.2083,1.6212-.8981,3.2424-1.7963,4.8623-2.6967,1.0163-.5649,1.9383-.034,1.9396,1.1313.0042,3.9118.0016,7.8237.0017,11.7355v.4899h2.3279c.1329-1.1898.2653-2.3678.3958-3.546.3098-2.7979.6184-5.5959.9282-8.3938.0558-.5038.099-1.0098.1768-1.5103.0975-.6276.5494-1.0213,1.1855-1.0276,1.1881-.0118,2.3765-.0104,3.5646-.0013.6565.005,1.1255.3874,1.2114,1.046.1759,1.3491.3142,2.7031.4643,4.0555.3104,2.7978.6184,5.5959.9276,8.3939.0351.3179.0717.6357.1134,1.0039.5376,0,1.0687.0312,1.5947-.0075.7462-.0548,1.2916.1991,1.6123.8888v.641ZM19.7033,9.7002c-.2662,0-.5326-.0077-.7985.0015-.6828.0237-1.1993.5421-1.1966,1.1921.0027.6609.5091,1.1873,1.1841,1.2051.5453.0144,1.0917.0151,1.6369-.0014.6716-.0204,1.1915-.5659,1.1802-1.2103-.0115-.6548-.5271-1.1645-1.2075-1.1858-.2659-.0083-.5323-.0014-.7985-.0012Z"/>
      <path class="cls-1" d="M9.7112,16.889v-4.7581h3.1634v4.7581h-3.1634Z"/>
    </g>
  </g>
</svg>