<?xml version="1.0" encoding="UTF-8"?>
<svg id="Capa_2" xmlns="http://www.w3.org/2000/svg" viewBox="0 0 55.0107 53.6707">
  <defs>
    <style>
      .cls-1 {
        fill: #fff;
      }
    </style>
  </defs>
  <g id="Capa_1-2" data-name="Capa_1">
    <g id="UPgUYH.tif">
      <g>
        <path class="cls-1" d="M28.5031,53.6707c-3.6249-.2595-6.9455-1.659-10.3432-2.7669-1.2637-.412-2.536-.7857-3.8313-1.0858-3.1642-.7329-6.2683-.688-9.2694.6952-.3949.182-.573.0676-.7209-.3097-1.4104-3.5977-2.827-7.193-4.2554-10.7835-.1654-.4158-.1003-.6199.3528-.7327,5.5404-1.3793,10.8713-3.3874,16.1783-5.4557,2.7236-1.0615,5.374-1.0422,8.0144.2093,2.5847,1.2251,5.1896,2.3993,7.9717,3.1184.5644.1459,1.1353.2684,1.7064.3863,1.2446.257,1.9976,1.0403,2.4281,2.2004.1695.4567.0637.6778-.4146.8439-3.2031,1.1124-6.4434,1.3305-9.7388.4776-.6621-.1714-1.3201-.3583-1.9798-.5389-.097-.0266-.1913-.0649-.2893-.086-.5267-.1133-1.0168.11-1.1563.5231-.1312.3884.1681.8859.6758,1.0608,1.2197.42,2.4697.7302,3.7389.9567,3.4401.6139,6.7687.1445,10.0266-1.0346.51-.1846.9055-.4532,1.0111-1.0087.0673-.3541.3408-.414.606-.5034,1.6402-.5529,3.2802-1.1048,4.8857-1.7557,2.0461-.8295,3.9695-1.8468,5.6407-3.3252,1.2639-1.1181,3.047-1.0726,4.3144.0117,1.115.9539,1.2748,2.3377.3721,3.4944-2.0832,2.6692-4.5411,4.9553-7.2612,6.9572-5.3865,3.9643-11.3365,6.7253-17.8454,8.2759-.1948.0464-.3838.1167-.5755.1758h-.2417Z"/>
        <path class="cls-1" d="M28.2143,16.3568c.1232-.8584.2171-1.6074.3402-2.3516.2725-1.6488.8044-3.1986,1.8029-4.5618.1859-.2538.2155-.5594.2924-.8491.6583-2.478,1.7012-4.7457,3.6933-6.4486,2.2287-1.9052,4.8369-2.4415,7.6872-2.0009,1.3419.2074,2.6216.6242,3.8575,1.1778.6858.3072.8869.6365.7517,1.3254-.4521,2.3042-1.2535,4.4623-2.825,6.2563-1.9348,2.2087-4.4071,3.1376-7.3184,3.0172-1.4652-.0606-2.8727-.3713-4.238-.8746-.4675-.1723-.7014-.0443-.9065.372-.6414,1.3016-.967,2.6898-1.108,4.1177-.1919,1.9433-.2947,3.8965-.2349,5.8479.0394,1.2863.1407,2.5711.1019,3.8594-.0105.3494.0901.4984.4552.3548,2.3004-.905,5.1013.8378,5.3724,3.4332.0662.6337.5112.9061,1.1371.7123,1.8174-.5628,4.2881.5914,4.877,2.8761.1544.5991.4795.9108,1.1233.981,1.0152.1107,1.8761.5708,2.553,1.3552.2441.2828.2267.4582-.1259.6433-2.1858,1.147-4.5228,1.9049-6.8474,2.697-.284.0968-.4504.008-.582-.2518-.819-1.6173-2.1753-2.4486-3.9286-2.7847-2.9103-.5579-5.6305-1.6774-8.2517-3.0242-1.9861-1.0205-4.0563-1.5195-6.2859-1.3746-1.4908.0969-2.8672.6027-4.2377,1.138-.4688.1831-.9341.375-1.4043.5545-.5604.2138-.7172.0919-.6888-.5224.0823-1.7799,1.4032-3.3599,3.1402-3.769,1.0269-.2418,1.9932-.0929,2.9236.392.8349.4351,1.2773.212,1.4285-.7198.282-1.7377,1.2321-2.9372,2.9322-3.4016,1.7321-.4731,3.2232-.008,4.3465,1.4517.023.0299.0612.0482.0978.076.1701-.0635.1546-.2331.1622-.3544.187-2.9687-.1743-5.821-1.7266-8.4421-.3139-.53-.6203-.6214-1.2097-.4776-2.386.5821-4.784.7032-7.1291-.1961-3.0093-1.1541-4.6728-3.5044-5.61-6.4642-.3164-.9991-.5228-2.0251-.6015-3.0734-.0387-.5154.1414-.9486.6295-1.1287,3.1029-1.1446,6.2292-1.5194,9.3208-.0048,2.8329,1.3878,4.2842,3.8586,5.0856,6.7874.1963.7175.3392,1.4512.3851,2.1962.0349.5656.4019.9343.7631,1.4538ZM24.6659,14.8961c-.1985-.1764-.3293-.2987-.4664-.4134-1.4043-1.1754-2.9909-2.0314-4.6898-2.6974-.7045-.2762-.978-.7565-.7798-1.2819.2105-.5582.769-.7336,1.4715-.4406,1.4525.6057,2.8517,1.312,4.1497,2.2106.1656.1146.3032.3312.6128.2569-.1287-.5607-.3562-1.07-.5945-1.5733-.9992-2.1103-2.5581-3.5349-4.9096-3.9755-1.6578-.3106-3.2827-.0729-4.9018.2937-.3746.0848-.4231.2903-.3483.6201.2275,1.0024.4909,1.992.903,2.9378,1.7579,4.0352,5.3357,5.0338,9.5532,4.063ZM33.5611,6.7497c2.0141-.9958,4.0626-1.5488,6.1872-1.8334.6232-.0835,1.2417.2819,1.3355.7647.0957.4923-.2914.926-1.0017,1.0508-.9503.167-1.9041.3129-2.8347.5748-1.2862.3619-2.5102.8628-3.6097,1.636-.11.0774-.2856.1357-.261.3003.025.1672.2104.1675.3393.2.5455.1372,1.089.2907,1.6421.3881,2.1351.3761,4.1836.2138,5.9748-1.1518,1.7457-1.331,2.5994-3.2262,3.238-5.2548.1569-.4983-.0098-.688-.4559-.8313-.9988-.321-2.0147-.5497-3.0528-.6969-3.216-.4563-6.5984,1.6862-7.5011,4.8536Z"/>
      </g>
    </g>
  </g>
</svg>