<?xml version="1.0" encoding="UTF-8"?>
<svg id="Capa_2" xmlns="http://www.w3.org/2000/svg" viewBox="0 0 51.6957 55.1853">
  <defs>
    <style>
      .cls-1 {
        fill: #fff;
      }
    </style>
  </defs>
  <g id="Capa_1-2" data-name="Capa_1">
    <g id="sxtKcH.tif">
      <g>
        <path class="cls-1" d="M41.3576,55.1853H1.1899c-.8413-.3694-1.1971-1.0362-1.1851-1.9303.0034-.2512-.0013-.5025-.0013-.7538,0-15.0758-.0001-30.1516,0-45.2274,0-1.7588-.0108-3.5178.0054-5.2765C.0217.6079.6509.0006,2.0329.0005c12.8307-.0006,25.6614-.0007,38.4921,0,1.3553,0,2.0043.6043,2.0112,1.9537.017,3.3381.0007,6.6764.0123,10.0146.0016.4508-.1726.666-.6028.8019-2.7019.8534-5.3957,1.7322-8.0928,2.6007-.4457.1435-.8901.2993-1.2734.5684-.3439.2414-.7076.3024-1.1149.2999-1.7944-.0109-3.589-.0108-5.3835-.0004-.8401.0049-1.4736.5122-1.5995,1.2405-.1735,1.0041.4386,1.8006,1.4594,1.8265,1.2554.0319,2.5121.0215,3.7682.0129.4732-.0032.6542.1851.559.6562-.1288.6378-.0761,1.2879-.1004,1.9325-.03.7964-.0234.7988-.8294.7989-6.8371.0006-13.6741.0004-20.5112.0003-.3229,0-.6447-.0061-.9611.0853-.6686.1931-1.1313.7777-1.1455,1.4612-.0141.6817.429,1.2807,1.0958,1.4965.3142.1017.6352.1001.9585.1001,5.4374-.0007,10.8747-.0005,16.3121-.0004,1.5612,0,3.1228.0183,4.6835-.0101.5027-.0091.689.1775.7623.656.0975.6363.2618,1.2637.4217,1.8887.2157.843.2204.8477-.6305.8525-.1794.001-.3589.0003-.5384.0003-6.9447,0-13.8895-.0001-20.8342.0005-.2691,0-.5391-.0056-.8071.013-.7415.0515-1.3206.5964-1.4152,1.3172-.092.7009.3066,1.3573.9754,1.6277.3275.1324.667.1208,1.0075.1208,7.6625.0001,15.3251.005,22.9876-.0104.5199-.001.7991.1653,1.0383.6303,1.636,3.1817,3.9164,5.8217,6.783,7.9605.7225.5391,1.5224.9036,2.4131.9758.5221.0423.6138.2836.6129.7213-.0075,3.5536-.007,7.1071-.0032,10.6607.001.8934-.3439,1.5616-1.1861,1.9307ZM13.9499,35.7005c-1.8298,0-3.6596-.0065-5.4894.0024-1.1729.0057-1.7409.5848-1.7438,1.7636-.0048,2.0094-.0048,4.0189,0,6.0283.0028,1.1796.5725,1.7625,1.7422,1.7644,3.6596.0059,7.3192.0059,10.9788,0,1.1692-.0019,1.743-.5874,1.7458-1.7628.0047-1.9915.0039-3.983.0006-5.9745-.0021-1.2492-.5577-1.8152-1.7986-1.8199-1.8118-.0069-3.6237-.0018-5.4356-.0014ZM13.9794,9.7666c-1.8304,0-3.6608-.0037-5.4912.0013-1.1736.0032-1.7679.5874-1.771,1.7448-.0055,2.0281-.006,4.0562.0004,6.0842.0035,1.1115.5799,1.7139,1.683,1.717,3.6967.0105,7.3934.0104,11.0901.0002,1.1043-.003,1.6884-.6064,1.692-1.7099.0067-2.0281.0058-4.0562.0006-6.0842-.003-1.1538-.6036-1.7487-1.7664-1.752-1.8125-.0052-3.6249-.0014-5.4374-.0014ZM30.0853,12.8373c1.3439,0,2.6877.0059,4.0315-.0019,1.033-.006,1.7054-.613,1.7101-1.5218.0047-.9097-.6762-1.5422-1.6931-1.5445-2.6698-.006-5.3396-.0067-8.0094.0006-1.0318.0028-1.6782.6191-1.6688,1.5565.0092.9206.6321,1.5003,1.6518,1.5081,1.3259.0102,2.6518.0025,3.9778.003ZM30.1597,45.2613c1.3079,0,2.6157.0003,3.9236-.0002.3053-.0001.6078-.0078.8915-.1503.624-.3134.9773-1.0452.8193-1.7121-.1729-.7294-.7669-1.2036-1.5738-1.2063-2.6873-.0089-5.3747-.008-8.0621-.0024-1.0369.0022-1.6927.6023-1.7024,1.5289-.0098.9415.6204,1.5319,1.673,1.5395,1.3436.0098,2.6874.0024,4.031.0029Z"/>
        <path class="cls-1" d="M51.6957,22.9823c-.1178,1.2118-.2187,2.4247-.4936,3.6164-1.1079,4.8023-3.6112,8.7062-7.5208,11.7044-.8849.6786-1.5537.6819-2.4408-.0038-4.6255-3.5754-7.2635-8.2679-7.9013-14.0855-.1534-1.399-.1153-2.7927.0256-4.1875.084-.8314.5022-1.3965,1.3161-1.6557,2.3579-.7509,4.7152-1.5038,7.0694-2.2663.5003-.162.9736-.1422,1.4721.0195,2.2512.7304,4.5029,1.4604,6.7661,2.1526.9544.2919,1.5062.8454,1.5621,1.865.0264.4815.0954.9606.1451,1.4408v1.4001ZM37.705,28.1108c-.0199.3153.1101.684.399.9788.64.6533,1.2727,1.3161,1.9462,1.9336.6566.602,1.4984.6001,2.1341-.0214,1.5517-1.517,3.0798-3.0582,4.6057-4.6013.3879-.3922.5453-.8822.3997-1.435-.3167-1.2027-1.6672-1.596-2.5882-.7263-.8994.8493-1.7573,1.7427-2.6328,2.6173q-.7975.7966-1.6619.0632c-.1222-.1033-.2569-.1984-.3996-.2696-1.0395-.5187-2.1935.1963-2.2023,1.4606Z"/>
        <path class="cls-1" d="M13.9647,42.1867c-1.1835.0002-2.3672-.0148-3.5502.0076-.4726.009-.6399-.1803-.6287-.6338.0182-.7348.0131-1.4705.0029-2.2056-.0055-.3982.1393-.5829.5668-.5808,2.4027.0122,4.8055.0096,7.2082.0022.3541-.0011.5411.1231.5395.4928-.0035.8069-.0052,1.6139.001,2.4208.0032.4133-.2299.5035-.5893.5004-1.1834-.0102-2.3669-.0038-3.5503-.0036Z"/>
        <path class="cls-1" d="M13.941,16.2339c-1.1843.0002-2.3687-.0099-3.5528.0059-.4002.0053-.6053-.1204-.5988-.547.0117-.7715.0093-1.5434.0006-2.3149-.0044-.3916.18-.5404.5596-.5395,2.4045.006,4.809.0064,7.2135,0,.3919-.001.5489.1753.5448.5544-.0083.7716-.0086,1.5433-.0015,2.3149.0036.3889-.1713.5357-.5586.5311-1.2021-.0143-2.4044-.0052-3.6067-.005Z"/>
      </g>
    </g>
  </g>
</svg>