<?xml version="1.0" encoding="UTF-8"?>
<svg id="Capa_2" xmlns="http://www.w3.org/2000/svg" viewBox="0 0 55.0543 55.0627">
  <defs>
    <style>
      .cls-1 {
        fill: #fff;
      }
    </style>
  </defs>
  <g id="Capa_1-2" data-name="Capa_1">
    <g id="knIJHi.tif">
      <g>
        <path class="cls-1" d="M55.0543,41.7413c-.3189,1.2509-1.1038,2.1162-2.1755,2.8074-3.5949,2.3185-7.1685,4.67-10.747,7.0139-1.4319.9379-2.9854,1.4004-4.7091,1.397-8.7358-.0172-17.4717-.0077-26.2075-.0081-.7797,0-.7818-.0017-.7819-.7489-.0007-5.0303.0051-10.0605-.0096-15.0908-.0013-.4485.139-.7115.5244-.9458,1.7645-1.0724,3.5384-2.0974,5.6227-2.4444,3.4191-.5692,6.5681.0945,9.356,2.1447.8904.6548,1.7476.9471,2.8444.9169,2.4864-.0684,4.976-.0282,7.4642-.0183,1.9151.0076,3.6045,1.4756,3.8003,3.2785.2215,2.0396-1.0018,3.7917-2.9773,4.2387-.2926.0662-.6034.0712-.9058.0719-2.5599.0055-5.1198.0007-7.6796.0051-.8899.0015-1.5175.3982-1.7409,1.0773-.2633.8003.1702,1.6719.9751,1.9394.2894.0962.5905.1316.8989.1311,2.4704-.0043,4.9408.0058,7.4111-.0043,3.5858-.0147,6.2952-2.2107,7.0451-5.7196.0714-.3342.2241-.5348.4976-.7066,1.7882-1.1237,3.5702-2.2574,5.355-3.3866,2.3756-1.5031,5.1864-.4869,6.052,2.187.0275.0849.0583.1688.0875.2531v1.6115Z"/>
        <path class="cls-1" d="M55.0543,22.941c-.7716,1.2592-1.8171,2.3012-2.7411,3.4387-1.3995,1.7229-2.835,3.4165-4.2584,5.1199-.3684.4408-.7344.8727-1.3742.9446-.7751.0871-1.2839-.2989-1.7414-.8516-1.6666-2.0135-3.3432-4.0187-5.0161-6.027-.5385-.6465-1.0764-1.2936-1.6158-1.9393-.4899-.5864-.6564-1.237-.311-1.9426.3355-.6852.9283-.9358,1.6779-.9297,1.1713.0095,1.2578.1948.6344-1.0686-.3253-.6592-.6783-1.3036-1.1044-1.9022-.1947-.2734-.2218-.5402-.1607-.8582,1.0174-5.2986-.16-10.0411-3.6114-14.2056-.1061-.128-.2779-.23-.2486-.4509.2552-.0352.4492.1095.6518.2054,7.6531,3.6224,12.6878,9.4989,15.1059,17.6069.1585.5315.374.744.9179.6867.3896-.0411.7892.0189,1.1804-.0133.9268-.0764,1.6009.2747,2.0147,1.1124v1.0743Z"/>
        <path class="cls-1" d="M1.1242,55.0627C.313,54.6639-.0034,54.0262,0,53.1125c.0233-6.2258.0118-12.4517.0125-18.6775.0002-1.3752.5869-1.9686,1.9453-1.9701,1.1808-.0013,2.3615-.0041,3.5423.0011,1.1208.0049,1.7825.6488,1.7831,1.754.0038,6.369-.0032,12.738.008,19.1069.0015.8456-.4131,1.3712-1.1178,1.7358H1.1242Z"/>
        <path class="cls-1" d="M36.2912,13.5283c.0742,7.297-6.0823,13.4741-13.5216,13.4442-7.3227-.0294-13.4665-6.1386-13.4306-13.5552C9.3747,6.0379,15.5543-.0444,22.9074.0002c7.3375.0446,13.4973,6.1725,13.3838,13.5281ZM18.6623,16.8939c.1556,1.2164.8808,2.2305,2.0539,2.9266.3323.1972.5237.3911.5754.8052.1023.8193.7754,1.3973,1.52,1.4073.7393.0099,1.4329-.5635,1.5394-1.3813.0566-.4346.2529-.6429.6092-.8406,1.5462-.8581,2.3142-2.5769,2.0174-4.4372-.2487-1.559-1.6181-2.9883-3.2056-3.324-.3662-.0774-.7455-.091-1.1163-.1494-.6136-.0966-.9976-.6109-.9342-1.2331.0611-.5992.5786-1.0234,1.2014-.9696.5794.0501.8602.4194,1.034.942.3071.9231,1.1237,1.3597,1.9707,1.0899.8045-.2563,1.2227-1.0908.9911-1.9915-.2969-1.1547-.9892-2.0161-2.0117-2.6011-.3225-.1845-.4952-.3722-.5439-.7665-.1043-.8452-.7996-1.4429-1.5554-1.4298-.7447.0129-1.4123.5923-1.5178,1.4112-.0501.3883-.2138.5843-.5368.7701-2.5158,1.447-2.9028,4.7601-.8114,6.7653.8509.8159,1.8961,1.0938,3.03,1.1886.5642.0472.9404.4964.9606,1.0472.0197.537-.3111.9978-.8098,1.1279-.5322.1388-1.0603-.0972-1.3039-.5973-.0856-.1758-.1301-.3713-.2092-.5507-.2972-.6736-1.0288-1.058-1.7054-.9032-.7765.1777-1.2452.7545-1.2417,1.6942Z"/>
      </g>
    </g>
  </g>
</svg>