<?xml version="1.0" encoding="UTF-8"?>
<svg id="Capa_2" xmlns="http://www.w3.org/2000/svg" viewBox="0 0 55.3521 55.0756">
  <defs>
    <style>
      .cls-1 {
        fill: #fff;
      }
    </style>
  </defs>
  <g id="Capa_1-2" data-name="Capa_1">
    <g id="eYESK2.tif">
      <g>
        <path class="cls-1" d="M4.8698,0c1.475,1.775,2.951,3.5491,4.4228,5.3267.109.1317.3227.2587.2289.4489-.0919.1863-.325.0971-.4952.0996q-1.4414.0211-1.4415,1.4609c0,13.1285,0,26.257.0001,39.3855q0,.8598.849.8604c.3787.0002.7595-.0249,1.1356.0062.4607.038.5827-.1575.5794-.5942-.0169-2.1819-.0076-4.3641-.0076-6.5462,0-1.6771.0146-3.3545-.0087-5.0313-.0069-.4987.1257-.7093.6635-.7035,2.1458.0231,4.292.0205,6.4379.0014.4963-.0044.655.1693.6531.6612-.015,3.8231-.0085,7.6462-.0077,11.4694q.0001.7355.7498.7371,1.2433.0027,1.2433-1.2665c0-6.1134-.0003-12.2268.0005-18.3402,0-.745.0026-.7473.7428-.7478,2.0378-.0013,4.0756-.0007,6.1135-.0004q.869.0002.871.8547c.0006,6.1855.0003,12.3711.0004,18.5566,0,.1623.0081.3249.0007.4868-.0258.5673.4077.5126.7086.4388.4133-.1014,1.0658.4137,1.2175-.4187.0286-.1572.0063-.3239.0063-.4862.0001-5.0855-.0003-10.171.0006-15.2565.0001-.8034.0027-.8047.816-.805,2.0739-.0008,4.148.0164,6.2215-.0112.5492-.0073.705.1678.7031.711-.0181,5.1756-.0109,10.3513-.0106,15.5269,0,.7566.0011.7648.7779.7557,1.4022-.0164,1.2111.1989,1.212-1.1892.0056-8.9808.0028-17.9615.003-26.9423q0-.8704.848-.8714c2.0559-.0005,4.1117-.0012,6.1676.0005.7176.0006.7217.0036.7218.7239.001,9.1431.0007,18.2861.0008,27.4292q0,.8506.85.8511c.3607.0002.7234-.0243,1.0815.006.4627.0391.6761-.1165.6282-.6049-.0298-.3036-.015-.613-.0013-.919.0075-.1685-.0882-.4012.1222-.4833.1632-.0636.2853.1208.4056.2206,1.1378.9441,2.2718,1.8927,3.4069,2.84.5537.4621,1.1015.9316,1.6637,1.3833.266.2137.2677.372.001.5927-1.7083,1.4141-3.4076,2.8392-5.1122,4.2579-.1069.089-.2172.2444-.3653.1885-.193-.0728-.1179-.2794-.1223-.4313-.0104-.3604-.0187-.722-.0004-1.0817.0194-.3811-.1497-.5246-.5159-.4941-.1791.0149-.3605.0021-.5408.0021-15.1845,0-30.3689,0-45.5534-.0001q-.8937,0-.895-.8862c-.0003-15.0942-.0002-30.1883-.0003-45.2825,0-.1984-.0072-.3969-.0015-.595.0084-.2966-.1291-.4187-.4255-.4185-.5401.0004-1.0802-.0207-1.6203-.0329C0,5.8076,0,5.7715,0,5.7354,1.5872,3.8236,3.1744,1.9118,4.7615,0c.0361,0,.0721,0,.1082,0Z"/>
        <path class="cls-1" d="M33.6246,10.6669c-.1387,5.1565-4.2304,9.1561-9.2495,9.0413-5.0686-.1159-9.0882-4.3168-8.9083-9.4252.1745-4.9531,4.1784-8.8272,9.2394-8.7553,5.0007.0711,9.0488,4.2938,8.9184,9.1392ZM28.8884,5.7346c.0199-.3347-.1439-.5948-.468-.7503-.3057-.1467-.6038-.1065-.8587.1082-.1493.1257-.2759.2838-.3923.4423-.6398.8708-1.2739,1.7459-1.9089,2.6202-1.6088,2.215-3.2187,4.4291-4.8243,6.6463-.3841.5304-.3587,1.0263.0492,1.3405.4172.3214.9398.1927,1.3445-.3312.011-.0142.0209-.0293.0315-.0439,2.2551-3.1033,4.5098-6.2069,6.7665-9.309.152-.209.2697-.4259.2605-.7231ZM23.2434,6.9213c-.0029-.8866-.6879-1.5798-1.5697-1.5884-.8861-.0086-1.6172.7176-1.6202,1.6091-.0029.8615.7141,1.5758,1.5867,1.5808.9236.0053,1.6062-.6766,1.6032-1.6016ZM27.417,12.6796c-.8593.0042-1.6096.7341-1.6107,1.5668-.0011.8701.7553,1.6269,1.6246,1.6256.8955-.0014,1.5807-.7167,1.5709-1.6402-.0095-.8968-.6832-1.5567-1.5848-1.5523Z"/>
      </g>
    </g>
  </g>
</svg>