<?xml version="1.0" encoding="UTF-8"?>
<svg id="Capa_2" xmlns="http://www.w3.org/2000/svg" viewBox="0 0 58.5741 48.9264">
  <defs>
    <style>
      .cls-1 {
        fill: #fff;
      }
    </style>
  </defs>
  <g id="Capa_1-2" data-name="Capa_1">
    <g id="uF0848.tif">
      <g>
        <path class="cls-1" d="M58.5741,48.9264c-3.3808-.2032-6.7469-.5777-9.4351-2.8872-.8468-.7275-1.4312-.8193-2.4636-.5207-3.5125,1.016-6.8573.6033-9.7976-1.7281-1.9904-1.5782-3.0383-3.746-3.4515-6.1967-.8107-4.8077.3963-9.0205,3.9129-12.4877.3399-.3352.7353-.6139,1.1026-.9216.335-.2808.5004-.1767.619.2202.4829,1.616,1.3501,3.0156,2.4449,4.2875,1.0963,1.2736,2.3962,2.2848,3.8791,3.0656.724.3812.7269.3764.071.9162-1.7397,1.4317-2.801,3.2435-3.1292,5.4861-.3382,2.3114,1.043,4.025,3.4609,4.2518.0795.0075.1604.0034.2393.0147,1.1062.1579,1.9709-.0666,2.7769-1.0111,1.1872-1.3912,2.8019-2.293,4.4424-3.1062.4078-.2022.5744-.0901.6715.317.3585,1.5027.2868,2.9801-.3233,4.3998-.1773.4126-.1193.5635.2673.7649,2.1149,1.1018,3.8209,2.6109,4.7125,4.8957v.2398ZM38.919,38.2147c.6622.0141,1.0571-.1938,1.1004-.7099.0405-.483-.2696-.7666-.7733-.7985-.3606-.0228-.6335-.1887-.8543-.4811-.2814-.3725-.6661-.4624-1.0524-.1943-.4203.2917-.417.7081-.1633,1.1106.4371.6937,1.1021,1.0088,1.743,1.0731ZM37.4527,34.5184c.3573.0204.6391-.17.7381-.5722.0934-.3796-.072-.6971-.4183-.8313-.4424-.1714-.7136-.4455-.9089-.8773-.1473-.3256-.477-.4923-.8556-.3506-.3762.1408-.5713.4274-.5339.8389.0763.8411,1.0879,1.782,1.9787,1.7925ZM41.0842,33.6595c.5938.0169.9307-.1522,1.0036-.6286.0664-.4343-.1393-.7486-.5698-.8418-.4222-.0914-.6972-.3158-.9202-.6794-.2356-.3841-.6308-.4187-.9966-.2233-.3554.1898-.4498.5223-.3193.9199.2413.7355,1.1732,1.4417,1.8024,1.4533Z"/>
        <path class="cls-1" d="M45.9777,0c.2272.2346.4342.4736.3346.8421-.057.2109.1243.32.2255.4617.4131.5791.4274,1.277.0382,1.8459-.3564.521-.9894.7546-1.6368.6039-.6505-.1514-1.0959-.6241-1.1478-1.356-.0395-.5572-.3293-.3666-.6023-.274-2.9399.9971-5.7621,2.2629-8.489,3.7422-.7197.3904-1.4186.8191-2.1359,1.2142-.2757.1518-.3462.2961-.2169.6163.3352.8303.0977,1.5708-.5775,1.9879-.6492.4011-1.4332.2967-1.9984-.3379-.2462-.2765-.4038-.2166-.6447-.0476-3.1996,2.2453-6.1557,4.7718-8.8411,7.6138-.2216.2346-.3232.3803-.0185.6688.6946.6576.7291,1.5453.1542,2.1918-.5751.6466-1.4826.7251-2.1983.1243-.2964-.2488-.3994-.1606-.5926.0845-1.7114,2.17-3.2579,4.448-4.5209,6.9091-.2512.4896-.4838.7351-1.1357.6486-1.2375-.1642-2.3834.2251-3.3095,1.0849-.3468.3219-.6515.3924-1.0676.2101-.2359-.1033-.4935-.1612-.7453-.2235-.7619-.1886-.7652-.1868-.4037-.9173,2.732-5.5203,6.5347-10.2098,11.1221-14.2849,5.1171-4.5456,10.8859-8.0281,17.2615-10.5095,3.2662-1.2712,6.6239-2.2203,10.0807-2.8119.117-.02.2308-.058.3462-.0877.2399,0,.4799,0,.7198,0Z"/>
        <path class="cls-1" d="M4.9675,47.5105c-.4433-.0345-.9392-.2595-1.4526-.4173-.7059-.217-1.4141-.4286-2.111-.6722-1.1278-.3941-1.651-1.3892-1.2917-2.5238,1.3131-4.1468,2.635-8.291,3.977-12.4286.4192-1.2925,1.7658-1.79,2.971-1.183.3601.1813.2052.4241.1607.6592-.3343,1.7647.0806,3.2864,1.4604,4.4887.2389.2082.4969.4331.7867.5364.5696.203.6184.5025.4399,1.0445-.9864,2.9942-1.9297,6.0026-2.8982,9.0028-.307.9509-1.0518,1.508-2.0423,1.4933Z"/>
        <path class="cls-1" d="M48.5931,21.1892c.9357.0776,1.9304.1588,2.9247.2443.1339.0115.3105-.0168.3643.1441.0665.199-.1275.272-.2462.3618-.4817.3645-1.0297.6115-1.576.8587-.4693.2123-.6887.5498-.5067,1.0559.1511.4201.5857.5457,1.1147.3477.6208-.2323,1.1982-.5477,1.7454-.9215.126-.086.2585-.257.4204-.1632.1956.1133.0779.3213.0614.4911-.2683,2.7573-1.6401,4.82-3.8029,6.5226-1.1261.8865-2.0155.8612-3.1607.1885-2.5817-1.5166-4.4941-3.5631-5.4214-6.449-.2697-.8393-.2487-.872.5427-1.2118,1.8723-.8039,3.8284-1.2517,5.8642-1.3546.5381-.0272,1.0754-.0731,1.676-.1147ZM46.3086,27.6921c.7242-.0106,1.2938-.5739,1.2995-1.2852.0057-.7075-.6316-1.3218-1.3567-1.3076-.6988.0137-1.3059.6223-1.3016,1.305.0046.7337.601,1.2989,1.3588,1.2878Z"/>
        <path class="cls-1" d="M8.6376,32.0357c-.0106-1.6146,1.2558-2.9257,2.8934-2.9952,1.5679-.0666,2.9995,1.24,3.0201,2.8546.0078.6081.1922.9586.7276,1.2078.4503.2096.8726.4827,1.2955.7467.5554.3466.6944.8057.3827,1.3788-.4287.7882-.8781,1.5663-1.3487,2.3302-.29.4708-.7551.5841-1.1877.3529-.4472-.239-.6106-.7324-.3642-1.2281.2216-.4457.4776-.8757.7394-1.2996.1611-.2609.137-.4383-.1446-.5764-.161-.0789-.3285-.156-.4674-.2663-.3618-.2871-.6601-.2512-1.0678-.0062-1.9737,1.186-4.4634-.2194-4.4784-2.4991ZM11.5992,33.1236c-.4883-.3726-1.1488-.6763-.7927-1.449.3917-.85,1.0766-.5058,1.8497-.1772-.5001-.5892-.9375-.7655-1.4908-.5301-.5292.2252-.732.6445-.6721,1.1992.0689.6377.4916.9004,1.1059.9571Z"/>
        <path class="cls-1" d="M53.9137,15.6892c-.2265-3.1306-1.4501-5.8497-3.455-8.2412-.7738-.923-1.6586-1.7309-2.6476-2.4174-.3459-.2401-.4884-.4569-.1243-.786.0583-.0527.1002-.1241.1468-.189.602-.8393.6075-.8467,1.4521-.1879,3.5482,2.7676,5.6848,6.3825,6.3884,10.8177.2951,1.8599-.1956,3.6028-1.0595,5.2543-.1855.3545-.4379.3108-.754.2647-1.282-.187-1.2905-.1821-.7128-1.3348.5011-.9999.7971-2.0433.7658-3.1803Z"/>
        <path class="cls-1" d="M35.5717,9.6268c-.4204.0918-.798.0214-1.1759.0198-.4031-.0017-.5573-.1401-.4316-.5379.03-.095.0553-.1924.0718-.2906.1585-.9407.158-.9294,1.0881-.9443,2.9574-.0474,5.6536-.7691,7.734-3.0436.1944-.2125.37-.2593.6185-.0822.2096.1494.4442.2686.6788.3773.5898.2734.6052.31.1531.8126-2.121,2.358-4.8296,3.4576-7.94,3.6861-.2781.0204-.5591.0027-.7968.0027Z"/>
        <path class="cls-1" d="M22.694,18.8292c-.0631,0-.1203.0173-.14-.0026-.3944-.3975-.2358-.9749-.4625-1.438-.1243-.2539.1885-.3092.3602-.3715.9045-.3283,1.7728-.7286,2.5952-1.2301,1.6779-1.0232,3.0009-2.3813,3.8709-4.1499.2194-.446.4311-.704.9344-.3846.0974.0618.2248.0813.3412.1073.8563.1914.8621.0946.4171.9958-1.6058,3.2517-4.2773,5.2478-7.6518,6.3939-.0943.032-.1909.0576-.2647.0797Z"/>
        <path class="cls-1" d="M20.5511,22.4769c-.1059,3.2517-1.1857,6.0396-3.8435,8.0757q-.6311.4835-.9251-.2194c-.3986-.9539-.4067-.9628.3705-1.6691,1.7492-1.5896,2.4679-3.6212,2.5568-5.9215.0336-.8682.0178-.8688.8712-.9302.0796-.0057.1592-.0115.2384-.0208.7274-.0859.7466-.0682.7317.6853Z"/>
      </g>
    </g>
  </g>
</svg>