<?xml version="1.0" encoding="UTF-8"?>
<svg id="Capa_2" xmlns="http://www.w3.org/2000/svg" viewBox="0 0 55.068 55.0633">
  <defs>
    <style>
      .cls-1 {
        fill: #fff;
      }
    </style>
  </defs>
  <g id="Capa_1-2" data-name="Capa_1">
    <g id="A0oY6r.tif">
      <g>
        <path class="cls-1" d="M.0103,30.4444c.2055-.3602.4699-.6706.7635-.964,6.7014-6.6959,13.3993-13.3953,20.0982-20.0937,1.0414-1.0413,1.9068-1.0442,2.9467-.0045,6.712,6.7106,13.4204,13.4249,20.1392,20.1287.5426.5414.7926,1.1384.7909,1.9111-.0156,7.1811-.0181,14.3622.0016,21.5433.0026.9324-.2667,1.6435-1.1111,2.0877h-19.7728c0-1.6293-.0002-3.2586-.0003-4.8879q0-1.2532,1.2289-1.4845c6.6692-1.2555,11.7454-7.304,11.7426-13.9916-.0005-1.1883-.5907-1.794-1.7893-1.7597-5.3464.1529-9.3795,2.5934-12.223,7.0732-.5047.7951-.4657.795-.9851-.0223-2.8472-4.4803-6.8868-6.9088-12.2334-7.0507-1.1792-.0313-1.7602.5586-1.7364,1.7411.0939,4.6684,2.039,8.4226,5.6844,11.294,1.965,1.5478,4.2197,2.4712,6.7004,2.8252.2855.0408.5288.0921.5261.4646-.0144,1.9328-.0215,3.8657-.0312,5.7986-6.77,0-13.5401-.0038-20.3101.0104-.368.0008-.4408-.0723-.4402-.4403.0136-8.0595.0103-16.1191.0103-24.1787Z"/>
        <path class="cls-1" d="M55.0667,16.5751c0,.1969.0032.3938-.0005.5906-.0184.9652-.7266,1.6918-1.6472,1.6926-.897.0007-1.618-.6964-1.6464-1.6375-.0955-3.1681-.9792-6.0658-2.9764-8.5629-2.5583-3.1984-5.8734-4.9972-9.9811-5.2849-.3033-.0212-.6055-.0599-.909-.0764-1.0239-.0555-1.7294-.7604-1.6927-1.699.0377-.964.741-1.621,1.7868-1.5969,6.4404.1485,11.3225,3.0405,14.7003,8.4765,1.5312,2.4643,2.264,5.1977,2.3663,8.0979Z"/>
        <path class="cls-1" d="M48.1803,16.8567c.0167,1.4883-1.1439,2.3984-2.3575,1.8365-.7409-.3431-.9738-.9944-1.013-1.7567-.1458-2.837-1.5439-4.8474-4.0702-6.0867-.7596-.3726-1.5748-.5805-2.4312-.5953-.2134-.0037-.4284-.0303-.6388-.068-.938-.1681-1.5368-.8975-1.4514-1.7569.093-.9359.7582-1.5498,1.7426-1.5431,2.3734.0163,4.4921.7805,6.3479,2.2556,2.3545,1.8715,3.8394,4.8452,3.8716,7.7146Z"/>
        <path class="cls-1" d="M41.2869,17.0916c.012.8801-.5756,1.5868-1.4447,1.7373-.7828.1356-1.58-.3536-1.8137-1.1686-.1013-.3535-.2763-.5204-.6244-.625-.814-.2446-1.3127-1.0496-1.1775-1.8147.1511-.8549.8832-1.4614,1.7443-1.4451,1.7379.0329,3.2923,1.5874,3.3159,3.3161Z"/>
        <path class="cls-1" d="M20.605,45.438c.0409.328-.2268.228-.424.1931-1.3564-.24-2.6196-.7406-3.782-1.4664-2.7475-1.7153-4.4724-4.1726-5.2065-7.3245-.1578-.6777-.09-.7581.5688-.5922,4.6625,1.1742,7.589,4.0961,8.7754,8.7568.0308.1208.0397.2472.0684.4331Z"/>
        <path class="cls-1" d="M33.1301,36.2151c.5244-.0631.4373.2227.3868.4711-.3979,1.9537-1.2419,3.6951-2.5495,5.197-1.649,1.8941-3.6999,3.1364-6.1589,3.6883-.7663.172-.8054.1347-.6458-.6452.8674-4.2364,4.5385-7.8658,8.7859-8.6851.0877-.0169.1771-.0255.1816-.0262Z"/>
      </g>
    </g>
  </g>
</svg>