<?xml version="1.0" encoding="UTF-8"?>
<svg id="Capa_2" xmlns="http://www.w3.org/2000/svg" viewBox="0 0 55.0867 55.1008">
  <defs>
    <style>
      .cls-1 {
        fill: #fff;
      }
    </style>
  </defs>
  <g id="Capa_1-2" data-name="Capa_1">
    <g>
      <g id="wYWrLT.tif">
        <g>
          <path class="cls-1" d="M28.4486,0c1.7201.3767,3.3513.9584,4.7711,2.0401,2.7152,2.0686,4.2219,4.7565,4.2239,8.2177.0018,3.1461.0019,6.2922-.0033,9.4383-.0003.2007.0926.4683-.1238.5825-.217.1146-.3789-.1238-.5496-.2282-2.0361-1.2458-4.2723-1.8898-6.6221-2.1434-2.8846-.3113-5.7427-.1597-8.5412.6742-1.1823.3523-2.3018.846-3.3467,1.5059-.156.0985-.3075.2947-.5066.2037-.2119-.0968-.1362-.3381-.1364-.5198-.0036-3.3571-.0446-6.7149.0091-10.0712.0786-4.9178,3.5106-8.7174,8.5933-9.6097.1311-.023.2598-.0599.3896-.0903.6143,0,1.2286,0,1.8428,0Z"/>
          <path class="cls-1" d="M0,18.889c.3047-1.8418.7698-3.6348,1.6046-5.317,1.8914-3.8111,4.814-6.6524,8.3794-8.8791,2.8894-1.8044,6.0219-3.0262,9.333-3.8001.1536-.0359.3196-.1544.4945-.0177-.0234.243-.2391.3361-.3828.4753-2.3963,2.3218-3.6064,5.1513-3.619,8.4845-.0121,3.2032-.0017,6.4065-.0064,9.6097-.0003.203.0929.471-.1002.5928-.2161.1363-.3751-.1209-.5449-.223-4.3981-2.647-8.8391-2.8611-13.3403-.2595-.6482.3747-1.127.9815-1.8181,1.292v-1.958Z"/>
          <path class="cls-1" d="M34.801.707c.9537.1288,1.8704.3924,2.78.6653,4.9054,1.4719,9.276,3.852,12.767,7.6698,2.6367,2.8836,4.2922,6.2407,4.7043,10.1615.042.3994.0342.805.0333,1.2076-.0009.3824-.1616.4372-.4581.2071-.4694-.3643-.9155-.7716-1.4249-1.0693-4.3649-2.5505-8.7171-2.376-13.0439.1122-.0996.0573-.1889.1332-.2901.1871-.1622.0863-.3008.3103-.5013.2065-.2004-.1038-.1155-.3453-.1158-.5265-.0049-3.1089-.002-6.2177-.0042-9.3266-.0027-3.6739-1.4032-6.704-4.195-9.092-.1105-.0945-.274-.1562-.2512-.4027Z"/>
          <path class="cls-1" d="M26.4667,24.1172c.0002-1.2851.0173-2.5706-.0084-3.8552-.0101-.5025.1869-.6688.6692-.6876,1.461-.057,1.4605-.0706,1.4605,1.3847,0,2.3401-.0115,19.5939.0091,21.9339.0043.4917-.1114.7159-.6433.6276-.2799-.0465-.5805-.0469-.8602.0002-.5422.0915-.6453-.1535-.6357-.6347.0255-1.2846.0087-17.4837.0089-18.7689Z"/>
        </g>
      </g>
      <path class="cls-1" d="M46.11,23.2314c-.2264-.2264-.5395-.347-.8591-.3304-.933.0474-9.2245.5713-12.9931,4.3398-2.8634,2.8634-3.5036,6.8568-1.731,9.6542-1.3643,1.3312-2.4258,2.9128-3.1376,4.6438-.1978-.4062-.4319-.7901-.7019-1.149-.4276-.5681-.9288-1.0625-1.4934-1.4803.2929-1.2548.1208-2.5879-.51-3.8383-.7583-1.5034-2.1189-2.7383-3.8312-3.4774-1.7744-.766-4.1985-.905-7.2045-.4125-2.2306.3653-4.0384.9677-4.2376,1.0353-.3017.1026-.5473.3291-.6736.6217s-.123.6266.0095.9175c.0873.1911.889,1.9203,2.1526,3.7935,1.7035,2.5253,3.4669,4.1942,5.2413,4.9603,1.0355.447,2.1049.6586,3.1325.6586,1.9869,0,3.8158-.7923,4.9348-2.2052.2588.2281.4946.4825.7051.7621.4347.5776.737,1.2571.8989,2.0194l.5458,2.5726c-.006.167-.01.3343-.01.502v7.1716c0,.6131.497,1.1101,1.1101,1.1101s1.1101-.497,1.1101-1.1101v-7.1716c0-3.1389,1.2528-6.1117,3.4669-8.2942,1.1152.8308,2.4782,1.2399,3.9026,1.2399,2.1291,0,4.3931-.9109,6.1631-2.681,3.7697-3.7697,4.2926-12.0601,4.3398-12.9926.0166-.3199-.104-.6333-.3304-.8598ZM20.8864,38.083c-.1811.4195-.5901.6705-1.0198.6705-.1468,0-.296-.0293-.4395-.0912l-4.4935-1.9398c-.5629-.243-.8222-.8963-.5793-1.4593.243-.5628.8964-.8221,1.4592-.5792l4.4936,1.9398c.5629.243.8222.8964.5793,1.4593ZM40.875,30.0366l-4.1878,4.1878c-.2168.2167-.5009.3252-.785.3252s-.5683-.1084-.785-.3252c-.4336-.4335-.4336-1.1364,0-1.57l4.1878-4.1878c.4335-.4335,1.1364-.4335,1.57,0,.4336.4336.4336,1.1365,0,1.57Z"/>
    </g>
  </g>
</svg>