<?xml version="1.0" encoding="UTF-8"?>
<svg id="Capa_2" xmlns="http://www.w3.org/2000/svg" viewBox="0 0 54.8647 54.8648">
  <defs>
    <style>
      .cls-1 {
        fill: #fff;
      }
    </style>
  </defs>
  <g id="Capa_1-2" data-name="Capa_1">
    <g>
      <path class="cls-1" d="M45.838,47.6317l-14.2295-24.6463c-1.8561-3.2147-6.4961-3.2147-8.3521,0l-14.2295,24.6463c-1.856,3.2147.464,7.2332,4.176,7.2332h28.459c3.7121,0,6.0321-4.0184,4.1761-7.2332h0ZM27.4324,48.4354c-.8877,0-1.6074-.7197-1.6074-1.6074s.7197-1.6074,1.6074-1.6074,1.6074.7197,1.6074,1.6074-.7197,1.6074-1.6074,1.6074h0ZM29.0398,40.3985c0,.8877-.7197,1.6074-1.6074,1.6074s-1.6074-.7197-1.6074-1.6074v-9.6442c0-.8877.7197-1.6074,1.6074-1.6074s1.6074.7197,1.6074,1.6074v9.6442Z"/>
      <g>
        <path class="cls-1" d="M17.5064,18.4c2.1133-2.3326,5.0352-3.919,8.3187-4.3134V0c-6.723.3859-12.9897,3.1863-17.7904,7.9868-.1572.1572-.3122.3162-.4651.4765l9.9368,9.9366Z"/>
        <path class="cls-1" d="M29.0398,14.0865c3.2834.3944,6.2054,1.9809,8.3187,4.3134l9.9366-9.9366c-.1529-.1603-.3079-.3192-.4651-.4765C42.0295,3.1863,35.7628.3859,29.0398,0v14.0865Z"/>
        <path class="cls-1" d="M5.4834,10.9234C1.9257,15.6464,0,21.3672,0,27.3845c0,.8877.7197,1.6074,1.6074,1.6074h10.8229c.8877,0,1.6074-.7197,1.6074-1.6074,0-2.284.5751-4.4359,1.5873-6.3194L5.4834,10.9234Z"/>
        <path class="cls-1" d="M49.3815,10.9234l-10.1417,10.1417c1.0122,1.8836,1.5873,4.0356,1.5873,6.3194,0,.8877.7197,1.6074,1.6074,1.6074h10.8229c.8877,0,1.6074-.7197,1.6074-1.6074.0001-6.0173-1.9256-11.7381-5.4833-16.4612h0Z"/>
      </g>
    </g>
  </g>
</svg>