<?xml version="1.0" encoding="UTF-8"?>
<svg id="Capa_2" xmlns="http://www.w3.org/2000/svg" viewBox="0 0 45.1177 42.0098">
  <defs>
    <style>
      .cls-1 {
        fill: #fff;
      }
    </style>
  </defs>
  <g id="Capa_1-2" data-name="Capa_1">
    <path class="cls-1" d="M45.1177,17.1973c-.1081.0908-.2286.1704-.3225.274-7.3021,8.0543-14.6022,16.1105-21.9026,24.1663-.0984.1085-.1998.2143-.3472.3722C15.0433,33.7317,7.5521,25.4656,0,17.1323h9.5781V0h25.9145v17.1091h9.625v.0882ZM24.4144,16.0884c.6373-.4103,1.2839-.8266,1.9362-1.2466-.4958-1.0771-1.1604-1.9147-2.2602-2.3466-.1135-.0446-.2201-.2513-.2295-.3896-.0295-.4325-.0108-.8682-.0108-1.301h-2.306c0,.3773-.0191.7281.0054,1.076.0244.3467-.076.5303-.4255.6852-2.4344,1.0788-2.8737,4.6023-.6215,6.1138.6057.4065,1.275.717,1.9027,1.0923.5387.322,1.0943.631,1.5796,1.0234.538.4351.5137,1.059.3186,1.6628-.1878.5813-.608.9209-1.2146,1.0131-1.1343.1726-1.8869-.3153-2.3779-1.5598-.1644-.4169-.2859-.8507-.4441-1.3284-.6225.3768-1.2013.7451-1.7987,1.08-.2409.1351-.2861.2895-.2262.5353.4074,1.6721,1.3481,2.8803,3.013,3.4434.2298.0777.2978.1817.2916.4041-.0117.4191-.0034.8388-.0034,1.2533h2.3069c0-.446.0098-.856-.0039-1.2653-.0075-.2252.0651-.3313.2915-.4061.8649-.2858,1.5326-.8306,2.0486-1.5855,1.0168-1.4875,1.0363-4.0764-.9733-5.3749-.4181-.2702-.8475-.5239-1.28-.7706-.573-.3268-1.1718-.6122-1.7243-.9699-.2571-.1664-.4992-.429-.6284-.7042-.2466-.5255-.0335-1.1479.4115-1.4467.4427-.2973,1.1795-.2331,1.5814.1968.3061.3274.5453.7174.8411,1.1156Z"/>
  </g>
</svg>