<?xml version="1.0" encoding="UTF-8"?>
<svg id="Capa_2" xmlns="http://www.w3.org/2000/svg" viewBox="0 0 57.4232 57.3487">
  <defs>
    <style>
      .cls-1 {
        fill: #fff;
      }
    </style>
  </defs>
  <g id="Capa_1-2" data-name="Capa_1">
    <g>
      <path class="cls-1" d="M17.7518,35.7745c-.2463-.4783-.4515-.9779-.7444-1.4194-.3481-.5247-.2757-.8734.1971-1.2954.7969-.7112,1.529-1.4961,2.2736-2.2643.2266-.2338.4318-.3766.7313-.1414,1.1471.9009,2.3.9397,3.4915.066.2398-.1758.5603-.2937.8569-.3302.9526-.1172,1.3601-.6756,1.578-1.571.2743-1.1272.3354-1.1123,1.5068-1.1123.9465,0,1.8933.0123,2.8394-.0066.3331-.0067.5561.0499.6086.4259.1904,1.3636.8566,2.2675,2.3153,2.4643.3314.0447.6781.2208.9482.4272.7666.5859,1.4511.4469,2.2298-.02.9875-.5919,1.0176-.5422,1.8531.2945.6688.6697,1.3275,1.3499,2.0103,2.005.2447.2348.3489.4457.1238.7352-.8559,1.1008-.9719,2.2107-.1012,3.3761.1891.2531.3072.5972.3507.9141.1364.994.7219,1.4226,1.6655,1.6359,1.0617.2401,1.0461.3088,1.0461,1.4303,0,.9877-.0119,1.9755.0067,2.9628.006.3222-.0827.5102-.4159.5523-1.434.1812-2.3119.9411-2.5241,2.4095-.0256.1772-.1032.3676-.2125.5086-.7924,1.0224-.6774,2.0135.078,2.9881.3283.4235.2283.7318-.1547,1.0881-.813.7562-1.5914,1.5512-2.3557,2.3572-.2638.2782-.4932.335-.7902.1119-1.087-.8166-2.1782-.962-3.328-.0975-.2693.2025-.6306.3412-.966.3859-.9498.1267-1.3598.6766-1.5768,1.5737-.2727,1.1274-.335,1.1123-1.5067,1.1123-.9465,0-1.8933-.0123-2.8394.0066-.333.0066-.5562-.0499-.6085-.426-.1896-1.364-.8563-2.267-2.3149-2.4631-.3314-.0446-.6785-.2202-.9483-.4269-.7661-.5868-1.4493-.4511-2.2293.018-.9882.5943-1.0188.5431-1.8534-.2939-.6683-.6702-1.3276-1.3498-2.0104-2.0049-.2445-.2346-.3517-.4473-.1237-.7348.8925-1.1253.9375-2.2581.0809-3.4347-.1749-.2402-.286-.5605-.3281-.8578-.1401-.99-.7096-1.4924-1.6738-1.6194-.2003-.0264-.3874-.1487-.5878-.1788-.3971-.0596-.4651-.2927-.4593-.6508.019-1.1725.016-2.3457.0014-3.5183-.004-.3241.03-.5657.4158-.614,1.4351-.1798,2.2717-.9444,2.5273-2.4114.095-.5449.4715-1.0408.7204-1.5588.0616-.1281.1259-.2549.1967-.3979ZM18.8356,42.4283c.0625,5.7199,4.4166,10.0221,10.0943,9.9741,5.2274-.0442,9.7275-4.6131,9.6621-9.8097-.0715-5.673-4.4949-10.0068-10.1525-9.9468-5.2146.0553-9.6607,4.584-9.6039,9.7824Z"/>
      <path class="cls-1" d="M6.6133,30.2788c-1.0777-1.0874-2.1179-2.1369-3.1858-3.2144.2731-.5542.5895-1.1312.8376-1.7361.0844-.2057.0623-.5081-.0229-.7217-.576-1.4446-1.1713-2.8819-1.7894-4.309-.098-.2263-.3422-.3895-.5204-.5803-.0123-.0131-.0385-.0127-.0578-.0199-.5922-.2208-1.398-.2828-1.7147-.7086-.2986-.4014-.0867-1.1858-.091-1.8018-.0051-.7201.0112-1.4406-.0069-2.1603-.0078-.3097.0545-.5223.3984-.5674,1.4533-.1907,2.1583-1.0181,2.4669-2.4635.2127-.9964.8609-1.8959,1.2722-2.8567.1039-.2427.1328-.5855.0457-.8285-.2185-.6103-.8106-1.2434-.7132-1.7668.0999-.5368.8384-.9566,1.3013-1.4236.478-.4822.9732-.9481,1.4361-1.4442.2184-.234.4176-.3124.681-.1106,1.1396.8731,2.1841.8265,3.4143.0031.876-.5863,2.0244-.7589,3.0363-1.1544.2267-.0886.4704-.3011.5685-.5186.2597-.5763.2786-1.4436.7017-1.7159.4859-.3127,1.3031-.1192,1.9767-.1295.6994-.0107,1.4003-.0236,2.0979.0135.1654.0088.4005.179.466.3333.2636.6206.3109,1.4345.7484,1.8514.438.4173,1.2668.3965,1.8866.6574.9245.3891,1.8289.8326,2.7145,1.3043.3057.1628.5254.2117.8399.0489.5772-.2987,1.2217-.8223,1.7597-.7399.5121.0784.9262.8086,1.3795,1.2562.4978.4916.9797.9998,1.4912,1.4765.2329.2171.3121.4159.1128.6783-.866,1.1408-.837,2.2019-.0295,3.4381.5673.8685.7463,1.9859,1.1414,2.9751.0973.2436.3232.5035.5567.6115.5731.265,1.4265.2812,1.7158.7054.3104.4552.1135,1.2619.1228,1.9154.0099.6994-.0142,1.3997.0093,2.0985.011.3268-.0945.5114-.4175.5555-1.4209.1942-2.1608.9826-2.4326,2.4177-.1597.8432-.6752,1.6215-1.0479,2.421-.2426.5203-.7882.9866-.0387,1.6631h-4.6811c-.2497.7546-.4741,1.5174-.7631,2.2549-.0887.2263-.341.3994-.544.5656-.1046.0857-.2876.0732-.3974.1555-1.2067.9055-2.2412.361-3.3134-.4341,3.4295-1.0781,6.0144-3.1565,7.5488-6.4023,1.5383-3.254,1.5221-6.5704.0813-9.8502-2.3538-5.3581-8.1754-8.116-13.8964-6.6338-5.4622,1.4152-9.254,6.8004-8.7197,12.4118.3262,3.4257,1.8069,6.2546,4.523,8.3832,2.7093,2.1233,5.8105,2.853,9.2064,2.3591-1.4853,1.4721-2.9376,2.9114-4.3898,4.3507.0062.0116-.0685-.0689-.0791-.1572-.1333-1.1121-.8159-1.5416-1.8583-1.8363-1.1501-.3251-2.207-.9722-3.3198-1.4427-.224-.0947-.5492-.1071-.7717-.0178-.5883.2361-1.1458.5487-1.737.8414Z"/>
      <path class="cls-1" d="M32.6861,11.2782c1.3333-.9464,2.8023-1.513,4.344-1.8978.3877-.0968.5981-.2661.6988-.6509.1193-.4557.3191-.8905.4377-1.3463.0909-.3491.2757-.4344.6168-.4287,1.1931.0201,2.387.0216,3.5801-.0008.3494-.0066.5518.0902.6027.44.202,1.3892.969,2.0932,2.3815,2.3915,1.0153.2145,1.9592.8219,2.8956,1.3268.3616.195.6136.2043.9506.0197.5376-.2945,1.0953-.5523,1.6116-.8093,1.0773,1.0822,2.1204,2.1302,3.1952,3.2099-.2691.5462-.5849,1.1231-.8336,1.7276-.0849.2064-.088.5315.0187.7181.7801,1.3641,1.3834,2.7936,1.792,4.3125.0605.2248.3323.3939.5112.5844.0244.026.0774.0238.1159.0381.5736.2139,1.3513.2749,1.661.6873.2899.3861.0897,1.1445.0946,1.7391.0061.7407-.0091,1.4817.0065,2.2222.0064.3033-.0403.525-.3915.5721-1.4461.1941-2.1624,1.0108-2.4772,2.4572-.2211,1.0162-.8769,1.9342-1.2985,2.9133-.0964.224-.0283.519-.0339.7814-.0004.0185.0158.0374.0248.056.2667.554.8139,1.1596.7239,1.6478-.0964.5228-.7868.9409-1.229,1.3938-.5031.5152-1.0288,1.0087-1.5236,1.5315-.215.2272-.4121.3213-.6793.1169-1.1366-.8697-2.1926-.8279-3.4267-.03-.8883.5744-2.0066.8115-3.043,1.1321-.7523.2327-1.1368-.0176-1.4086-.7429-.1369-.3653-.2825-.7279-.4401-1.0846-.3345-.7571-.3406-.7658.4983-.9088,2.1207-.3613,3.9744-1.2792,5.6146-2.655,5.9314-4.9755,5.3552-14.6067-1.1316-18.8315-3.5387-2.3048-7.2716-2.5866-11.1891-1.0865-.3447.132-.7807.0784-1.1658.035-.299-.0337-.5843-.1868-.8761-.2855q-.9224-.3118-1.2284-1.2957Z"/>
      <path class="cls-1" d="M35.6663,22.7912h9.8051v6.8891c-1.902,0-3.7862.0193-5.6691-.0238-.2425-.0055-.5015-.31-.7123-.5172q-1.1081-1.0897-2.5008-.382c-.2875.1465-.577.2892-.923.4624v-6.4285Z"/>
      <path class="cls-1" d="M13.9151,23.7413h-1.9425v-5.867h9.7844v5.8431h-1.9149v-3.8664h-5.927v3.8903Z"/>
      <path class="cls-1" d="M22.219,15.8246h-10.6924c1.8084-1.7833,3.6103-3.5602,5.3901-5.3152,1.709,1.7132,3.4909,3.4993,5.3024,5.3152Z"/>
      <path class="cls-1" d="M45.4751,20.7693c-.1327.0089-.2315.0212-.3302.0212-3.1427.001-6.2853.0008-9.4716.0008v-1.9387h9.8018v1.9166Z"/>
      <path class="cls-1" d="M15.9246,21.7916h1.876v1.9167h-1.876v-1.9167Z"/>
      <path class="cls-1" d="M30.7481,40.5144c-.3587-.8516-.5078-.9521-1.4242-.9535-.5143-.0008-1.0291-.0138-1.5429.0042-.6278.0219-1.0448.4331-1.0395.9917.0053.5584.4228.9576,1.0556.9756.5756.0164,1.152.0026,1.728.0043,1.6912.005,2.9827,1.1176,3.1342,2.6989.1476,1.5404-.9139,2.8776-2.5447,3.2033-.1185.0237-.2394.0352-.3961.0577v1.894h-1.973v-1.8535c-1.981-.4326-2.9205-1.3922-2.9577-3.003h1.8936c.3582.8513.508.9523,1.4245.9537.5143.0008,1.0291.0137,1.5429-.0042.6275-.0218,1.0447-.4333,1.0392-.9917-.0054-.5585-.4228-.9575-1.0559-.9756-.5756-.0165-1.152-.0026-1.728-.0043-1.6906-.0048-2.9824-1.1176-3.1341-2.6984-.1478-1.5407.9116-2.8757,2.5437-3.2031.1186-.0238.2397-.0351.3965-.0575v-1.8945h1.9731v1.852c1.9875.4401,2.9201,1.3926,2.9584,3.004h-1.8938Z"/>
    </g>
  </g>
</svg>