<?xml version="1.0" encoding="UTF-8"?>
<svg id="Capa_2" xmlns="http://www.w3.org/2000/svg" viewBox="0 0 48.7597 48.7546">
  <defs>
    <style>
      .cls-1 {
        fill: #fff;
      }
    </style>
  </defs>
  <g id="Capa_1-2" data-name="Capa_1">
    <g>
      <path class="cls-1" d="M25.0483,48.7546h-1.3332c-.1006-.0345-.1989-.0785-.302-.1023-2.1472-.4963-3.6398-2.3608-3.5842-4.5473.0105-.4136-.142-.5781-.4719-.7418-3.7327-1.8521-7.462-3.7111-11.1832-5.586-.32-.1612-.5086-.1374-.786.0839-1.6182,1.2906-3.858,1.3184-5.5249.0979-1.6505-1.2085-2.3007-3.3947-1.5582-5.3085.5039-1.2987,1.4451-2.1729,2.7231-2.6805.0088-.066.0205-.1129.0205-.1598.0014-3.824-.0017-7.6479.0099-11.4719.0009-.282-.1249-.3687-.3484-.4696C.2574,16.7615-.7176,13.8281.5807,11.4922c1.2981-2.3353,4.3161-3.0641,6.5342-1.559.2647.1796.4603.178.733.0607,3.8562-1.6584,7.715-3.3105,11.5779-4.9531.2868-.1219.3953-.2608.4007-.589C19.8671,1.9921,21.9021.0082,24.363,0c2.4637-.0082,4.5137,1.9563,4.5713,4.4162.0087.3694.1432.5126.4583.6464,3.8056,1.6155,7.6074,3.24,11.4023,4.8803.358.1547.6047.1517.9436-.0691,2.5656-1.6712,6.0094-.3572,6.8434,2.5901.0551.1948.1183.3872.1778.5808v1.3332c-.0351.1014-.0784.2009-.104.3047-.3598,1.4611-1.2116,2.5239-2.5678,3.1799-.1243.0601-.2486.1203-.3582.1734v11.9373c1.0367.4011,1.8696,1.0511,2.3963,2.0182.2754.5058.4265,1.0793.6337,1.6222v1.3332c-.0344.1007-.078.1993-.1018.3024-.7679,3.3231-4.6251,4.7036-7.2997,2.5969-.2702-.2128-.4505-.2261-.745-.0781-3.7613,1.8906-7.5271,3.7725-11.2998,5.6405-.3107.1538-.3822.3298-.3743.6562.0491,2.04-1.2306,3.8479-3.1313,4.4605-.2517.0811-.5063.1532-.7596.2295ZM6.1269,18.0308c-.0081.0302-.0232.0604-.0232.0906-.0025,3.8563-.0069,7.7126.0069,11.5688.0005.1348.1527.3297.2843.3944,1.8375.9024,2.7547,2.3724,2.7328,4.4131-.0032.2958.1036.4178.3413.5361,3.8017,1.8912,7.6008,3.7878,11.3971,5.69.238.1193.3937.1325.6254-.0576,1.7187-1.4095,4.0655-1.4105,5.7763-.0058.2241.184.3795.195.626.0712,3.7805-1.8998,7.5633-3.7951,11.3536-5.6754.3081-.1528.3804-.326.3824-.6535.0119-1.9587.903-3.395,2.6612-4.2609.289-.1424.3826-.2807.3816-.5947-.0115-3.6976-.0074-7.3952-.0074-11.0928,0-.1414,0-.2827,0-.4321-1.0566-.4181-1.8861-1.0783-2.4381-2.0575-.5572-.9886-.7238-2.0487-.5292-3.1549-.0637-.0398-.1006-.0702-.1428-.0882-3.8445-1.6468-7.6908-3.2893-11.5311-4.9458-.273-.1178-.3995.0028-.5709.1585-1.7691,1.6073-4.3744,1.612-6.137-.0026-.2236-.2048-.3891-.2344-.6609-.1174-3.7395,1.6104-7.4838,3.2098-11.2264,4.8131-.1265.0542-.2472.1218-.3615.1786.37,2.1103-.654,4.2852-2.9404,5.2249ZM44.1787,35.8014c.8241.0075,1.522-.6758,1.5315-1.4996.0096-.8327-.6566-1.5232-1.4878-1.542-.8484-.0192-1.5553.6726-1.5547,1.5218.0005.8292.6796,1.5122,1.5111,1.5198ZM24.3909,3.0477c-.8284-.0081-1.5215.6698-1.5308,1.4974-.0094.8338.6559,1.5256,1.4853,1.5443.8452.0191,1.5578-.6779,1.557-1.5229-.0007-.8293-.6788-1.5107-1.5115-1.5188ZM6.0953,13.7094c-.0008-.8304-.6781-1.5117-1.5112-1.52-.8289-.0082-1.5219.6697-1.5311,1.4978-.0095.8528.6839,1.5508,1.534,1.5442.8302-.0065,1.5091-.6916,1.5083-1.5221ZM6.0934,34.2957c.0064-.8342-.6595-1.5202-1.4911-1.536-.8478-.0161-1.5515.677-1.5489,1.5256.0025.8298.6804,1.5074,1.5144,1.5136.8222.0062,1.5193-.6808,1.5257-1.5033ZM25.903,44.1917c.0023-.8323-.6718-1.5189-1.5006-1.5285-.8462-.0098-1.5485.6906-1.542,1.5377.0064.8262.6943,1.5044,1.5257,1.5042.8238-.0003,1.5145-.6894,1.5168-1.5134ZM44.1849,12.1904c-.8284-.0006-1.5164.6847-1.5167,1.5106-.0003.8313.6747,1.52,1.5001,1.5305.8488.0108,1.5472-.6844,1.5419-1.5347-.0052-.8191-.7005-1.5058-1.5252-1.5064Z"/>
      <path class="cls-1" d="M45.7105,4.549c.0101.8291-.664,1.5263-1.4914,1.5423-.8506.0165-1.5548-.6762-1.5523-1.527.0024-.8325.6821-1.5135,1.5144-1.5173.8332-.0038,1.5192.6698,1.5293,1.5019Z"/>
      <path class="cls-1" d="M36.5733,24.4332c0,1.6822-.0129,3.3645.0057,5.0465.0087.7846-.3042,1.3267-1.0088,1.6773-3.4608,1.7223-6.9174,3.4531-10.3732,5.1854-.5524.2769-1.0808.273-1.637-.0066-3.4547-1.7365-6.913-3.4659-10.3748-5.1883-.6672-.332-.9964-.837-.9952-1.5857.0056-3.4437.005-6.8874-.0027-10.3311-.0017-.7644.3266-1.2907,1.0095-1.6309,3.4611-1.7239,6.9198-3.4525,10.3744-5.1894.558-.2806,1.0822-.2735,1.6351.0042,3.4404,1.7276,6.8826,3.4518,10.3298,5.1659.7212.3586,1.0471.9096,1.0396,1.7109-.0162,1.7138-.005,3.4278-.005,5.1417h.0025ZM15.28,21.5268c-.0207.1022-.0373.1462-.0373.1902-.0018,2.2503-.0093,4.5006.0125,6.7507.0016.1598.1852.3859.3427.466,2.2705,1.1543,4.5508,2.2892,6.8295,3.4272.1229.0614.2523.1096.3718.161.0275-.0384.0429-.0498.0429-.0613.0051-2.2973.0126-4.5947.0034-6.892-.0005-.1222-.1122-.302-.2215-.3573-2.4273-1.2282-4.8616-2.4426-7.3441-3.6845ZM25.9053,32.5792c2.5227-1.2617,4.9583-2.4738,7.3822-3.7087.1289-.0657.2235-.3231.2258-.4927.0177-1.2993.0082-2.599.0077-3.8985-.0004-.9625,0-1.925,0-2.9305-.1151.0405-.1895.058-.2561.0912-2.3637,1.1808-4.729,2.3586-7.0837,3.557-.136.0692-.2589.3056-.2636.4678-.0255.8868-.0122,1.7747-.0122,2.6622,0,1.3908,0,2.7816,0,4.2523ZM17.1627,19.0234c.1267.0836.1735.1218.2261.1481,2.2512,1.1283,4.5005,2.2603,6.7601,3.3715.1465.072.3997.0376.5574-.0403,2.1736-1.0723,4.3393-2.1604,6.5061-3.2465.1164-.0583.2248-.1324.391-.2313-2.1413-1.0705-4.2264-2.0709-6.2665-3.1562-.6906-.3674-1.2125-.3661-1.904.0019-2.0394,1.0853-4.1255,2.0826-6.2702,3.1527Z"/>
    </g>
  </g>
</svg>