<?xml version="1.0" encoding="UTF-8"?>
<svg id="Capa_2" xmlns="http://www.w3.org/2000/svg" viewBox="0 0 30.2214 46.8549">
  <defs>
    <style>
      .cls-1 {
        fill: #fff;
      }
    </style>
  </defs>
  <g id="Capa_1-2" data-name="Capa_1">
    <g>
      <path class="cls-1" d="M6.7861,46.8549c.0275-.9475-.0076-1.8822-.3401-2.7913-.9034-2.47-3.2394-4.0727-5.862-3.9985-.1669.0047-.3341.0006-.5407.0006v-4.5697c1.9203.1579,3.5999-.3824,4.9644-1.7431,1.3668-1.363,1.9233-3.037,1.7594-4.9905h16.6825c-.1521,1.929.3856,3.6222,1.7652,4.9947,1.3678,1.3608,3.0507,1.8865,4.978,1.7402v4.5063c-.729.0744-1.4527.0702-2.1372.2319-2.7985.6609-4.6814,3.1478-4.6222,6.0267.0041.1975.0033.3951.0048.5927H6.7861ZM15.1201,42.3139c2.4997-.0063,4.5477-2.0636,4.5248-4.5451-.0229-2.484-2.0398-4.4999-4.518-4.5159-2.4734-.016-4.5478,2.0503-4.551,4.5331-.0031,2.4898,2.0486,4.5342,4.5442,4.5279Z"/>
      <path class="cls-1" d="M1.8454,46.8549c-.221-.0913-.4504-.1665-.6613-.2769-.7032-.3682-1.1162-.9712-1.1551-1.7467-.0525-1.0466-.013-2.0978-.013-3.1771.895-.2091,1.737-.0612,2.5428.2855,1.8423.7926,2.9027,2.6425,2.6915,4.642-.0096.0908-.0131.1822-.0195.2733H1.8454Z"/>
      <path class="cls-1" d="M24.9938,46.8549c-.181-2.3133.7229-4.0248,2.5914-4.8754.821-.3737,1.6791-.5221,2.5877-.3489,0,1.1527.0815,2.2964-.0244,3.4224-.0938.9973-.8567,1.5158-1.7694,1.8019h-3.3853Z"/>
      <path class="cls-1" d="M6.8015,18.1094c.3635-4.023-2.9663-7.1352-6.7616-6.7622v-4.566c1.9092.16,3.6037-.3695,4.978-1.7463C6.384,3.6664,6.9301,1.9918,6.7668.0435h16.6839c-.1551,1.9241.3759,3.616,1.7572,4.9909,1.3693,1.3629,3.0412,1.9078,4.9819,1.7403v4.5909c-1.9274-.1575-3.6192.3866-4.9911,1.7617-1.3623,1.3655-1.9055,3.0428-1.7446,4.9821H6.8015ZM15.1135,4.5524c-2.4992-.0017-4.5473,2.0439-4.5375,4.532.0098,2.489,2.0804,4.5486,4.5535,4.5292,2.4733-.0195,4.4991-2.0487,4.5156-4.5232.0165-2.486-2.0309-4.5363-4.5315-4.5379Z"/>
      <path class="cls-1" d="M5.195.0092C5.7767,3.1411,2.9253,5.7872.0393,5.2115.0393,4.0933-.042,2.9629.0628,1.85.1622.7938,1.0657.0669,2.1504.0209c.8828-.0375,1.7684-.0102,2.6527-.0116.1208-.0002.2415,0,.3919,0Z"/>
      <path class="cls-1" d="M25.0203.0156c1.0506,0,2.0722-.0413,3.089.0106,1.2275.0627,2.0858.9984,2.1043,2.2203.0141.9297.003,1.8597.0019,2.7896,0,.0445-.0118.089-.0178.1312-2.2466.6845-5.7588-1.4837-5.1774-5.1517Z"/>
      <path class="cls-1" d="M5.1963,18.1254c-1.0649,0-2.1018.042-3.1338-.0111-1.1734-.0604-2.0285-.997-2.0505-2.1711-.0174-.9295-.0058-1.8596-.006-2.7894,0-.0598.0097-.1196.0146-.1759,2.5345-.6925,5.7839,1.7753,5.1757,5.1475Z"/>
      <path class="cls-1" d="M25.0173,18.122c-.4862-3.0915,2.0999-5.6807,5.2004-5.1875,0,.4983,0,1.01,0,1.5216.0001.4877.0086.9756-.0009,1.4632-.0227,1.1632-.8271,2.1087-1.9826,2.1874-1.0592.0721-2.1272.0153-3.217.0153Z"/>
      <path class="cls-1" d="M.0159,33.9302c0-1.0909-.0428-2.1576.0122-3.2192.0536-1.0357.9031-1.8897,1.9663-1.9554,1.0598-.0655,2.1269-.0144,3.1845-.0144.6142,2.7007-1.8435,5.7352-5.163,5.189Z"/>
      <path class="cls-1" d="M30.2168,33.9297c-3.083.5252-5.834-2.2456-5.1806-5.1752,1.0893,0,2.1898-.077,3.2745.0211,1.1484.1038,1.8897,1.0419,1.9037,2.2056.0117.9732.0024,1.9466.0024,2.9485Z"/>
      <path class="cls-1" d="M8.322,24.5011c0-1.338-.0042-2.676.0022-4.014.0024-.4989.2132-.7639.6151-.82.5196-.0725.8729.2294.8773.7861.0095,1.2041.002,2.4084.0015,3.6126,0,.1477,0,.2954,0,.4431.0407.0281.0813.0562.122.0843.2611-.2861.5123-.582.7857-.8558.388-.3887.8481-.4136,1.1644-.0845.3057.318.2804.7595-.0884,1.1338-.706.7167-1.4163,1.4293-2.1356,2.1326-.4063.3973-.7942.396-1.1994-.0007-.7188-.7038-1.4298-1.4157-2.1366-2.1316-.3632-.3678-.3847-.8212-.0747-1.1345.3132-.3165.766-.3,1.1342.0584.2819.2744.5472.5659.8199.8498.0375-.0199.075-.0397.1124-.0596Z"/>
      <path class="cls-1" d="M21.9027,22.3698c0,1.339.0053,2.678-.0027,4.017-.003.5062-.2458.778-.6772.8084-.502.0354-.8116-.2576-.8153-.8075-.0079-1.1722-.0012-2.3446-.0005-3.5169,0-.167,0-.3339,0-.631-.2344.2281-.3986.3873-.5621.547-.1524.1489-.2947.3098-.4581.4454-.3333.2767-.7441.2588-1.0303-.029-.287-.2886-.3208-.7179-.0215-1.0271.7623-.7873,1.538-1.5622,2.3286-2.3209.3039-.2916.6855-.2878.9889.0036.7903.759,1.5673,1.5327,2.3296,2.3199.2936.3032.2564.747-.0262,1.0292-.2862.2858-.717.317-1.0286.0247-.3171-.2975-.5939-.638-.8883-.9597-.0454.0323-.0909.0646-.1363.0969Z"/>
    </g>
  </g>
</svg>