<?xml version="1.0" encoding="UTF-8"?>
<svg id="Capa_2" xmlns="http://www.w3.org/2000/svg" viewBox="0 0 50.6821 40.4307">
  <defs>
    <style>
      .cls-1 {
        fill: #fff;
      }
    </style>
  </defs>
  <g id="Capa_1-2" data-name="Capa_1">
    <g>
      <path class="cls-1" d="M17.2035,17.4211c0,1.3252.0934,2.6578-.0187,3.9743-.2666,3.1216-1.682,5.6884-4.0279,7.7466-1.201,1.0547-2.5876,1.7852-4.1126,2.2427-.2666.0798-.603.0698-.8709-.0125C3.677,29.966.4976,26.0703.0777,21.3854c-.1159-1.304-.0611-2.6242-.0722-3.9369-.01-1.1506-.0037-2.3025-.0013-3.4532.0013-.829.4-1.2491,1.2185-1.2953,1.4863-.0823,2.6001-.7729,3.2554-2.1081.319-.6495.7638-.9113,1.4776-.9013,1.8252.0287,3.6516.0212,5.4769.0037.6267-.0062,1.0378.2481,1.3069.8066.6815,1.4174,1.8214,2.1392,3.3875,2.2053.6902.0299,1.1312.4862,1.1374,1.1868.01,1.1756.0025,2.3511.0025,3.528h-.0635ZM7.538,21.166c-.4324-.4575-.8248-.8926-1.2397-1.3052-.5245-.5211-1.1848-.5285-1.6557-.0424-.4436.46-.4099,1.132.0884,1.6369.6404.6495,1.2845,1.2977,1.9299,1.9435.5993.5996,1.2297.5996,1.8315-.0013,1.3256-1.3277,2.6499-2.6566,3.9718-3.9867.1134-.1147.2205-.2406.3052-.3777.3252-.5223.1694-1.1806-.3489-1.5097-.4834-.3079-1.0191-.2294-1.4938.2369-.6778.667-1.3456,1.3426-2.0158,2.0158-.4398.4413-.8771.8864-1.3729,1.39"/>
      <path class="cls-1" d="M41.4915,0c.4659.6819.9481,1.3539,1.3929,2.0495.6317.9873.5868,1.9348-.3327,2.7177-.8235.6994-1.7293.6507-2.5291-.0224-.9369-.7904-.892-1.7615-.2579-2.7227.4572-.6944.973-1.3489,1.4615-2.0221h.2654Z"/>
      <path class="cls-1" d="M30.1073,0c.5245.7031,1.0976,1.3763,1.5623,2.118.5818.9275.542,1.8612-.3252,2.6192-.8136.7118-1.7081.6919-2.5292.0324-.892-.7181-.978-1.6231-.3812-2.5843.4559-.7355.9381-1.4573,1.4078-2.1854h.2654Z"/>
      <path class="cls-1" d="M36.6868,22.2867c0,5.0688-.0224,9.9195.0398,14.7689.0049.4264.5806,1.1968.8759,1.1905.4635-.0112,1.1063-.4513,1.3293-.8851.3414-.6719.5981-1.4947,1.4316-1.011.3987.2319.6192,1.213.5158,1.7815-.2704,1.4698-1.9174,2.4696-3.4262,2.2751-1.6421-.2132-2.8219-1.5221-2.8344-3.2898-.0299-4.4118-.01-8.8249-.0112-13.2368v-1.5521c-1.7255.48-2.3049,1.6805-2.6151,3.1989-.0885.4288-.6578.7592-1.0054,1.1332-.3314-.3466-.7002-.6657-.9768-1.0509-.1395-.1945-.0997-.5123-.162-.7692-.6429-2.6478-3.8597-3.7312-5.8444-1.8737-.6242.5834-.8273,1.5994-1.3056,2.3636-.2853.4575-.7326.8141-1.1076,1.2155-.3153-.5036-.9133-1.0123-.902-1.5084.1819-7.8538,6.8598-14.269,14.8957-14.3912,7.9636-.1209,14.7274,6.3167,15.0925,14.3525.0362.7829-.0884,1.5022-.9904,1.5695-.8634.0636-.978-.6445-1.1013-1.3464-.3339-1.8899-1.7417-3.0804-3.5633-3.1004-1.8712-.0224-3.1856,1.1843-3.6604,3.1565-.1258.5248-.684.9449-1.0441,1.4124-.3575-.4712-.902-.8963-1.0353-1.4237-.3476-1.3713-.983-2.396-2.5951-2.9795"/>
      <path class="cls-1" d="M25.8554,5.0815c.6989,1.0023,1.3218,1.7391,1.7641,2.5718.4623.8676.2355,1.7378-.5506,2.3412-.8223.6333-1.7255.627-2.5217-.0561-.7525-.647-.9356-1.4947-.4261-2.3624.4622-.7841,1.0378-1.5034,1.7343-2.4945"/>
      <path class="cls-1" d="M45.5083,5.109c.6591.945,1.262,1.6817,1.7192,2.4995.5196.9287.2691,1.8089-.5731,2.4322-.7899.5847-1.662.5585-2.4183-.0698-.806-.6695-.993-1.5533-.441-2.4634.4672-.7704,1.0453-1.4735,1.7131-2.3985"/>
      <path class="cls-1" d="M35.6721,2.4708c.7076,1.0098,1.3069,1.7166,1.7367,2.517.4934.9188.2803,1.8176-.5706,2.4446-.7886.5822-1.6495.5597-2.4207-.0586-.7874-.6308-.9656-1.4984-.5058-2.3549.4436-.829,1.0665-1.5608,1.7605-2.5481"/>
    </g>
  </g>
</svg>